  0
SECTION
  2
HEADER
  9
$ACADVER
  1
AC1024
  9
$ACADMAINTVER
 70
     6
  9
$DWGCODEPAGE
  3
ANSI_1252
  9
$INSBASE
 10
0.0
 20
0.0
 30
0.0
  9
$EXTMIN
 10
1.000000000000000E+20
 20
1.000000000000000E+20
 30
1.000000000000000E+20
  9
$EXTMAX
 10
-1.000000000000000E+20
 20
-1.000000000000000E+20
 30
-1.000000000000000E+20
  9
$LIMMIN
 10
0.0
 20
0.0
  9
$LIMMAX
 10
12.0
 20
9.0
  9
$ORTHOMODE
 70
     0
  9
$REGENMODE
 70
     1
  9
$FILLMODE
 70
     1
  9
$QTEXTMODE
 70
     0
  9
$MIRRTEXT
 70
     1
  9
$LTSCALE
 40
1.0
  9
$ATTMODE
 70
     1
  9
$TEXTSIZE
 40
0.2
  9
$TRACEWID
 40
0.05
  9
$TEXTSTYLE
  7
Standard
  9
$CLAYER
  8
0
  9
$CELTYPE
  6
ByLayer
  9
$CECOLOR
 62
   256
  9
$CELTSCALE
 40
1.0
  9
$DISPSILH
 70
     0
  9
$DIMSCALE
 40
1.0
  9
$DIMASZ
 40
0.18
  9
$DIMEXO
 40
0.0625
  9
$DIMDLI
 40
0.38
  9
$DIMRND
 40
0.0
  9
$DIMDLE
 40
0.0
  9
$DIMEXE
 40
0.18
  9
$DIMTP
 40
0.0
  9
$DIMTM
 40
0.0
  9
$DIMTXT
 40
0.18
  9
$DIMCEN
 40
0.09
  9
$DIMTSZ
 40
0.0
  9
$DIMTOL
 70
     0
  9
$DIMLIM
 70
     0
  9
$DIMTIH
 70
     1
  9
$DIMTOH
 70
     1
  9
$DIMSE1
 70
     0
  9
$DIMSE2
 70
     0
  9
$DIMTAD
 70
     0
  9
$DIMZIN
 70
     0
  9
$DIMBLK
  1

  9
$DIMASO
 70
     1
  9
$DIMSHO
 70
     1
  9
$DIMPOST
  1

  9
$DIMAPOST
  1

  9
$DIMALT
 70
     0
  9
$DIMALTD
 70
     2
  9
$DIMALTF
 40
25.4
  9
$DIMLFAC
 40
1.0
  9
$DIMTOFL
 70
     0
  9
$DIMTVP
 40
0.0
  9
$DIMTIX
 70
     0
  9
$DIMSOXD
 70
     0
  9
$DIMSAH
 70
     0
  9
$DIMBLK1
  1

  9
$DIMBLK2
  1

  9
$DIMSTYLE
  2
Standard
  9
$DIMCLRD
 70
     0
  9
$DIMCLRE
 70
     0
  9
$DIMCLRT
 70
     0
  9
$DIMTFAC
 40
1.0
  9
$DIMGAP
 40
0.09
  9
$DIMJUST
 70
     0
  9
$DIMSD1
 70
     0
  9
$DIMSD2
 70
     0
  9
$DIMTOLJ
 70
     1
  9
$DIMTZIN
 70
     0
  9
$DIMALTZ
 70
     0
  9
$DIMALTTZ
 70
     0
  9
$DIMUPT
 70
     0
  9
$DIMDEC
 70
     4
  9
$DIMTDEC
 70
     4
  9
$DIMALTU
 70
     2
  9
$DIMALTTD
 70
     2
  9
$DIMTXSTY
  7
Standard
  9
$DIMAUNIT
 70
     0
  9
$DIMADEC
 70
     0
  9
$DIMALTRND
 40
0.0
  9
$DIMAZIN
 70
     0
  9
$DIMDSEP
 70
    46
  9
$DIMATFIT
 70
     3
  9
$DIMFRAC
 70
     0
  9
$DIMLDRBLK
  1

  9
$DIMLUNIT
 70
     2
  9
$DIMLWD
 70
    -2
  9
$DIMLWE
 70
    -2
  9
$DIMTMOVE
 70
     0
  9
$DIMFXL
 40
1.0
  9
$DIMFXLON
 70
     0
  9
$DIMJOGANG
 40
0.7853981633974483
  9
$DIMTFILL
 70
     0
  9
$DIMTFILLCLR
 70
     0
  9
$DIMARCSYM
 70
     0
  9
$DIMLTYPE
  6

  9
$DIMLTEX1
  6

  9
$DIMLTEX2
  6

  9
$DIMTXTDIRECTION
 70
     0
  9
$LUNITS
 70
     2
  9
$LUPREC
 70
     4
  9
$SKETCHINC
 40
0.1
  9
$FILLETRAD
 40
0.5
  9
$AUNITS
 70
     0
  9
$AUPREC
 70
     0
  9
$MENU
  1
.
  9
$ELEVATION
 40
0.0
  9
$PELEVATION
 40
0.0
  9
$THICKNESS
 40
0.0
  9
$LIMCHECK
 70
     0
  9
$CHAMFERA
 40
0.5
  9
$CHAMFERB
 40
0.5
  9
$CHAMFERC
 40
1.0
  9
$CHAMFERD
 40
0.0
  9
$SKPOLY
 70
     0
  9
$TDCREATE
 40
2458147.007594687
  9
$TDUCREATE
 40
2458146.965928021
  9
$TDUPDATE
 40
2458147.007594722
  9
$TDUUPDATE
 40
2458146.965928055
  9
$TDINDWG
 40
0.0000000116
  9
$TDUSRTIMER
 40
0.0000000116
  9
$USRTIMER
 70
     1
  9
$ANGBASE
 50
0.0
  9
$ANGDIR
 70
     0
  9
$PDMODE
 70
     0
  9
$PDSIZE
 40
0.0
  9
$PLINEWID
 40
0.0
  9
$SPLFRAME
 70
     0
  9
$SPLINETYPE
 70
     6
  9
$SPLINESEGS
 70
     8
  9
$HANDSEED
  5
A7
  9
$SURFTAB1
 70
     6
  9
$SURFTAB2
 70
     6
  9
$SURFTYPE
 70
     6
  9
$SURFU
 70
     6
  9
$SURFV
 70
     6
  9
$UCSBASE
  2

  9
$UCSNAME
  2

  9
$UCSORG
 10
0.0
 20
0.0
 30
0.0
  9
$UCSXDIR
 10
1.0
 20
0.0
 30
0.0
  9
$UCSYDIR
 10
0.0
 20
1.0
 30
0.0
  9
$UCSORTHOREF
  2

  9
$UCSORTHOVIEW
 70
     0
  9
$UCSORGTOP
 10
0.0
 20
0.0
 30
0.0
  9
$UCSORGBOTTOM
 10
0.0
 20
0.0
 30
0.0
  9
$UCSORGLEFT
 10
0.0
 20
0.0
 30
0.0
  9
$UCSORGRIGHT
 10
0.0
 20
0.0
 30
0.0
  9
$UCSORGFRONT
 10
0.0
 20
0.0
 30
0.0
  9
$UCSORGBACK
 10
0.0
 20
0.0
 30
0.0
  9
$PUCSBASE
  2

  9
$PUCSNAME
  2

  9
$PUCSORG
 10
0.0
 20
0.0
 30
0.0
  9
$PUCSXDIR
 10
1.0
 20
0.0
 30
0.0
  9
$PUCSYDIR
 10
0.0
 20
1.0
 30
0.0
  9
$PUCSORTHOREF
  2

  9
$PUCSORTHOVIEW
 70
     0
  9
$PUCSORGTOP
 10
0.0
 20
0.0
 30
0.0
  9
$PUCSORGBOTTOM
 10
0.0
 20
0.0
 30
0.0
  9
$PUCSORGLEFT
 10
0.0
 20
0.0
 30
0.0
  9
$PUCSORGRIGHT
 10
0.0
 20
0.0
 30
0.0
  9
$PUCSORGFRONT
 10
0.0
 20
0.0
 30
0.0
  9
$PUCSORGBACK
 10
0.0
 20
0.0
 30
0.0
  9
$USERI1
 70
     0
  9
$USERI2
 70
     0
  9
$USERI3
 70
     0
  9
$USERI4
 70
     0
  9
$USERI5
 70
     0
  9
$USERR1
 40
0.0
  9
$USERR2
 40
0.0
  9
$USERR3
 40
0.0
  9
$USERR4
 40
0.0
  9
$USERR5
 40
0.0
  9
$WORLDVIEW
 70
     1
  9
$SHADEDGE
 70
     3
  9
$SHADEDIF
 70
    70
  9
$TILEMODE
 70
     1
  9
$MAXACTVP
 70
    64
  9
$PINSBASE
 10
0.0
 20
0.0
 30
0.0
  9
$PLIMCHECK
 70
     0
  9
$PEXTMIN
 10
1.000000000000000E+20
 20
1.000000000000000E+20
 30
1.000000000000000E+20
  9
$PEXTMAX
 10
-1.000000000000000E+20
 20
-1.000000000000000E+20
 30
-1.000000000000000E+20
  9
$PLIMMIN
 10
0.0
 20
0.0
  9
$PLIMMAX
 10
12.0
 20
9.0
  9
$UNITMODE
 70
     0
  9
$VISRETAIN
 70
     1
  9
$PLINEGEN
 70
     0
  9
$PSLTSCALE
 70
     1
  9
$TREEDEPTH
 70
  3020
  9
$CMLSTYLE
  2
Standard
  9
$CMLJUST
 70
     0
  9
$CMLSCALE
 40
1.0
  9
$PROXYGRAPHICS
 70
     1
  9
$MEASUREMENT
 70
     0
  9
$CELWEIGHT
370
    -1
  9
$ENDCAPS
280
     0
  9
$JOINSTYLE
280
     0
  9
$LWDISPLAY
290
     1
  9
$INSUNITS
 70
     1
  9
$HYPERLINKBASE
  1

  9
$STYLESHEET
  1

  9
$XEDIT
290
     1
  9
$CEPSNTYPE
380
     0
  9
$PSTYLEMODE
290
     1
  9
$FINGERPRINTGUID
  2
{AC22DAD5-A5BC-460D-A9D5-7AA9FBFD758D}
  9
$VERSIONGUID
  2
{FAEB1C32-E019-11D5-929B-00C0DF256EC4}
  9
$EXTNAMES
290
     1
  9
$PSVPSCALE
 40
0.0
  9
$OLESTARTUP
290
     0
  9
$SORTENTS
280
   127
  9
$INDEXCTL
280
     0
  9
$HIDETEXT
280
     1
  9
$XCLIPFRAME
280
     2
  9
$HALOGAP
280
     0
  9
$OBSCOLOR
 70
   257
  9
$OBSLTYPE
280
     0
  9
$INTERSECTIONDISPLAY
280
     0
  9
$INTERSECTIONCOLOR
 70
   257
  9
$DIMASSOC
280
     2
  9
$PROJECTNAME
  1

  9
$CAMERADISPLAY
290
     0
  9
$LENSLENGTH
 40
50.0
  9
$CAMERAHEIGHT
 40
0.0
  9
$STEPSPERSEC
 40
2.0
  9
$STEPSIZE
 40
6.0
  9
$3DDWFPREC
 40
2.0
  9
$PSOLWIDTH
 40
0.25
  9
$PSOLHEIGHT
 40
4.0
  9
$LOFTANG1
 40
1.570796326794897
  9
$LOFTANG2
 40
1.570796326794897
  9
$LOFTMAG1
 40
0.0
  9
$LOFTMAG2
 40
0.0
  9
$LOFTPARAM
 70
     7
  9
$LOFTNORMALS
280
     1
  9
$LATITUDE
 40
37.795
  9
$LONGITUDE
 40
-122.394
  9
$NORTHDIRECTION
 40
0.0
  9
$TIMEZONE
 70
 -8000
  9
$LIGHTGLYPHDISPLAY
280
     1
  9
$TILEMODELIGHTSYNCH
280
     1
  9
$CMATERIAL
347
3C
  9
$SOLIDHIST
280
     1
  9
$SHOWHIST
280
     1
  9
$DWFFRAME
280
     2
  9
$DGNFRAME
280
     2
  9
$REALWORLDSCALE
290
     1
  9
$INTERFERECOLOR
 62
   256
  9
$CSHADOW
280
     0
  9
$SHADOWPLANELOCATION
 40
0.0
  0
ENDSEC
  0
SECTION
  2
CLASSES
  0
CLASS
  1
ACDBDICTIONARYWDFLT
  2
AcDbDictionaryWithDefault
  3
ObjectDBX Classes
 90
        0
 91
        4
280
     0
281
     0
  0
CLASS
  1
VISUALSTYLE
  2
AcDbVisualStyle
  3
ObjectDBX Classes
 90
     4095
 91
        4
280
     0
281
     0
  0
CLASS
  1
MATERIAL
  2
AcDbMaterial
  3
ObjectDBX Classes
 90
     1153
 91
        4
280
     0
281
     0
  0
CLASS
  1
SUN
  2
AcDbSun
  3
SCENEOE
 90
     1024
 91
        4
280
     0
281
     0
  0
ENDSEC
  0
SECTION
  2
TABLES
  0
TABLE
  2
VPORT
  5
8
330
0
100
AcDbSymbolTable
 70
     1
  0
VPORT
  5
29
330
8
100
AcDbSymbolTableRecord
100
AcDbViewportTableRecord
  2
*Active
 70
     0
 10
0.0
 20
0.0
 11
1.0
 21
1.0
 12
0.0
 22
0.0
 13
0.0
 23
0.0
 14
0.5
 24
0.5
 15
0.5
 25
0.5
 16
0.0
 26
0.0
 36
1.0
 17
105.0007777515277
 27
-148.5000416295416
 37
0.0
 40
297.0000832590831
 41
0.7070757462376333
 42
50.0
 43
0.0
 44
0.0
 50
0.0
 51
0.0
 71
     0
 72
   100
 73
     1
 74
     3
 75
     0
 76
     0
 77
     0
 78
     0
281
     0
 65
     1
110
0.0
120
0.0
130
0.0
111
1.0
121
0.0
131
0.0
112
0.0
122
1.0
132
0.0
 79
     0
146
0.0
 60
     3
 61
     5
292
     1
282
     1
141
0.0
142
0.0
 63
   250
361
3F
  0
ENDTAB
  0
TABLE
  2
LTYPE
  5
5
330
0
100
AcDbSymbolTable
 70
     1
  0
LTYPE
  5
14
330
5
100
AcDbSymbolTableRecord
100
AcDbLinetypeTableRecord
  2
ByBlock
 70
     0
  3

 72
    65
 73
     0
 40
0.0
  0
LTYPE
  5
15
330
5
100
AcDbSymbolTableRecord
100
AcDbLinetypeTableRecord
  2
ByLayer
 70
     0
  3

 72
    65
 73
     0
 40
0.0
  0
LTYPE
  5
16
330
5
100
AcDbSymbolTableRecord
100
AcDbLinetypeTableRecord
  2
Continuous
 70
     0
  3
Solid line
 72
    65
 73
     0
 40
0.0
  0
ENDTAB
  0
TABLE
  2
LAYER
  5
2
330
0
100
AcDbSymbolTable
 70
     2
  0
LAYER
  5
10
330
2
100
AcDbSymbolTableRecord
100
AcDbLayerTableRecord
  2
0
 70
     0
 62
     7
  6
Continuous
370
    -3
390
F
347
3E
  0
LAYER
  5
40
330
2
100
AcDbSymbolTableRecord
100
AcDbLayerTableRecord
  2
Layer 1
 70
     0
 62
     7
  6
Continuous
370
    -3
390
F
347
3E
  0
ENDTAB
  0
TABLE
  2
STYLE
  5
3
330
0
100
AcDbSymbolTable
 70
     1
  0
STYLE
  5
11
330
3
100
AcDbSymbolTableRecord
100
AcDbTextStyleTableRecord
  2
Standard
 70
     0
 40
0.0
 41
1.0
 50
0.0
 71
     0
 42
0.2
  3
txt
  4

  0
ENDTAB
  0
TABLE
  2
VIEW
  5
6
330
0
100
AcDbSymbolTable
 70
     0
  0
ENDTAB
  0
TABLE
  2
UCS
  5
7
330
0
100
AcDbSymbolTable
 70
     0
  0
ENDTAB
  0
TABLE
  2
APPID
  5
9
330
0
100
AcDbSymbolTable
 70
     1
  0
APPID
  5
12
330
9
100
AcDbSymbolTableRecord
100
AcDbRegAppTableRecord
  2
ACAD
 70
     0
  0
ENDTAB
  0
TABLE
  2
DIMSTYLE
  5
A
330
0
100
AcDbSymbolTable
 70
     1
100
AcDbDimStyleTable
  0
DIMSTYLE
105
27
330
A
100
AcDbSymbolTableRecord
100
AcDbDimStyleTableRecord
  2
Standard
 70
     0
178
     0
340
11
  0
ENDTAB
  0
TABLE
  2
BLOCK_RECORD
  5
1
330
0
100
AcDbSymbolTable
 70
     1
  0
BLOCK_RECORD
  5
1F
330
1
100
AcDbSymbolTableRecord
100
AcDbBlockTableRecord
  2
*Model_Space
340
22
 70
     0
280
     1
281
     0
  0
BLOCK_RECORD
  5
1B
330
1
100
AcDbSymbolTableRecord
100
AcDbBlockTableRecord
  2
*Paper_Space
340
1E
 70
     0
280
     1
281
     0
  0
BLOCK_RECORD
  5
23
330
1
100
AcDbSymbolTableRecord
100
AcDbBlockTableRecord
  2
*Paper_Space0
340
26
 70
     0
280
     1
281
     0
  0
ENDTAB
  0
ENDSEC
  0
SECTION
  2
BLOCKS
  0
BLOCK
  5
20
330
1F
100
AcDbEntity
  8
0
100
AcDbBlockBegin
  2
*Model_Space
 70
     0
 10
0.0
 20
0.0
 30
0.0
  3
*Model_Space
  1

  0
ENDBLK
  5
21
330
1F
100
AcDbEntity
  8
0
100
AcDbBlockEnd
  0
BLOCK
  5
1C
330
1B
100
AcDbEntity
 67
     1
  8
0
100
AcDbBlockBegin
  2
*Paper_Space
 70
     0
 10
0.0
 20
0.0
 30
0.0
  3
*Paper_Space
  1

  0
ENDBLK
  5
1D
330
1B
100
AcDbEntity
 67
     1
  8
0
100
AcDbBlockEnd
  0
BLOCK
  5
24
330
23
100
AcDbEntity
  8
0
100
AcDbBlockBegin
  2
*Paper_Space0
 70
     0
 10
0.0
 20
0.0
 30
0.0
  3
*Paper_Space0
  1

  0
ENDBLK
  5
25
330
23
100
AcDbEntity
  8
0
100
AcDbBlockEnd
  0
ENDSEC
  0
SECTION
  2
ENTITIES
  0
POLYLINE
  5
41
330
1F
100
AcDbEntity
  8
Layer 1
370
     0
100
AcDb2dPolyline
 66
     1
 10
0.0
 20
0.0
 30
0.0
  0
VERTEX
  5
42
330
41
100
AcDbEntity
  8
Layer 1
370
     0
100
AcDbVertex
100
AcDb2dVertex
 10
27.57633183363393
 20
-43.53988830415
 30
0.0
  0
VERTEX
  5
43
330
41
100
AcDbEntity
  8
Layer 1
370
     0
100
AcDbVertex
100
AcDb2dVertex
 10
27.57633183564469
 20
-55.61630185416212
 30
0.0
  0
VERTEX
  5
44
330
41
100
AcDbEntity
  8
Layer 1
370
     0
100
AcDbVertex
100
AcDb2dVertex
 10
48.96715937726621
 20
-55.57587939632165
 30
0.0
  0
VERTEX
  5
45
330
41
100
AcDbEntity
  8
Layer 1
370
     0
100
AcDbVertex
100
AcDb2dVertex
 10
48.96715937525577
 20
-43.49946584630889
 30
0.0
  0
VERTEX
  5
46
330
41
100
AcDbEntity
  8
Layer 1
370
     0
100
AcDbVertex
100
AcDb2dVertex
 10
48.99614724021392
 20
-43.49946584726437
 30
0.0
  0
VERTEX
  5
47
330
41
100
AcDbEntity
  8
Layer 1
370
     0
100
AcDbVertex
100
AcDb2dVertex
 10
56.13897136901632
 20
-43.49946584630247
 30
0.0
  0
VERTEX
  5
48
330
41
100
AcDbEntity
  8
Layer 1
370
     0
100
AcDbVertex
100
AcDb2dVertex
 10
61.29968251974989
 20
-43.49946584560686
 30
0.0
  0
VERTEX
  5
49
330
41
100
AcDbEntity
  8
Layer 1
370
     0
100
AcDbVertex
100
AcDb2dVertex
 10
61.29968252041758
 20
-49.18016994087337
 30
0.0
  0
VERTEX
  5
4A
330
41
100
AcDbEntity
  8
Layer 1
370
     0
100
AcDbVertex
100
AcDb2dVertex
 10
64.19968853843747
 20
-49.18016994048322
 30
0.0
  0
VERTEX
  5
4B
330
41
100
AcDbEntity
  8
Layer 1
370
     0
100
AcDbVertex
100
AcDb2dVertex
 10
64.19968853949564
 20
-57.03731308630539
 30
0.0
  0
VERTEX
  5
4C
330
41
100
AcDbEntity
  8
Layer 1
370
     0
100
AcDbVertex
100
AcDb2dVertex
 10
61.29968252147606
 20
-57.03731308669554
 30
0.0
  0
VERTEX
  5
4D
330
41
100
AcDbEntity
  8
Layer 1
370
     0
100
AcDbVertex
100
AcDb2dVertex
 10
61.29968252253422
 20
-64.89444546659432
 30
0.0
  0
VERTEX
  5
4E
330
41
100
AcDbEntity
  8
Layer 1
370
     0
100
AcDbVertex
100
AcDb2dVertex
 10
64.1996885405538
 20
-64.89444546620417
 30
0.0
  0
VERTEX
  5
4F
330
41
100
AcDbEntity
  8
Layer 1
370
     0
100
AcDbVertex
100
AcDb2dVertex
 10
64.19968854161196
 20
-72.75162090979651
 30
0.0
  0
VERTEX
  5
50
330
41
100
AcDbEntity
  8
Layer 1
370
     0
100
AcDbVertex
100
AcDb2dVertex
 10
61.29968252359238
 20
-72.75162091018667
 30
0.0
  0
VERTEX
  5
51
330
41
100
AcDbEntity
  8
Layer 1
370
     0
100
AcDbVertex
100
AcDb2dVertex
 10
61.29968252465086
 20
-80.60875329008545
 30
0.0
  0
VERTEX
  5
52
330
41
100
AcDbEntity
  8
Layer 1
370
     0
100
AcDbVertex
100
AcDb2dVertex
 10
64.19968854267044
 20
-80.6087532896953
 30
0.0
  0
VERTEX
  5
53
330
41
100
AcDbEntity
  8
Layer 1
370
     0
100
AcDbVertex
100
AcDb2dVertex
 10
64.1996885437286
 20
-88.46589105255578
 30
0.0
  0
VERTEX
  5
54
330
41
100
AcDbEntity
  8
Layer 1
370
     0
100
AcDbVertex
100
AcDb2dVertex
 10
61.29968252570902
 20
-88.46589105294593
 30
0.0
  0
VERTEX
  5
55
330
41
100
AcDbEntity
  8
Layer 1
370
     0
100
AcDbVertex
100
AcDb2dVertex
 10
61.29968252610367
 20
-92.0064102788037
 30
0.0
  0
VERTEX
  5
56
330
41
100
AcDbEntity
  8
Layer 1
370
     0
100
AcDbVertex
100
AcDb2dVertex
 10
56.13897137536979
 20
-92.0064102794993
 30
0.0
  0
VERTEX
  5
57
330
41
100
AcDbEntity
  8
Layer 1
370
     0
100
AcDbVertex
100
AcDb2dVertex
 10
47.78183601403939
 20
-92.00641028062485
 30
0.0
  0
VERTEX
  5
58
330
41
100
AcDbEntity
  8
Layer 1
370
     0
100
AcDbVertex
100
AcDb2dVertex
 10
47.78183601404132
 20
-92.01782804703409
 30
0.0
  0
VERTEX
  5
59
330
41
100
AcDbEntity
  8
Layer 1
370
     0
100
AcDbVertex
100
AcDb2dVertex
 10
47.78183601265525
 20
-81.11661105598881
 30
0.0
  0
VERTEX
  5
5A
330
41
100
AcDbEntity
  8
Layer 1
370
     0
100
AcDbVertex
100
AcDb2dVertex
 10
28.78183601740508
 20
-81.11661105854726
 30
0.0
  0
VERTEX
  5
5B
330
41
100
AcDbEntity
  8
Layer 1
370
     0
100
AcDbVertex
100
AcDb2dVertex
 10
28.78183601879115
 20
-92.01782804959319
 30
0.0
  0
VERTEX
  5
5C
330
41
100
AcDbEntity
  8
Layer 1
370
     0
100
AcDbVertex
100
AcDb2dVertex
 10
28.78183601878922
 20
-92.00641028318394
 30
0.0
  0
VERTEX
  5
5D
330
41
100
AcDbEntity
  8
Layer 1
370
     0
100
AcDbVertex
100
AcDb2dVertex
 10
20.4247000084303
 20
-92.00641028430948
 30
0.0
  0
VERTEX
  5
5E
330
41
100
AcDbEntity
  8
Layer 1
370
     0
100
AcDbVertex
100
AcDb2dVertex
 10
15.0108247205911
 20
-92.00641028503846
 30
0.0
  0
VERTEX
  5
5F
330
41
100
AcDbEntity
  8
Layer 1
370
     0
100
AcDbVertex
100
AcDb2dVertex
 10
15.01082472019645
 20
-88.46589105918068
 30
0.0
  0
VERTEX
  5
60
330
41
100
AcDbEntity
  8
Layer 1
370
     0
100
AcDbVertex
100
AcDb2dVertex
 10
12.11080793625349
 20
-88.46589105957148
 30
0.0
  0
VERTEX
  5
61
330
41
100
AcDbEntity
  8
Layer 1
370
     0
100
AcDbVertex
100
AcDb2dVertex
 10
12.11080793519501
 20
-80.60875329671099
 30
0.0
  0
VERTEX
  5
62
330
41
100
AcDbEntity
  8
Layer 1
370
     0
100
AcDbVertex
100
AcDb2dVertex
 10
15.01082471913829
 20
-80.6087532963202
 30
0.0
  0
VERTEX
  5
63
330
41
100
AcDbEntity
  8
Layer 1
370
     0
100
AcDbVertex
100
AcDb2dVertex
 10
15.01082471808013
 20
-72.75162091642142
 30
0.0
  0
VERTEX
  5
64
330
41
100
AcDbEntity
  8
Layer 1
370
     0
100
AcDbVertex
100
AcDb2dVertex
 10
12.11080793413717
 20
-72.75162091681221
 30
0.0
  0
VERTEX
  5
65
330
41
100
AcDbEntity
  8
Layer 1
370
     0
100
AcDbVertex
100
AcDb2dVertex
 10
12.11080793307836
 20
-64.89444547321986
 30
0.0
  0
VERTEX
  5
66
330
41
100
AcDbEntity
  8
Layer 1
370
     0
100
AcDbVertex
100
AcDb2dVertex
 10
15.01082471702165
 20
-64.89444547282908
 30
0.0
  0
VERTEX
  5
67
330
41
100
AcDbEntity
  8
Layer 1
370
     0
100
AcDbVertex
100
AcDb2dVertex
 10
15.01082471596349
 20
-57.03731309293029
 30
0.0
  0
VERTEX
  5
68
330
41
100
AcDbEntity
  8
Layer 1
370
     0
100
AcDbVertex
100
AcDb2dVertex
 10
12.11080793202052
 20
-57.03731309332108
 30
0.0
  0
VERTEX
  5
69
330
41
100
AcDbEntity
  8
Layer 1
370
     0
100
AcDbVertex
100
AcDb2dVertex
 10
12.11080793096236
 20
-49.18016994749891
 30
0.0
  0
VERTEX
  5
6A
330
41
100
AcDbEntity
  8
Layer 1
370
     0
100
AcDbVertex
100
AcDb2dVertex
 10
15.010824714905
 20
-49.18016994710812
 30
0.0
  0
VERTEX
  5
6B
330
41
100
AcDbEntity
  8
Layer 1
370
     0
100
AcDbVertex
100
AcDb2dVertex
 10
15.01082471423732
 20
-43.49946585184161
 30
0.0
  0
VERTEX
  5
6C
330
41
100
AcDbEntity
  8
Layer 1
370
     0
100
AcDbVertex
100
AcDb2dVertex
 10
20.42470000207684
 20
-43.49946585111265
 30
0.0
  0
VERTEX
  5
6D
330
41
100
AcDbEntity
  8
Layer 1
370
     0
100
AcDbVertex
100
AcDb2dVertex
 10
27.5675779604962
 20
-43.4994658501501
 30
0.0
  0
SEQEND
  5
6E
330
41
100
AcDbEntity
  8
Layer 1
370
     0
  0
SPLINE
  5
6F
330
1F
100
AcDbEntity
  8
Layer 1
370
     0
100
AcDbSpline
210
0.0
220
0.0
230
1.0
 70
    11
 71
     3
 72
    71
 73
    67
 74
     0
 42
0.0000000001
 43
0.0000000001
 12
1.0
 22
0.0
 32
0.0
 13
1.0
 23
0.0
 33
0.0
 40
0.0
 40
0.0
 40
0.0
 40
0.0
 40
1.0
 40
1.0
 40
1.0
 40
2.0
 40
2.0
 40
2.0
 40
3.0
 40
3.0
 40
3.0
 40
4.0
 40
4.0
 40
4.0
 40
5.0
 40
5.0
 40
5.0
 40
6.0
 40
6.0
 40
6.0
 40
7.0
 40
7.0
 40
7.0
 40
8.0
 40
8.0
 40
8.0
 40
9.0
 40
9.0
 40
9.0
 40
10.0
 40
10.0
 40
10.0
 40
11.0
 40
11.0
 40
11.0
 40
12.0
 40
12.0
 40
12.0
 40
13.0
 40
13.0
 40
13.0
 40
14.0
 40
14.0
 40
14.0
 40
15.0
 40
15.0
 40
15.0
 40
16.0
 40
16.0
 40
16.0
 40
17.0
 40
17.0
 40
17.0
 40
18.0
 40
18.0
 40
18.0
 40
19.0
 40
19.0
 40
19.0
 40
20.0
 40
20.0
 40
20.0
 40
21.0
 40
21.0
 40
21.0
 40
22.0
 40
22.0
 40
22.0
 40
22.0
 10
80.40912041140761
 20
-66.8894870967862
 30
0.0
 10
80.40912041140761
 20
-66.8894870967862
 30
0.0
 10
80.40912041159628
 20
-70.96911424946454
 30
0.0
 10
80.40912041159628
 20
-70.96911424946454
 30
0.0
 10
80.4091204116412
 20
-71.97345454055447
 30
0.0
 10
81.2168099558616
 20
-72.78632795361162
 30
0.0
 10
82.21378676068069
 20
-72.7863279535667
 30
0.0
 10
82.21378676068069
 20
-72.7863279535667
 30
0.0
 10
104.3937386032155
 20
-72.79605562059807
 30
0.0
 10
104.3937386032155
 20
-72.79605562059807
 30
0.0
 10
107.7161483918461
 20
-72.79605562044856
 30
0.0
 10
110.4091204002251
 20
-68.57245671014162
 30
0.0
 10
110.409120400075
 20
-65.22731645122589
 30
0.0
 10
110.409120400075
 20
-65.22689908473417
 30
0.0
 10
110.409120400075
 20
-65.22689908473417
 30
0.0
 10
110.409120400075
 20
-65.22689908473417
 30
0.0
 10
110.409120400075
 20
-65.22689908473417
 30
0.0
 10
110.4091203965675
 20
-13.23586137524301
 30
0.0
 10
110.4091203965675
 20
-13.23586137524301
 30
0.0
 10
110.4091203964173
 20
-9.890721116326004
 30
0.0
 10
107.7161483876609
 20
-5.68344337510855
 30
0.0
 10
104.3937385990291
 20
-5.683443375257424
 30
0.0
 10
104.3937385990291
 20
-5.683443375257424
 30
0.0
 10
104.3937385990291
 20
-5.683443375257424
 30
0.0
 10
104.3937385990291
 20
-5.683443375257424
 30
0.0
 10
104.3937385990291
 20
-5.683443375257424
 30
0.0
 10
82.21378675649585
 20
-5.686719433399909
 30
0.0
 10
82.21378675649585
 20
-5.686719433399909
 30
0.0
 10
81.21680995167677
 20
-5.686719433444829
 30
0.0
 10
80.40912040752951
 20
-6.50003629847162
 30
0.0
 10
80.40912040757475
 20
-7.503959223070479
 30
0.0
 10
80.40912040757475
 20
-7.503959223070479
 30
0.0
 10
80.40912040776244
 20
-11.68253003125295
 30
0.0
 10
80.40912040776244
 20
-11.68253003125295
 30
0.0
 10
80.40912040776244
 20
-11.68253003125295
 30
0.0
 10
95.40912040200212
 20
-11.68253002990666
 30
0.0
 10
95.40912040200212
 20
-11.68253002990666
 30
0.0
 10
95.40912040200212
 20
-11.68253002990666
 30
0.0
 10
95.40912040213816
 20
-14.71396258013212
 30
0.0
 10
95.40912040213816
 20
-14.71396258013212
 30
0.0
 10
95.40912040213816
 20
-14.71396258013212
 30
0.0
 10
82.08329576047734
 20
-14.71396258140397
 30
0.0
 10
82.08329576047734
 20
-14.71396258140397
 30
0.0
 10
82.08329576047734
 20
-14.71396258140397
 30
0.0
 10
80.40912040789881
 20
-14.71396258147841
 30
0.0
 10
80.40912040789881
 20
-14.71396258147841
 30
0.0
 10
80.40912040789881
 20
-14.71396258147841
 30
0.0
 10
80.40912040797356
 20
-16.3880806556577
 30
0.0
 10
80.40912040797356
 20
-16.3880806556577
 30
0.0
 10
80.40912040797356
 20
-16.3880806556577
 30
0.0
 10
80.40912041119522
 20
-60.04411335482684
 30
0.0
 10
80.40912041119522
 20
-60.04411335482684
 30
0.0
 10
80.40912041119522
 20
-60.04411335482684
 30
0.0
 10
80.4091204112706
 20
-63.71694679865087
 30
0.0
 10
80.4091204112706
 20
-63.71694679865087
 30
0.0
 10
80.4091204112706
 20
-63.71694679865087
 30
0.0
 10
82.08329576384946
 20
-63.71694679857579
 30
0.0
 10
82.08329576384946
 20
-63.71694679857579
 30
0.0
 10
82.08329576384946
 20
-63.71694679857579
 30
0.0
 10
95.40912040550965
 20
-63.71694679730394
 30
0.0
 10
95.40912040550965
 20
-63.71694679730394
 30
0.0
 10
95.40912040550965
 20
-63.71694679730394
 30
0.0
 10
95.40912040564697
 20
-66.88948709543926
 30
0.0
 10
95.40912040564697
 20
-66.88948709543926
 30
0.0
 10
95.40912040564697
 20
-66.88948709543926
 30
0.0
 10
80.40912041140761
 20
-66.8894870967862
 30
0.0
 10
80.40912041140761
 20
-66.8894870967862
 30
0.0
  0
POLYLINE
  5
70
330
1F
100
AcDbEntity
  8
Layer 1
370
     0
100
AcDb2dPolyline
 66
     1
 10
0.0
 20
0.0
 30
0.0
  0
VERTEX
  5
71
330
70
100
AcDbEntity
  8
Layer 1
370
     0
100
AcDbVertex
100
AcDb2dVertex
 10
83.34375133175816
 20
-28.50889788813654
 30
0.0
  0
VERTEX
  5
72
330
70
100
AcDbEntity
  8
Layer 1
370
     0
100
AcDbVertex
100
AcDb2dVertex
 10
83.34375133175816
 20
-20.65176012527606
 30
0.0
  0
VERTEX
  5
73
330
70
100
AcDbEntity
  8
Layer 1
370
     0
100
AcDbVertex
100
AcDb2dVertex
 10
86.2437681157008
 20
-20.6517601251458
 30
0.0
  0
VERTEX
  5
74
330
70
100
AcDbEntity
  8
Layer 1
370
     0
100
AcDbVertex
100
AcDb2dVertex
 10
86.24376811605342
 20
-28.50889788800627
 30
0.0
  0
VERTEX
  5
75
330
70
100
AcDbEntity
  8
Layer 1
370
     0
100
AcDbVertex
100
AcDb2dVertex
 10
83.34375133175816
 20
-28.50889788813654
 30
0.0
  0
SEQEND
  5
76
330
70
100
AcDbEntity
  8
Layer 1
370
     0
  0
POLYLINE
  5
77
330
1F
100
AcDbEntity
  8
Layer 1
370
     0
100
AcDb2dPolyline
 66
     1
 10
0.0
 20
0.0
 30
0.0
  0
VERTEX
  5
78
330
77
100
AcDbEntity
  8
Layer 1
370
     0
100
AcDbVertex
100
AcDb2dVertex
 10
83.34375133246306
 20
-44.22320571162766
 30
0.0
  0
VERTEX
  5
79
330
77
100
AcDbEntity
  8
Layer 1
370
     0
100
AcDbVertex
100
AcDb2dVertex
 10
83.34375133246306
 20
-36.36603026803532
 30
0.0
  0
VERTEX
  5
7A
330
77
100
AcDbEntity
  8
Layer 1
370
     0
100
AcDbVertex
100
AcDb2dVertex
 10
86.24376811640603
 20
-36.36603026790505
 30
0.0
  0
VERTEX
  5
7B
330
77
100
AcDbEntity
  8
Layer 1
370
     0
100
AcDbVertex
100
AcDb2dVertex
 10
86.24376811675896
 20
-44.2232057114974
 30
0.0
  0
VERTEX
  5
7C
330
77
100
AcDbEntity
  8
Layer 1
370
     0
100
AcDbVertex
100
AcDb2dVertex
 10
83.34375133246306
 20
-44.22320571162766
 30
0.0
  0
SEQEND
  5
7D
330
77
100
AcDbEntity
  8
Layer 1
370
     0
  0
POLYLINE
  5
7E
330
1F
100
AcDbEntity
  8
Layer 1
370
     0
100
AcDb2dPolyline
 66
     1
 10
0.0
 20
0.0
 30
0.0
  0
VERTEX
  5
7F
330
7E
100
AcDbEntity
  8
Layer 1
370
     0
100
AcDbVertex
100
AcDb2dVertex
 10
83.34375133316861
 20
-52.08033809152677
 30
0.0
  0
VERTEX
  5
80
330
7E
100
AcDbEntity
  8
Layer 1
370
     0
100
AcDbVertex
100
AcDb2dVertex
 10
86.24376811711157
 20
-52.08033809139619
 30
0.0
  0
VERTEX
  5
81
330
7E
100
AcDbEntity
  8
Layer 1
370
     0
100
AcDbVertex
100
AcDb2dVertex
 10
86.24376811746451
 20
-59.93748123721836
 30
0.0
  0
VERTEX
  5
82
330
7E
100
AcDbEntity
  8
Layer 1
370
     0
100
AcDbVertex
100
AcDb2dVertex
 10
83.34375133316861
 20
-59.93748098657456
 30
0.0
  0
VERTEX
  5
83
330
7E
100
AcDbEntity
  8
Layer 1
370
     0
100
AcDbVertex
100
AcDb2dVertex
 10
83.34375133316861
 20
-52.08033809152677
 30
0.0
  0
SEQEND
  5
84
330
7E
100
AcDbEntity
  8
Layer 1
370
     0
  0
SPLINE
  5
85
330
1F
100
AcDbEntity
  8
Layer 1
370
     0
100
AcDbSpline
210
0.0
220
0.0
230
1.0
 70
    11
 71
     3
 72
    71
 73
    67
 74
     0
 42
0.0000000001
 43
0.0000000001
 12
1.0
 22
0.0
 32
0.0
 13
1.0
 23
0.0
 33
0.0
 40
0.0
 40
0.0
 40
0.0
 40
0.0
 40
1.0
 40
1.0
 40
1.0
 40
2.0
 40
2.0
 40
2.0
 40
3.0
 40
3.0
 40
3.0
 40
4.0
 40
4.0
 40
4.0
 40
5.0
 40
5.0
 40
5.0
 40
6.0
 40
6.0
 40
6.0
 40
7.0
 40
7.0
 40
7.0
 40
8.0
 40
8.0
 40
8.0
 40
9.0
 40
9.0
 40
9.0
 40
10.0
 40
10.0
 40
10.0
 40
11.0
 40
11.0
 40
11.0
 40
12.0
 40
12.0
 40
12.0
 40
13.0
 40
13.0
 40
13.0
 40
14.0
 40
14.0
 40
14.0
 40
15.0
 40
15.0
 40
15.0
 40
16.0
 40
16.0
 40
16.0
 40
17.0
 40
17.0
 40
17.0
 40
18.0
 40
18.0
 40
18.0
 40
19.0
 40
19.0
 40
19.0
 40
20.0
 40
20.0
 40
20.0
 40
21.0
 40
21.0
 40
21.0
 40
22.0
 40
22.0
 40
22.0
 40
22.0
 10
113.7569449236056
 20
-66.8894870967862
 30
0.0
 10
113.7569449236056
 20
-66.8894870967862
 30
0.0
 10
113.7569449237943
 20
-70.96911424946454
 30
0.0
 10
113.7569449237943
 20
-70.96911424946454
 30
0.0
 10
113.7569449238392
 20
-71.97345454055447
 30
0.0
 10
114.5646344680599
 20
-72.78632795361162
 30
0.0
 10
115.5616112728787
 20
-72.7863279535667
 30
0.0
 10
115.5616112728787
 20
-72.7863279535667
 30
0.0
 10
137.7415631154135
 20
-72.79605562059807
 30
0.0
 10
137.7415631154135
 20
-72.79605562059807
 30
0.0
 10
141.063972904044
 20
-72.79605562044856
 30
0.0
 10
143.7569449124231
 20
-68.57245671014162
 30
0.0
 10
143.756944912273
 20
-65.22731645122589
 30
0.0
 10
143.756944912273
 20
-65.22689908473417
 30
0.0
 10
143.756944912273
 20
-65.22689908473417
 30
0.0
 10
143.756944912273
 20
-65.22689908473417
 30
0.0
 10
143.756944912273
 20
-65.22689908473417
 30
0.0
 10
143.7569449087654
 20
-13.23586137524301
 30
0.0
 10
143.7569449087654
 20
-13.23586137524301
 30
0.0
 10
143.7569449086153
 20
-9.890721116326004
 30
0.0
 10
141.0639728998589
 20
-5.68344337510855
 30
0.0
 10
137.7415631112271
 20
-5.683443375257424
 30
0.0
 10
137.7415631112271
 20
-5.683443375257424
 30
0.0
 10
137.7415631112271
 20
-5.683443375257424
 30
0.0
 10
137.7415631112271
 20
-5.683443375257424
 30
0.0
 10
137.7415631112271
 20
-5.683443375257424
 30
0.0
 10
115.5616112686935
 20
-5.686719433399909
 30
0.0
 10
115.5616112686935
 20
-5.686719433399909
 30
0.0
 10
114.5646344638748
 20
-5.686719433444829
 30
0.0
 10
113.7569449197278
 20
-6.50003629847162
 30
0.0
 10
113.7569449197727
 20
-7.503959223070479
 30
0.0
 10
113.7569449197727
 20
-7.503959223070479
 30
0.0
 10
113.7569449199601
 20
-11.68253003125295
 30
0.0
 10
113.7569449199601
 20
-11.68253003125295
 30
0.0
 10
113.7569449199601
 20
-11.68253003125295
 30
0.0
 10
128.7569449142001
 20
-11.68253002990666
 30
0.0
 10
128.7569449142001
 20
-11.68253002990666
 30
0.0
 10
128.7569449142001
 20
-11.68253002990666
 30
0.0
 10
128.7569449143361
 20
-14.71396258013212
 30
0.0
 10
128.7569449143361
 20
-14.71396258013212
 30
0.0
 10
128.7569449143361
 20
-14.71396258013212
 30
0.0
 10
115.4311202726756
 20
-14.71396258140397
 30
0.0
 10
115.4311202726756
 20
-14.71396258140397
 30
0.0
 10
115.4311202726756
 20
-14.71396258140397
 30
0.0
 10
113.7569449200968
 20
-14.71396258147841
 30
0.0
 10
113.7569449200968
 20
-14.71396258147841
 30
0.0
 10
113.7569449200968
 20
-14.71396258147841
 30
0.0
 10
113.7569449201719
 20
-16.3880806556577
 30
0.0
 10
113.7569449201719
 20
-16.3880806556577
 30
0.0
 10
113.7569449201719
 20
-16.3880806556577
 30
0.0
 10
113.7569449233932
 20
-60.04411335482684
 30
0.0
 10
113.7569449233932
 20
-60.04411335482684
 30
0.0
 10
113.7569449233932
 20
-60.04411335482684
 30
0.0
 10
113.7569449234689
 20
-63.71694679865087
 30
0.0
 10
113.7569449234689
 20
-63.71694679865087
 30
0.0
 10
113.7569449234689
 20
-63.71694679865087
 30
0.0
 10
115.4311202760471
 20
-63.71694679857579
 30
0.0
 10
115.4311202760471
 20
-63.71694679857579
 30
0.0
 10
115.4311202760471
 20
-63.71694679857579
 30
0.0
 10
128.7569449177076
 20
-63.71694679730394
 30
0.0
 10
128.7569449177076
 20
-63.71694679730394
 30
0.0
 10
128.7569449177076
 20
-63.71694679730394
 30
0.0
 10
128.7569449178449
 20
-66.88948709543926
 30
0.0
 10
128.7569449178449
 20
-66.88948709543926
 30
0.0
 10
128.7569449178449
 20
-66.88948709543926
 30
0.0
 10
113.7569449236056
 20
-66.8894870967862
 30
0.0
 10
113.7569449236056
 20
-66.8894870967862
 30
0.0
  0
POLYLINE
  5
86
330
1F
100
AcDbEntity
  8
Layer 1
370
     0
100
AcDb2dPolyline
 66
     1
 10
0.0
 20
0.0
 30
0.0
  0
VERTEX
  5
87
330
86
100
AcDbEntity
  8
Layer 1
370
     0
100
AcDbVertex
100
AcDb2dVertex
 10
116.6915758439558
 20
-28.50889788813654
 30
0.0
  0
VERTEX
  5
88
330
86
100
AcDbEntity
  8
Layer 1
370
     0
100
AcDbVertex
100
AcDb2dVertex
 10
116.6915758439558
 20
-20.65176012527606
 30
0.0
  0
VERTEX
  5
89
330
86
100
AcDbEntity
  8
Layer 1
370
     0
100
AcDbVertex
100
AcDb2dVertex
 10
119.5915926278988
 20
-20.6517601251458
 30
0.0
  0
VERTEX
  5
8A
330
86
100
AcDbEntity
  8
Layer 1
370
     0
100
AcDbVertex
100
AcDb2dVertex
 10
119.5915926282517
 20
-28.50889788800627
 30
0.0
  0
VERTEX
  5
8B
330
86
100
AcDbEntity
  8
Layer 1
370
     0
100
AcDbVertex
100
AcDb2dVertex
 10
116.6915758439558
 20
-28.50889788813654
 30
0.0
  0
SEQEND
  5
8C
330
86
100
AcDbEntity
  8
Layer 1
370
     0
  0
POLYLINE
  5
8D
330
1F
100
AcDbEntity
  8
Layer 1
370
     0
100
AcDb2dPolyline
 66
     1
 10
0.0
 20
0.0
 30
0.0
  0
VERTEX
  5
8E
330
8D
100
AcDbEntity
  8
Layer 1
370
     0
100
AcDbVertex
100
AcDb2dVertex
 10
116.691575844661
 20
-44.22320571162766
 30
0.0
  0
VERTEX
  5
8F
330
8D
100
AcDbEntity
  8
Layer 1
370
     0
100
AcDbVertex
100
AcDb2dVertex
 10
116.691575844661
 20
-36.36603026803532
 30
0.0
  0
VERTEX
  5
90
330
8D
100
AcDbEntity
  8
Layer 1
370
     0
100
AcDbVertex
100
AcDb2dVertex
 10
119.591592628604
 20
-36.36603026790505
 30
0.0
  0
VERTEX
  5
91
330
8D
100
AcDbEntity
  8
Layer 1
370
     0
100
AcDbVertex
100
AcDb2dVertex
 10
119.5915926289569
 20
-44.2232057114974
 30
0.0
  0
VERTEX
  5
92
330
8D
100
AcDbEntity
  8
Layer 1
370
     0
100
AcDbVertex
100
AcDb2dVertex
 10
116.691575844661
 20
-44.22320571162766
 30
0.0
  0
SEQEND
  5
93
330
8D
100
AcDbEntity
  8
Layer 1
370
     0
  0
POLYLINE
  5
94
330
1F
100
AcDbEntity
  8
Layer 1
370
     0
100
AcDb2dPolyline
 66
     1
 10
0.0
 20
0.0
 30
0.0
  0
VERTEX
  5
95
330
94
100
AcDbEntity
  8
Layer 1
370
     0
100
AcDbVertex
100
AcDb2dVertex
 10
116.6915758453663
 20
-52.08033809152677
 30
0.0
  0
VERTEX
  5
96
330
94
100
AcDbEntity
  8
Layer 1
370
     0
100
AcDbVertex
100
AcDb2dVertex
 10
119.5915926293092
 20
-52.08033809139619
 30
0.0
  0
VERTEX
  5
97
330
94
100
AcDbEntity
  8
Layer 1
370
     0
100
AcDbVertex
100
AcDb2dVertex
 10
119.5915926296622
 20
-59.93748123721836
 30
0.0
  0
VERTEX
  5
98
330
94
100
AcDbEntity
  8
Layer 1
370
     0
100
AcDbVertex
100
AcDb2dVertex
 10
116.6915758453663
 20
-59.93748098657456
 30
0.0
  0
VERTEX
  5
99
330
94
100
AcDbEntity
  8
Layer 1
370
     0
100
AcDbVertex
100
AcDb2dVertex
 10
116.6915758453663
 20
-52.08033809152677
 30
0.0
  0
SEQEND
  5
9A
330
94
100
AcDbEntity
  8
Layer 1
370
     0
  0
SPLINE
  5
9B
330
1F
100
AcDbEntity
  8
Layer 1
370
     0
100
AcDbSpline
210
0.0
220
0.0
230
1.0
 70
     8
 71
     3
 72
    89
 73
    85
 74
     0
 42
0.0000000001
 43
0.0000000001
 12
1.0
 22
0.0
 32
0.0
 13
1.0
 23
0.0
 33
0.0
 40
0.0
 40
0.0
 40
0.0
 40
0.0
 40
1.0
 40
1.0
 40
1.0
 40
2.0
 40
2.0
 40
2.0
 40
3.0
 40
3.0
 40
3.0
 40
4.0
 40
4.0
 40
4.0
 40
5.0
 40
5.0
 40
5.0
 40
6.0
 40
6.0
 40
6.0
 40
7.0
 40
7.0
 40
7.0
 40
8.0
 40
8.0
 40
8.0
 40
9.0
 40
9.0
 40
9.0
 40
10.0
 40
10.0
 40
10.0
 40
11.0
 40
11.0
 40
11.0
 40
12.0
 40
12.0
 40
12.0
 40
13.0
 40
13.0
 40
13.0
 40
14.0
 40
14.0
 40
14.0
 40
15.0
 40
15.0
 40
15.0
 40
16.0
 40
16.0
 40
16.0
 40
17.0
 40
17.0
 40
17.0
 40
18.0
 40
18.0
 40
18.0
 40
19.0
 40
19.0
 40
19.0
 40
20.0
 40
20.0
 40
20.0
 40
21.0
 40
21.0
 40
21.0
 40
22.0
 40
22.0
 40
22.0
 40
23.0
 40
23.0
 40
23.0
 40
24.0
 40
24.0
 40
24.0
 40
25.0
 40
25.0
 40
25.0
 40
26.0
 40
26.0
 40
26.0
 40
27.0
 40
27.0
 40
27.0
 40
28.0
 40
28.0
 40
28.0
 40
28.0
 10
66.32272798436952
 20
-97.65085480141542
 30
0.0
 10
66.32272798436952
 20
-97.65085480141542
 30
0.0
 10
70.50129879255294
 20
-97.65085480104067
 30
0.0
 10
70.50129879255294
 20
-97.65085480104067
 30
0.0
 10
71.50522171715085
 20
-97.65085480095019
 30
0.0
 10
72.31853858221453
 20
-98.45854434506055
 30
0.0
 10
72.31853858230437
 20
-99.45552114987996
 30
0.0
 10
72.31853858230437
 20
-99.45552114987996
 30
0.0
 10
72.3218146427897
 20
-121.6354729964318
 30
0.0
 10
72.3218146427897
 20
-121.6354729964318
 30
0.0
 10
72.3218146427897
 20
-121.6354729964318
 30
0.0
 10
72.3218146427897
 20
-121.6354729964318
 30
0.0
 10
72.3218146427897
 20
-121.6354729964318
 30
0.0
 10
72.32181464304253
 20
-124.4572602773921
 30
0.0
 10
69.28692201618883
 20
-126.8250066810426
 30
0.0
 10
66.32291960530507
 20
-127.4744856799123
 30
0.0
 10
66.32291960530507
 20
-127.4744856799123
 30
0.0
 10
66.32272798706337
 20
-127.4738589600398
 30
0.0
 10
66.32272798706337
 20
-127.4738589600398
 30
0.0
 10
66.32272798706337
 20
-127.4738589600398
 30
0.0
 10
66.32272798706337
 20
-112.6508547978391
 30
0.0
 10
66.32272798706337
 20
-112.6508547978391
 30
0.0
 10
66.32272798706337
 20
-112.6508547978391
 30
0.0
 10
63.29129543683791
 20
-112.6508547981112
 30
0.0
 10
63.29129543683791
 20
-112.6508547981112
 30
0.0
 10
63.29129543683791
 20
-112.6508547981112
 30
0.0
 10
63.29129543683791
 20
-127.6508547943097
 30
0.0
 10
63.29129543683791
 20
-127.6508547943097
 30
0.0
 10
63.29129543683791
 20
-127.6508547943097
 30
0.0
 10
63.29130308927221
 20
-127.650358993278
 30
0.0
 10
63.29130308927221
 20
-127.650358993278
 30
0.0
 10
63.29130308927221
 20
-127.650358993278
 30
0.0
 10
16.98047683235625
 20
-127.6348248240386
 30
0.0
 10
16.98047683235625
 20
-127.6348248240386
 30
0.0
 10
16.98047683235625
 20
-127.6348248240386
 30
0.0
 10
16.98048300317389
 20
-112.6343183421467
 30
0.0
 10
16.98048300317389
 20
-112.6343183421467
 30
0.0
 10
16.98048300317389
 20
-112.6343183421467
 30
0.0
 10
13.80794270503857
 20
-112.6343183424264
 30
0.0
 10
13.80794270503857
 20
-112.6343183424264
 30
0.0
 10
13.80794270503857
 20
-112.6343183424264
 30
0.0
 10
13.80794270503857
 20
-127.4329046969416
 30
0.0
 10
13.80794270503857
 20
-127.4329046969416
 30
0.0
 10
13.80794270503857
 20
-127.4329046969416
 30
0.0
 10
13.80791878034066
 20
-127.4336392090732
 30
0.0
 10
13.80791878034066
 20
-127.4336392090732
 30
0.0
 10
10.87481059683438
 20
-126.7511467624196
 30
0.0
 10
7.901374181207117
 20
-124.4066054486075
 30
0.0
 10
7.901374180956533
 20
-121.6189365420946
 30
0.0
 10
7.901374180956533
 20
-121.6189365420946
 30
0.0
 10
7.911101845645376
 20
-99.4389846955402
 30
0.0
 10
7.911101845645376
 20
-99.4389846955402
 30
0.0
 10
7.911101845555539
 20
-98.44200789072111
 30
0.0
 10
8.723975258576436
 20
-97.63431834646413
 30
0.0
 10
9.728315549666368
 20
-97.63431834637429
 30
0.0
 10
9.728315549666368
 20
-97.63431834637429
 30
0.0
 10
13.80794270234471
 20
-97.63431834572296
 30
0.0
 10
13.80794270234471
 20
-97.63431834572296
 30
0.0
 10
13.80794270234471
 20
-97.63431834572296
 30
0.0
 10
18.65670207119385
 20
-97.63431834557217
 30
0.0
 10
18.65670207119385
 20
-97.63431834557217
 30
0.0
 10
18.65670207119385
 20
-97.63431834557217
 30
0.0
 10
29.27959518593913
 20
-97.63840733681874
 30
0.0
 10
29.27959518593913
 20
-97.63840733681874
 30
0.0
 10
29.27959518593913
 20
-97.63840733681874
 30
0.0
 10
29.2794925061518
 20
-97.63431825731801
 30
0.0
 10
29.2794925061518
 20
-97.63431825731801
 30
0.0
 10
29.2794925061518
 20
-97.63431825731801
 30
0.0
 10
29.2794925061518
 20
-103.6480769428102
 30
0.0
 10
29.2794925061518
 20
-103.6480769428102
 30
0.0
 10
29.2794925061518
 20
-103.6480769428102
 30
0.0
 10
50.70806178586985
 20
-103.6480768306656
 30
0.0
 10
50.70806178586985
 20
-103.6480768306656
 30
0.0
 10
50.70806178586985
 20
-103.6480768306656
 30
0.0
 10
50.70806178586985
 20
-97.6343182563561
 30
0.0
 10
50.70806178586985
 20
-97.6343182563561
 30
0.0
 10
50.70806178586985
 20
-97.6343182563561
 30
0.0
 10
50.70789243536127
 20
-97.64665557192146
 30
0.0
 10
50.70789243536127
 20
-97.64665557192146
 30
0.0
 10
50.70789243536127
 20
-97.64665557192146
 30
0.0
 10
61.61717735996541
 20
-97.65085480183829
 30
0.0
 10
61.61717735996541
 20
-97.65085480183829
 30
0.0
 10
61.61717735996541
 20
-97.65085480183829
 30
0.0
 10
66.1648315849965
 20
-97.65085480168814
 30
0.0
 10
66.1648315849965
 20
-97.65085480168814
 30
0.0
  0
SPLINE
  5
9C
330
1F
100
AcDbEntity
  8
Layer 1
370
     0
100
AcDbSpline
210
0.0
220
0.0
230
1.0
 70
     8
 71
     3
 72
    89
 73
    85
 74
     0
 42
0.0000000001
 43
0.0000000001
 12
1.0
 22
0.0
 32
0.0
 13
1.0
 23
0.0
 33
0.0
 40
0.0
 40
0.0
 40
0.0
 40
0.0
 40
1.0
 40
1.0
 40
1.0
 40
2.0
 40
2.0
 40
2.0
 40
3.0
 40
3.0
 40
3.0
 40
4.0
 40
4.0
 40
4.0
 40
5.0
 40
5.0
 40
5.0
 40
6.0
 40
6.0
 40
6.0
 40
7.0
 40
7.0
 40
7.0
 40
8.0
 40
8.0
 40
8.0
 40
9.0
 40
9.0
 40
9.0
 40
10.0
 40
10.0
 40
10.0
 40
11.0
 40
11.0
 40
11.0
 40
12.0
 40
12.0
 40
12.0
 40
13.0
 40
13.0
 40
13.0
 40
14.0
 40
14.0
 40
14.0
 40
15.0
 40
15.0
 40
15.0
 40
16.0
 40
16.0
 40
16.0
 40
17.0
 40
17.0
 40
17.0
 40
18.0
 40
18.0
 40
18.0
 40
19.0
 40
19.0
 40
19.0
 40
20.0
 40
20.0
 40
20.0
 40
21.0
 40
21.0
 40
21.0
 40
22.0
 40
22.0
 40
22.0
 40
23.0
 40
23.0
 40
23.0
 40
24.0
 40
24.0
 40
24.0
 40
25.0
 40
25.0
 40
25.0
 40
26.0
 40
26.0
 40
26.0
 40
27.0
 40
27.0
 40
27.0
 40
28.0
 40
28.0
 40
28.0
 40
28.0
 10
13.90046084072268
 20
-35.75224360727133
 30
0.0
 10
13.90046084072268
 20
-35.75224360727133
 30
0.0
 10
9.72189003253957
 20
-35.75224360802084
 30
0.0
 10
9.72189003253957
 20
-35.75224360802084
 30
0.0
 10
8.717967107941353
 20
-35.75224360820179
 30
0.0
 10
7.90465024280515
 20
-34.94455406416459
 30
0.0
 10
7.904650242625796
 20
-33.94757725934519
 30
0.0
 10
7.904650242625796
 20
-33.94757725934519
 30
0.0
 10
7.901374180148954
 20
-11.76762541279332
 30
0.0
 10
7.901374180148954
 20
-11.76762541279332
 30
0.0
 10
7.901374180148954
 20
-11.76762541279332
 30
0.0
 10
7.901374180148954
 20
-11.76762541279332
 30
0.0
 10
7.901374180148954
 20
-11.76762541279332
 30
0.0
 10
7.901374179642333
 20
-8.945838131833012
 30
0.0
 10
10.93626680628364
 20
-6.578091727910502
 30
0.0
 10
13.90026921710899
 20
-5.928612728774442
 30
0.0
 10
13.90026921710899
 20
-5.928612728774442
 30
0.0
 10
13.90046083535069
 20
-5.929239448647306
 30
0.0
 10
13.90046083535069
 20
-5.929239448647306
 30
0.0
 10
13.90046083535069
 20
-5.929239448647306
 30
0.0
 10
13.9004608366819
 20
-20.75224361084764
 30
0.0
 10
13.9004608366819
 20
-20.75224361084764
 30
0.0
 10
13.9004608366819
 20
-20.75224361084764
 30
0.0
 10
16.93189338690736
 20
-20.75224361030347
 30
0.0
 10
16.93189338690736
 20
-20.75224361030347
 30
0.0
 10
16.93189338690736
 20
-20.75224361030347
 30
0.0
 10
16.93189338556044
 20
-5.752243614105011
 30
0.0
 10
16.93189338556044
 20
-5.752243614105011
 30
0.0
 10
16.93189338556044
 20
-5.752243614105011
 30
0.0
 10
16.93188573312613
 20
-5.752739415136632
 30
0.0
 10
16.93188573312613
 20
-5.752739415136632
 30
0.0
 10
16.93188573312613
 20
-5.752739415136632
 30
0.0
 10
63.24271199004369
 20
-5.768273580217244
 30
0.0
 10
63.24271199004369
 20
-5.768273580217244
 30
0.0
 10
63.24271199004369
 20
-5.768273580217244
 30
0.0
 10
63.24270582057266
 20
-20.76878006210916
 30
0.0
 10
63.24270582057266
 20
-20.76878006210916
 30
0.0
 10
63.24270582057266
 20
-20.76878006210916
 30
0.0
 10
66.41524611870798
 20
-20.76878006154447
 30
0.0
 10
66.41524611870798
 20
-20.76878006154447
 30
0.0
 10
66.41524611870798
 20
-20.76878006154447
 30
0.0
 10
66.41524611737935
 20
-5.970193707029303
 30
0.0
 10
66.41524611737935
 20
-5.970193707029303
 30
0.0
 10
66.41524611737935
 20
-5.970193707029303
 30
0.0
 10
66.41527004207725
 20
-5.969459194897672
 30
0.0
 10
66.41527004207725
 20
-5.969459194897672
 30
0.0
 10
69.34837822564482
 20
-6.651951641288197
 30
0.0
 10
72.32181464148256
 20
-8.996492954833332
 30
0.0
 10
72.32181464198341
 20
-11.78416186134623
 30
0.0
 10
72.32181464198341
 20
-11.78416186134623
 30
0.0
 10
72.31208697928608
 20
-33.96411370790131
 30
0.0
 10
72.31208697928608
 20
-33.96411370790131
 30
0.0
 10
72.31208697946543
 20
-34.96109051272072
 30
0.0
 10
71.49921356651737
 20
-35.76878005705053
 30
0.0
 10
70.49487327542711
 20
-35.76878005723021
 30
0.0
 10
70.49487327542711
 20
-35.76878005723021
 30
0.0
 10
66.41524612274877
 20
-35.76878005824795
 30
0.0
 10
66.41524612274877
 20
-35.76878005824795
 30
0.0
 10
66.41524612274877
 20
-35.76878005824795
 30
0.0
 10
61.56648675389963
 20
-35.76878005883446
 30
0.0
 10
61.56648675389963
 20
-35.76878005883446
 30
0.0
 10
61.56648675389963
 20
-35.76878005883446
 30
0.0
 10
49.49375239182661
 20
-35.76469106854145
 30
0.0
 10
49.49375239182661
 20
-35.76469106854145
 30
0.0
 10
49.49375239182661
 20
-35.76469106854145
 30
0.0
 10
49.49385507161394
 20
-35.76878014804218
 30
0.0
 10
49.49385507161394
 20
-35.76878014804218
 30
0.0
 10
49.49385507161394
 20
-35.76878014804218
 30
0.0
 10
49.49385507107395
 20
-29.75502146254997
 30
0.0
 10
49.49385507107395
 20
-29.75502146254997
 30
0.0
 10
49.49385507107395
 20
-29.75502146254997
 30
0.0
 10
30.49371906094726
 20
-29.75502157661903
 30
0.0
 10
30.49371906094726
 20
-29.75502157661903
 30
0.0
 10
30.49371906094726
 20
-29.75502157661903
 30
0.0
 10
30.49371906148725
 20
-35.76878015092886
 30
0.0
 10
30.49371906148725
 20
-35.76878015092886
 30
0.0
 10
30.49371906148725
 20
-35.76878015092886
 30
0.0
 10
30.49388841199423
 20
-35.75644283536318
 30
0.0
 10
30.49388841199423
 20
-35.75644283536318
 30
0.0
 10
30.49388841199423
 20
-35.75644283536318
 30
0.0
 10
18.60601146512678
 20
-35.75224360642557
 30
0.0
 10
18.60601146512678
 20
-35.75224360642557
 30
0.0
 10
18.60601146512678
 20
-35.75224360642557
 30
0.0
 10
14.05835724009568
 20
-35.75224360698449
 30
0.0
 10
14.05835724009568
 20
-35.75224360698449
 30
0.0
  0
POLYLINE
  5
9D
330
1F
100
AcDbEntity
  8
Layer 1
370
     0
100
AcDb2dPolyline
 66
     1
 10
0.0
 20
0.0
 30
0.0
  0
VERTEX
  5
9E
330
9D
100
AcDbEntity
  8
Layer 1
370
     0
100
AcDbVertex
100
AcDb2dVertex
 10
16.97595722462946
 20
-44.7341880686498
 30
0.0
  0
VERTEX
  5
A3
330
9D
100
AcDbEntity
  8
0
100
AcDbVertex
100
AcDb2dVertex
 10
16.97595722462946
 20
-44.7341880686498
 30
0.0
  0
SEQEND
  5
9F
330
9D
100
AcDbEntity
  8
Layer 1
370
     0
  0
POLYLINE
  5
A0
330
1F
100
AcDbEntity
  8
Layer 1
370
     0
100
AcDb2dPolyline
 66
     1
 10
0.0
 20
0.0
 30
0.0
  0
VERTEX
  5
A1
330
A0
100
AcDbEntity
  8
Layer 1
370
     0
100
AcDbVertex
100
AcDb2dVertex
 10
16.97595722462946
 20
-46.65387668443907
 30
0.0
  0
VERTEX
  5
A4
330
A0
100
AcDbEntity
  8
0
100
AcDbVertex
100
AcDb2dVertex
 10
16.97595722462946
 20
-46.65387668443907
 30
0.0
  0
SEQEND
  5
A2
330
A0
100
AcDbEntity
  8
Layer 1
370
     0
  0
ENDSEC
  0
SECTION
  2
OBJECTS
  0
DICTIONARY
  5
C
330
0
100
AcDbDictionary
281
     1
  3
ACAD_GROUP
350
D
  3
ACAD_LAYOUT
350
1A
  3
ACAD_MATERIAL
350
3B
  3
ACAD_MLEADERSTYLE
350
A6
  3
ACAD_MLINESTYLE
350
17
  3
ACAD_PLOTSETTINGS
350
19
  3
ACAD_PLOTSTYLENAME
350
E
  3
ACAD_TABLESTYLE
350
A5
  3
ACAD_VISUALSTYLE
350
2A
  0
SUN
  5
3F
330
29
100
AcDbSun
 90
        1
290
     0
 63
     7
421
 16777215
 40
1.0
291
     1
 91
  2455826
 92
 54000000
292
     0
 70
     2
 71
   256
280
     1
  0
DICTIONARY
  5
D
102
{ACAD_REACTORS
330
C
102
}
330
C
100
AcDbDictionary
281
     1
  0
DICTIONARY
  5
1A
102
{ACAD_REACTORS
330
C
102
}
330
C
100
AcDbDictionary
281
     1
  3
Layout1
350
1E
  3
Layout2
350
26
  3
Model
350
22
  0
DICTIONARY
  5
3B
102
{ACAD_REACTORS
330
C
102
}
330
C
100
AcDbDictionary
281
     1
  3
ByBlock
350
3D
  3
ByLayer
350
3C
  3
Global
350
3E
  0
DICTIONARY
  5
A6
102
{ACAD_REACTORS
330
C
102
}
330
C
100
AcDbDictionary
281
     1
  0
DICTIONARY
  5
17
102
{ACAD_REACTORS
330
C
102
}
330
C
100
AcDbDictionary
281
     1
  3
Standard
350
18
  0
DICTIONARY
  5
19
102
{ACAD_REACTORS
330
C
102
}
330
C
100
AcDbDictionary
281
     1
  0
ACDBDICTIONARYWDFLT
  5
E
102
{ACAD_REACTORS
330
C
102
}
330
C
100
AcDbDictionary
281
     1
  3
Normal
350
F
100
AcDbDictionaryWithDefault
340
F
  0
DICTIONARY
  5
A5
102
{ACAD_REACTORS
330
C
102
}
330
C
100
AcDbDictionary
281
     1
  0
DICTIONARY
  5
2A
102
{ACAD_REACTORS
330
C
102
}
330
C
100
AcDbDictionary
281
     1
  3
2dWireframe
350
2F
  3
3D Hidden
350
31
  3
3dWireframe
350
30
  3
Basic
350
32
  3
Brighten
350
36
  3
ColorChange
350
3A
  3
Conceptual
350
34
  3
Dim
350
35
  3
Facepattern
350
39
  3
Flat
350
2B
  3
FlatWithEdges
350
2C
  3
Gouraud
350
2D
  3
GouraudWithEdges
350
2E
  3
Linepattern
350
38
  3
Realistic
350
33
  3
Thicken
350
37
  0
LAYOUT
  5
1E
102
{ACAD_REACTORS
330
1A
102
}
330
1A
100
AcDbPlotSettings
  1

  2
none_device
  4

  6

 40
0.0
 41
0.0
 42
0.0
 43
0.0
 44
0.0
 45
0.0
 46
0.0
 47
0.0
 48
0.0
 49
0.0
140
0.0
141
0.0
142
1.0
143
1.0
 70
   688
 72
     0
 73
     0
 74
     5
  7

 75
    16
 76
     0
 77
     2
 78
   300
147
1.0
148
0.0
149
0.0
100
AcDbLayout
  1
Layout1
 70
     1
 71
     1
 10
0.0
 20
0.0
 11
12.0
 21
9.0
 12
0.0
 22
0.0
 32
0.0
 14
1.000000000000000E+20
 24
1.000000000000000E+20
 34
1.000000000000000E+20
 15
-1.000000000000000E+20
 25
-1.000000000000000E+20
 35
-1.000000000000000E+20
146
0.0
 13
0.0
 23
0.0
 33
0.0
 16
1.0
 26
0.0
 36
0.0
 17
0.0
 27
1.0
 37
0.0
 76
     0
330
1B
  0
LAYOUT
  5
26
102
{ACAD_REACTORS
330
1A
102
}
330
1A
100
AcDbPlotSettings
  1

  2
none_device
  4

  6

 40
0.0
 41
0.0
 42
0.0
 43
0.0
 44
0.0
 45
0.0
 46
0.0
 47
0.0
 48
0.0
 49
0.0
140
0.0
141
0.0
142
1.0
143
1.0
 70
   688
 72
     0
 73
     0
 74
     5
  7

 75
    16
 76
     0
 77
     2
 78
   300
147
1.0
148
0.0
149
0.0
100
AcDbLayout
  1
Layout2
 70
     1
 71
     2
 10
0.0
 20
0.0
 11
0.0
 21
0.0
 12
0.0
 22
0.0
 32
0.0
 14
0.0
 24
0.0
 34
0.0
 15
0.0
 25
0.0
 35
0.0
146
0.0
 13
0.0
 23
0.0
 33
0.0
 16
1.0
 26
0.0
 36
0.0
 17
0.0
 27
1.0
 37
0.0
 76
     0
330
23
  0
LAYOUT
  5
22
102
{ACAD_REACTORS
330
1A
102
}
330
1A
100
AcDbPlotSettings
  1

  2
none_device
  4

  6

 40
0.0
 41
0.0
 42
0.0
 43
0.0
 44
0.0
 45
0.0
 46
0.0
 47
0.0
 48
0.0
 49
0.0
140
0.0
141
0.0
142
1.0
143
1.0
 70
  1712
 72
     0
 73
     0
 74
     0
  7

 75
     0
 76
     0
 77
     2
 78
   300
147
1.0
148
0.0
149
0.0
100
AcDbLayout
  1
Model
 70
     1
 71
     0
 10
0.0
 20
0.0
 11
12.0
 21
9.0
 12
0.0
 22
0.0
 32
0.0
 14
1.000000000000000E+20
 24
1.000000000000000E+20
 34
1.000000000000000E+20
 15
-1.000000000000000E+20
 25
-1.000000000000000E+20
 35
-1.000000000000000E+20
146
0.0
 13
0.0
 23
0.0
 33
0.0
 16
1.0
 26
0.0
 36
0.0
 17
0.0
 27
1.0
 37
0.0
 76
     0
330
1F
331
29
  0
MATERIAL
  5
3D
102
{ACAD_REACTORS
330
3B
102
}
330
3B
100
AcDbMaterial
  1
ByBlock
 72
     1
 94
      127
  0
MATERIAL
  5
3C
102
{ACAD_REACTORS
330
3B
102
}
330
3B
100
AcDbMaterial
  1
ByLayer
 72
     1
 94
      127
  0
MATERIAL
  5
3E
102
{ACAD_REACTORS
330
3B
102
}
330
3B
100
AcDbMaterial
  1
Global
 72
     1
 94
      127
  0
MLINESTYLE
  5
18
102
{ACAD_REACTORS
330
17
102
}
330
17
100
AcDbMlineStyle
  2
Standard
 70
     0
  3

 62
   256
 51
90.0
 52
90.0
 71
     2
 49
0.5
 62
   256
  6
BYLAYER
 49
-0.5
 62
   256
  6
BYLAYER
  0
ACDBPLACEHOLDER
  5
F
102
{ACAD_REACTORS
330
E
102
}
330
E
  0
VISUALSTYLE
  5
2F
102
{ACAD_REACTORS
330
2A
102
}
330
2A
100
AcDbVisualStyle
  2
2dWireframe
 70
     4
177
     2
291
     0
 71
     0
176
     1
 72
     2
176
     1
 73
     0
176
     1
 90
        0
176
     1
 40
-0.6
176
     1
 41
-30.0
176
     1
 62
     5
 63
     7
421
 16777215
176
     1
 74
     1
176
     1
 91
        4
176
     1
 64
     7
176
     1
 65
   257
176
     1
 75
     1
176
     1
175
     1
176
     1
 42
1.0
176
     1
 92
        0
176
     1
 66
   257
176
     1
 43
1.0
176
     1
 76
     1
176
     1
 77
     6
176
     1
 78
     2
176
     1
 67
     7
176
     1
 79
     5
176
     1
170
     0
176
     1
171
     0
176
     1
290
     0
176
     1
 93
        1
176
     1
 44
0.0
176
     1
173
     0
176
     1
  0
VISUALSTYLE
  5
31
102
{ACAD_REACTORS
330
2A
102
}
330
2A
100
AcDbVisualStyle
  2
3D Hidden
 70
     6
177
     2
291
     0
 71
     1
176
     1
 72
     2
176
     1
 73
     2
176
     1
 90
        0
176
     1
 40
-0.6
176
     1
 41
-30.0
176
     1
 62
     5
 63
     7
421
 16777215
176
     1
 74
     2
176
     1
 91
        2
176
     1
 64
     7
176
     1
 65
   257
176
     1
 75
     2
176
     1
175
     1
176
     1
 42
40.0
176
     1
 92
        0
176
     1
 66
   257
176
     1
 43
1.0
176
     1
 76
     1
176
     1
 77
     6
176
     1
 78
     2
176
     1
 67
     7
176
     1
 79
     3
176
     1
170
     0
176
     1
171
     0
176
     1
290
     0
176
     1
 93
        1
176
     1
 44
0.0
176
     1
173
     0
176
     1
  0
VISUALSTYLE
  5
30
102
{ACAD_REACTORS
330
2A
102
}
330
2A
100
AcDbVisualStyle
  2
3dWireframe
 70
     5
177
     2
291
     0
 71
     0
176
     1
 72
     2
176
     1
 73
     0
176
     1
 90
        0
176
     1
 40
-0.6
176
     1
 41
-30.0
176
     1
 62
     5
 63
     7
421
 16777215
176
     1
 74
     1
176
     1
 91
        4
176
     1
 64
     7
176
     1
 65
   257
176
     1
 75
     1
176
     1
175
     1
176
     1
 42
1.0
176
     1
 92
        0
176
     1
 66
   257
176
     1
 43
1.0
176
     1
 76
     1
176
     1
 77
     6
176
     1
 78
     2
176
     1
 67
     7
176
     1
 79
     5
176
     1
170
     0
176
     1
171
     0
176
     1
290
     0
176
     1
 93
        1
176
     1
 44
0.0
176
     1
173
     0
176
     1
  0
VISUALSTYLE
  5
32
102
{ACAD_REACTORS
330
2A
102
}
330
2A
100
AcDbVisualStyle
  2
Basic
 70
     7
177
     2
291
     1
 71
     1
176
     1
 72
     0
176
     1
 73
     1
176
     1
 90
        0
176
     1
 40
-0.6
176
     1
 41
-30.0
176
     1
 62
     5
 63
     7
421
 16777215
176
     1
 74
     0
176
     1
 91
        4
176
     1
 64
     7
176
     1
 65
   257
176
     1
 75
     1
176
     1
175
     1
176
     1
 42
1.0
176
     1
 92
        8
176
     1
 66
     7
176
     1
 43
1.0
176
     1
 76
     1
176
     1
 77
     6
176
     1
 78
     2
176
     1
 67
     7
176
     1
 79
     5
176
     1
170
     0
176
     1
171
     0
176
     1
290
     0
176
     1
 93
        1
176
     1
 44
0.0
176
     1
173
     0
176
     1
  0
VISUALSTYLE
  5
36
102
{ACAD_REACTORS
330
2A
102
}
330
2A
100
AcDbVisualStyle
  2
Brighten
 70
    12
177
     2
291
     1
 71
     2
176
     1
 72
     2
176
     1
 73
     0
176
     1
 90
        0
176
     1
 40
-0.6
176
     1
 41
-30.0
176
     1
 62
     5
 63
     7
421
 16777215
176
     1
 74
     1
176
     1
 91
        4
176
     1
 64
     7
176
     1
 65
   257
176
     1
 75
     1
176
     1
175
     1
176
     1
 42
1.0
176
     1
 92
        8
176
     1
 66
     7
176
     1
 43
1.0
176
     1
 76
     1
176
     1
 77
     6
176
     1
 78
     2
176
     1
 67
     7
176
     1
 79
     5
176
     1
170
     0
176
     1
171
     0
176
     1
290
     0
176
     1
 93
        1
176
     1
 44
50.0
176
     1
173
     0
176
     1
  0
VISUALSTYLE
  5
3A
102
{ACAD_REACTORS
330
2A
102
}
330
2A
100
AcDbVisualStyle
  2
ColorChange
 70
    16
177
     2
291
     1
 71
     2
176
     1
 72
     2
176
     1
 73
     3
176
     1
 90
        0
176
     1
 40
-0.6
176
     1
 41
-30.0
176
     1
 62
     5
 63
     8
421
  8421504
176
     1
 74
     1
176
     1
 91
        4
176
     1
 64
     7
176
     1
 65
   257
176
     1
 75
     1
176
     1
175
     1
176
     1
 42
1.0
176
     1
 92
        8
176
     1
 66
     8
424
  8421504
176
     1
 43
1.0
176
     1
 76
     1
176
     1
 77
     6
176
     1
 78
     2
176
     1
 67
     7
176
     1
 79
     5
176
     1
170
     0
176
     1
171
     0
176
     1
290
     0
176
     1
 93
        1
176
     1
 44
0.0
176
     1
173
     0
176
     1
  0
VISUALSTYLE
  5
34
102
{ACAD_REACTORS
330
2A
102
}
330
2A
100
AcDbVisualStyle
  2
Conceptual
 70
     9
177
     2
291
     0
 71
     3
176
     1
 72
     2
176
     1
 73
     0
176
     1
 90
        0
176
     1
 40
-0.6
176
     1
 41
-30.0
176
     1
 62
     5
 63
     7
421
 16777215
176
     1
 74
     2
176
     1
 91
        2
176
     1
 64
     7
176
     1
 65
   257
176
     1
 75
     1
176
     1
175
     1
176
     1
 42
40.0
176
     1
 92
        8
176
     1
 66
     7
176
     1
 43
1.0
176
     1
 76
     1
176
     1
 77
     6
176
     1
 78
     2
176
     1
 67
     7
176
     1
 79
     3
176
     1
170
     0
176
     1
171
     0
176
     1
290
     0
176
     1
 93
        1
176
     1
 44
0.0
176
     1
173
     0
176
     1
  0
VISUALSTYLE
  5
35
102
{ACAD_REACTORS
330
2A
102
}
330
2A
100
AcDbVisualStyle
  2
Dim
 70
    11
177
     2
291
     1
 71
     2
176
     1
 72
     2
176
     1
 73
     0
176
     1
 90
        0
176
     1
 40
-0.6
176
     1
 41
-30.0
176
     1
 62
     5
 63
     7
421
 16777215
176
     1
 74
     1
176
     1
 91
        4
176
     1
 64
     7
176
     1
 65
   257
176
     1
 75
     1
176
     1
175
     1
176
     1
 42
1.0
176
     1
 92
        8
176
     1
 66
     7
176
     1
 43
1.0
176
     1
 76
     1
176
     1
 77
     6
176
     1
 78
     2
176
     1
 67
     7
176
     1
 79
     5
176
     1
170
     0
176
     1
171
     0
176
     1
290
     0
176
     1
 93
        1
176
     1
 44
-50.0
176
     1
173
     0
176
     1
  0
VISUALSTYLE
  5
39
102
{ACAD_REACTORS
330
2A
102
}
330
2A
100
AcDbVisualStyle
  2
Facepattern
 70
    15
177
     2
291
     1
 71
     2
176
     1
 72
     2
176
     1
 73
     0
176
     1
 90
        0
176
     1
 40
-0.6
176
     1
 41
-30.0
176
     1
 62
     5
 63
     7
421
 16777215
176
     1
 74
     1
176
     1
 91
        4
176
     1
 64
     7
176
     1
 65
   257
176
     1
 75
     1
176
     1
175
     1
176
     1
 42
1.0
176
     1
 92
        8
176
     1
 66
     7
176
     1
 43
1.0
176
     1
 76
     1
176
     1
 77
     6
176
     1
 78
     2
176
     1
 67
     7
176
     1
 79
     5
176
     1
170
     0
176
     1
171
     0
176
     1
290
     0
176
     1
 93
        1
176
     1
 44
0.0
176
     1
173
     0
176
     1
  0
VISUALSTYLE
  5
2B
102
{ACAD_REACTORS
330
2A
102
}
330
2A
100
AcDbVisualStyle
  2
Flat
 70
     0
177
     2
291
     1
 71
     2
176
     1
 72
     1
176
     1
 73
     1
176
     1
 90
        2
176
     1
 40
-0.6
176
     1
 41
30.0
176
     1
 62
     5
 63
     7
421
 16777215
176
     1
 74
     0
176
     1
 91
        4
176
     1
 64
     7
176
     1
 65
   257
176
     1
 75
     1
176
     1
175
     1
176
     1
 42
1.0
176
     1
 92
        8
176
     1
 66
     7
176
     1
 43
1.0
176
     1
 76
     1
176
     1
 77
     6
176
     1
 78
     2
176
     1
 67
     7
176
     1
 79
     5
176
     1
170
     0
176
     1
171
     0
176
     1
290
     0
176
     1
 93
       13
176
     1
 44
0.0
176
     1
173
     0
176
     1
  0
VISUALSTYLE
  5
2C
102
{ACAD_REACTORS
330
2A
102
}
330
2A
100
AcDbVisualStyle
  2
FlatWithEdges
 70
     1
177
     2
291
     1
 71
     2
176
     1
 72
     1
176
     1
 73
     1
176
     1
 90
        2
176
     1
 40
-0.6
176
     1
 41
30.0
176
     1
 62
     5
 63
     7
421
 16777215
176
     1
 74
     1
176
     1
 91
        4
176
     1
 64
     7
176
     1
 65
   257
176
     1
 75
     1
176
     1
175
     1
176
     1
 42
1.0
176
     1
 92
        0
176
     1
 66
   257
176
     1
 43
1.0
176
     1
 76
     1
176
     1
 77
     6
176
     1
 78
     2
176
     1
 67
     7
176
     1
 79
     5
176
     1
170
     0
176
     1
171
     0
176
     1
290
     0
176
     1
 93
       13
176
     1
 44
0.0
176
     1
173
     0
176
     1
  0
VISUALSTYLE
  5
2D
102
{ACAD_REACTORS
330
2A
102
}
330
2A
100
AcDbVisualStyle
  2
Gouraud
 70
     2
177
     2
291
     1
 71
     2
176
     1
 72
     2
176
     1
 73
     1
176
     1
 90
        2
176
     1
 40
-0.6
176
     1
 41
30.0
176
     1
 62
     5
 63
     7
421
 16777215
176
     1
 74
     0
176
     1
 91
        4
176
     1
 64
     7
176
     1
 65
   257
176
     1
 75
     1
176
     1
175
     1
176
     1
 42
1.0
176
     1
 92
        0
176
     1
 66
     7
176
     1
 43
1.0
176
     1
 76
     1
176
     1
 77
     6
176
     1
 78
     2
176
     1
 67
     7
176
     1
 79
     5
176
     1
170
     0
176
     1
171
     0
176
     1
290
     0
176
     1
 93
       13
176
     1
 44
0.0
176
     1
173
     0
176
     1
  0
VISUALSTYLE
  5
2E
102
{ACAD_REACTORS
330
2A
102
}
330
2A
100
AcDbVisualStyle
  2
GouraudWithEdges
 70
     3
177
     2
291
     1
 71
     2
176
     1
 72
     2
176
     1
 73
     1
176
     1
 90
        2
176
     1
 40
-0.6
176
     1
 41
30.0
176
     1
 62
     5
 63
     7
421
 16777215
176
     1
 74
     1
176
     1
 91
        4
176
     1
 64
     7
176
     1
 65
   257
176
     1
 75
     1
176
     1
175
     1
176
     1
 42
1.0
176
     1
 92
        0
176
     1
 66
   257
176
     1
 43
1.0
176
     1
 76
     1
176
     1
 77
     6
176
     1
 78
     2
176
     1
 67
     7
176
     1
 79
     5
176
     1
170
     0
176
     1
171
     0
176
     1
290
     0
176
     1
 93
       13
176
     1
 44
0.0
176
     1
173
     0
176
     1
  0
VISUALSTYLE
  5
38
102
{ACAD_REACTORS
330
2A
102
}
330
2A
100
AcDbVisualStyle
  2
Linepattern
 70
    14
177
     2
291
     1
 71
     2
176
     1
 72
     2
176
     1
 73
     0
176
     1
 90
        0
176
     1
 40
-0.6
176
     1
 41
-30.0
176
     1
 62
     5
 63
     7
421
 16777215
176
     1
 74
     1
176
     1
 91
        4
176
     1
 64
     7
176
     1
 65
   257
176
     1
 75
     7
176
     1
175
     7
176
     1
 42
1.0
176
     1
 92
        8
176
     1
 66
     7
176
     1
 43
1.0
176
     1
 76
     1
176
     1
 77
     6
176
     1
 78
     2
176
     1
 67
     7
176
     1
 79
     5
176
     1
170
     0
176
     1
171
     0
176
     1
290
     0
176
     1
 93
        1
176
     1
 44
0.0
176
     1
173
     0
176
     1
  0
VISUALSTYLE
  5
33
102
{ACAD_REACTORS
330
2A
102
}
330
2A
100
AcDbVisualStyle
  2
Realistic
 70
     8
177
     2
291
     0
 71
     2
176
     1
 72
     2
176
     1
 73
     0
176
     1
 90
        0
176
     1
 40
-0.6
176
     1
 41
-30.0
176
     1
 62
     5
 63
     7
421
 16777215
176
     1
 74
     1
176
     1
 91
        0
176
     1
 64
     7
176
     1
 65
   257
176
     1
 75
     1
176
     1
175
     1
176
     1
 42
1.0
176
     1
 92
        8
176
     1
 66
     8
424
  7895160
176
     1
 43
1.0
176
     1
 76
     1
176
     1
 77
     6
176
     1
 78
     2
176
     1
 67
     7
176
     1
 79
     5
176
     1
170
     0
176
     1
171
     0
176
     1
290
     0
176
     1
 93
       13
176
     1
 44
0.0
176
     1
173
     0
176
     1
  0
VISUALSTYLE
  5
37
102
{ACAD_REACTORS
330
2A
102
}
330
2A
100
AcDbVisualStyle
  2
Thicken
 70
    13
177
     2
291
     1
 71
     2
176
     1
 72
     2
176
     1
 73
     0
176
     1
 90
        0
176
     1
 40
-0.6
176
     1
 41
-30.0
176
     1
 62
     5
 63
     7
421
 16777215
176
     1
 74
     1
176
     1
 91
        4
176
     1
 64
     7
176
     1
 65
   257
176
     1
 75
     1
176
     1
175
     1
176
     1
 42
1.0
176
     1
 92
       12
176
     1
 66
     7
176
     1
 43
1.0
176
     1
 76
     1
176
     1
 77
     6
176
     1
 78
     2
176
     1
 67
     7
176
     1
 79
     5
176
     1
170
     0
176
     1
171
     0
176
     1
290
     0
176
     1
 93
        1
176
     1
 44
0.0
176
     1
173
     0
176
     1
  0
ENDSEC
  0
EOF
