  0
SECTION
  2
HEADER
  9
$ACADVER
  1
AC1009
  9
$DWGCODEPAGE
  3
ansi_1252
  9
$INSBASE
 10
0.0
 20
0.0
 30
0.0
  9
$EXTMIN
 10
0.4676137214841385
 20
0.0000000000000003
 30
0.3224072565189107
  9
$EXTMAX
 10
99.80537628164511
 20
0.0000000000000006
 30
79.65608148953385
  9
$LIMMIN
 10
0.0
 20
0.0
  9
$LIMMAX
 10
12.0
 20
9.0
  9
$ORTHOMODE
 70
     0
  9
$REGENMODE
 70
     1
  9
$FILLMODE
 70
     1
  9
$QTEXTMODE
 70
     0
  9
$MIRRTEXT
 70
     1
  9
$DRAGMODE
 70
     2
  9
$LTSCALE
 40
1.0
  9
$OSMODE
 70
    37
  9
$ATTMODE
 70
     1
  9
$TEXTSIZE
 40
0.2
  9
$TRACEWID
 40
0.05
  9
$TEXTSTYLE
  7
STANDARD
  9
$CLAYER
  8
DEFAULT
  9
$CELTYPE
  6
BYLAYER
  9
$CECOLOR
 62
   256
  9
$DIMSCALE
 40
1.0
  9
$DIMASZ
 40
0.18
  9
$DIMEXO
 40
0.0625
  9
$DIMDLI
 40
0.38
  9
$DIMRND
 40
0.0
  9
$DIMDLE
 40
0.0
  9
$DIMEXE
 40
0.18
  9
$DIMTP
 40
0.0
  9
$DIMTM
 40
0.0
  9
$DIMTXT
 40
0.18
  9
$DIMCEN
 40
0.09
  9
$DIMTSZ
 40
0.0
  9
$DIMTOL
 70
     0
  9
$DIMLIM
 70
     0
  9
$DIMTIH
 70
     1
  9
$DIMTOH
 70
     1
  9
$DIMSE1
 70
     0
  9
$DIMSE2
 70
     0
  9
$DIMTAD
 70
     0
  9
$DIMZIN
 70
     0
  9
$DIMBLK
  1

  9
$DIMASO
 70
     1
  9
$DIMSHO
 70
     1
  9
$DIMPOST
  1

  9
$DIMAPOST
  1

  9
$DIMALT
 70
     0
  9
$DIMALTD
 70
     2
  9
$DIMALTF
 40
25.4
  9
$DIMLFAC
 40
1.0
  9
$DIMTOFL
 70
     0
  9
$DIMTVP
 40
0.0
  9
$DIMTIX
 70
     0
  9
$DIMSOXD
 70
     0
  9
$DIMSAH
 70
     0
  9
$DIMBLK1
  1

  9
$DIMBLK2
  1

  9
$DIMSTYLE
  2
STANDARD
  9
$DIMCLRD
 70
     0
  9
$DIMCLRE
 70
     0
  9
$DIMCLRT
 70
     0
  9
$DIMTFAC
 40
1.0
  9
$DIMGAP
 40
0.09
  9
$LUNITS
 70
     2
  9
$LUPREC
 70
     3
  9
$SKETCHINC
 40
0.1
  9
$FILLETRAD
 40
0.5
  9
$AUNITS
 70
     0
  9
$AUPREC
 70
     0
  9
$MENU
  1
.
  9
$ELEVATION
 40
0.0
  9
$PELEVATION
 40
0.0
  9
$THICKNESS
 40
0.0
  9
$LIMCHECK
 70
     0
  9
$CHAMFERA
 40
0.0
  9
$CHAMFERB
 40
0.0
  9
$SKPOLY
 70
     0
  9
$TDCREATE
 40
2458075.969990764
  9
$TDUPDATE
 40
2458075.969990845
  9
$TDINDWG
 40
0.0000000116
  9
$TDUSRTIMER
 40
0.0000000116
  9
$USRTIMER
 70
     1
  9
$ANGBASE
 50
0.0
  9
$ANGDIR
 70
     0
  9
$PDMODE
 70
     0
  9
$PDSIZE
 40
0.0
  9
$PLINEWID
 40
0.0
  9
$COORDS
 70
     1
  9
$SPLFRAME
 70
     0
  9
$SPLINETYPE
 70
     6
  9
$SPLINESEGS
 70
     8
  9
$ATTDIA
 70
     0
  9
$ATTREQ
 70
     1
  9
$HANDLING
 70
     1
  9
$HANDSEED
  5
F5
  9
$SURFTAB1
 70
     6
  9
$SURFTAB2
 70
     6
  9
$SURFTYPE
 70
     6
  9
$SURFU
 70
     6
  9
$SURFV
 70
     6
  9
$UCSNAME
  2

  9
$UCSORG
 10
0.0
 20
0.0
 30
0.0
  9
$UCSXDIR
 10
1.0
 20
0.0
 30
0.0
  9
$UCSYDIR
 10
0.0
 20
1.0
 30
0.0
  9
$PUCSNAME
  2

  9
$PUCSORG
 10
0.0
 20
0.0
 30
0.0
  9
$PUCSXDIR
 10
1.0
 20
0.0
 30
0.0
  9
$PUCSYDIR
 10
0.0
 20
1.0
 30
0.0
  9
$USERI1
 70
     0
  9
$USERI2
 70
     0
  9
$USERI3
 70
     0
  9
$USERI4
 70
     0
  9
$USERI5
 70
     0
  9
$USERR1
 40
0.0
  9
$USERR2
 40
0.0
  9
$USERR3
 40
0.0
  9
$USERR4
 40
0.0
  9
$USERR5
 40
0.0
  9
$WORLDVIEW
 70
     1
  9
$SHADEDGE
 70
     3
  9
$SHADEDIF
 70
    70
  9
$TILEMODE
 70
     1
  9
$MAXACTVP
 70
    64
  9
$PLIMCHECK
 70
     0
  9
$PEXTMIN
 10
1.000000000000000E+20
 20
1.000000000000000E+20
 30
1.000000000000000E+20
  9
$PEXTMAX
 10
-1.000000000000000E+20
 20
-1.000000000000000E+20
 30
-1.000000000000000E+20
  9
$PLIMMIN
 10
0.0
 20
0.0
  9
$PLIMMAX
 10
12.0
 20
9.0
  9
$UNITMODE
 70
     0
  9
$VISRETAIN
 70
     1
  9
$PLINEGEN
 70
     0
  9
$PSLTSCALE
 70
     1
  0
ENDSEC
  0
SECTION
  2
TABLES
  0
TABLE
  2
VPORT
 70
     1
  0
VPORT
  2
*ACTIVE
 70
     0
 10
0.0
 20
0.0
 11
1.0
 21
1.0
 12
50.13649500156463
 22
0.0000000000000005
 13
0.0
 23
0.0
 14
0.5
 24
0.5
 15
0.5
 25
0.5
 16
0.0
 26
0.0
 36
1.0
 17
0.0
 27
0.0
 37
0.0
 40
63.32782363210262
 41
1.6
 42
50.0
 43
0.0
 44
0.0
 50
0.0
 51
0.0
 71
     0
 72
   100
 73
     1
 74
     3
 75
     0
 76
     0
 77
     0
 78
     0
  0
ENDTAB
  0
TABLE
  2
LTYPE
 70
     1
  0
LTYPE
  2
CONTINUOUS
 70
     0
  3
Solid line
 72
    65
 73
     0
 40
0.0
  0
ENDTAB
  0
TABLE
  2
LAYER
 70
     2
  0
LAYER
  2
0
 70
     0
 62
     7
  6
CONTINUOUS
  0
LAYER
  2
DEFAULT
 70
     0
 62
     7
  6
CONTINUOUS
  0
ENDTAB
  0
TABLE
  2
STYLE
 70
     1
  0
STYLE
  2
STANDARD
 70
     0
 40
0.0
 41
1.0
 50
0.0
 71
     0
 42
0.2
  3
txt
  4

  0
ENDTAB
  0
TABLE
  2
VIEW
 70
     0
  0
ENDTAB
  0
TABLE
  2
UCS
 70
     0
  0
ENDTAB
  0
TABLE
  2
APPID
 70
     1
  0
APPID
  2
ACAD
 70
     0
  0
ENDTAB
  0
TABLE
  2
DIMSTYLE
 70
     1
  0
DIMSTYLE
  2
STANDARD
 70
     0
  3

  4

  5

  6

  7

 40
1.0
 41
0.18
 42
0.0625
 43
0.38
 44
0.18
 45
0.0
 46
0.0
 47
0.0
 48
0.0
140
0.18
141
0.09
142
0.0
143
25.4
144
1.0
145
0.0
146
1.0
147
0.09
 71
     0
 72
     0
 73
     1
 74
     1
 75
     0
 76
     0
 77
     0
 78
     0
170
     0
171
     2
172
     0
173
     0
174
     0
175
     0
176
     0
177
     0
178
     0
  0
ENDTAB
  0
ENDSEC
  0
SECTION
  2
BLOCKS
  0
BLOCK
  8
0
  2
$MODEL_SPACE
 70
     0
 10
0.0
 20
0.0
 30
0.0
  3
$MODEL_SPACE
  1

  0
ENDBLK
  5
21
  8
0
  0
BLOCK
 67
     1
  8
0
  2
$PAPER_SPACE
 70
     0
 10
0.0
 20
0.0
 30
0.0
  3
$PAPER_SPACE
  1

  0
ENDBLK
  5
1D
 67
     1
  8
0
  0
ENDSEC
  0
SECTION
  2
ENTITIES
  0
LINE
  5
6F
  8
DEFAULT
 10
50.26549572321299
 20
0.0000000000000004
 30
0.8274736158069149
 11
40.67537182252588
 21
0.0000000000000004
 31
0.8274736158069149
  0
LINE
  5
70
  8
DEFAULT
 10
40.67537182252588
 20
0.0000000000000004
 30
0.8274736158069149
 11
40.64963818798554
 21
0.0000000000000004
 31
7.43109905037489
  0
LINE
  5
71
  8
DEFAULT
 10
40.64963818798554
 20
0.0000000000000004
 30
7.43109905037489
 11
40.83139640775686
 21
0.0000000000000004
 31
7.717163383197245
  0
LINE
  5
72
  8
DEFAULT
 10
40.83139640775686
 20
0.0000000000000004
 30
7.717163383197245
 11
43.83204229634849
 21
0.0000000000000004
 31
8.79932782643842
  0
LINE
  5
73
  8
DEFAULT
 10
43.83204229634849
 20
0.0000000000000004
 30
8.79932782643842
 11
50.2713391653878
 21
0.0000000000000004
 31
2.932105343767801
  0
LINE
  5
74
  8
DEFAULT
 10
50.2713391653878
 20
0.0000000000000004
 30
2.932105343767801
 11
50.26549572321299
 21
0.0000000000000004
 31
0.8274736158069149
  0
LINE
  5
75
  8
DEFAULT
 10
72.89758061052316
 20
0.0000000000000004
 30
6.712168827605849
 11
72.61069914190674
 21
0.0000000000000004
 31
0.7632383322081984
  0
LINE
  5
76
  8
DEFAULT
 10
72.61069914190674
 20
0.0000000000000004
 30
0.7632383322081984
 11
61.67256885957823
 21
0.0000000000000004
 31
0.763238332208203
  0
LINE
  5
77
  8
DEFAULT
 10
61.67256885957823
 20
0.0000000000000004
 30
0.763238332208203
 11
61.67865086642071
 21
0.0000000000000004
 31
2.953793862226338
  0
LINE
  5
78
  8
DEFAULT
 10
61.67865086642071
 20
0.0000000000000004
 30
2.953793862226338
 11
68.75389609687025
 21
0.0000000000000004
 31
7.870327472265696
  0
LINE
  5
79
  8
DEFAULT
 10
68.75389609687025
 20
0.0000000000000004
 30
7.870327472265696
 11
72.89758061052316
 21
0.0000000000000004
 31
6.712168827605849
  0
LINE
  5
7A
  8
DEFAULT
 10
77.86631167402214
 20
0.0000000000000006
 30
66.15939207035292
 11
87.62138061523603
 21
0.0000000000000006
 31
71.95760998464232
  0
LINE
  5
7B
  8
DEFAULT
 10
87.62138061523603
 20
0.0000000000000006
 30
71.95760998464232
 11
93.2721555817721
 21
0.0000000000000006
 31
66.18235374377055
  0
LINE
  5
7C
  8
DEFAULT
 10
93.2721555817721
 20
0.0000000000000006
 30
66.18235374377055
 11
86.33533122304641
 21
0.0000000000000006
 31
57.60914754727784
  0
LINE
  5
7D
  8
DEFAULT
 10
86.33533122304641
 20
0.0000000000000006
 30
57.60914754727784
 11
77.86631167402214
 21
0.0000000000000006
 31
66.15939207035292
  0
LINE
  5
7E
  8
DEFAULT
 10
83.20829166897286
 20
0.0000000000000006
 30
51.99625475666014
 11
72.70364206373304
 21
0.0000000000000006
 31
45.33690940527057
  0
LINE
  5
7F
  8
DEFAULT
 10
72.70364206373304
 20
0.0000000000000006
 30
45.33690940527057
 11
65.3281837301624
 21
0.0000000000000006
 31
57.58152738156879
  0
LINE
  5
80
  8
DEFAULT
 10
65.3281837301624
 20
0.0000000000000006
 30
57.58152738156879
 11
70.15545962026269
 21
0.0000000000000006
 31
63.47743423595635
  0
LINE
  5
81
  8
DEFAULT
 10
70.15545962026269
 20
0.0000000000000006
 30
63.47743423595635
 11
73.8843458773928
 21
0.0000000000000006
 31
63.06799177222057
  0
LINE
  5
82
  8
DEFAULT
 10
73.8843458773928
 20
0.0000000000000006
 30
63.06799177222057
 11
83.15039095502271
 21
0.0000000000000006
 31
53.71307757973889
  0
LINE
  5
83
  8
DEFAULT
 10
83.15039095502271
 20
0.0000000000000006
 30
53.71307757973889
 11
83.20829166897286
 21
0.0000000000000006
 31
51.99625475666014
  0
LINE
  5
84
  8
DEFAULT
 10
6.179021825758966
 20
0.0000000000000004
 30
50.10852122696988
 11
6.179021825758965
 21
0.0000000000000004
 31
54.27286992000209
  0
LINE
  5
85
  8
DEFAULT
 10
6.179021825758965
 20
0.0000000000000004
 30
54.27286992000209
 11
14.24017061828701
 21
0.0000000000000004
 31
60.33668283749059
  0
LINE
  5
86
  8
DEFAULT
 10
14.24017061828701
 20
0.0000000000000004
 30
60.33668283749059
 11
14.32373772981064
 21
0.0000000000000004
 31
60.31723361971765
  0
LINE
  5
87
  8
DEFAULT
 10
14.32373772981064
 20
0.0000000000000004
 30
60.31723361971765
 11
18.21112193445527
 21
0.0000000000000004
 31
54.86377627500384
  0
LINE
  5
88
  8
DEFAULT
 10
18.21112193445527
 20
0.0000000000000004
 30
54.86377627500384
 11
13.75605339822551
 21
0.0000000000000004
 31
47.51278657878292
  0
LINE
  5
89
  8
DEFAULT
 10
13.75605339822551
 20
0.0000000000000004
 30
47.51278657878292
 11
6.179021825758966
 21
0.0000000000000004
 31
50.10852122696988
  0
LINE
  5
8A
  8
DEFAULT
 10
21.96841057771102
 20
0.0000000000000004
 30
2.341962289703977
 11
32.50686720342509
 21
0.0000000000000004
 31
7.002609082359403
  0
LINE
  5
8B
  8
DEFAULT
 10
32.50686720342509
 20
0.0000000000000004
 30
7.002609082359403
 11
32.53084209403891
 21
0.0000000000000004
 31
0.8503029555159104
  0
LINE
  5
8C
  8
DEFAULT
 10
32.53084209403891
 20
0.0000000000000004
 30
0.8503029555159104
 11
21.47774174853152
 21
0.0000000000000004
 31
0.8503029555159259
  0
LINE
  5
8D
  8
DEFAULT
 10
21.47774174853152
 20
0.0000000000000004
 30
0.8503029555159259
 11
21.96841057771102
 21
0.0000000000000004
 31
2.341962289703977
  0
LINE
  5
8E
  8
DEFAULT
 10
72.32182514646117
 20
0.0000000000000005
 30
33.47780432580824
 11
81.92873697961123
 21
0.0000000000000005
 31
26.14362502757302
  0
LINE
  5
8F
  8
DEFAULT
 10
81.92873697961123
 20
0.0000000000000005
 30
26.14362502757302
 11
82.65429545886084
 21
0.0000000000000005
 31
20.07864478779633
  0
LINE
  5
90
  8
DEFAULT
 10
82.65429545886084
 20
0.0000000000000005
 30
20.07864478779633
 11
76.45679793890291
 21
0.0000000000000005
 31
16.87321682794909
  0
LINE
  5
91
  8
DEFAULT
 10
76.45679793890291
 20
0.0000000000000005
 30
16.87321682794909
 11
71.53533379261961
 21
0.0000000000000005
 31
18.24876465902096
  0
LINE
  5
92
  8
DEFAULT
 10
71.53533379261961
 20
0.0000000000000005
 30
18.24876465902096
 11
65.90486809593199
 21
0.0000000000000005
 31
28.28248885208161
  0
LINE
  5
93
  8
DEFAULT
 10
65.90486809593199
 20
0.0000000000000005
 30
28.28248885208161
 11
72.32182514646117
 21
0.0000000000000005
 31
33.47780432580824
  0
LINE
  5
94
  8
DEFAULT
 10
11.43313271433049
 20
0.0000000000000004
 30
79.65608148953385
 11
25.28863904284309
 21
0.0000000000000004
 31
79.65608148953385
  0
LINE
  5
95
  8
DEFAULT
 10
25.28863904284309
 20
0.0000000000000004
 30
79.65608148953385
 11
17.25845557813755
 21
0.0000000000000004
 31
72.94101705186235
  0
LINE
  5
96
  8
DEFAULT
 10
17.25845557813755
 20
0.0000000000000004
 30
72.94101705186235
 11
17.1754273484744
 21
0.0000000000000004
 31
72.96034085150765
  0
LINE
  5
97
  8
DEFAULT
 10
17.1754273484744
 20
0.0000000000000004
 30
72.96034085150765
 11
11.43313271433049
 21
0.0000000000000004
 31
79.65608148953385
  0
LINE
  5
98
  8
DEFAULT
 10
99.6607285183382
 20
0.0000000000000005
 30
35.8897542779516
 11
99.6607285183382
 21
0.0000000000000005
 31
18.82573969787242
  0
LINE
  5
99
  8
DEFAULT
 10
99.6607285183382
 20
0.0000000000000005
 30
18.82573969787242
 11
92.87820552099093
 21
0.0000000000000005
 31
21.81137861140192
  0
LINE
  5
9A
  8
DEFAULT
 10
92.87820552099093
 20
0.0000000000000005
 30
21.81137861140192
 11
92.21175071743252
 21
0.0000000000000005
 31
27.38230821926269
  0
LINE
  5
9B
  8
DEFAULT
 10
92.21175071743252
 20
0.0000000000000005
 30
27.38230821926269
 11
98.4893885550824
 21
0.0000000000000005
 31
35.8392700034652
  0
LINE
  5
9C
  8
DEFAULT
 10
98.4893885550824
 20
0.0000000000000005
 30
35.8392700034652
 11
99.6607285183382
 21
0.0000000000000005
 31
35.8897542779516
  0
LINE
  5
9D
  8
DEFAULT
 10
43.88857854023998
 20
0.0000000000000005
 30
29.47168512213369
 11
39.54365771716999
 21
0.0000000000000005
 31
21.36817538528557
  0
LINE
  5
9E
  8
DEFAULT
 10
39.54365771716999
 20
0.0000000000000005
 30
21.36817538528557
 11
36.15029264834959
 21
0.0000000000000005
 31
20.14437919048112
  0
LINE
  5
9F
  8
DEFAULT
 10
36.15029264834959
 20
0.0000000000000005
 30
20.14437919048112
 11
26.56739907103501
 21
0.0000000000000005
 31
29.4099151116237
  0
LINE
  5
A0
  8
DEFAULT
 10
26.56739907103501
 20
0.0000000000000005
 30
29.4099151116237
 11
26.65359000913808
 21
0.0000000000000005
 31
30.05113319232795
  0
LINE
  5
A1
  8
DEFAULT
 10
26.65359000913808
 20
0.0000000000000005
 30
30.05113319232795
 11
39.72962455643869
 21
0.0000000000000005
 31
35.50109210664669
  0
LINE
  5
A2
  8
DEFAULT
 10
39.72962455643869
 20
0.0000000000000005
 30
35.50109210664669
 11
43.88857854023998
 21
0.0000000000000005
 31
29.47168512213369
  0
LINE
  5
A3
  8
DEFAULT
 10
99.2334358629476
 20
0.0000000000000005
 30
62.08838798280799
 11
99.2334358629476
 21
0.0000000000000005
 31
47.06423252925809
  0
LINE
  5
A4
  8
DEFAULT
 10
99.2334358629476
 20
0.0000000000000005
 30
47.06423252925809
 11
97.9787350896982
 21
0.0000000000000005
 31
47.01015543787383
  0
LINE
  5
A5
  8
DEFAULT
 10
97.9787350896982
 20
0.0000000000000005
 30
47.01015543787383
 11
91.21125695268245
 21
0.0000000000000005
 31
52.62763229507252
  0
LINE
  5
A6
  8
DEFAULT
 10
91.21125695268245
 20
0.0000000000000005
 30
52.62763229507252
 11
91.16138171076884
 21
0.0000000000000005
 31
54.1064906334616
  0
LINE
  5
A7
  8
DEFAULT
 10
91.16138171076884
 20
0.0000000000000005
 30
54.1064906334616
 11
97.69905280682491
 21
0.0000000000000005
 31
62.18638417737649
  0
LINE
  5
A8
  8
DEFAULT
 10
97.69905280682491
 20
0.0000000000000005
 30
62.18638417737649
 11
99.2334358629476
 21
0.0000000000000005
 31
62.08838798280799
  0
LINE
  5
A9
  8
DEFAULT
 10
5.590490084992457
 20
0.0000000000000003
 30
6.501903045224912
 11
0.4676137214841385
 21
0.0000000000000003
 31
6.501903045224912
  0
LINE
  5
AA
  8
DEFAULT
 10
0.4676137214841385
 20
0.0000000000000003
 30
6.501903045224912
 11
0.4676137214841385
 21
0.0000000000000003
 31
15.31730832384617
  0
LINE
  5
AB
  8
DEFAULT
 10
0.4676137214841385
 20
0.0000000000000003
 30
15.31730832384617
 11
4.595291162508338
 21
0.0000000000000003
 31
14.53030185720308
  0
LINE
  5
AC
  8
DEFAULT
 10
4.595291162508338
 20
0.0000000000000003
 30
14.53030185720308
 11
6.015437411822468
 21
0.0000000000000003
 31
7.793765517239297
  0
LINE
  5
AD
  8
DEFAULT
 10
6.015437411822468
 20
0.0000000000000003
 30
7.793765517239297
 11
5.590490084992457
 21
0.0000000000000003
 31
6.501903045224912
  0
LINE
  5
AE
  8
DEFAULT
 10
2.64363786861561
 20
0.0000000000000004
 30
27.56378927935705
 11
2.64363786861561
 21
0.0000000000000004
 31
38.49892473174714
  0
LINE
  5
AF
  8
DEFAULT
 10
2.64363786861561
 20
0.0000000000000004
 30
38.49892473174714
 11
9.525197953506085
 21
0.0000000000000004
 31
36.14144426263572
  0
LINE
  5
B0
  8
DEFAULT
 10
9.525197953506085
 20
0.0000000000000004
 30
36.14144426263572
 11
11.78602248883043
 21
0.0000000000000004
 31
31.89544563317732
  0
LINE
  5
B1
  8
DEFAULT
 10
11.78602248883043
 20
0.0000000000000004
 30
31.89544563317732
 11
11.7161431948808
 21
0.0000000000000004
 31
31.37557814207551
  0
LINE
  5
B2
  8
DEFAULT
 10
11.7161431948808
 20
0.0000000000000004
 30
31.37557814207551
 11
7.333999766019611
 21
0.0000000000000004
 31
26.66949819268791
  0
LINE
  5
B3
  8
DEFAULT
 10
7.333999766019611
 20
0.0000000000000004
 30
26.66949819268791
 11
2.64363786861561
 21
0.0000000000000004
 31
27.56378927935705
  0
LINE
  5
B4
  8
DEFAULT
 10
69.52010651553248
 20
0.0000000000000005
 30
79.47411770117432
 11
84.46720913817262
 21
0.0000000000000005
 31
79.47411770117432
  0
LINE
  5
B5
  8
DEFAULT
 10
84.46720913817262
 20
0.0000000000000005
 30
79.47411770117432
 11
84.44252146657604
 21
0.0000000000000005
 31
76.9339956520173
  0
LINE
  5
B6
  8
DEFAULT
 10
84.44252146657604
 20
0.0000000000000005
 30
76.9339956520173
 11
75.05189052598382
 21
0.0000000000000005
 31
71.35239239792006
  0
LINE
  5
B7
  8
DEFAULT
 10
75.05189052598382
 20
0.0000000000000005
 30
71.35239239792006
 11
71.77107136516588
 21
0.0000000000000005
 31
71.71263580242407
  0
LINE
  5
B8
  8
DEFAULT
 10
71.77107136516588
 20
0.0000000000000005
 30
71.71263580242407
 11
69.52010651553248
 21
0.0000000000000005
 31
79.47411770117432
  0
LINE
  5
B9
  8
DEFAULT
 10
31.03031186348442
 20
0.0000000000000005
 30
73.94074893666402
 11
34.7561631253268
 21
0.0000000000000005
 31
73.94074893666402
  0
LINE
  5
BA
  8
DEFAULT
 10
34.7561631253268
 20
0.0000000000000005
 30
73.94074893666402
 11
37.8038124756415
 21
0.0000000000000005
 31
60.42577117413523
  0
LINE
  5
BB
  8
DEFAULT
 10
37.8038124756415
 20
0.0000000000000005
 30
60.42577117413523
 11
37.24209356417738
 21
0.0000000000000005
 31
59.66016845168471
  0
LINE
  5
BC
  8
DEFAULT
 10
37.24209356417738
 20
0.0000000000000005
 30
59.66016845168471
 11
26.31609094254069
 21
0.0000000000000005
 31
60.21686653153506
  0
LINE
  5
BD
  8
DEFAULT
 10
26.31609094254069
 20
0.0000000000000005
 30
60.21686653153506
 11
21.94747437184747
 21
0.0000000000000005
 31
66.34542570384957
  0
LINE
  5
BE
  8
DEFAULT
 10
21.94747437184747
 20
0.0000000000000005
 30
66.34542570384957
 11
31.03031186348442
 21
0.0000000000000005
 31
73.94074893666402
  0
LINE
  5
BF
  8
DEFAULT
 10
49.00818451627585
 20
0.0000000000000006
 30
52.32367727787359
 11
60.38936844739045
 21
0.0000000000000006
 31
54.37362634377328
  0
LINE
  5
C0
  8
DEFAULT
 10
60.38936844739045
 20
0.0000000000000006
 30
54.37362634377328
 11
67.57637157607465
 21
0.0000000000000006
 31
42.44187868483237
  0
LINE
  5
C1
  8
DEFAULT
 10
67.57637157607465
 20
0.0000000000000006
 30
42.44187868483237
 11
67.16840618488453
 21
0.0000000000000006
 31
40.49182117616266
  0
LINE
  5
C2
  8
DEFAULT
 10
67.16840618488453
 20
0.0000000000000006
 30
40.49182117616266
 11
60.02603622570037
 21
0.0000000000000006
 31
34.70919478863374
  0
LINE
  5
C3
  8
DEFAULT
 10
60.02603622570037
 20
0.0000000000000006
 30
34.70919478863374
 11
53.36614397092015
 21
0.0000000000000006
 31
34.97416655465787
  0
LINE
  5
C4
  8
DEFAULT
 10
53.36614397092015
 20
0.0000000000000006
 30
34.97416655465787
 11
48.30594862005209
 21
0.0000000000000006
 31
42.3101402899667
  0
LINE
  5
C5
  8
DEFAULT
 10
48.30594862005209
 20
0.0000000000000006
 30
42.3101402899667
 11
48.32691860402446
 21
0.0000000000000006
 31
51.3951362825688
  0
LINE
  5
C6
  8
DEFAULT
 10
48.32691860402446
 20
0.0000000000000006
 30
51.3951362825688
 11
49.00818451627585
 21
0.0000000000000006
 31
52.32367727787359
  0
LINE
  5
C7
  8
DEFAULT
 10
25.83055840698042
 20
0.0000000000000005
 30
50.78444595276012
 11
36.77713663811312
 21
0.0000000000000005
 31
50.22669951124496
  0
LINE
  5
C8
  8
DEFAULT
 10
36.77713663811312
 20
0.0000000000000005
 30
50.22669951124496
 11
36.75981385891752
 21
0.0000000000000005
 31
42.72181158286054
  0
LINE
  5
C9
  8
DEFAULT
 10
36.75981385891752
 20
0.0000000000000005
 30
42.72181158286054
 11
23.61729228578974
 21
0.0000000000000005
 31
37.2441415487996
  0
LINE
  5
CA
  8
DEFAULT
 10
23.61729228578974
 20
0.0000000000000005
 30
37.2441415487996
 11
20.81455367643986
 21
0.0000000000000005
 31
42.50789559432197
  0
LINE
  5
CB
  8
DEFAULT
 10
20.81455367643986
 20
0.0000000000000005
 30
42.50789559432197
 11
25.83055840698042
 21
0.0000000000000005
 31
50.78444595276012
  0
LINE
  5
CC
  8
DEFAULT
 10
93.46258781532771
 20
0.0000000000000005
 30
79.3034820340724
 11
99.80537628164511
 21
0.0000000000000005
 31
79.3034820340724
  0
LINE
  5
CD
  8
DEFAULT
 10
99.80537628164511
 20
0.0000000000000005
 30
79.3034820340724
 11
99.80537628164511
 21
0.0000000000000005
 31
71.85469797263426
  0
LINE
  5
CE
  8
DEFAULT
 10
99.80537628164511
 20
0.0000000000000005
 30
71.85469797263426
 11
98.38166339016985
 21
0.0000000000000005
 31
71.94562601369022
  0
LINE
  5
CF
  8
DEFAULT
 10
98.38166339016985
 20
0.0000000000000005
 30
71.94562601369022
 11
93.44016104709155
 21
0.0000000000000005
 31
76.99598502022478
  0
LINE
  5
D0
  8
DEFAULT
 10
93.44016104709155
 20
0.0000000000000005
 30
76.99598502022478
 11
93.46258781532771
 21
0.0000000000000005
 31
79.3034820340724
  0
LINE
  5
D1
  8
DEFAULT
 10
53.75298255154566
 20
0.0000000000000005
 30
24.30199238925817
 11
59.3334304341492
 21
0.0000000000000005
 31
24.07996760656027
  0
LINE
  5
D2
  8
DEFAULT
 10
59.3334304341492
 20
0.0000000000000005
 30
24.07996760656027
 11
64.58464035308266
 21
0.0000000000000005
 31
14.7220929928423
  0
LINE
  5
D3
  8
DEFAULT
 10
64.58464035308266
 20
0.0000000000000005
 30
14.7220929928423
 11
56.74738127923749
 21
0.0000000000000005
 31
9.276041811278146
  0
LINE
  5
D4
  8
DEFAULT
 10
56.74738127923749
 20
0.0000000000000005
 30
9.276041811278146
 11
49.32335829991219
 21
0.0000000000000005
 31
16.04050622750862
  0
LINE
  5
D5
  8
DEFAULT
 10
49.32335829991219
 20
0.0000000000000005
 30
16.04050622750862
 11
53.75298255154566
 21
0.0000000000000005
 31
24.30199238925817
  0
LINE
  5
D6
  8
DEFAULT
 10
82.46795125711704
 20
0.0000000000000004
 30
6.051400848715518
 11
87.4930911915919
 21
0.0000000000000004
 31
8.650469907837945
  0
LINE
  5
D7
  8
DEFAULT
 10
87.4930911915919
 20
0.0000000000000004
 30
8.650469907837945
 11
93.48030534778715
 21
0.0000000000000004
 31
6.014922696960419
  0
LINE
  5
D8
  8
DEFAULT
 10
93.48030534778715
 20
0.0000000000000004
 30
6.014922696960419
 11
93.48030534778715
 21
0.0000000000000004
 31
0.3224072565189107
  0
LINE
  5
D9
  8
DEFAULT
 10
93.48030534778715
 20
0.0000000000000004
 30
0.3224072565189107
 11
82.19167603475647
 21
0.0000000000000004
 31
0.3224072565189107
  0
LINE
  5
DA
  8
DEFAULT
 10
82.19167603475647
 20
0.0000000000000004
 30
0.3224072565189107
 11
82.46795125711704
 21
0.0000000000000004
 31
6.051400848715518
  0
LINE
  5
DB
  8
DEFAULT
 10
44.44825663432347
 20
0.0000000000000006
 30
76.97359403644907
 11
60.5485360453146
 21
0.0000000000000006
 31
76.97359403644907
  0
LINE
  5
DC
  8
DEFAULT
 10
60.5485360453146
 20
0.0000000000000006
 30
76.97359403644907
 11
62.87022427399473
 21
0.0000000000000006
 31
68.96825305372474
  0
LINE
  5
DD
  8
DEFAULT
 10
62.87022427399473
 20
0.0000000000000006
 30
68.96825305372474
 11
58.48955503507128
 21
0.0000000000000006
 31
63.61781972847372
  0
LINE
  5
DE
  8
DEFAULT
 10
58.48955503507128
 20
0.0000000000000006
 30
63.61781972847372
 11
47.89050445527183
 21
0.0000000000000006
 31
61.70874647502392
  0
LINE
  5
DF
  8
DEFAULT
 10
47.89050445527183
 20
0.0000000000000006
 30
61.70874647502392
 11
44.44825663432347
 21
0.0000000000000006
 31
76.97359403644907
  0
LINE
  5
E0
  8
DEFAULT
 10
18.43936835535363
 20
0.0000000000000004
 30
9.51254340297635
 11
16.71086663595817
 21
0.0000000000000004
 31
17.71177968024077
  0
LINE
  5
E1
  8
DEFAULT
 10
16.71086663595817
 20
0.0000000000000004
 30
17.71177968024077
 11
21.40464665041051
 21
0.0000000000000004
 31
22.75253299455913
  0
LINE
  5
E2
  8
DEFAULT
 10
21.40464665041051
 20
0.0000000000000004
 30
22.75253299455913
 11
29.72649331205131
 21
0.0000000000000004
 31
14.70628177079454
  0
LINE
  5
E3
  8
DEFAULT
 10
29.72649331205131
 20
0.0000000000000004
 30
14.70628177079454
 11
29.54799548122595
 21
0.0000000000000004
 31
14.42534887571262
  0
LINE
  5
E4
  8
DEFAULT
 10
29.54799548122595
 20
0.0000000000000004
 30
14.42534887571262
 11
18.43936835535363
 21
0.0000000000000004
 31
9.51254340297635
  0
LINE
  5
E5
  8
DEFAULT
 10
1.715289525465307
 20
0.0000000000000004
 30
60.93089267062805
 11
1.715289525465307
 21
0.0000000000000004
 31
72.58733653356468
  0
LINE
  5
E6
  8
DEFAULT
 10
1.715289525465307
 20
0.0000000000000004
 30
72.58733653356468
 11
3.792548018313402
 21
0.0000000000000004
 31
72.58733653356468
  0
LINE
  5
E7
  8
DEFAULT
 10
3.792548018313402
 20
0.0000000000000004
 30
72.58733653356468
 11
9.054526111014297
 21
0.0000000000000004
 31
66.45166381099044
  0
LINE
  5
E8
  8
DEFAULT
 10
9.054526111014297
 20
0.0000000000000004
 30
66.45166381099044
 11
1.715289525465307
 21
0.0000000000000004
 31
60.93089267062805
  0
LINE
  5
E9
  8
DEFAULT
 10
76.02086608037285
 20
0.0000000000000006
 30
38.78153705906205
 11
76.4031030294831
 21
0.0000000000000006
 31
40.60861369056008
  0
LINE
  5
EA
  8
DEFAULT
 10
76.4031030294831
 20
0.0000000000000006
 30
40.60861369056008
 11
85.99379039854183
 21
0.0000000000000006
 31
46.68855940487636
  0
LINE
  5
EB
  8
DEFAULT
 10
85.99379039854183
 20
0.0000000000000006
 30
46.68855940487636
 11
93.16667640370353
 21
0.0000000000000006
 31
40.73456586141315
  0
LINE
  5
EC
  8
DEFAULT
 10
93.16667640370353
 20
0.0000000000000006
 30
40.73456586141315
 11
86.03945041132746
 21
0.0000000000000006
 31
31.1330757143702
  0
LINE
  5
ED
  8
DEFAULT
 10
86.03945041132746
 20
0.0000000000000006
 30
31.1330757143702
 11
76.02086608037285
 21
0.0000000000000006
 31
38.78153705906205
  0
ENDSEC
  0
EOF
