  0
SECTION
  2
HEADER
  9
$ACADVER
  1
AC1009
  9
$DWGCODEPAGE
  3
ansi_1252
  9
$INSBASE
 10
0.0
 20
0.0
 30
0.0
  9
$EXTMIN
 10
378.0469637599679
 20
-913.1528128268245
 30
0.0
  9
$EXTMAX
 10
933.8886904354615
 20
28.07514888799506
 30
0.0
  9
$LIMMIN
 10
0.0
 20
0.0
  9
$LIMMAX
 10
12.0
 20
9.0
  9
$ORTHOMODE
 70
     0
  9
$REGENMODE
 70
     1
  9
$FILLMODE
 70
     1
  9
$QTEXTMODE
 70
     0
  9
$MIRRTEXT
 70
     1
  9
$DRAGMODE
 70
     2
  9
$LTSCALE
 40
1.0
  9
$OSMODE
 70
    37
  9
$ATTMODE
 70
     1
  9
$TEXTSIZE
 40
0.2
  9
$TRACEWID
 40
0.05
  9
$TEXTSTYLE
  7
STANDARD
  9
$CLAYER
  8
DEFAULT
  9
$CELTYPE
  6
BYLAYER
  9
$CECOLOR
 62
   256
  9
$DIMSCALE
 40
1.0
  9
$DIMASZ
 40
0.18
  9
$DIMEXO
 40
0.0625
  9
$DIMDLI
 40
0.38
  9
$DIMRND
 40
0.0
  9
$DIMDLE
 40
0.0
  9
$DIMEXE
 40
0.18
  9
$DIMTP
 40
0.0
  9
$DIMTM
 40
0.0
  9
$DIMTXT
 40
0.18
  9
$DIMCEN
 40
0.09
  9
$DIMTSZ
 40
0.0
  9
$DIMTOL
 70
     0
  9
$DIMLIM
 70
     0
  9
$DIMTIH
 70
     1
  9
$DIMTOH
 70
     1
  9
$DIMSE1
 70
     0
  9
$DIMSE2
 70
     0
  9
$DIMTAD
 70
     0
  9
$DIMZIN
 70
     0
  9
$DIMBLK
  1

  9
$DIMASO
 70
     1
  9
$DIMSHO
 70
     1
  9
$DIMPOST
  1

  9
$DIMAPOST
  1

  9
$DIMALT
 70
     0
  9
$DIMALTD
 70
     2
  9
$DIMALTF
 40
25.4
  9
$DIMLFAC
 40
1.0
  9
$DIMTOFL
 70
     0
  9
$DIMTVP
 40
0.0
  9
$DIMTIX
 70
     0
  9
$DIMSOXD
 70
     0
  9
$DIMSAH
 70
     0
  9
$DIMBLK1
  1

  9
$DIMBLK2
  1

  9
$DIMSTYLE
  2
STANDARD
  9
$DIMCLRD
 70
     0
  9
$DIMCLRE
 70
     0
  9
$DIMCLRT
 70
     0
  9
$DIMTFAC
 40
1.0
  9
$DIMGAP
 40
0.09
  9
$LUNITS
 70
     2
  9
$LUPREC
 70
     4
  9
$SKETCHINC
 40
0.1
  9
$FILLETRAD
 40
0.5
  9
$AUNITS
 70
     0
  9
$AUPREC
 70
     0
  9
$MENU
  1
.
  9
$ELEVATION
 40
0.0
  9
$PELEVATION
 40
0.0
  9
$THICKNESS
 40
0.0
  9
$LIMCHECK
 70
     0
  9
$CHAMFERA
 40
0.0
  9
$CHAMFERB
 40
0.0
  9
$SKPOLY
 70
     0
  9
$TDCREATE
 40
2458147.009556817
  9
$TDUPDATE
 40
2458147.009556979
  9
$TDINDWG
 40
0.0000000116
  9
$TDUSRTIMER
 40
0.0000000116
  9
$USRTIMER
 70
     1
  9
$ANGBASE
 50
0.0
  9
$ANGDIR
 70
     0
  9
$PDMODE
 70
     0
  9
$PDSIZE
 40
0.0
  9
$PLINEWID
 40
0.0
  9
$COORDS
 70
     1
  9
$SPLFRAME
 70
     0
  9
$SPLINETYPE
 70
     6
  9
$SPLINESEGS
 70
     8
  9
$ATTDIA
 70
     0
  9
$ATTREQ
 70
     1
  9
$HANDLING
 70
     1
  9
$HANDSEED
  5
300
  9
$SURFTAB1
 70
     6
  9
$SURFTAB2
 70
     6
  9
$SURFTYPE
 70
     6
  9
$SURFU
 70
     6
  9
$SURFV
 70
     6
  9
$UCSNAME
  2

  9
$UCSORG
 10
0.0
 20
0.0
 30
0.0
  9
$UCSXDIR
 10
1.0
 20
0.0
 30
0.0
  9
$UCSYDIR
 10
0.0
 20
1.0
 30
0.0
  9
$PUCSNAME
  2

  9
$PUCSORG
 10
0.0
 20
0.0
 30
0.0
  9
$PUCSXDIR
 10
1.0
 20
0.0
 30
0.0
  9
$PUCSYDIR
 10
0.0
 20
1.0
 30
0.0
  9
$USERI1
 70
     0
  9
$USERI2
 70
     0
  9
$USERI3
 70
     0
  9
$USERI4
 70
     0
  9
$USERI5
 70
     0
  9
$USERR1
 40
0.0
  9
$USERR2
 40
0.0
  9
$USERR3
 40
0.0
  9
$USERR4
 40
0.0
  9
$USERR5
 40
0.0
  9
$WORLDVIEW
 70
     1
  9
$SHADEDGE
 70
     3
  9
$SHADEDIF
 70
    70
  9
$TILEMODE
 70
     1
  9
$MAXACTVP
 70
    64
  9
$PLIMCHECK
 70
     0
  9
$PEXTMIN
 10
1.000000000000000E+20
 20
1.000000000000000E+20
 30
1.000000000000000E+20
  9
$PEXTMAX
 10
-1.000000000000000E+20
 20
-1.000000000000000E+20
 30
-1.000000000000000E+20
  9
$PLIMMIN
 10
0.0
 20
0.0
  9
$PLIMMAX
 10
12.0
 20
9.0
  9
$UNITMODE
 70
     0
  9
$VISRETAIN
 70
     1
  9
$PLINEGEN
 70
     0
  9
$PSLTSCALE
 70
     1
  0
ENDSEC
  0
SECTION
  2
TABLES
  0
TABLE
  2
VPORT
 70
     1
  0
VPORT
  2
*ACTIVE
 70
     0
 10
0.0
 20
0.0
 11
1.0
 21
1.0
 12
655.9678270977147
 22
-442.5388319694147
 13
0.0
 23
0.0
 14
0.5
 24
0.5
 15
0.5
 25
0.5
 16
0.0
 26
0.0
 36
1.0
 17
0.0
 27
0.0
 37
0.0
 40
960.052520949116
 41
0.590549526028538
 42
50.0
 43
0.0
 44
0.0
 50
0.0
 51
0.0
 71
     0
 72
   100
 73
     1
 74
     3
 75
     0
 76
     0
 77
     0
 78
     0
  0
ENDTAB
  0
TABLE
  2
LTYPE
 70
     1
  0
LTYPE
  2
CONTINUOUS
 70
     0
  3
Solid line
 72
    65
 73
     0
 40
0.0
  0
ENDTAB
  0
TABLE
  2
LAYER
 70
     6
  0
LAYER
  2
0
 70
     0
 62
     7
  6
CONTINUOUS
  0
LAYER
  2
DEFAULT
 70
     0
 62
     7
  6
CONTINUOUS
  0
LAYER
  2
DEFPOINTS
 70
     0
 62
     7
  6
CONTINUOUS
  0
LAYER
  2
INNER
 70
     0
 62
     5
  6
CONTINUOUS
  0
LAYER
  2
DRILL_HOLES
 70
     0
 62
     3
  6
CONTINUOUS
  0
LAYER
  2
OUTER
 70
     0
 62
     1
  6
CONTINUOUS
  0
ENDTAB
  0
TABLE
  2
STYLE
 70
     1
  0
STYLE
  2
STANDARD
 70
     0
 40
0.0
 41
1.0
 50
0.0
 71
     0
 42
0.2
  3
txt
  4

  0
ENDTAB
  0
TABLE
  2
VIEW
 70
     0
  0
ENDTAB
  0
TABLE
  2
UCS
 70
     0
  0
ENDTAB
  0
TABLE
  2
APPID
 70
     1
  0
APPID
  2
ACAD
 70
     0
  0
ENDTAB
  0
TABLE
  2
DIMSTYLE
 70
     1
  0
DIMSTYLE
  2
STANDARD
 70
     0
  3

  4

  5

  6

  7

 40
1.0
 41
0.18
 42
0.0625
 43
0.38
 44
0.18
 45
0.0
 46
0.0
 47
0.0
 48
0.0
140
0.18
141
0.09
142
0.0
143
25.4
144
1.0
145
0.0
146
1.0
147
0.09
 71
     0
 72
     0
 73
     1
 74
     1
 75
     0
 76
     0
 77
     0
 78
     0
170
     0
171
     2
172
     0
173
     0
174
     0
175
     0
176
     0
177
     0
178
     0
  0
ENDTAB
  0
ENDSEC
  0
SECTION
  2
BLOCKS
  0
BLOCK
  8
0
  2
$MODEL_SPACE
 70
     0
 10
0.0
 20
0.0
 30
0.0
  3
$MODEL_SPACE
  1

  0
ENDBLK
  5
21
  8
0
  0
BLOCK
 67
     1
  8
0
  2
$PAPER_SPACE
 70
     0
 10
0.0
 20
0.0
 30
0.0
  3
$PAPER_SPACE
  1

  0
ENDBLK
  5
1D
 67
     1
  8
0
  0
BLOCK
  8
0
  2
*D1
 70
     1
 10
0.0
 20
0.0
 30
0.0
  3
*D1
  1

  0
LINE
  5
74
  8
DEFAULT
 62
     0
 10
693.6441831079808
 20
-211.9249770231293
 30
0.0
 11
693.9013259651236
 21
-211.9249770231294
 31
0.0
  0
TEXT
  5
75
  8
DEFAULT
  6
CONTINUOUS
 62
     0
 10
692.7313259651237
 20
-212.0149770231294
 30
0.0
 40
0.18
  1
Ø8.5845
  0
SOLID
  5
76
  8
DEFAULT
 62
     0
 10
693.6441831079808
 20
-211.9549770231293
 30
0.0
 11
693.6441831079808
 21
-211.8949770231293
 31
0.0
 12
693.8241831079807
 22
-211.9249770231294
 32
0.0
 13
693.8241831079807
 23
-211.9249770231294
 33
0.0
  0
LINE
  5
77
  8
DEFAULT
 62
     0
 10
698.0264084642711
 20
-211.9249770231303
 30
0.0
 11
698.2064084642711
 21
-211.9249770231303
 31
0.0
  0
LINE
  5
78
  8
DEFAULT
 62
     0
 10
698.1164084642711
 20
-212.0149770231303
 30
0.0
 11
698.1164084642711
 21
-211.8349770231303
 31
0.0
  0
POINT
  5
79
  8
DEFPOINTS
 62
     0
 10
693.8241831079807
 20
-211.9249770231294
 30
0.0
  0
POINT
  5
7A
  8
DEFPOINTS
 62
     0
 10
702.4086338205615
 20
-211.9249770231312
 30
0.0
  0
ENDBLK
  5
73
  8
0
  0
ENDSEC
  0
SECTION
  2
ENTITIES
  0
DIMENSION
  5
6F
  8
DEFAULT
  2
*D1
 10
702.4086338205615
 20
-211.9249770231312
 30
0.0
 11
693.2841831079808
 21
-211.9249770231293
 31
0.0
 70
   163
  1
<>
  3
STANDARD
 15
693.8241831079807
 25
-211.9249770231294
 35
0.0
 40
0.0
1001
ACAD
1000
DSTYLE
1002
{
1070
   172
1070
     0
1070
    77
1070
     0
1002
}
  0
CIRCLE
  5
7C
  8
INNER
 10
698.0243547843297
 20
-211.9249770231299
 30
0.0
 40
4.200171676349115
  0
CIRCLE
  5
7D
  8
INNER
 10
894.8160314177638
 20
-737.9979008783886
 30
0.0
 40
5.999823609602913
  0
LINE
  5
7F
  8
DRILL_HOLES
 10
858.3832437338929
 20
-672.8535846689576
 30
0.0
 11
858.3886697592802
 21
-672.8538645829655
 31
0.0
  0
CIRCLE
  5
80
  8
DRILL_HOLES
 10
755.9356837860138
 20
-684.6129013355446
 30
0.0
 40
2.5
  0
CIRCLE
  5
81
  8
DRILL_HOLES
 10
756.0094398811696
 20
-702.6580641714838
 30
0.0
 40
2.499999999999943
  0
CIRCLE
  5
82
  8
DRILL_HOLES
 10
737.8881938143606
 20
-702.6580641706779
 30
0.0
 40
2.500000000001876
  0
CIRCLE
  5
83
  8
DRILL_HOLES
 10
737.8881938143587
 20
-684.6129013347404
 30
0.0
 40
2.499999999999943
  0
CIRCLE
  5
84
  8
DRILL_HOLES
 10
748.990489565115
 20
-674.6916590562653
 30
0.0
 40
2.499999999999972
  0
CIRCLE
  5
85
  8
DRILL_HOLES
 10
748.9642667373602
 20
-656.6128877788626
 30
0.0
 40
2.499999999999972
  0
CIRCLE
  5
86
  8
DRILL_HOLES
 10
708.9642104585769
 20
-674.5305144376824
 30
0.0
 40
2.500000000000085
  0
CIRCLE
  5
87
  8
DRILL_HOLES
 10
708.964266404684
 20
-656.6129099504803
 30
0.0
 40
2.500000000000114
  0
CIRCLE
  5
88
  8
DRILL_HOLES
 10
719.9510424019817
 20
-684.6129013355446
 30
0.0
 40
2.5
  0
CIRCLE
  5
89
  8
DRILL_HOLES
 10
720.0247984971413
 20
-702.6580641714839
 30
0.0
 40
2.499999999999972
  0
CIRCLE
  5
8A
  8
DRILL_HOLES
 10
701.9035524303285
 20
-702.6580641706779
 30
0.0
 40
2.500000000001876
  0
CIRCLE
  5
8B
  8
DRILL_HOLES
 10
701.9035524303265
 20
-684.6129013347404
 30
0.0
 40
2.499999999999943
  0
CIRCLE
  5
8C
  8
DRILL_HOLES
 10
898.4043443649041
 20
-656.8535923041484
 30
0.0
 40
2.500000000000057
  0
CIRCLE
  5
8D
  8
DRILL_HOLES
 10
898.3941305307111
 20
-674.8538428867404
 30
0.0
 40
2.499999999999915
  0
CIRCLE
  5
8E
  8
DRILL_HOLES
 10
858.383253294227
 20
-674.8535822288009
 30
0.0
 40
2.500000000000085
  0
CIRCLE
  5
8F
  8
DRILL_HOLES
 10
858.3944010356837
 20
-656.8163070785914
 30
0.0
 40
2.499999999999972
  0
CIRCLE
  5
90
  8
DRILL_HOLES
 10
840.7918510986865
 20
-826.9117858630599
 30
0.0
 40
2.749999999312649
  0
CIRCLE
  5
91
  8
DRILL_HOLES
 10
915.888688290433
 20
-826.9117858630599
 30
0.0
 40
2.749999999312706
  0
CIRCLE
  5
92
  8
DRILL_HOLES
 10
840.7434320311038
 20
-771.9117838423047
 30
0.0
 40
2.749999999312678
  0
CIRCLE
  5
93
  8
DRILL_HOLES
 10
915.8402692228503
 20
-771.9117838423045
 30
0.0
 40
2.749999999312649
  0
CIRCLE
  5
94
  8
DRILL_HOLES
 10
855.961518932249
 20
-747.997901147681
 30
0.0
 40
2.749999999312678
  0
CIRCLE
  5
95
  8
DRILL_HOLES
 10
870.7489318898762
 20
-747.9979011476809
 30
0.0
 40
2.749999999312678
  0
CIRCLE
  5
96
  8
DRILL_HOLES
 10
855.961518932249
 20
-727.9979012692406
 30
0.0
 40
2.749999999312678
  0
CIRCLE
  5
97
  8
DRILL_HOLES
 10
856.7495410402624
 20
-418.3451310463612
 30
0.0
 40
2.749999999312706
  0
CIRCLE
  5
98
  8
DRILL_HOLES
 10
896.749150532419
 20
-418.3451310463612
 30
0.0
 40
2.749999999312649
  0
CIRCLE
  5
99
  8
DRILL_HOLES
 10
856.7495410402624
 20
-400.3455191327296
 30
0.0
 40
2.749999999312678
  0
CIRCLE
  5
9A
  8
DRILL_HOLES
 10
896.749150532419
 20
-400.3455191327296
 30
0.0
 40
2.749999999312649
  0
CIRCLE
  5
9B
  8
DRILL_HOLES
 10
870.7489318898762
 20
-727.9979012692406
 30
0.0
 40
2.749999999312678
  0
CIRCLE
  5
9C
  8
DRILL_HOLES
 10
840.7918510986865
 20
-716.701361848864
 30
0.0
 40
2.749999999312678
  0
CIRCLE
  5
9D
  8
DRILL_HOLES
 10
915.888688290433
 20
-716.701361848864
 30
0.0
 40
2.749999999312706
  0
CIRCLE
  5
9E
  8
DRILL_HOLES
 10
840.7434320311039
 20
-661.7013598281087
 30
0.0
 40
2.749999999312735
  0
CIRCLE
  5
9F
  8
DRILL_HOLES
 10
915.8402692228503
 20
-661.7013598281089
 30
0.0
 40
2.749999999312649
  0
CIRCLE
  5
A0
  8
DRILL_HOLES
 10
840.7918510986865
 20
-606.6128944671727
 30
0.0
 40
2.749999999312649
  0
CIRCLE
  5
A1
  8
DRILL_HOLES
 10
915.888688290433
 20
-606.6128944671727
 30
0.0
 40
2.749999999312706
  0
CIRCLE
  5
A2
  8
DRILL_HOLES
 10
840.7434320311038
 20
-551.6128924464176
 30
0.0
 40
2.749999999312678
  0
CIRCLE
  5
A3
  8
DRILL_HOLES
 10
915.8402692228503
 20
-551.6128924464176
 30
0.0
 40
2.749999999312649
  0
CIRCLE
  5
A4
  8
DRILL_HOLES
 10
840.7918510986865
 20
-496.6129011915858
 30
0.0
 40
2.749999999312678
  0
CIRCLE
  5
A5
  8
DRILL_HOLES
 10
915.888688290433
 20
-496.6129011915859
 30
0.0
 40
2.749999999312706
  0
CIRCLE
  5
A6
  8
DRILL_HOLES
 10
840.7434320311038
 20
-441.6128991708306
 30
0.0
 40
2.749999999312678
  0
CIRCLE
  5
A7
  8
DRILL_HOLES
 10
915.8402692228503
 20
-441.6128991708306
 30
0.0
 40
2.749999999312649
  0
CIRCLE
  5
A8
  8
DRILL_HOLES
 10
840.8402700663901
 20
-386.6129079159987
 30
0.0
 40
2.749999999312763
  0
CIRCLE
  5
A9
  8
DRILL_HOLES
 10
915.9371072581364
 20
-386.6129079159987
 30
0.0
 40
2.749999999312649
  0
CIRCLE
  5
AA
  8
DRILL_HOLES
 10
840.7918509988074
 20
-331.6129058952436
 30
0.0
 40
2.749999999312649
  0
CIRCLE
  5
AB
  8
DRILL_HOLES
 10
915.8886881905538
 20
-331.6129058952434
 30
0.0
 40
2.749999999312706
  0
CIRCLE
  5
AC
  8
DRILL_HOLES
 10
693.9400051610071
 20
-826.9117858630599
 30
0.0
 40
2.749999999312671
  0
CIRCLE
  5
AD
  8
DRILL_HOLES
 10
769.0368423527535
 20
-826.9117858630599
 30
0.0
 40
2.749999999312678
  0
CIRCLE
  5
AE
  8
DRILL_HOLES
 10
693.8915860934244
 20
-771.9117838423045
 30
0.0
 40
2.749999999312706
  0
CIRCLE
  5
AF
  8
DRILL_HOLES
 10
768.988423285171
 20
-771.9117838423045
 30
0.0
 40
2.74999999931272
  0
CIRCLE
  5
B0
  8
DRILL_HOLES
 10
693.9157952907807
 20
-716.7013618488639
 30
0.0
 40
2.749999999312692
  0
CIRCLE
  5
B1
  8
DRILL_HOLES
 10
769.0126324825272
 20
-716.7013618488639
 30
0.0
 40
2.74999999931272
  0
CIRCLE
  5
B2
  8
DRILL_HOLES
 10
693.867376223198
 20
-661.7013598281089
 30
0.0
 40
2.749999999312664
  0
CIRCLE
  5
B3
  8
DRILL_HOLES
 10
768.9642134149445
 20
-661.7013598281089
 30
0.0
 40
2.749999999312649
  0
CIRCLE
  5
B4
  8
DRILL_HOLES
 10
693.9157952907807
 20
-606.6128944671727
 30
0.0
 40
2.749999999312692
  0
CIRCLE
  5
B5
  8
DRILL_HOLES
 10
769.0126324825271
 20
-606.6128944671727
 30
0.0
 40
2.749999999312678
  0
CIRCLE
  5
B6
  8
DRILL_HOLES
 10
693.867376223198
 20
-551.6128924464176
 30
0.0
 40
2.749999999312642
  0
CIRCLE
  5
B7
  8
DRILL_HOLES
 10
768.9642134149445
 20
-551.6128924464176
 30
0.0
 40
2.749999999312649
  0
CIRCLE
  5
B8
  8
DRILL_HOLES
 10
693.9157952907807
 20
-496.6129011915856
 30
0.0
 40
2.749999999312692
  0
CIRCLE
  5
B9
  8
DRILL_HOLES
 10
769.0126324825271
 20
-496.6129011915856
 30
0.0
 40
2.749999999312678
  0
CIRCLE
  5
BA
  8
DRILL_HOLES
 10
693.867376223198
 20
-441.6128991708306
 30
0.0
 40
2.749999999312685
  0
CIRCLE
  5
BB
  8
DRILL_HOLES
 10
768.9642134149445
 20
-441.6128991708306
 30
0.0
 40
2.749999999312649
  0
CIRCLE
  5
BC
  8
DRILL_HOLES
 10
693.9642142584842
 20
-386.6129079159987
 30
0.0
 40
2.749999999312664
  0
CIRCLE
  5
BD
  8
DRILL_HOLES
 10
769.0610514502306
 20
-386.6129079159987
 30
0.0
 40
2.749999999312635
  0
CIRCLE
  5
BE
  8
DRILL_HOLES
 10
693.9157951909015
 20
-331.6129058952434
 30
0.0
 40
2.749999999312713
  0
CIRCLE
  5
BF
  8
DRILL_HOLES
 10
769.0126323826479
 20
-331.6129058952434
 30
0.0
 40
2.749999999312649
  0
CIRCLE
  5
C0
  8
DRILL_HOLES
 10
709.8250681833846
 20
-418.3451290789945
 30
0.0
 40
2.749999999312713
  0
CIRCLE
  5
C1
  8
DRILL_HOLES
 10
749.8246776755414
 20
-418.3451290789945
 30
0.0
 40
2.74999999931272
  0
CIRCLE
  5
C2
  8
DRILL_HOLES
 10
709.8250681833846
 20
-400.345517165363
 30
0.0
 40
2.749999999312706
  0
CIRCLE
  5
C3
  8
DRILL_HOLES
 10
749.8246776755414
 20
-400.345517165363
 30
0.0
 40
2.749999999312735
  0
CIRCLE
  5
C4
  8
DRILL_HOLES
 10
701.2166328715198
 20
-359.6519202421299
 30
0.0
 40
2.749999999311981
  0
CIRCLE
  5
C5
  8
DRILL_HOLES
 10
759.7802416622193
 20
-359.6519202421299
 30
0.0
 40
2.749999999312053
  0
CIRCLE
  5
C6
  8
DRILL_HOLES
 10
759.7802416622193
 20
-520.1310338667784
 30
0.0
 40
2.749999999312053
  0
CIRCLE
  5
C7
  8
DRILL_HOLES
 10
701.2166328715198
 20
-520.1310338667784
 30
0.0
 40
2.749999999311981
  0
CIRCLE
  5
C8
  8
DRILL_HOLES
 10
751.9731598001144
 20
-176.4747257532161
 30
0.0
 40
2.5
  0
CIRCLE
  5
C9
  8
DRILL_HOLES
 10
751.9731597993054
 20
-194.4801275037488
 30
0.0
 40
2.499999999999886
  0
CIRCLE
  5
CA
  8
DRILL_HOLES
 10
698.024389751973
 20
-176.4747257507936
 30
0.0
 40
2.500000000000114
  0
CIRCLE
  5
CB
  8
DRILL_HOLES
 10
698.0243897511652
 20
-194.4801275013266
 30
0.0
 40
2.500000000000341
  0
CIRCLE
  5
CC
  8
DRILL_HOLES
 10
702.4731620506301
 20
-239.4801193584522
 30
0.0
 40
2.749999999312557
  0
CIRCLE
  5
CD
  8
DRILL_HOLES
 10
742.5568265711454
 20
-239.4801219068945
 30
0.0
 40
2.74999999931272
  0
CIRCLE
  5
CE
  8
DRILL_HOLES
 10
704.8931479054786
 20
-164.4105235423618
 30
0.0
 40
2.7499999993126
  0
CIRCLE
  5
CF
  8
DRILL_HOLES
 10
705.5652384711377
 20
-107.8943770003684
 30
0.0
 40
2.749999999312649
  0
CIRCLE
  5
D0
  8
DRILL_HOLES
 10
686.6037389921603
 20
-91.87866169460665
 30
0.0
 40
2.749999999312614
  0
CIRCLE
  5
D1
  8
DRILL_HOLES
 10
761.6733501089933
 20
-48.95886900411551
 30
0.0
 40
2.749999999312507
  0
CIRCLE
  5
D2
  8
DRILL_HOLES
 10
686.5609593921913
 20
-51.85623039723828
 30
0.0
 40
2.749999999312763
  0
CIRCLE
  5
D3
  8
DRILL_HOLES
 10
702.5753554971645
 20
-32.74866366388676
 30
0.0
 40
2.749999999312614
  0
CIRCLE
  5
D4
  8
DRILL_HOLES
 10
742.660948413768
 20
-32.74866366388687
 30
0.0
 40
2.749999999312507
  0
CIRCLE
  5
D5
  8
DRILL_HOLES
 10
761.6733504923058
 20
-88.87708892692035
 30
0.0
 40
2.749999999312621
  0
CIRCLE
  5
D6
  8
DRILL_HOLES
 10
745.6133645970576
 20
-107.8943770003684
 30
0.0
 40
2.74999999931272
  0
CIRCLE
  5
D7
  8
DRILL_HOLES
 10
744.976812425994
 20
-164.4105260908046
 30
0.0
 40
2.749999999312649
  0
CIRCLE
  5
D8
  8
DRILL_HOLES
 10
760.0086131272649
 20
-227.4827848082354
 30
0.0
 40
2.749999999312735
  0
CIRCLE
  5
D9
  8
DRILL_HOLES
 10
684.9604671094493
 20
-227.4827848082354
 30
0.0
 40
2.749999999312649
  0
CIRCLE
  5
DA
  8
DRILL_HOLES
 10
760.008613127265
 20
-197.4622569610129
 30
0.0
 40
2.749999999312621
  0
CIRCLE
  5
DB
  8
DRILL_HOLES
 10
684.9604671094493
 20
-197.4622569610131
 30
0.0
 40
2.749999999312649
  0
CIRCLE
  5
DC
  8
INNER
 10
853.8420465651881
 20
-245.019868641685
 30
0.0
 40
4.25000032782566
  0
CIRCLE
  5
DD
  8
INNER
 10
919.9531577627023
 20
-242.7896532433838
 30
0.0
 40
4.25000032782566
  0
LINE
  5
DE
  8
INNER
 10
717.8798522696038
 20
-107.894377651469
 30
0.0
 11
712.6356859788505
 21
-90.1965098677639
 31
0.0
  0
LINE
  5
DF
  8
INNER
 10
736.6427419871912
 20
-107.894377651469
 30
0.0
 11
717.8798522696038
 21
-107.894377651469
 31
0.0
  0
LINE
  5
E0
  8
INNER
 10
741.8869082810845
 20
-90.19650987039029
 30
0.0
 11
736.6427419871912
 21
-107.894377651469
 31
0.0
  0
ARC
  5
E1
  8
INNER
 10
727.2612971303612
 20
-85.81171805016925
 30
0.0
 40
15.26875570696054
 50
343.3111485688865
 51
196.6888514208246
  0
LINE
  5
E2
  8
INNER
 10
748.723319408735
 20
-208.674981396275
 30
0.0
 11
748.723319408735
 21
-220.6749813932748
 31
0.0
  0
LINE
  5
E3
  8
INNER
 10
755.2229305182213
 20
-208.674981396275
 30
0.0
 11
748.723319408735
 21
-208.674981396275
 31
0.0
  0
LINE
  5
E4
  8
INNER
 10
755.2229305182213
 20
-220.6749813932748
 30
0.0
 11
755.2229305182213
 21
-208.674981396275
 31
0.0
  0
LINE
  5
E5
  8
INNER
 10
748.723319408735
 20
-220.6749813932748
 30
0.0
 11
755.2229305182213
 21
-220.6749813932748
 31
0.0
  0
LINE
  5
E6
  8
INNER
 10
698.0243897519726
 20
-176.4747257532157
 30
0.0
 11
698.0243897519726
 21
-194.4801275012136
 31
0.0
  0
LINE
  5
E7
  8
INNER
 10
751.9731597993054
 20
-176.4747257532157
 30
0.0
 11
698.0243897519726
 21
-176.4747257532157
 31
0.0
  0
LINE
  5
E8
  8
INNER
 10
751.9731597993054
 20
-194.4801275012136
 30
0.0
 11
751.9731597993054
 21
-176.4747257532157
 31
0.0
  0
LINE
  5
E9
  8
INNER
 10
698.0243897519726
 20
-194.4801275012136
 30
0.0
 11
751.9731597993054
 21
-194.4801275012136
 31
0.0
  0
LINE
  5
EB
  8
OUTER
 10
686.6123324822347
 20
-51.83771655442013
 30
0.0
 11
668.6126990367563
 21
-51.83771655442013
 31
0.0
  0
LINE
  5
EC
  8
OUTER
 10
686.6126769917832
 20
-32.80654465776468
 30
0.0
 11
686.6123324822347
 21
-51.83771655442013
 31
0.0
  0
LINE
  5
ED
  8
OUTER
 10
702.592124406113
 20
-32.80654465776468
 30
0.0
 11
686.6126769917832
 21
-32.80654465776468
 31
0.0
  0
LINE
  5
EE
  8
OUTER
 10
702.592124406113
 20
-14.83503180418461
 30
0.0
 11
702.592124406113
 21
-32.80654465776468
 31
0.0
  0
LINE
  5
EF
  8
OUTER
 10
742.5917500471548
 20
-14.83503180418461
 30
0.0
 11
702.592124406113
 21
-14.83503180418461
 31
0.0
  0
LINE
  5
F0
  8
OUTER
 10
742.5917500471548
 20
-32.80654465776468
 30
0.0
 11
742.5917500471548
 21
-14.83503180418461
 31
0.0
  0
LINE
  5
F1
  8
OUTER
 10
761.6126640878337
 20
-32.80654465776468
 30
0.0
 11
742.5917500471548
 21
-32.80654465776468
 31
0.0
  0
LINE
  5
F2
  8
OUTER
 10
761.6126640878337
 20
-48.93114090405732
 30
0.0
 11
761.6126640878337
 21
-32.80654465776468
 31
0.0
  0
LINE
  5
F3
  8
OUTER
 10
779.612297533312
 20
-48.93114090405732
 30
0.0
 11
761.6126640878337
 21
-48.93114090405732
 31
0.0
  0
LINE
  5
F4
  8
OUTER
 10
779.612297533312
 20
-88.930766545099
 30
0.0
 11
779.612297533312
 21
-48.93114090405732
 31
0.0
  0
LINE
  5
F5
  8
OUTER
 10
761.6126640878337
 20
-88.930766545099
 30
0.0
 11
779.612297533312
 21
-88.930766545099
 31
0.0
  0
LINE
  5
F6
  8
OUTER
 10
761.6126640878337
 20
-107.8061872442678
 30
0.0
 11
761.6126640878337
 21
-88.930766545099
 31
0.0
  0
LINE
  5
F7
  8
OUTER
 10
745.5759137391949
 20
-107.8061872442678
 30
0.0
 11
761.6126640878337
 21
-107.8061872442678
 31
0.0
  0
LINE
  5
F8
  8
OUTER
 10
745.5759137391949
 20
-125.7901885689819
 30
0.0
 11
745.5759137391949
 21
-107.8061872442678
 31
0.0
  0
LINE
  5
F9
  8
OUTER
 10
705.5762880981531
 20
-125.7901885689819
 30
0.0
 11
745.5759137391949
 21
-125.7901885689819
 31
0.0
  0
LINE
  5
FA
  8
OUTER
 10
705.5762880981531
 20
-107.8061872442678
 30
0.0
 11
705.5762880981531
 21
-125.7901885689819
 31
0.0
  0
LINE
  5
FB
  8
OUTER
 10
686.6126769917832
 20
-107.8061872442678
 30
0.0
 11
705.5762880981531
 21
-107.8061872442678
 31
0.0
  0
LINE
  5
FC
  8
OUTER
 10
686.6126769917832
 20
-91.83734219546182
 30
0.0
 11
686.6126769917832
 21
-107.8061872442678
 31
0.0
  0
LINE
  5
FD
  8
OUTER
 10
668.6126990367563
 20
-91.83734219546182
 30
0.0
 11
686.6126769917832
 21
-91.83734219546182
 31
0.0
  0
LINE
  5
FE
  8
OUTER
 10
668.6126990367563
 20
-51.83771655442013
 30
0.0
 11
668.6126990367563
 21
-91.83734219546182
 31
0.0
  0
LINE
  5
FF
  8
OUTER
 10
704.9731624346725
 20
-146.4801219068938
 30
0.0
 11
744.9731624346726
 21
-146.4801219068944
 31
0.0
  0
LINE
  5
100
  8
OUTER
 10
704.9731624346725
 20
-164.4801219068944
 30
0.0
 11
704.9731624346725
 21
-146.4801219068938
 31
0.0
  0
LINE
  5
101
  8
OUTER
 10
684.9731624346731
 20
-164.4801219068951
 30
0.0
 11
704.9731624346725
 21
-164.4801219068944
 31
0.0
  0
LINE
  5
102
  8
OUTER
 10
684.9731624346731
 20
-197.4801219068937
 30
0.0
 11
684.9731624346731
 21
-164.4801219068951
 31
0.0
  0
LINE
  5
103
  8
OUTER
 10
666.9731624346738
 20
-197.4801219068937
 30
0.0
 11
684.9731624346731
 21
-197.4801219068937
 31
0.0
  0
LINE
  5
104
  8
OUTER
 10
666.9731624346724
 20
-227.4801219068941
 30
0.0
 11
666.9731624346738
 21
-197.4801219068937
 31
0.0
  0
LINE
  5
105
  8
OUTER
 10
684.9731624346731
 20
-227.4801219068941
 30
0.0
 11
666.9731624346724
 21
-227.4801219068941
 31
0.0
  0
LINE
  5
106
  8
OUTER
 10
684.9731624346731
 20
-239.4801219068938
 30
0.0
 11
684.9731624346731
 21
-227.4801219068941
 31
0.0
  0
LINE
  5
107
  8
OUTER
 10
702.4731624346721
 20
-239.4801219068938
 30
0.0
 11
684.9731624346731
 21
-239.4801219068938
 31
0.0
  0
LINE
  5
108
  8
OUTER
 10
702.4731624346728
 20
-257.4801219068933
 30
0.0
 11
702.4731624346721
 21
-239.4801219068938
 31
0.0
  0
LINE
  5
109
  8
OUTER
 10
742.4731624346729
 20
-257.4801219068933
 30
0.0
 11
702.4731624346728
 21
-257.4801219068933
 31
0.0
  0
LINE
  5
10A
  8
OUTER
 10
742.4731624346729
 20
-239.4801219068938
 30
0.0
 11
742.4731624346729
 21
-257.4801219068933
 31
0.0
  0
LINE
  5
10B
  8
OUTER
 10
759.9731624346731
 20
-239.4801219068938
 30
0.0
 11
742.4731624346729
 21
-239.4801219068938
 31
0.0
  0
LINE
  5
10C
  8
OUTER
 10
759.9731624346718
 20
-227.4801219068941
 30
0.0
 11
759.9731624346731
 21
-239.4801219068938
 31
0.0
  0
LINE
  5
10D
  8
OUTER
 10
777.9731624346725
 20
-227.4801219068941
 30
0.0
 11
759.9731624346718
 21
-227.4801219068941
 31
0.0
  0
LINE
  5
10E
  8
OUTER
 10
777.9731624346731
 20
-197.4801219068937
 30
0.0
 11
777.9731624346725
 21
-227.4801219068941
 31
0.0
  0
LINE
  5
10F
  8
OUTER
 10
759.9731624346731
 20
-197.4801219068937
 30
0.0
 11
777.9731624346731
 21
-197.4801219068937
 31
0.0
  0
LINE
  5
110
  8
OUTER
 10
759.9731624346725
 20
-164.4801219068944
 30
0.0
 11
759.9731624346731
 21
-197.4801219068937
 31
0.0
  0
LINE
  5
111
  8
OUTER
 10
744.9731624346726
 20
-164.4801219068944
 30
0.0
 11
759.9731624346725
 21
-164.4801219068944
 31
0.0
  0
LINE
  5
112
  8
OUTER
 10
744.9731624346726
 20
-146.4801219068944
 30
0.0
 11
744.9731624346726
 21
-164.4801219068944
 31
0.0
  0
LINE
  5
113
  8
OUTER
 10
862.8420465655728
 20
-244.9947602008506
 30
0.0
 11
862.842046408961
 21
-239.8046142722881
 31
0.0
  0
LINE
  5
114
  8
OUTER
 10
862.8420464082667
 20
-255.2698683142636
 30
0.0
 11
862.8420465655728
 21
-244.9947602008506
 31
0.0
  0
LINE
  5
115
  8
OUTER
 10
844.8420464082661
 20
-255.2698683134557
 30
0.0
 11
862.8420464082667
 21
-255.2698683142636
 31
0.0
  0
LINE
  5
116
  8
OUTER
 10
844.8420465651884
 20
-245.0198685038999
 30
0.0
 11
844.8420464082661
 21
-255.2698683134557
 31
0.0
  0
LINE
  5
117
  8
OUTER
 10
844.8420464090739
 20
-237.2698683134557
 30
0.0
 11
844.8420465651884
 21
-245.0198685038999
 31
0.0
  0
LINE
  5
118
  8
OUTER
 10
844.7788428296301
 20
-236.7976707251891
 30
0.0
 11
844.8420464090739
 21
-237.2698683134557
 31
0.0
  0
LINE
  5
119
  8
OUTER
 10
844.6776708632603
 20
-236.3451597494951
 30
0.0
 11
844.7788428296301
 21
-236.7976707251891
 31
0.0
  0
LINE
  5
11A
  8
OUTER
 10
844.5316963156577
 20
-235.9157356248571
 30
0.0
 11
844.6776708632603
 21
-236.3451597494951
 31
0.0
  0
LINE
  5
11B
  8
OUTER
 10
844.3360549790345
 20
-235.5117823152082
 30
0.0
 11
844.5316963156577
 21
-235.9157356248571
 31
0.0
  0
LINE
  5
11C
  8
OUTER
 10
844.088431231005
 20
-235.1344142626638
 30
0.0
 11
844.3360549790345
 21
-235.5117823152082
 31
0.0
  0
LINE
  5
11D
  8
OUTER
 10
843.7889247634928
 20
-234.7835492309852
 30
0.0
 11
844.088431231005
 21
-235.1344142626638
 31
0.0
  0
LINE
  5
11E
  8
OUTER
 10
843.4394813749595
 20
-234.4581808407925
 30
0.0
 11
843.7889247634928
 21
-234.7835492309852
 31
0.0
  0
LINE
  5
11F
  8
OUTER
 10
843.0433317283997
 20
-234.1566473830042
 30
0.0
 11
843.4394813749595
 21
-234.4581808407925
 31
0.0
  0
LINE
  5
120
  8
OUTER
 10
842.6046753791536
 20
-233.8767878369814
 30
0.0
 11
843.0433317283997
 21
-234.1566473830042
 31
0.0
  0
LINE
  5
121
  8
OUTER
 10
842.1285806052518
 20
-233.6159986449044
 30
0.0
 11
842.6046753791536
 21
-233.8767878369814
 31
0.0
  0
LINE
  5
122
  8
OUTER
 10
841.6209015851742
 20
-233.3712824868895
 30
0.0
 11
842.1285806052518
 21
-233.6159986449044
 31
0.0
  0
LINE
  5
123
  8
OUTER
 10
841.0881140829072
 20
-233.1393343289288
 30
0.0
 11
841.6209015851742
 21
-233.3712824868895
 31
0.0
  0
LINE
  5
124
  8
OUTER
 10
839.9746044974645
 20
-232.699789672415
 30
0.0
 11
841.0881140829072
 21
-233.1393343289288
 31
0.0
  0
LINE
  5
125
  8
OUTER
 10
838.8420463268201
 20
-232.2698686492778
 30
0.0
 11
839.9746044974645
 21
-232.699789672415
 31
0.0
  0
LINE
  5
126
  8
OUTER
 10
837.738365643457
 20
-231.8251657908645
 30
0.0
 11
838.8420463268201
 21
-232.2698686492778
 31
0.0
  0
LINE
  5
127
  8
OUTER
 10
836.7008970933502
 20
-231.3466782092222
 30
0.0
 11
837.738365643457
 21
-231.8251657908645
 31
0.0
  0
LINE
  5
128
  8
OUTER
 10
836.2156966376804
 20
-231.0903361492655
 30
0.0
 11
836.7008970933502
 21
-231.3466782092222
 31
0.0
  0
LINE
  5
129
  8
OUTER
 10
835.7563090365554
 20
-230.8208358668306
 30
0.0
 11
836.2156966376804
 21
-231.0903361492655
 31
0.0
  0
LINE
  5
12A
  8
OUTER
 10
835.3246936426964
 20
-230.5371800216961
 30
0.0
 11
835.7563090365554
 21
-230.8208358668306
 31
0.0
  0
LINE
  5
12B
  8
OUTER
 10
834.9223781300591
 20
-230.2385911147263
 30
0.0
 11
835.3246936426964
 21
-230.5371800216961
 31
0.0
  0
LINE
  5
12C
  8
OUTER
 10
834.550515270492
 20
-229.9244826367217
 30
0.0
 11
834.9223781300591
 21
-230.2385911147263
 31
0.0
  0
LINE
  5
12D
  8
OUTER
 10
834.2099349330168
 20
-229.594432496938
 30
0.0
 11
834.550515270492
 21
-229.9244826367217
 31
0.0
  0
LINE
  5
12E
  8
OUTER
 10
833.9011954959058
 20
-229.2481567405182
 30
0.0
 11
834.2099349330168
 21
-229.594432496938
 31
0.0
  0
LINE
  5
12F
  8
OUTER
 10
833.6246349106344
 20
-228.8854835112248
 30
0.0
 11
833.9011954959058
 21
-229.2481567405182
 31
0.0
  0
LINE
  5
130
  8
OUTER
 10
833.3804213432525
 20
-228.5063273122557
 30
0.0
 11
833.6246349106344
 21
-228.8854835112248
 31
0.0
  0
LINE
  5
131
  8
OUTER
 10
833.1686036442319
 20
-228.1106633671803
 30
0.0
 11
833.3804213432525
 21
-228.5063273122557
 31
0.0
  0
LINE
  5
132
  8
OUTER
 10
832.9891603879958
 20
-227.698502679291
 30
0.0
 11
833.1686036442319
 21
-228.1106633671803
 31
0.0
  0
LINE
  5
133
  8
OUTER
 10
832.8420464095227
 20
-227.269868312917
 30
0.0
 11
832.9891603879958
 21
-227.698502679291
 31
0.0
  0
LINE
  5
134
  8
OUTER
 10
814.8420464095227
 20
-227.2698683121091
 30
0.0
 11
832.8420464095227
 21
-227.269868312917
 31
0.0
  0
LINE
  5
135
  8
OUTER
 10
814.8420464103312
 20
-209.2698683121091
 30
0.0
 11
814.8420464095227
 21
-227.2698683121091
 31
0.0
  0
LINE
  5
136
  8
OUTER
 10
832.8420464103306
 20
-209.269868312917
 30
0.0
 11
814.8420464103312
 21
-209.2698683121091
 31
0.0
  0
LINE
  5
137
  8
OUTER
 10
834.4930607396877
 20
-210.3418057753956
 30
0.0
 11
832.8420464103306
 21
-209.269868312917
 31
0.0
  0
LINE
  5
138
  8
OUTER
 10
836.3661219652527
 20
-211.5040502632926
 30
0.0
 11
834.4930607396877
 21
-210.3418057753956
 31
0.0
  0
LINE
  5
139
  8
OUTER
 10
838.4599078720815
 20
-212.7558120170544
 30
0.0
 11
836.3661219652527
 21
-211.5040502632926
 31
0.0
  0
LINE
  5
13A
  8
OUTER
 10
840.7654375056661
 20
-214.0927413733619
 30
0.0
 11
838.4599078720815
 21
-212.7558120170544
 31
0.0
  0
LINE
  5
13B
  8
OUTER
 10
843.2599562748935
 20
-215.5043064083392
 30
0.0
 11
840.7654375056661
 21
-214.0927413733619
 31
0.0
  0
LINE
  5
13C
  8
OUTER
 10
845.9001887549915
 20
-216.9709237885083
 30
0.0
 11
843.2599562748935
 21
-215.5043064083392
 31
0.0
  0
LINE
  5
13D
  8
OUTER
 10
851.3329837452251
 20
-219.9735585892474
 30
0.0
 11
845.9001887549915
 21
-216.9709237885083
 31
0.0
  0
LINE
  5
13E
  8
OUTER
 10
853.9415897765098
 20
-221.4948204715217
 30
0.0
 11
851.3329837452251
 21
-219.9735585892474
 31
0.0
  0
LINE
  5
13F
  8
OUTER
 10
855.1739180211202
 20
-222.2724458499088
 30
0.0
 11
853.9415897765098
 21
-221.4948204715217
 31
0.0
  0
LINE
  5
140
  8
OUTER
 10
856.3403126762354
 20
-223.0741288277319
 30
0.0
 11
855.1739180211202
 21
-222.2724458499088
 31
0.0
  0
LINE
  5
141
  8
OUTER
 10
857.4273934907804
 20
-223.914464536418
 30
0.0
 11
856.3403126762354
 21
-223.0741288277319
 31
0.0
  0
LINE
  5
142
  8
OUTER
 10
858.4224495122296
 20
-224.8122171040501
 30
0.0
 11
857.4273934907804
 21
-223.914464536418
 31
0.0
  0
LINE
  5
143
  8
OUTER
 10
859.3146939858387
 20
-225.7882658175313
 30
0.0
 11
858.4224495122296
 21
-224.8122171040501
 31
0.0
  0
LINE
  5
144
  8
OUTER
 10
860.0972909806799
 20
-226.8611966740004
 30
0.0
 11
859.3146939858387
 21
-225.7882658175313
 31
0.0
  0
LINE
  5
145
  8
OUTER
 10
860.768520416875
 20
-228.0442934852164
 30
0.0
 11
860.0972909806799
 21
-226.8611966740004
 31
0.0
  0
LINE
  5
146
  8
OUTER
 10
861.3309299462373
 20
-229.3461811202197
 30
0.0
 11
860.768520416875
 21
-228.0442934852164
 31
0.0
  0
LINE
  5
147
  8
OUTER
 10
861.7900110106708
 20
-230.7723490229031
 30
0.0
 11
861.3309299462373
 21
-229.3461811202197
 31
0.0
  0
LINE
  5
148
  8
OUTER
 10
862.1533857079475
 20
-232.3258069803484
 30
0.0
 11
861.7900110106708
 21
-230.7723490229031
 31
0.0
  0
LINE
  5
149
  8
OUTER
 10
862.4302528930046
 20
-234.0073006815796
 30
0.0
 11
862.1533857079475
 21
-232.3258069803484
 31
0.0
  0
LINE
  5
14A
  8
OUTER
 10
862.6306930341685
 20
-235.8157747252965
 30
0.0
 11
862.4302528930046
 21
-234.0073006815796
 31
0.0
  0
LINE
  5
14B
  8
OUTER
 10
862.7648320775947
 20
-237.7490815277666
 30
0.0
 11
862.6306930341685
 21
-235.8157747252965
 31
0.0
  0
LINE
  5
14C
  8
OUTER
 10
862.842046408961
 20
-239.8046142722881
 30
0.0
 11
862.7648320775947
 21
-237.7490815277666
 31
0.0
  0
LINE
  5
14D
  8
OUTER
 10
928.9531577630869
 20
-242.7645448025494
 30
0.0
 11
928.9531576064751
 21
-237.5743988739863
 31
0.0
  0
LINE
  5
14E
  8
OUTER
 10
928.9531576057809
 20
-253.0396529159631
 30
0.0
 11
928.9531577630869
 21
-242.7645448025494
 31
0.0
  0
LINE
  5
14F
  8
OUTER
 10
910.9531576057802
 20
-253.0396529151552
 30
0.0
 11
928.9531576057809
 21
-253.0396529159631
 31
0.0
  0
LINE
  5
150
  8
OUTER
 10
910.9531577627032
 20
-242.7896531055987
 30
0.0
 11
910.9531576057802
 21
-253.0396529151552
 31
0.0
  0
LINE
  5
151
  8
OUTER
 10
910.9531576065888
 20
-235.0396529151545
 30
0.0
 11
910.9531577627032
 21
-242.7896531055987
 31
0.0
  0
LINE
  5
152
  8
OUTER
 10
910.8899540271449
 20
-234.5674553268885
 30
0.0
 11
910.9531576065888
 21
-235.0396529151545
 31
0.0
  0
LINE
  5
153
  8
OUTER
 10
910.7887820607751
 20
-234.1149443511939
 30
0.0
 11
910.8899540271449
 21
-234.5674553268885
 31
0.0
  0
LINE
  5
154
  8
OUTER
 10
910.6428075131719
 20
-233.6855202265566
 30
0.0
 11
910.7887820607751
 21
-234.1149443511939
 31
0.0
  0
LINE
  5
155
  8
OUTER
 10
910.4471661765493
 20
-233.281566916907
 30
0.0
 11
910.6428075131719
 21
-233.6855202265566
 31
0.0
  0
LINE
  5
156
  8
OUTER
 10
910.1995424285192
 20
-232.9041988643627
 30
0.0
 11
910.4471661765493
 21
-233.281566916907
 31
0.0
  0
LINE
  5
157
  8
OUTER
 10
909.900035961007
 20
-232.553333832684
 30
0.0
 11
910.1995424285192
 21
-232.9041988643627
 31
0.0
  0
LINE
  5
158
  8
OUTER
 10
909.5505925724743
 20
-232.2279654424921
 30
0.0
 11
909.900035961007
 21
-232.553333832684
 31
0.0
  0
LINE
  5
159
  8
OUTER
 10
909.1544429259138
 20
-231.926431984703
 30
0.0
 11
909.5505925724743
 21
-232.2279654424921
 31
0.0
  0
LINE
  5
15A
  8
OUTER
 10
908.7157865766678
 20
-231.6465724386796
 30
0.0
 11
909.1544429259138
 21
-231.926431984703
 31
0.0
  0
LINE
  5
15B
  8
OUTER
 10
908.239691802766
 20
-231.3857832466032
 30
0.0
 11
908.7157865766678
 21
-231.6465724386796
 31
0.0
  0
LINE
  5
15C
  8
OUTER
 10
907.732012782689
 20
-231.1410670885883
 30
0.0
 11
908.239691802766
 21
-231.3857832466032
 31
0.0
  0
LINE
  5
15D
  8
OUTER
 10
907.1992252804214
 20
-230.9091189306276
 30
0.0
 11
907.732012782689
 21
-231.1410670885883
 31
0.0
  0
LINE
  5
15E
  8
OUTER
 10
906.0857156949793
 20
-230.4695742741133
 30
0.0
 11
907.1992252804214
 21
-230.9091189306276
 31
0.0
  0
LINE
  5
15F
  8
OUTER
 10
904.9531575243343
 20
-230.0396532509767
 30
0.0
 11
906.0857156949793
 21
-230.4695742741133
 31
0.0
  0
LINE
  5
160
  8
OUTER
 10
903.849476840971
 20
-229.5949503925626
 30
0.0
 11
904.9531575243343
 21
-230.0396532509767
 31
0.0
  0
LINE
  5
161
  8
OUTER
 10
902.8120082908652
 20
-229.1164628109211
 30
0.0
 11
903.849476840971
 21
-229.5949503925626
 31
0.0
  0
LINE
  5
162
  8
OUTER
 10
902.3268078351946
 20
-228.8601207509644
 30
0.0
 11
902.8120082908652
 21
-229.1164628109211
 31
0.0
  0
LINE
  5
163
  8
OUTER
 10
901.8674202340696
 20
-228.5906204685294
 30
0.0
 11
902.3268078351946
 21
-228.8601207509644
 31
0.0
  0
LINE
  5
164
  8
OUTER
 10
901.4358048402112
 20
-228.3069646233956
 30
0.0
 11
901.8674202340696
 21
-228.5906204685294
 31
0.0
  0
LINE
  5
165
  8
OUTER
 10
901.0334893275739
 20
-228.0083757164258
 30
0.0
 11
901.4358048402112
 21
-228.3069646233956
 31
0.0
  0
LINE
  5
166
  8
OUTER
 10
900.661626468007
 20
-227.6942672384199
 30
0.0
 11
901.0334893275739
 21
-228.0083757164258
 31
0.0
  0
LINE
  5
167
  8
OUTER
 10
900.3210461305315
 20
-227.3642170986375
 30
0.0
 11
900.661626468007
 21
-227.6942672384199
 31
0.0
  0
LINE
  5
168
  8
OUTER
 10
900.0123066934204
 20
-227.017941342217
 30
0.0
 11
900.3210461305315
 21
-227.3642170986375
 31
0.0
  0
LINE
  5
169
  8
OUTER
 10
899.7357461081493
 20
-226.6552681129244
 30
0.0
 11
900.0123066934204
 21
-227.017941342217
 31
0.0
  0
LINE
  5
16A
  8
OUTER
 10
899.4915325407674
 20
-226.2761119139552
 30
0.0
 11
899.7357461081493
 21
-226.6552681129244
 31
0.0
  0
LINE
  5
16B
  8
OUTER
 10
899.2797148417461
 20
-225.8804479688786
 30
0.0
 11
899.4915325407674
 21
-226.2761119139552
 31
0.0
  0
LINE
  5
16C
  8
OUTER
 10
899.1002715855105
 20
-225.4682872809898
 30
0.0
 11
899.2797148417461
 21
-225.8804479688786
 31
0.0
  0
LINE
  5
16D
  8
OUTER
 10
898.9531576070375
 20
-225.0396529146152
 30
0.0
 11
899.1002715855105
 21
-225.4682872809898
 31
0.0
  0
LINE
  5
16E
  8
OUTER
 10
880.9531576070375
 20
-225.0396529138067
 30
0.0
 11
898.9531576070375
 21
-225.0396529146152
 31
0.0
  0
LINE
  5
16F
  8
OUTER
 10
880.9531576078455
 20
-207.0396529138073
 30
0.0
 11
880.9531576070375
 21
-225.0396529138067
 31
0.0
  0
LINE
  5
170
  8
OUTER
 10
898.9531576078455
 20
-207.0396529146159
 30
0.0
 11
880.9531576078455
 21
-207.0396529138073
 31
0.0
  0
LINE
  5
171
  8
OUTER
 10
900.6041719372018
 20
-208.1115903770939
 30
0.0
 11
898.9531576078455
 21
-207.0396529146159
 31
0.0
  0
LINE
  5
172
  8
OUTER
 10
902.4772331627669
 20
-209.2738348649914
 30
0.0
 11
900.6041719372018
 21
-208.1115903770939
 31
0.0
  0
LINE
  5
173
  8
OUTER
 10
904.5710190695956
 20
-210.5255966187526
 30
0.0
 11
902.4772331627669
 21
-209.2738348649914
 31
0.0
  0
LINE
  5
174
  8
OUTER
 10
906.8765487031803
 20
-211.8625259750609
 30
0.0
 11
904.5710190695956
 21
-210.5255966187526
 31
0.0
  0
LINE
  5
175
  8
OUTER
 10
909.3710674724083
 20
-213.274091010038
 30
0.0
 11
906.8765487031803
 21
-211.8625259750609
 31
0.0
  0
LINE
  5
176
  8
OUTER
 10
912.0112999525056
 20
-214.7407083902066
 30
0.0
 11
909.3710674724083
 21
-213.274091010038
 31
0.0
  0
LINE
  5
177
  8
OUTER
 10
917.4440949427392
 20
-217.7433431909462
 30
0.0
 11
912.0112999525056
 21
-214.7407083902066
 31
0.0
  0
LINE
  5
178
  8
OUTER
 10
920.0527009740247
 20
-219.2646050732207
 30
0.0
 11
917.4440949427392
 21
-217.7433431909462
 31
0.0
  0
LINE
  5
179
  8
OUTER
 10
921.2850292186351
 20
-220.0422304516076
 30
0.0
 11
920.0527009740247
 21
-219.2646050732207
 31
0.0
  0
LINE
  5
17A
  8
OUTER
 10
922.4514238737496
 20
-220.8439134294307
 30
0.0
 11
921.2850292186351
 21
-220.0422304516076
 31
0.0
  0
LINE
  5
17B
  8
OUTER
 10
923.5385046882946
 20
-221.6842491381169
 30
0.0
 11
922.4514238737496
 21
-220.8439134294307
 31
0.0
  0
LINE
  5
17C
  8
OUTER
 10
924.5335607097437
 20
-222.5820017057483
 30
0.0
 11
923.5385046882946
 21
-221.6842491381169
 31
0.0
  0
LINE
  5
17D
  8
OUTER
 10
925.4258051833528
 20
-223.5580504192301
 30
0.0
 11
924.5335607097437
 21
-222.5820017057483
 31
0.0
  0
LINE
  5
17E
  8
OUTER
 10
926.2084021781945
 20
-224.6309812756992
 30
0.0
 11
925.4258051833528
 21
-223.5580504192301
 31
0.0
  0
LINE
  5
17F
  8
OUTER
 10
926.8796316143892
 20
-225.8140780869152
 30
0.0
 11
926.2084021781945
 21
-224.6309812756992
 31
0.0
  0
LINE
  5
180
  8
OUTER
 10
927.4420411437513
 20
-227.1159657219179
 30
0.0
 11
926.8796316143892
 21
-225.8140780869152
 31
0.0
  0
LINE
  5
181
  8
OUTER
 10
927.9011222081856
 20
-228.5421336246012
 30
0.0
 11
927.4420411437513
 21
-227.1159657219179
 31
0.0
  0
LINE
  5
182
  8
OUTER
 10
928.2644969054616
 20
-230.0955915820472
 30
0.0
 11
927.9011222081856
 21
-228.5421336246012
 31
0.0
  0
LINE
  5
183
  8
OUTER
 10
928.5413640905194
 20
-231.7770852832786
 30
0.0
 11
928.2644969054616
 21
-230.0955915820472
 31
0.0
  0
LINE
  5
184
  8
OUTER
 10
928.7418042316833
 20
-233.5855593269947
 30
0.0
 11
928.5413640905194
 21
-231.7770852832786
 31
0.0
  0
LINE
  5
185
  8
OUTER
 10
928.8759432751087
 20
-235.5188661294649
 30
0.0
 11
928.7418042316833
 21
-233.5855593269947
 31
0.0
  0
LINE
  5
186
  8
OUTER
 10
928.9531576064751
 20
-237.5743988739863
 30
0.0
 11
928.8759432751087
 21
-235.5188661294649
 31
0.0
  0
LINE
  5
187
  8
INNER
 10
855.9615186180238
 20
-747.9979008737517
 30
0.0
 11
855.9615186198192
 21
-727.9979008787541
 31
0.0
  0
LINE
  5
188
  8
INNER
 10
870.9615186142735
 20
-747.9979008750993
 30
0.0
 11
855.9615186180238
 21
-747.9979008737517
 31
0.0
  0
LINE
  5
189
  8
INNER
 10
870.961518616069
 20
-727.9979008801017
 30
0.0
 11
870.9615186142735
 21
-747.9979008750993
 31
0.0
  0
LINE
  5
18A
  8
INNER
 10
855.9615186198192
 20
-727.9979008787541
 30
0.0
 11
870.961518616069
 21
-727.9979008801017
 31
0.0
  0
LINE
  5
18B
  8
OUTER
 10
860.3133775921917
 20
-895.1526205819335
 30
0.0
 11
860.3133775823102
 21
-913.1528126634389
 31
0.0
  0
LINE
  5
18C
  8
OUTER
 10
840.8886869669832
 20
-895.1526205851651
 30
0.0
 11
860.3133775921917
 21
-895.1526205819335
 31
0.0
  0
LINE
  5
18D
  8
OUTER
 10
840.8886869768609
 20
-826.6128982162414
 30
0.0
 11
840.8886869669832
 21
-895.1526205851651
 31
0.0
  0
LINE
  5
18E
  8
OUTER
 10
822.8886869571023
 20
-826.6129049374234
 30
0.0
 11
840.8886869768609
 21
-826.6128982162414
 31
0.0
  0
LINE
  5
18F
  8
OUTER
 10
822.8886869669831
 20
-771.6129049374234
 30
0.0
 11
822.8886869571023
 21
-826.6129049374234
 31
0.0
  0
LINE
  5
190
  8
OUTER
 10
840.8886869669832
 20
-771.6129049406551
 30
0.0
 11
822.8886869669831
 21
-771.6129049374234
 31
0.0
  0
LINE
  5
191
  8
OUTER
 10
840.8886869768609
 20
-716.6129049406551
 30
0.0
 11
840.8886869669832
 21
-771.6129049406551
 31
0.0
  0
LINE
  5
192
  8
OUTER
 10
822.8886904157073
 20
-716.6129008959131
 30
0.0
 11
840.8886869768609
 21
-716.6129049406551
 31
0.0
  0
LINE
  5
193
  8
OUTER
 10
822.8886904255844
 20
-661.6129008959131
 30
0.0
 11
822.8886904157073
 21
-716.6129008959131
 31
0.0
  0
LINE
  5
194
  8
OUTER
 10
840.8886904255851
 20
-661.6129008991447
 30
0.0
 11
822.8886904255844
 21
-661.6129008959131
 31
0.0
  0
LINE
  5
195
  8
OUTER
 10
840.8886904354621
 20
-606.6129008991447
 30
0.0
 11
840.8886904255851
 21
-661.6129008991447
 31
0.0
  0
LINE
  5
196
  8
OUTER
 10
822.8886904157073
 20
-606.6128968544026
 30
0.0
 11
840.8886904354621
 21
-606.6129008991447
 31
0.0
  0
LINE
  5
197
  8
OUTER
 10
822.8886904255844
 20
-551.6128968544019
 30
0.0
 11
822.8886904157073
 21
-606.6128968544026
 31
0.0
  0
LINE
  5
198
  8
OUTER
 10
840.8886904255851
 20
-551.6128968576348
 30
0.0
 11
822.8886904255844
 21
-551.6128968544019
 31
0.0
  0
LINE
  5
199
  8
OUTER
 10
840.8886904354621
 20
-496.6128968576348
 30
0.0
 11
840.8886904255851
 21
-551.6128968576348
 31
0.0
  0
LINE
  5
19A
  8
OUTER
 10
822.8886904157073
 20
-496.6128995415935
 30
0.0
 11
840.8886904354621
 21
-496.6128968576348
 31
0.0
  0
LINE
  5
19B
  8
OUTER
 10
822.8886904255844
 20
-441.6128995415935
 30
0.0
 11
822.8886904157073
 21
-496.6128995415935
 31
0.0
  0
LINE
  5
19C
  8
OUTER
 10
840.8886904255851
 20
-441.6128995448266
 30
0.0
 11
822.8886904255844
 21
-441.6128995415935
 31
0.0
  0
LINE
  5
19D
  8
OUTER
 10
840.8886904354621
 20
-386.6128995448266
 30
0.0
 11
840.8886904255851
 21
-441.6128995448266
 31
0.0
  0
LINE
  5
19E
  8
OUTER
 10
822.8886904157073
 20
-386.612906266007
 30
0.0
 11
840.8886904354621
 21
-386.6128995448266
 31
0.0
  0
LINE
  5
19F
  8
OUTER
 10
822.8886904255844
 20
-331.6129062660066
 30
0.0
 11
822.8886904157073
 21
-386.612906266007
 31
0.0
  0
LINE
  5
1A0
  8
OUTER
 10
840.8886904255851
 20
-331.6129062692398
 30
0.0
 11
822.8886904255844
 21
-331.6129062660066
 31
0.0
  0
LINE
  5
1A1
  8
OUTER
 10
840.8886904354621
 20
-276.6129062859407
 30
0.0
 11
840.8886904255851
 21
-331.6129062692398
 31
0.0
  0
LINE
  5
1A2
  8
OUTER
 10
933.8886904354615
 20
-276.6129062859407
 30
0.0
 11
840.8886904354621
 21
-276.6129062859407
 31
0.0
  0
LINE
  5
1A3
  8
OUTER
 10
933.8886904255845
 20
-331.6129062859403
 30
0.0
 11
933.8886904354615
 21
-276.6129062859407
 31
0.0
  0
LINE
  5
1A4
  8
OUTER
 10
915.8886904255845
 20
-331.6129062827088
 30
0.0
 11
933.8886904255845
 21
-331.6129062859403
 31
0.0
  0
LINE
  5
1A5
  8
OUTER
 10
915.8886900850656
 20
-386.6128995615276
 30
0.0
 11
915.8886904255845
 21
-331.6129062827088
 31
0.0
  0
LINE
  5
1A6
  8
OUTER
 10
933.8886904354615
 20
-386.6128995615276
 30
0.0
 11
915.8886900850656
 21
-386.6128995615276
 31
0.0
  0
LINE
  5
1A7
  8
OUTER
 10
933.8886904255845
 20
-441.6128995615273
 30
0.0
 11
933.8886904354615
 21
-386.6128995615276
 31
0.0
  0
LINE
  5
1A8
  8
OUTER
 10
915.8886904255845
 20
-441.6128995582957
 30
0.0
 11
933.8886904255845
 21
-441.6128995615273
 31
0.0
  0
LINE
  5
1A9
  8
OUTER
 10
915.8886900850656
 20
-496.6128968743359
 30
0.0
 11
915.8886904255845
 21
-441.6128995582957
 31
0.0
  0
LINE
  5
1AA
  8
OUTER
 10
933.8886904354615
 20
-496.6128968743359
 30
0.0
 11
915.8886900850656
 21
-496.6128968743359
 31
0.0
  0
LINE
  5
1AB
  8
OUTER
 10
933.8886904255845
 20
-551.6128968743358
 30
0.0
 11
933.8886904354615
 21
-496.6128968743359
 31
0.0
  0
LINE
  5
1AC
  8
OUTER
 10
915.8886904255845
 20
-551.6128968711041
 30
0.0
 11
933.8886904255845
 21
-551.6128968743358
 31
0.0
  0
LINE
  5
1AD
  8
OUTER
 10
915.8886900850656
 20
-606.6129009158451
 30
0.0
 11
915.8886904255845
 21
-551.6128968711041
 31
0.0
  0
LINE
  5
1AE
  8
OUTER
 10
933.8886904354615
 20
-606.6129009158451
 30
0.0
 11
915.8886900850656
 21
-606.6129009158451
 31
0.0
  0
LINE
  5
1AF
  8
OUTER
 10
933.8886904255845
 20
-661.6129009158449
 30
0.0
 11
933.8886904354615
 21
-606.6129009158451
 31
0.0
  0
LINE
  5
1B0
  8
OUTER
 10
915.8886904255845
 20
-661.6129009126136
 30
0.0
 11
933.8886904255845
 21
-661.6129009158449
 31
0.0
  0
LINE
  5
1B1
  8
OUTER
 10
915.8886866264644
 20
-716.6129049573556
 30
0.0
 11
915.8886904255845
 21
-661.6129009126136
 31
0.0
  0
LINE
  5
1B2
  8
OUTER
 10
933.8886869768597
 20
-716.6129049573556
 30
0.0
 11
915.8886866264644
 21
-716.6129049573556
 31
0.0
  0
LINE
  5
1B3
  8
OUTER
 10
933.8886869669826
 20
-771.6129049573552
 30
0.0
 11
933.8886869768597
 21
-716.6129049573556
 31
0.0
  0
LINE
  5
1B4
  8
OUTER
 10
915.8886869669832
 20
-771.6129049541237
 30
0.0
 11
933.8886869669826
 21
-771.6129049573552
 31
0.0
  0
LINE
  5
1B5
  8
OUTER
 10
915.8886866264644
 20
-826.6128982329454
 30
0.0
 11
915.8886869669832
 21
-771.6129049541237
 31
0.0
  0
LINE
  5
1B6
  8
OUTER
 10
933.8886869768597
 20
-826.6128982329454
 30
0.0
 11
915.8886866264644
 21
-826.6128982329454
 31
0.0
  0
LINE
  5
1B7
  8
OUTER
 10
933.8886869669826
 20
-895.1526206018692
 30
0.0
 11
933.8886869768597
 21
-826.6128982329454
 31
0.0
  0
LINE
  5
1B8
  8
OUTER
 10
916.0644870899064
 20
-895.1526205986344
 30
0.0
 11
933.8886869669826
 21
-895.1526206018692
 31
0.0
  0
LINE
  5
1B9
  8
OUTER
 10
916.0644870800287
 20
-913.1528128268245
 30
0.0
 11
916.0644870899064
 21
-895.1526205986344
 31
0.0
  0
LINE
  5
1BA
  8
OUTER
 10
860.3133775823102
 20
-913.1528126634389
 30
0.0
 11
916.0644870800287
 21
-913.1528128268245
 31
0.0
  0
LINE
  5
1BB
  8
INNER
 10
719.951042401982
 20
-702.6580753544193
 30
0.0
 11
719.951042401982
 21
-684.6129013355447
 31
0.0
  0
LINE
  5
1BC
  8
INNER
 10
701.9140424064935
 20
-702.6580753544193
 30
0.0
 11
719.951042401982
 21
-702.6580753544193
 31
0.0
  0
LINE
  5
1BD
  8
INNER
 10
701.9140424064935
 20
-684.6129013355447
 30
0.0
 11
701.9140424064935
 21
-702.6580753544193
 31
0.0
  0
LINE
  5
1BE
  8
INNER
 10
719.951042401982
 20
-684.6129013355447
 30
0.0
 11
701.9140424064935
 21
-684.6129013355447
 31
0.0
  0
LINE
  5
1BF
  8
INNER
 10
749.8246782149682
 20
-418.3451165229812
 30
0.0
 11
749.8246782149682
 21
-400.3455054163701
 31
0.0
  0
LINE
  5
1C0
  8
INNER
 10
709.8250671138564
 20
-418.3451165229812
 30
0.0
 11
749.8246782149682
 21
-418.3451165229812
 31
0.0
  0
LINE
  5
1C1
  8
INNER
 10
709.8250671138564
 20
-400.3455054163701
 30
0.0
 11
709.8250671138564
 21
-418.3451165229812
 31
0.0
  0
LINE
  5
1C2
  8
INNER
 10
749.8246782149682
 20
-400.3455054163701
 30
0.0
 11
709.8250671138564
 21
-400.3455054163701
 31
0.0
  0
LINE
  5
1C3
  8
OUTER
 10
713.3294915467155
 20
-895.1526205819335
 30
0.0
 11
713.3294915368341
 21
-913.1528126634389
 31
0.0
  0
LINE
  5
1C4
  8
OUTER
 10
693.904800921507
 20
-895.1526205851651
 30
0.0
 11
713.3294915467155
 21
-895.1526205819335
 31
0.0
  0
LINE
  5
1C5
  8
OUTER
 10
693.9048009313848
 20
-826.6128982162414
 30
0.0
 11
693.904800921507
 21
-895.1526205851651
 31
0.0
  0
LINE
  5
1C6
  8
OUTER
 10
675.9048009116261
 20
-826.6129049374234
 30
0.0
 11
693.9048009313848
 21
-826.6128982162414
 31
0.0
  0
LINE
  5
1C7
  8
OUTER
 10
675.904800921507
 20
-771.6129049374234
 30
0.0
 11
675.9048009116261
 21
-826.6129049374234
 31
0.0
  0
LINE
  5
1C8
  8
OUTER
 10
693.904800921507
 20
-771.6129049406551
 30
0.0
 11
675.904800921507
 21
-771.6129049374234
 31
0.0
  0
LINE
  5
1C9
  8
OUTER
 10
693.9048009313848
 20
-716.6129049406551
 30
0.0
 11
693.904800921507
 21
-771.6129049406551
 31
0.0
  0
LINE
  5
1CA
  8
OUTER
 10
675.9048043702313
 20
-716.6129008959131
 30
0.0
 11
693.9048009313848
 21
-716.6129049406551
 31
0.0
  0
LINE
  5
1CB
  8
OUTER
 10
675.9048043801083
 20
-661.6129008959131
 30
0.0
 11
675.9048043702313
 21
-716.6129008959131
 31
0.0
  0
LINE
  5
1CC
  8
OUTER
 10
693.9048043801089
 20
-661.6129008991447
 30
0.0
 11
675.9048043801083
 21
-661.6129008959131
 31
0.0
  0
LINE
  5
1CD
  8
OUTER
 10
693.9048043899859
 20
-606.6129008991447
 30
0.0
 11
693.9048043801089
 21
-661.6129008991447
 31
0.0
  0
LINE
  5
1CE
  8
OUTER
 10
675.9048043702313
 20
-606.6128968544026
 30
0.0
 11
693.9048043899859
 21
-606.6129008991447
 31
0.0
  0
LINE
  5
1CF
  8
OUTER
 10
675.9048043801083
 20
-551.6128968544019
 30
0.0
 11
675.9048043702313
 21
-606.6128968544026
 31
0.0
  0
LINE
  5
1D0
  8
OUTER
 10
693.9048043801089
 20
-551.6128968576348
 30
0.0
 11
675.9048043801083
 21
-551.6128968544019
 31
0.0
  0
LINE
  5
1D1
  8
OUTER
 10
693.9048043899859
 20
-496.6128968576348
 30
0.0
 11
693.9048043801089
 21
-551.6128968576348
 31
0.0
  0
LINE
  5
1D2
  8
OUTER
 10
675.9048043702313
 20
-496.6128995415935
 30
0.0
 11
693.9048043899859
 21
-496.6128968576348
 31
0.0
  0
LINE
  5
1D3
  8
OUTER
 10
675.9048043801083
 20
-441.6128995415935
 30
0.0
 11
675.9048043702313
 21
-496.6128995415935
 31
0.0
  0
LINE
  5
1D4
  8
OUTER
 10
693.9048043801089
 20
-441.6128995448266
 30
0.0
 11
675.9048043801083
 21
-441.6128995415935
 31
0.0
  0
LINE
  5
1D5
  8
OUTER
 10
693.9048043899859
 20
-386.6128995448266
 30
0.0
 11
693.9048043801089
 21
-441.6128995448266
 31
0.0
  0
LINE
  5
1D6
  8
OUTER
 10
675.9048043702313
 20
-386.612906266007
 30
0.0
 11
693.9048043899859
 21
-386.6128995448266
 31
0.0
  0
LINE
  5
1D7
  8
OUTER
 10
675.9048043801083
 20
-331.6129062660066
 30
0.0
 11
675.9048043702313
 21
-386.612906266007
 31
0.0
  0
LINE
  5
1D8
  8
OUTER
 10
693.9048043801089
 20
-331.6129062692398
 30
0.0
 11
675.9048043801083
 21
-331.6129062660066
 31
0.0
  0
LINE
  5
1D9
  8
OUTER
 10
693.9048043899859
 20
-276.6129062859407
 30
0.0
 11
693.9048043801089
 21
-331.6129062692398
 31
0.0
  0
LINE
  5
1DA
  8
OUTER
 10
786.9048043899854
 20
-276.6129062859407
 30
0.0
 11
693.9048043899859
 21
-276.6129062859407
 31
0.0
  0
LINE
  5
1DB
  8
OUTER
 10
786.9048043801084
 20
-331.6129062859403
 30
0.0
 11
786.9048043899854
 21
-276.6129062859407
 31
0.0
  0
LINE
  5
1DC
  8
OUTER
 10
768.9048043801084
 20
-331.6129062827088
 30
0.0
 11
786.9048043801084
 21
-331.6129062859403
 31
0.0
  0
LINE
  5
1DD
  8
OUTER
 10
768.9048040395896
 20
-386.6128995615276
 30
0.0
 11
768.9048043801084
 21
-331.6129062827088
 31
0.0
  0
LINE
  5
1DE
  8
OUTER
 10
786.9048043899854
 20
-386.6128995615276
 30
0.0
 11
768.9048040395896
 21
-386.6128995615276
 31
0.0
  0
LINE
  5
1DF
  8
OUTER
 10
786.9048043801084
 20
-441.6128995615273
 30
0.0
 11
786.9048043899854
 21
-386.6128995615276
 31
0.0
  0
LINE
  5
1E0
  8
OUTER
 10
768.9048043801084
 20
-441.6128995582957
 30
0.0
 11
786.9048043801084
 21
-441.6128995615273
 31
0.0
  0
LINE
  5
1E1
  8
OUTER
 10
768.9048040395896
 20
-496.6128968743359
 30
0.0
 11
768.9048043801084
 21
-441.6128995582957
 31
0.0
  0
LINE
  5
1E2
  8
OUTER
 10
786.9048043899854
 20
-496.6128968743359
 30
0.0
 11
768.9048040395896
 21
-496.6128968743359
 31
0.0
  0
LINE
  5
1E3
  8
OUTER
 10
786.9048043801084
 20
-551.6128968743358
 30
0.0
 11
786.9048043899854
 21
-496.6128968743359
 31
0.0
  0
LINE
  5
1E4
  8
OUTER
 10
768.9048043801084
 20
-551.6128968711041
 30
0.0
 11
786.9048043801084
 21
-551.6128968743358
 31
0.0
  0
LINE
  5
1E5
  8
OUTER
 10
768.9048040395896
 20
-606.6129009158451
 30
0.0
 11
768.9048043801084
 21
-551.6128968711041
 31
0.0
  0
LINE
  5
1E6
  8
OUTER
 10
786.9048043899854
 20
-606.6129009158451
 30
0.0
 11
768.9048040395896
 21
-606.6129009158451
 31
0.0
  0
LINE
  5
1E7
  8
OUTER
 10
786.9048043801084
 20
-661.6129009158449
 30
0.0
 11
786.9048043899854
 21
-606.6129009158451
 31
0.0
  0
LINE
  5
1E8
  8
OUTER
 10
768.9048043801084
 20
-661.6129009126136
 30
0.0
 11
786.9048043801084
 21
-661.6129009158449
 31
0.0
  0
LINE
  5
1E9
  8
OUTER
 10
768.9048005809883
 20
-716.6129049573556
 30
0.0
 11
768.9048043801084
 21
-661.6129009126136
 31
0.0
  0
LINE
  5
1EA
  8
OUTER
 10
786.9048009313835
 20
-716.6129049573556
 30
0.0
 11
768.9048005809883
 21
-716.6129049573556
 31
0.0
  0
LINE
  5
1EB
  8
OUTER
 10
786.9048009215065
 20
-771.6129049573552
 30
0.0
 11
786.9048009313835
 21
-716.6129049573556
 31
0.0
  0
LINE
  5
1EC
  8
OUTER
 10
768.9048009215071
 20
-771.6129049541237
 30
0.0
 11
786.9048009215065
 21
-771.6129049573552
 31
0.0
  0
LINE
  5
1ED
  8
OUTER
 10
768.9048005809883
 20
-826.6128982329454
 30
0.0
 11
768.9048009215071
 21
-771.6129049541237
 31
0.0
  0
LINE
  5
1EE
  8
OUTER
 10
786.9048009313835
 20
-826.6128982329454
 30
0.0
 11
768.9048005809883
 21
-826.6128982329454
 31
0.0
  0
LINE
  5
1EF
  8
OUTER
 10
786.9048009215065
 20
-895.1526206018692
 30
0.0
 11
786.9048009313835
 21
-826.6128982329454
 31
0.0
  0
LINE
  5
1F0
  8
OUTER
 10
769.0806010444303
 20
-895.1526205986344
 30
0.0
 11
786.9048009215065
 21
-895.1526206018692
 31
0.0
  0
LINE
  5
1F1
  8
OUTER
 10
769.0806010345526
 20
-913.1528128268245
 30
0.0
 11
769.0806010444303
 21
-895.1526205986344
 31
0.0
  0
LINE
  5
1F2
  8
OUTER
 10
713.3294915368341
 20
-913.1528126634389
 30
0.0
 11
769.0806010345526
 21
-913.1528128268245
 31
0.0
  0
LINE
  5
1F3
  8
INNER
 10
748.9642667373605
 20
-674.6128877743648
 30
0.0
 11
748.9642667373605
 21
-656.6128877788626
 31
0.0
  0
LINE
  5
1F4
  8
INNER
 10
708.964266747358
 20
-674.6128877743648
 30
0.0
 11
748.9642667373605
 21
-674.6128877743648
 31
0.0
  0
LINE
  5
1F5
  8
INNER
 10
708.964266747358
 20
-656.6128877788626
 30
0.0
 11
708.964266747358
 21
-674.6128877743648
 31
0.0
  0
LINE
  5
1F6
  8
INNER
 10
748.9642667373605
 20
-656.6128877788626
 30
0.0
 11
708.964266747358
 21
-656.6128877788626
 31
0.0
  0
LINE
  5
1F7
  8
INNER
 10
898.3941305307109
 20
-674.8538428867405
 30
0.0
 11
898.3941305307109
 21
-656.8163070785913
 31
0.0
  0
LINE
  5
1F8
  8
INNER
 10
858.3832437338929
 20
-674.8538428867405
 30
0.0
 11
898.3941305307109
 21
-674.8538428867405
 31
0.0
  0
LINE
  5
1F9
  8
INNER
 10
858.3832437338929
 20
-656.8163070785913
 30
0.0
 11
858.3832437338929
 21
-674.8538428867405
 31
0.0
  0
LINE
  5
1FA
  8
INNER
 10
898.3941305307109
 20
-656.8163070785913
 30
0.0
 11
858.3832437338929
 21
-656.8163070785913
 31
0.0
  0
LINE
  5
1FB
  8
INNER
 10
896.749151071846
 20
-418.3451165229812
 30
0.0
 11
896.749151071846
 21
-400.3455054163701
 31
0.0
  0
LINE
  5
1FC
  8
INNER
 10
856.7495399707342
 20
-418.3451165229812
 30
0.0
 11
896.749151071846
 21
-418.3451165229812
 31
0.0
  0
LINE
  5
1FD
  8
INNER
 10
856.7495399707342
 20
-400.3455054163701
 30
0.0
 11
856.7495399707342
 21
-418.3451165229812
 31
0.0
  0
LINE
  5
1FE
  8
INNER
 10
896.749151071846
 20
-400.3455054163701
 30
0.0
 11
856.7495399707342
 21
-400.3455054163701
 31
0.0
  0
LINE
  5
1FF
  8
INNER
 10
755.9356837860141
 20
-702.6580753544193
 30
0.0
 11
755.9356837860141
 21
-684.6129013355447
 31
0.0
  0
LINE
  5
200
  8
INNER
 10
737.8986837905225
 20
-702.6580753544193
 30
0.0
 11
755.9356837860141
 21
-702.6580753544193
 31
0.0
  0
LINE
  5
201
  8
INNER
 10
737.8986837905225
 20
-684.6129013355447
 30
0.0
 11
737.8986837905225
 21
-702.6580753544193
 31
0.0
  0
LINE
  5
202
  8
INNER
 10
755.9356837860141
 20
-684.6129013355447
 30
0.0
 11
737.8986837905225
 21
-684.6129013355447
 31
0.0
  0
LINE
  5
203
  8
OUTER
 10
827.038240083878
 20
-117.7796969547978
 30
0.0
 11
809.0386066383996
 21
-117.7796969547978
 31
0.0
  0
LINE
  5
204
  8
OUTER
 10
827.0385845934265
 20
-92.64014617983298
 30
0.0
 11
827.038240083878
 21
-117.7796969547978
 31
0.0
  0
LINE
  5
205
  8
OUTER
 10
836.8990507639215
 20
-92.64014617983298
 30
0.0
 11
827.0385845934265
 21
-92.64014617983298
 31
0.0
  0
LINE
  5
206
  8
OUTER
 10
836.8990507639215
 20
-74.66863332625292
 30
0.0
 11
836.8990507639215
 21
-92.64014617983298
 31
0.0
  0
LINE
  5
207
  8
OUTER
 10
876.8986764049632
 20
-74.66863332625292
 30
0.0
 11
836.8990507639215
 21
-74.66863332625292
 31
0.0
  0
LINE
  5
208
  8
OUTER
 10
876.8986764049632
 20
-92.64014617983298
 30
0.0
 11
876.8986764049632
 21
-74.66863332625292
 31
0.0
  0
LINE
  5
209
  8
OUTER
 10
902.0385716894768
 20
-92.64014617983298
 30
0.0
 11
876.8986764049632
 21
-92.64014617983298
 31
0.0
  0
LINE
  5
20A
  8
OUTER
 10
902.0385716894768
 20
-102.5286037511448
 30
0.0
 11
902.0385716894768
 21
-92.64014617983298
 31
0.0
  0
LINE
  5
20B
  8
OUTER
 10
920.0382051349552
 20
-102.5286037511448
 30
0.0
 11
902.0385716894768
 21
-102.5286037511448
 31
0.0
  0
LINE
  5
20C
  8
OUTER
 10
920.0382051349552
 20
-142.528229392187
 30
0.0
 11
920.0382051349552
 21
-102.5286037511448
 31
0.0
  0
LINE
  5
20D
  8
OUTER
 10
902.0385716894768
 20
-142.528229392187
 30
0.0
 11
920.0382051349552
 21
-142.528229392187
 31
0.0
  0
LINE
  5
20E
  8
OUTER
 10
902.0385716894768
 20
-167.6397887663344
 30
0.0
 11
902.0385716894768
 21
-142.528229392187
 31
0.0
  0
LINE
  5
20F
  8
OUTER
 10
892.178191646369
 20
-167.6397887663344
 30
0.0
 11
902.0385716894768
 21
-167.6397887663344
 31
0.0
  0
LINE
  5
210
  8
OUTER
 10
892.178191646369
 20
-185.6237900910485
 30
0.0
 11
892.178191646369
 21
-167.6397887663344
 31
0.0
  0
LINE
  5
211
  8
OUTER
 10
852.1785660053273
 20
-185.6237900910485
 30
0.0
 11
892.178191646369
 21
-185.6237900910485
 31
0.0
  0
LINE
  5
212
  8
OUTER
 10
852.1785660053273
 20
-167.6397887663344
 30
0.0
 11
852.1785660053273
 21
-185.6237900910485
 31
0.0
  0
LINE
  5
213
  8
OUTER
 10
827.0385845934265
 20
-167.6397887663344
 30
0.0
 11
852.1785660053273
 21
-167.6397887663344
 31
0.0
  0
LINE
  5
214
  8
OUTER
 10
827.0385845934265
 20
-157.7793225958394
 30
0.0
 11
827.0385845934265
 21
-167.6397887663344
 31
0.0
  0
LINE
  5
215
  8
OUTER
 10
809.0386066383996
 20
-157.7793225958394
 30
0.0
 11
827.0385845934265
 21
-157.7793225958394
 31
0.0
  0
LINE
  5
216
  8
OUTER
 10
809.0386066383996
 20
-117.7796969547978
 30
0.0
 11
809.0386066383996
 21
-157.7793225958394
 31
0.0
  0
LINE
  5
217
  8
OUTER
 10
857.5129592298006
 20
-50.48891994849782
 30
0.0
 11
857.5129592298006
 21
-22.48930884438596
 31
0.0
  0
LINE
  5
218
  8
OUTER
 10
807.5133481311899
 20
-50.48891994849782
 30
0.0
 11
857.5129592298006
 21
-50.48891994849782
 31
0.0
  0
LINE
  5
219
  8
OUTER
 10
807.5133481311899
 20
-22.48930884438596
 30
0.0
 11
807.5133481311899
 21
-50.48891994849782
 31
0.0
  0
LINE
  5
21A
  8
OUTER
 10
857.5129592298006
 20
-22.48930884438596
 30
0.0
 11
807.5133481311899
 21
-22.48930884438596
 31
0.0
  0
LINE
  5
21B
  8
OUTER
 10
931.1357095201736
 20
-50.48891994849782
 30
0.0
 11
931.1357095201736
 21
-22.48930884438596
 31
0.0
  0
LINE
  5
21C
  8
OUTER
 10
881.1360984215627
 20
-50.48891994849782
 30
0.0
 11
931.1357095201736
 21
-50.48891994849782
 31
0.0
  0
LINE
  5
21D
  8
OUTER
 10
881.1360984215627
 20
-22.48930884438596
 30
0.0
 11
881.1360984215627
 21
-50.48891994849782
 31
0.0
  0
LINE
  5
21E
  8
OUTER
 10
931.1357095201736
 20
-22.48930884438596
 30
0.0
 11
881.1360984215627
 21
-22.48930884438596
 31
0.0
  0
LINE
  5
21F
  8
OUTER
 10
857.5129592298006
 20
0.0755377838831919
 30
0.0
 11
857.5129592298006
 21
28.07514888799506
 31
0.0
  0
LINE
  5
220
  8
OUTER
 10
807.5133481311899
 20
0.0755377838831919
 30
0.0
 11
857.5129592298006
 21
0.0755377838831919
 31
0.0
  0
LINE
  5
221
  8
OUTER
 10
807.5133481311899
 20
28.07514888799506
 30
0.0
 11
807.5133481311899
 21
0.0755377838831919
 31
0.0
  0
LINE
  5
222
  8
OUTER
 10
857.5129592298006
 20
28.07514888799506
 30
0.0
 11
807.5133481311899
 21
28.07514888799506
 31
0.0
  0
LINE
  5
223
  8
OUTER
 10
931.1357095201736
 20
0.0755377838831919
 30
0.0
 11
931.1357095201736
 21
28.07514888799506
 31
0.0
  0
LINE
  5
224
  8
OUTER
 10
881.1360984215627
 20
0.0755377838831919
 30
0.0
 11
931.1357095201736
 21
0.0755377838831919
 31
0.0
  0
LINE
  5
225
  8
OUTER
 10
881.1360984215627
 20
28.07514888799506
 30
0.0
 11
881.1360984215627
 21
0.0755377838831919
 31
0.0
  0
LINE
  5
226
  8
OUTER
 10
931.1357095201736
 20
28.07514888799506
 30
0.0
 11
881.1360984215627
 21
28.07514888799506
 31
0.0
  0
CIRCLE
  5
227
  8
DRILL_HOLES
 10
827.0515797590424
 20
-117.7796890438703
 30
0.0
 40
2.749999999312557
  0
CIRCLE
  5
228
  8
DRILL_HOLES
 10
827.0515797590423
 20
-157.7980258597669
 30
0.0
 40
2.749999999312671
  0
CIRCLE
  5
229
  8
DRILL_HOLES
 10
836.7746805315111
 20
-92.64014009564323
 30
0.0
 40
2.74999999931233
  0
CIRCLE
  5
22A
  8
DRILL_HOLES
 10
876.8986741195703
 20
-92.64014009564323
 30
0.0
 40
2.749999999312422
  0
CIRCLE
  5
22B
  8
DRILL_HOLES
 10
902.056171688829
 20
-102.497338135518
 30
0.0
 40
2.749999999312436
  0
CIRCLE
  5
22C
  8
DRILL_HOLES
 10
902.0385706100756
 20
-142.5282221659584
 30
0.0
 40
2.74999999931272
  0
CIRCLE
  5
22D
  8
DRILL_HOLES
 10
892.3027590293085
 20
-167.6397815401057
 30
0.0
 40
2.749999999312564
  0
CIRCLE
  5
22E
  8
DRILL_HOLES
 10
852.1785644554426
 20
-167.6397815401059
 30
0.0
 40
2.749999999312529
  0
CIRCLE
  5
22F
  8
DRILL_HOLES
 10
553.0643118815112
 20
-141.3563237252428
 30
0.0
 40
2.749999999312649
  0
CIRCLE
  5
230
  8
DRILL_HOLES
 10
593.0639213736679
 20
-141.3563237252428
 30
0.0
 40
2.749999999312649
  0
CIRCLE
  5
231
  8
DRILL_HOLES
 10
553.0643118815112
 20
-159.3559356388744
 30
0.0
 40
2.749999999312649
  0
CIRCLE
  5
232
  8
DRILL_HOLES
 10
593.0639213736679
 20
-159.3559356388744
 30
0.0
 40
2.749999999312649
  0
CIRCLE
  5
233
  8
DRILL_HOLES
 10
415.1865077002316
 20
-141.3563237252427
 30
0.0
 40
2.749999999312593
  0
CIRCLE
  5
234
  8
DRILL_HOLES
 10
455.1861171923882
 20
-141.3563237252428
 30
0.0
 40
2.749999999312706
  0
CIRCLE
  5
235
  8
DRILL_HOLES
 10
415.1865077002316
 20
-159.3559356388743
 30
0.0
 40
2.749999999312649
  0
CIRCLE
  5
236
  8
DRILL_HOLES
 10
455.1861171923882
 20
-159.3559356388744
 30
0.0
 40
2.749999999312706
  0
CIRCLE
  5
237
  8
DRILL_HOLES
 10
395.9985449186823
 20
-72.6237104877566
 30
0.0
 40
2.749999999312649
  0
CIRCLE
  5
238
  8
DRILL_HOLES
 10
471.0953821104288
 20
-72.62371048775665
 30
0.0
 40
2.749999999312706
  0
CIRCLE
  5
239
  8
DRILL_HOLES
 10
395.9501258510997
 20
-127.6237125085119
 30
0.0
 40
2.749999999312649
  0
CIRCLE
  5
23A
  8
DRILL_HOLES
 10
471.0469630428462
 20
-127.6237125085118
 30
0.0
 40
2.749999999312649
  0
CIRCLE
  5
23B
  8
DRILL_HOLES
 10
396.0469638863858
 20
-182.6237037633436
 30
0.0
 40
2.749999999312649
  0
CIRCLE
  5
23C
  8
DRILL_HOLES
 10
471.1438010781323
 20
-182.6237037633437
 30
0.0
 40
2.749999999312649
  0
CIRCLE
  5
23D
  8
DRILL_HOLES
 10
395.9985448188031
 20
-237.6237057840989
 30
0.0
 40
2.749999999312706
  0
CIRCLE
  5
23E
  8
DRILL_HOLES
 10
471.0953820105495
 20
-237.6237057840989
 30
0.0
 40
2.749999999312706
  0
CIRCLE
  5
23F
  8
DRILL_HOLES
 10
396.0469638863858
 20
-292.6236970389306
 30
0.0
 40
2.749999999312649
  0
CIRCLE
  5
240
  8
DRILL_HOLES
 10
471.1438010781324
 20
-292.6236970389307
 30
0.0
 40
2.749999999312593
  0
CIRCLE
  5
241
  8
DRILL_HOLES
 10
395.9985448188032
 20
-347.6236990596863
 30
0.0
 40
2.749999999312649
  0
CIRCLE
  5
242
  8
DRILL_HOLES
 10
471.0953820105496
 20
-347.6236990596863
 30
0.0
 40
2.749999999312649
  0
CIRCLE
  5
243
  8
DRILL_HOLES
 10
396.0469638863858
 20
-402.7121644206222
 30
0.0
 40
2.749999999312706
  0
CIRCLE
  5
244
  8
DRILL_HOLES
 10
471.1438010781323
 20
-402.7121644206223
 30
0.0
 40
2.749999999312649
  0
CIRCLE
  5
245
  8
DRILL_HOLES
 10
395.9985448188031
 20
-457.7121664413776
 30
0.0
 40
2.749999999312706
  0
CIRCLE
  5
246
  8
DRILL_HOLES
 10
471.0953820105497
 20
-457.7121664413776
 30
0.0
 40
2.749999999312593
  0
CIRCLE
  5
247
  8
DRILL_HOLES
 10
533.8763598658854
 20
-72.62371048775655
 30
0.0
 40
2.749999999312649
  0
CIRCLE
  5
248
  8
DRILL_HOLES
 10
608.9731970576316
 20
-72.62371048775651
 30
0.0
 40
2.749999999312763
  0
CIRCLE
  5
249
  8
DRILL_HOLES
 10
533.8279407983026
 20
-127.6237125085117
 30
0.0
 40
2.749999999312763
  0
CIRCLE
  5
24A
  8
DRILL_HOLES
 10
608.9247779900493
 20
-127.6237125085117
 30
0.0
 40
2.749999999312649
  0
CIRCLE
  5
24B
  8
DRILL_HOLES
 10
533.9247788335888
 20
-182.6237037633437
 30
0.0
 40
2.749999999312649
  0
CIRCLE
  5
24C
  8
DRILL_HOLES
 10
609.0216160253353
 20
-182.6237037633437
 30
0.0
 40
2.749999999312649
  0
CIRCLE
  5
24D
  8
DRILL_HOLES
 10
533.8763597660061
 20
-237.6237057840987
 30
0.0
 40
2.749999999312763
  0
CIRCLE
  5
24E
  8
DRILL_HOLES
 10
608.9731969577527
 20
-237.6237057840988
 30
0.0
 40
2.749999999312649
  0
CIRCLE
  5
24F
  8
DRILL_HOLES
 10
533.9247788335887
 20
-292.6236970389306
 30
0.0
 40
2.749999999312763
  0
CIRCLE
  5
250
  8
DRILL_HOLES
 10
609.0216160253353
 20
-292.6236970389307
 30
0.0
 40
2.749999999312649
  0
CIRCLE
  5
251
  8
DRILL_HOLES
 10
533.8763597660062
 20
-347.6236990596863
 30
0.0
 40
2.749999999312649
  0
CIRCLE
  5
252
  8
DRILL_HOLES
 10
608.9731969577526
 20
-347.6236990596862
 30
0.0
 40
2.749999999312763
  0
CIRCLE
  5
253
  8
DRILL_HOLES
 10
533.9247788335888
 20
-402.7121644206222
 30
0.0
 40
2.749999999312649
  0
CIRCLE
  5
254
  8
DRILL_HOLES
 10
609.0216160253353
 20
-402.7121644206224
 30
0.0
 40
2.749999999312649
  0
CIRCLE
  5
255
  8
DRILL_HOLES
 10
533.8763597660062
 20
-457.7121664413776
 30
0.0
 40
2.749999999312649
  0
CIRCLE
  5
256
  8
DRILL_HOLES
 10
608.9731969577527
 20
-457.7121664413776
 30
0.0
 40
2.749999999312649
  0
CIRCLE
  5
257
  8
DRILL_HOLES
 10
396.0227620906018
 20
-512.9225884348177
 30
0.0
 40
2.749999999312763
  0
CIRCLE
  5
258
  8
DRILL_HOLES
 10
471.1195992823483
 20
-512.9225884348176
 30
0.0
 40
2.749999999312763
  0
CIRCLE
  5
259
  8
DRILL_HOLES
 10
395.9743430230192
 20
-567.9225904555728
 30
0.0
 40
2.749999999312706
  0
CIRCLE
  5
25A
  8
DRILL_HOLES
 10
471.0711802147657
 20
-567.922590455573
 30
0.0
 40
2.749999999312649
  0
CIRCLE
  5
25B
  8
DRILL_HOLES
 10
533.9005662718815
 20
-512.9225884348176
 30
0.0
 40
2.749999999312763
  0
CIRCLE
  5
25C
  8
DRILL_HOLES
 10
608.997403463628
 20
-512.9225884348177
 30
0.0
 40
2.749999999312649
  0
CIRCLE
  5
25D
  8
DRILL_HOLES
 10
533.852147204299
 20
-567.9225904555728
 30
0.0
 40
2.749999999312649
  0
CIRCLE
  5
25E
  8
DRILL_HOLES
 10
608.9489843960456
 20
-567.922590455573
 30
0.0
 40
2.749999999312536
  0
CIRCLE
  5
25F
  8
DRILL_HOLES
 10
418.4369220863923
 20
-465.1555883873862
 30
0.0
 40
2.749999999312593
  0
CIRCLE
  5
260
  8
DRILL_HOLES
 10
436.4365332430447
 20
-465.1555883873862
 30
0.0
 40
2.749999999312706
  0
CIRCLE
  5
261
  8
DRILL_HOLES
 10
418.4369220863922
 20
-552.7461990815664
 30
0.0
 40
2.749999999312649
  0
CIRCLE
  5
262
  8
DRILL_HOLES
 10
436.4365332430448
 20
-552.7461990815665
 30
0.0
 40
2.749999999312593
  0
CIRCLE
  5
263
  8
DRILL_HOLES
 10
567.8535242705832
 20
-465.1555883873861
 30
0.0
 40
2.749999999312763
  0
CIRCLE
  5
264
  8
DRILL_HOLES
 10
585.8531354272359
 20
-465.1555883873862
 30
0.0
 40
2.749999999312649
  0
CIRCLE
  5
265
  8
DRILL_HOLES
 10
567.8535242705832
 20
-552.7461990815665
 30
0.0
 40
2.749999999312763
  0
CIRCLE
  5
266
  8
DRILL_HOLES
 10
585.8531354272359
 20
-552.7461990815665
 30
0.0
 40
2.749999999312649
  0
CIRCLE
  5
267
  8
INNER
 10
554.916589906225
 20
-405.4593640076232
 30
0.0
 40
6.911805553828003
  0
CIRCLE
  5
268
  8
INNER
 10
450.0469678297509
 20
-407.8737051676033
 30
0.0
 40
6.91180555382789
  0
CIRCLE
  5
269
  8
DRILL_HOLES
 10
566.9166254985005
 20
-415.759691221599
 30
0.0
 40
2.500000000000227
  0
CIRCLE
  5
26A
  8
DRILL_HOLES
 10
566.9166254968668
 20
-397.5853435754327
 30
0.0
 40
2.500000000000057
  0
CIRCLE
  5
26B
  8
DRILL_HOLES
 10
596.916598966412
 20
-397.7093759479549
 30
0.0
 40
2.500000000000114
  0
CIRCLE
  5
26C
  8
DRILL_HOLES
 10
596.916595027214
 20
-415.7596786044733
 30
0.0
 40
2.500000000000171
  0
CIRCLE
  5
26D
  8
DRILL_HOLES
 10
438.0469322613673
 20
-397.5733779547045
 30
0.0
 40
2.500000000001705
  0
CIRCLE
  5
26E
  8
DRILL_HOLES
 10
438.0469322646334
 20
-415.7477256008711
 30
0.0
 40
2.499999999998465
  0
CIRCLE
  5
26F
  8
DRILL_HOLES
 10
408.0469587950806
 20
-415.6236932310426
 30
0.0
 40
2.499999999999829
  0
CIRCLE
  5
270
  8
DRILL_HOLES
 10
408.0469627326521
 20
-397.5733905745277
 30
0.0
 40
2.500000000000171
  0
LINE
  5
271
  8
OUTER
 10
589.9723690757766
 20
-672.7234889536064
 30
0.0
 11
589.9723690757766
 21
-760.3140373858434
 31
0.0
  0
LINE
  5
272
  8
OUTER
 10
571.972757969165
 20
-672.7234889536064
 30
0.0
 11
589.9723690757766
 21
-672.7234889536064
 31
0.0
  0
LINE
  5
273
  8
OUTER
 10
491.9727579891652
 20
-845.1834889104919
 30
0.0
 11
571.972757969165
 21
-672.7234889536064
 31
0.0
  0
LINE
  5
274
  8
OUTER
 10
491.9727580230058
 20
-863.2147644377875
 30
0.0
 11
491.9727579891652
 21
-845.1834889104919
 31
0.0
  0
LINE
  5
275
  8
OUTER
 10
531.9727550609841
 20
-863.2147644377875
 30
0.0
 11
491.9727580230058
 21
-863.2147644377875
 31
0.0
  0
LINE
  5
276
  8
OUTER
 10
531.9727550609841
 20
-845.2151532981245
 30
0.0
 11
531.9727550609841
 21
-863.2147644377875
 31
0.0
  0
LINE
  5
277
  8
OUTER
 10
571.972757969165
 20
-760.3140373858434
 30
0.0
 11
531.9727550609841
 21
-845.2151532981245
 31
0.0
  0
LINE
  5
278
  8
OUTER
 10
589.9723690757766
 20
-760.3140373858434
 30
0.0
 11
571.972757969165
 21
-760.3140373858434
 31
0.0
  0
LINE
  5
279
  8
OUTER
 10
496.7965749638709
 20
-672.7234892653022
 30
0.0
 11
496.7965749638709
 21
-760.3140376975391
 31
0.0
  0
LINE
  5
27A
  8
OUTER
 10
478.7969638572592
 20
-672.7234892653022
 30
0.0
 11
496.7965749638709
 21
-672.7234892653022
 31
0.0
  0
LINE
  5
27B
  8
OUTER
 10
398.7969638772595
 20
-845.1834892221875
 30
0.0
 11
478.7969638572592
 21
-672.7234892653022
 31
0.0
  0
LINE
  5
27C
  8
OUTER
 10
398.7969639111001
 20
-863.2147647494832
 30
0.0
 11
398.7969638772595
 21
-845.1834892221875
 31
0.0
  0
LINE
  5
27D
  8
OUTER
 10
438.7969609490784
 20
-863.2147647494832
 30
0.0
 11
398.7969639111001
 21
-863.2147647494832
 31
0.0
  0
LINE
  5
27E
  8
OUTER
 10
438.7969609490784
 20
-845.2151536098202
 30
0.0
 11
438.7969609490784
 21
-863.2147647494832
 31
0.0
  0
LINE
  5
27F
  8
OUTER
 10
478.7969638572592
 20
-760.3140376975391
 30
0.0
 11
438.7969609490784
 21
-845.2151536098202
 31
0.0
  0
LINE
  5
280
  8
OUTER
 10
496.7965749638709
 20
-760.3140376975391
 30
0.0
 11
478.7969638572592
 21
-760.3140376975391
 31
0.0
  0
LINE
  5
281
  8
OUTER
 10
451.6222766131192
 20
-654.1636172559521
 30
0.0
 11
395.8711671154006
 21
-654.1636172559521
 31
0.0
  0
LINE
  5
282
  8
OUTER
 10
451.6222766032377
 20
-636.1634251744466
 30
0.0
 11
451.6222766131192
 21
-654.1636172559521
 31
0.0
  0
LINE
  5
283
  8
OUTER
 10
471.0469672284462
 20
-636.1634251776783
 30
0.0
 11
451.6222766032377
 21
-636.1634251744466
 31
0.0
  0
LINE
  5
284
  8
OUTER
 10
471.0469672185686
 20
-567.6237028087545
 30
0.0
 11
471.0469672284462
 21
-636.1634251776783
 31
0.0
  0
LINE
  5
285
  8
OUTER
 10
489.0469672383271
 20
-567.6237095299366
 30
0.0
 11
471.0469672185686
 21
-567.6237028087545
 31
0.0
  0
LINE
  5
286
  8
OUTER
 10
489.0469672284462
 20
-512.6237095299366
 30
0.0
 11
489.0469672383271
 21
-567.6237095299366
 31
0.0
  0
LINE
  5
287
  8
OUTER
 10
471.0469672284462
 20
-512.6237095331682
 30
0.0
 11
489.0469672284462
 21
-512.6237095299366
 31
0.0
  0
LINE
  5
288
  8
OUTER
 10
471.0469672185686
 20
-457.6237095331682
 30
0.0
 11
471.0469672284462
 21
-512.6237095331682
 31
0.0
  0
LINE
  5
289
  8
OUTER
 10
489.046963779722
 20
-457.6237054884261
 30
0.0
 11
471.0469672185686
 21
-457.6237095331682
 31
0.0
  0
LINE
  5
28A
  8
OUTER
 10
489.046963769845
 20
-402.6237054884261
 30
0.0
 11
489.046963779722
 21
-457.6237054884261
 31
0.0
  0
LINE
  5
28B
  8
OUTER
 10
471.0469637698444
 20
-402.6237054916577
 30
0.0
 11
489.046963769845
 21
-402.6237054884261
 31
0.0
  0
LINE
  5
28C
  8
OUTER
 10
471.0469637599673
 20
-347.6237054916577
 30
0.0
 11
471.0469637698444
 21
-402.6237054916577
 31
0.0
  0
LINE
  5
28D
  8
OUTER
 10
489.046963779722
 20
-347.6237014469157
 30
0.0
 11
471.0469637599673
 21
-347.6237054916577
 31
0.0
  0
LINE
  5
28E
  8
OUTER
 10
489.046963769845
 20
-292.6237014469151
 30
0.0
 11
489.046963779722
 21
-347.6237014469157
 31
0.0
  0
LINE
  5
28F
  8
OUTER
 10
471.0469637698444
 20
-292.623701450148
 30
0.0
 11
489.046963769845
 21
-292.6237014469151
 31
0.0
  0
LINE
  5
290
  8
OUTER
 10
471.0469637599673
 20
-237.6237014501479
 30
0.0
 11
471.0469637698444
 21
-292.623701450148
 31
0.0
  0
LINE
  5
291
  8
OUTER
 10
489.046963779722
 20
-237.6237041341068
 30
0.0
 11
471.0469637599673
 21
-237.6237014501479
 31
0.0
  0
LINE
  5
292
  8
OUTER
 10
489.046963769845
 20
-182.6237041341068
 30
0.0
 11
489.046963779722
 21
-237.6237041341068
 31
0.0
  0
LINE
  5
293
  8
OUTER
 10
471.0469637698444
 20
-182.6237041373397
 30
0.0
 11
489.046963769845
 21
-182.6237041341068
 31
0.0
  0
LINE
  5
294
  8
OUTER
 10
471.0469637599673
 20
-127.6237041373396
 30
0.0
 11
471.0469637698444
 21
-182.6237041373397
 31
0.0
  0
LINE
  5
295
  8
OUTER
 10
489.046963779722
 20
-127.6237108585201
 30
0.0
 11
471.0469637599673
 21
-127.6237041373396
 31
0.0
  0
LINE
  5
296
  8
OUTER
 10
489.046963769845
 20
-72.62371085851974
 30
0.0
 11
489.046963779722
 21
-127.6237108585201
 31
0.0
  0
LINE
  5
297
  8
OUTER
 10
471.0469637698444
 20
-72.62371086175295
 30
0.0
 11
489.046963769845
 21
-72.62371085851974
 31
0.0
  0
LINE
  5
298
  8
OUTER
 10
471.0469637599673
 20
-17.62371087845379
 30
0.0
 11
471.0469637698444
 21
-72.62371086175295
 31
0.0
  0
LINE
  5
299
  8
OUTER
 10
378.0469637599679
 20
-17.62371087845379
 30
0.0
 11
471.0469637599673
 21
-17.62371087845379
 31
0.0
  0
LINE
  5
29A
  8
OUTER
 10
378.0469637698449
 20
-72.6237108784535
 30
0.0
 11
378.0469637599679
 21
-17.62371087845379
 31
0.0
  0
LINE
  5
29B
  8
OUTER
 10
396.0469637698449
 20
-72.62371087522189
 30
0.0
 11
378.0469637698449
 21
-72.6237108784535
 31
0.0
  0
LINE
  5
29C
  8
OUTER
 10
396.0469641103638
 20
-127.6237041540408
 30
0.0
 11
396.0469637698449
 21
-72.62371087522189
 31
0.0
  0
LINE
  5
29D
  8
OUTER
 10
378.0469637599679
 20
-127.6237041540408
 30
0.0
 11
396.0469641103638
 21
-127.6237041540408
 31
0.0
  0
LINE
  5
29E
  8
OUTER
 10
378.0469637698449
 20
-182.6237041540405
 30
0.0
 11
378.0469637599679
 21
-127.6237041540408
 31
0.0
  0
LINE
  5
29F
  8
OUTER
 10
396.0469637698449
 20
-182.6237041508089
 30
0.0
 11
378.0469637698449
 21
-182.6237041540405
 31
0.0
  0
LINE
  5
2A0
  8
OUTER
 10
396.0469641103638
 20
-237.6237014668491
 30
0.0
 11
396.0469637698449
 21
-182.6237041508089
 31
0.0
  0
LINE
  5
2A1
  8
OUTER
 10
378.0469637599679
 20
-237.6237014668491
 30
0.0
 11
396.0469641103638
 21
-237.6237014668491
 31
0.0
  0
LINE
  5
2A2
  8
OUTER
 10
378.0469637698449
 20
-292.6237014668488
 30
0.0
 11
378.0469637599679
 21
-237.6237014668491
 31
0.0
  0
LINE
  5
2A3
  8
OUTER
 10
396.0469637698449
 20
-292.6237014636172
 30
0.0
 11
378.0469637698449
 21
-292.6237014668488
 31
0.0
  0
LINE
  5
2A4
  8
OUTER
 10
396.0469641103638
 20
-347.6237055083579
 30
0.0
 11
396.0469637698449
 21
-292.6237014636172
 31
0.0
  0
LINE
  5
2A5
  8
OUTER
 10
378.0469637599679
 20
-347.6237055083579
 30
0.0
 11
396.0469641103638
 21
-347.6237055083579
 31
0.0
  0
LINE
  5
2A6
  8
OUTER
 10
378.0469637698449
 20
-402.6237055083579
 30
0.0
 11
378.0469637599679
 21
-347.6237055083579
 31
0.0
  0
LINE
  5
2A7
  8
OUTER
 10
396.0469637698449
 20
-402.6237055051263
 30
0.0
 11
378.0469637698449
 21
-402.6237055083579
 31
0.0
  0
LINE
  5
2A8
  8
OUTER
 10
396.046967568965
 20
-457.6237095498684
 30
0.0
 11
396.0469637698449
 21
-402.6237055051263
 31
0.0
  0
LINE
  5
2A9
  8
OUTER
 10
378.0469672185698
 20
-457.6237095498684
 30
0.0
 11
396.046967568965
 21
-457.6237095498684
 31
0.0
  0
LINE
  5
2AA
  8
OUTER
 10
378.0469672284468
 20
-512.6237095498684
 30
0.0
 11
378.0469672185698
 21
-457.6237095498684
 31
0.0
  0
LINE
  5
2AB
  8
OUTER
 10
396.0469672284461
 20
-512.6237095466367
 30
0.0
 11
378.0469672284468
 21
-512.6237095498684
 31
0.0
  0
LINE
  5
2AC
  8
OUTER
 10
396.046967568965
 20
-567.6237028254586
 30
0.0
 11
396.0469672284461
 21
-512.6237095466367
 31
0.0
  0
LINE
  5
2AD
  8
OUTER
 10
378.0469672185698
 20
-567.6237028254586
 30
0.0
 11
396.046967568965
 21
-567.6237028254586
 31
0.0
  0
LINE
  5
2AE
  8
OUTER
 10
378.0469672284468
 20
-636.1634251943823
 30
0.0
 11
378.0469672185698
 21
-567.6237028254586
 31
0.0
  0
LINE
  5
2AF
  8
OUTER
 10
395.8711671055229
 20
-636.1634251911476
 30
0.0
 11
378.0469672284468
 21
-636.1634251943823
 31
0.0
  0
LINE
  5
2B0
  8
OUTER
 10
395.8711671154006
 20
-654.1636175827232
 30
0.0
 11
395.8711671055229
 21
-636.1634251911476
 31
0.0
  0
LINE
  5
2B1
  8
INNER
 10
596.9165989680307
 20
-415.7596912189075
 30
0.0
 11
566.9166254985003
 21
-415.7596912215988
 31
0.0
  0
LINE
  5
2B2
  8
INNER
 10
596.9165989664118
 20
-397.7093759479552
 30
0.0
 11
596.9165989680307
 21
-415.7596912189075
 31
0.0
  0
LINE
  5
2B3
  8
INNER
 10
566.9166254968774
 20
-397.7093759506504
 30
0.0
 11
596.9165989664118
 21
-397.7093759479552
 31
0.0
  0
LINE
  5
2B4
  8
INNER
 10
566.9166254985003
 20
-415.7596912215988
 30
0.0
 11
566.9166254968774
 21
-397.7093759506504
 31
0.0
  0
LINE
  5
2B5
  8
OUTER
 10
589.5000794486584
 20
-654.1636172559521
 30
0.0
 11
533.7489699509399
 21
-654.1636172559521
 31
0.0
  0
LINE
  5
2B6
  8
OUTER
 10
589.500079438777
 20
-636.1634251744466
 30
0.0
 11
589.5000794486584
 21
-654.1636172559521
 31
0.0
  0
LINE
  5
2B7
  8
OUTER
 10
608.9247700639855
 20
-636.1634251776783
 30
0.0
 11
589.500079438777
 21
-636.1634251744466
 31
0.0
  0
LINE
  5
2B8
  8
OUTER
 10
608.9247700541077
 20
-567.6237028087545
 30
0.0
 11
608.9247700639855
 21
-636.1634251776783
 31
0.0
  0
LINE
  5
2B9
  8
OUTER
 10
626.9247700738663
 20
-567.6237095299366
 30
0.0
 11
608.9247700541077
 21
-567.6237028087545
 31
0.0
  0
LINE
  5
2BA
  8
OUTER
 10
626.9247700639855
 20
-512.6237095299366
 30
0.0
 11
626.9247700738663
 21
-567.6237095299366
 31
0.0
  0
LINE
  5
2BB
  8
OUTER
 10
608.9247700639855
 20
-512.6237095331682
 30
0.0
 11
626.9247700639855
 21
-512.6237095299366
 31
0.0
  0
LINE
  5
2BC
  8
OUTER
 10
608.9247700541077
 20
-457.6237095331682
 30
0.0
 11
608.9247700639855
 21
-512.6237095331682
 31
0.0
  0
LINE
  5
2BD
  8
OUTER
 10
626.9247666152612
 20
-457.6237054884261
 30
0.0
 11
608.9247700541077
 21
-457.6237095331682
 31
0.0
  0
LINE
  5
2BE
  8
OUTER
 10
626.9247666053841
 20
-402.6237054884261
 30
0.0
 11
626.9247666152612
 21
-457.6237054884261
 31
0.0
  0
LINE
  5
2BF
  8
OUTER
 10
608.9247666053836
 20
-402.6237054916577
 30
0.0
 11
626.9247666053841
 21
-402.6237054884261
 31
0.0
  0
LINE
  5
2C0
  8
OUTER
 10
608.9247665955065
 20
-347.6237054916577
 30
0.0
 11
608.9247666053836
 21
-402.6237054916577
 31
0.0
  0
LINE
  5
2C1
  8
OUTER
 10
626.9247666152612
 20
-347.6237014469157
 30
0.0
 11
608.9247665955065
 21
-347.6237054916577
 31
0.0
  0
LINE
  5
2C2
  8
OUTER
 10
626.9247666053841
 20
-292.6237014469151
 30
0.0
 11
626.9247666152612
 21
-347.6237014469157
 31
0.0
  0
LINE
  5
2C3
  8
OUTER
 10
608.9247666053836
 20
-292.623701450148
 30
0.0
 11
626.9247666053841
 21
-292.6237014469151
 31
0.0
  0
LINE
  5
2C4
  8
OUTER
 10
608.9247665955065
 20
-237.6237014501479
 30
0.0
 11
608.9247666053836
 21
-292.623701450148
 31
0.0
  0
LINE
  5
2C5
  8
OUTER
 10
626.9247666152612
 20
-237.6237041341068
 30
0.0
 11
608.9247665955065
 21
-237.6237014501479
 31
0.0
  0
LINE
  5
2C6
  8
OUTER
 10
626.9247666053841
 20
-182.6237041341068
 30
0.0
 11
626.9247666152612
 21
-237.6237041341068
 31
0.0
  0
LINE
  5
2C7
  8
OUTER
 10
608.9247666053836
 20
-182.6237041373397
 30
0.0
 11
626.9247666053841
 21
-182.6237041341068
 31
0.0
  0
LINE
  5
2C8
  8
OUTER
 10
608.9247665955065
 20
-127.6237041373396
 30
0.0
 11
608.9247666053836
 21
-182.6237041373397
 31
0.0
  0
LINE
  5
2C9
  8
OUTER
 10
626.9247666152612
 20
-127.6237108585201
 30
0.0
 11
608.9247665955065
 21
-127.6237041373396
 31
0.0
  0
LINE
  5
2CA
  8
OUTER
 10
626.9247666053841
 20
-72.62371085851974
 30
0.0
 11
626.9247666152612
 21
-127.6237108585201
 31
0.0
  0
LINE
  5
2CB
  8
OUTER
 10
608.9247666053836
 20
-72.62371086175295
 30
0.0
 11
626.9247666053841
 21
-72.62371085851974
 31
0.0
  0
LINE
  5
2CC
  8
OUTER
 10
608.9247665955065
 20
-17.62371087845379
 30
0.0
 11
608.9247666053836
 21
-72.62371086175295
 31
0.0
  0
LINE
  5
2CD
  8
OUTER
 10
515.9247665955071
 20
-17.62371087845379
 30
0.0
 11
608.9247665955065
 21
-17.62371087845379
 31
0.0
  0
LINE
  5
2CE
  8
OUTER
 10
515.9247666053842
 20
-72.6237108784535
 30
0.0
 11
515.9247665955071
 21
-17.62371087845379
 31
0.0
  0
LINE
  5
2CF
  8
OUTER
 10
533.9247666053842
 20
-72.62371087522189
 30
0.0
 11
515.9247666053842
 21
-72.6237108784535
 31
0.0
  0
LINE
  5
2D0
  8
OUTER
 10
533.924766945903
 20
-127.6237041540408
 30
0.0
 11
533.9247666053842
 21
-72.62371087522189
 31
0.0
  0
LINE
  5
2D1
  8
OUTER
 10
515.9247665955071
 20
-127.6237041540408
 30
0.0
 11
533.924766945903
 21
-127.6237041540408
 31
0.0
  0
LINE
  5
2D2
  8
OUTER
 10
515.9247666053842
 20
-182.6237041540405
 30
0.0
 11
515.9247665955071
 21
-127.6237041540408
 31
0.0
  0
LINE
  5
2D3
  8
OUTER
 10
533.9247666053842
 20
-182.6237041508089
 30
0.0
 11
515.9247666053842
 21
-182.6237041540405
 31
0.0
  0
LINE
  5
2D4
  8
OUTER
 10
533.924766945903
 20
-237.6237014668491
 30
0.0
 11
533.9247666053842
 21
-182.6237041508089
 31
0.0
  0
LINE
  5
2D5
  8
OUTER
 10
515.9247665955071
 20
-237.6237014668491
 30
0.0
 11
533.924766945903
 21
-237.6237014668491
 31
0.0
  0
LINE
  5
2D6
  8
OUTER
 10
515.9247666053842
 20
-292.6237014668488
 30
0.0
 11
515.9247665955071
 21
-237.6237014668491
 31
0.0
  0
LINE
  5
2D7
  8
OUTER
 10
533.9247666053842
 20
-292.6237014636172
 30
0.0
 11
515.9247666053842
 21
-292.6237014668488
 31
0.0
  0
LINE
  5
2D8
  8
OUTER
 10
533.924766945903
 20
-347.6237055083579
 30
0.0
 11
533.9247666053842
 21
-292.6237014636172
 31
0.0
  0
LINE
  5
2D9
  8
OUTER
 10
515.9247665955071
 20
-347.6237055083579
 30
0.0
 11
533.924766945903
 21
-347.6237055083579
 31
0.0
  0
LINE
  5
2DA
  8
OUTER
 10
515.9247666053842
 20
-402.6237055083579
 30
0.0
 11
515.9247665955071
 21
-347.6237055083579
 31
0.0
  0
LINE
  5
2DB
  8
OUTER
 10
533.9247666053842
 20
-402.6237055051263
 30
0.0
 11
515.9247666053842
 21
-402.6237055083579
 31
0.0
  0
LINE
  5
2DC
  8
OUTER
 10
533.9247704045042
 20
-457.6237095498684
 30
0.0
 11
533.9247666053842
 21
-402.6237055051263
 31
0.0
  0
LINE
  5
2DD
  8
OUTER
 10
515.924770054109
 20
-457.6237095498684
 30
0.0
 11
533.9247704045042
 21
-457.6237095498684
 31
0.0
  0
LINE
  5
2DE
  8
OUTER
 10
515.924770063986
 20
-512.6237095498684
 30
0.0
 11
515.924770054109
 21
-457.6237095498684
 31
0.0
  0
LINE
  5
2DF
  8
OUTER
 10
533.9247700639853
 20
-512.6237095466367
 30
0.0
 11
515.924770063986
 21
-512.6237095498684
 31
0.0
  0
LINE
  5
2E0
  8
OUTER
 10
533.9247704045042
 20
-567.6237028254586
 30
0.0
 11
533.9247700639853
 21
-512.6237095466367
 31
0.0
  0
LINE
  5
2E1
  8
OUTER
 10
515.924770054109
 20
-567.6237028254586
 30
0.0
 11
533.9247704045042
 21
-567.6237028254586
 31
0.0
  0
LINE
  5
2E2
  8
OUTER
 10
515.924770063986
 20
-636.1634251943823
 30
0.0
 11
515.924770054109
 21
-567.6237028254586
 31
0.0
  0
LINE
  5
2E3
  8
OUTER
 10
533.7489699410621
 20
-636.1634251911476
 30
0.0
 11
515.924770063986
 21
-636.1634251943823
 31
0.0
  0
LINE
  5
2E4
  8
OUTER
 10
533.7489699509399
 20
-654.1636175827232
 30
0.0
 11
533.7489699410621
 21
-636.1634251911476
 31
0.0
  0
LINE
  5
2E5
  8
INNER
 10
585.8531354116324
 20
-552.7461995110383
 30
0.0
 11
567.8535243050214
 21
-552.7461995110383
 31
0.0
  0
LINE
  5
2E6
  8
INNER
 10
585.8531354116324
 20
-465.1555884218248
 30
0.0
 11
585.8531354116324
 21
-552.7461995110383
 31
0.0
  0
LINE
  5
2E7
  8
INNER
 10
567.8535243050214
 20
-465.1555884218248
 30
0.0
 11
585.8531354116324
 21
-465.1555884218248
 31
0.0
  0
LINE
  5
2E8
  8
INNER
 10
567.8535243050214
 20
-552.7461995110383
 30
0.0
 11
567.8535243050214
 21
-465.1555884218248
 31
0.0
  0
LINE
  5
2E9
  8
INNER
 10
408.0469587918381
 20
-397.5733779600935
 30
0.0
 11
438.0469322613692
 21
-397.5733779547064
 31
0.0
  0
LINE
  5
2EA
  8
INNER
 10
408.0469587950806
 20
-415.6236932310426
 30
0.0
 11
408.0469587918381
 21
-397.5733779600935
 31
0.0
  0
LINE
  5
2EB
  8
INNER
 10
438.0469322646111
 20
-415.6236932256555
 30
0.0
 11
408.0469587950806
 21
-415.6236932310426
 31
0.0
  0
LINE
  5
2EC
  8
INNER
 10
438.0469322613692
 20
-397.5733779547064
 30
0.0
 11
438.0469322646111
 21
-415.6236932256555
 31
0.0
  0
LINE
  5
2ED
  8
INNER
 10
415.1865071608026
 20
-141.3563100088834
 30
0.0
 11
455.1861182619144
 21
-141.3563100088834
 31
0.0
  0
LINE
  5
2EE
  8
INNER
 10
415.1865071608026
 20
-159.3559211154944
 30
0.0
 11
415.1865071608026
 21
-141.3563100088834
 31
0.0
  0
LINE
  5
2EF
  8
INNER
 10
455.1861182619144
 20
-159.3559211154944
 30
0.0
 11
415.1865071608026
 21
-159.3559211154944
 31
0.0
  0
LINE
  5
2F0
  8
INNER
 10
455.1861182619144
 20
-141.3563100088834
 30
0.0
 11
455.1861182619144
 21
-159.3559211154944
 31
0.0
  0
LINE
  5
2F1
  8
INNER
 10
553.0643113420824
 20
-141.3563100088834
 30
0.0
 11
593.0639224431941
 21
-141.3563100088834
 31
0.0
  0
LINE
  5
2F2
  8
INNER
 10
553.0643113420824
 20
-159.3559211154944
 30
0.0
 11
553.0643113420824
 21
-141.3563100088834
 31
0.0
  0
LINE
  5
2F3
  8
INNER
 10
593.0639224431941
 20
-159.3559211154944
 30
0.0
 11
553.0643113420824
 21
-159.3559211154944
 31
0.0
  0
LINE
  5
2F4
  8
INNER
 10
593.0639224431941
 20
-141.3563100088834
 30
0.0
 11
593.0639224431941
 21
-159.3559211154944
 31
0.0
  0
LINE
  5
2F5
  8
INNER
 10
436.4365332274413
 20
-552.7461995110383
 30
0.0
 11
418.4369221208302
 21
-552.7461995110383
 31
0.0
  0
LINE
  5
2F6
  8
INNER
 10
436.4365332274413
 20
-465.1555884218248
 30
0.0
 11
436.4365332274413
 21
-552.7461995110383
 31
0.0
  0
LINE
  5
2F7
  8
INNER
 10
418.4369221208302
 20
-465.1555884218248
 30
0.0
 11
436.4365332274413
 21
-465.1555884218248
 31
0.0
  0
LINE
  5
2F8
  8
INNER
 10
418.4369221208302
 20
-552.7461995110383
 30
0.0
 11
418.4369221208302
 21
-465.1555884218248
 31
0.0
  0
ENDSEC
  0
EOF
