  0
SECTION
  2
HEADER
  9
$ACADVER
  1
AC1009
  9
$DWGCODEPAGE
  3
ansi_1252
  9
$INSBASE
 10
0.0
 20
0.0
 30
0.0
  9
$EXTMIN
 10
9.959644481131537
 20
-307.5403645118637
 30
0.0
  9
$EXTMAX
 10
209.9596444537076
 20
-2.54075347696558
 30
0.0
  9
$LIMMIN
 10
0.0
 20
0.0
  9
$LIMMAX
 10
12.0
 20
9.0
  9
$ORTHOMODE
 70
     0
  9
$REGENMODE
 70
     1
  9
$FILLMODE
 70
     1
  9
$QTEXTMODE
 70
     0
  9
$MIRRTEXT
 70
     1
  9
$DRAGMODE
 70
     2
  9
$LTSCALE
 40
1.0
  9
$OSMODE
 70
    37
  9
$ATTMODE
 70
     1
  9
$TEXTSIZE
 40
0.2
  9
$TRACEWID
 40
0.05
  9
$TEXTSTYLE
  7
STANDARD
  9
$CLAYER
  8
0
  9
$CELTYPE
  6
BYLAYER
  9
$CECOLOR
 62
   256
  9
$DIMSCALE
 40
1.0
  9
$DIMASZ
 40
0.18
  9
$DIMEXO
 40
0.0625
  9
$DIMDLI
 40
0.38
  9
$DIMRND
 40
0.0
  9
$DIMDLE
 40
0.0
  9
$DIMEXE
 40
0.18
  9
$DIMTP
 40
0.0
  9
$DIMTM
 40
0.0
  9
$DIMTXT
 40
0.18
  9
$DIMCEN
 40
0.09
  9
$DIMTSZ
 40
0.0
  9
$DIMTOL
 70
     0
  9
$DIMLIM
 70
     0
  9
$DIMTIH
 70
     1
  9
$DIMTOH
 70
     1
  9
$DIMSE1
 70
     0
  9
$DIMSE2
 70
     0
  9
$DIMTAD
 70
     0
  9
$DIMZIN
 70
     0
  9
$DIMBLK
  1

  9
$DIMASO
 70
     1
  9
$DIMSHO
 70
     1
  9
$DIMPOST
  1

  9
$DIMAPOST
  1

  9
$DIMALT
 70
     0
  9
$DIMALTD
 70
     2
  9
$DIMALTF
 40
25.4
  9
$DIMLFAC
 40
1.0
  9
$DIMTOFL
 70
     0
  9
$DIMTVP
 40
0.0
  9
$DIMTIX
 70
     0
  9
$DIMSOXD
 70
     0
  9
$DIMSAH
 70
     0
  9
$DIMBLK1
  1

  9
$DIMBLK2
  1

  9
$DIMSTYLE
  2
STANDARD
  9
$DIMCLRD
 70
     0
  9
$DIMCLRE
 70
     0
  9
$DIMCLRT
 70
     0
  9
$DIMTFAC
 40
1.0
  9
$DIMGAP
 40
0.09
  9
$LUNITS
 70
     2
  9
$LUPREC
 70
     4
  9
$SKETCHINC
 40
0.1
  9
$FILLETRAD
 40
0.5
  9
$AUNITS
 70
     0
  9
$AUPREC
 70
     0
  9
$MENU
  1
.
  9
$ELEVATION
 40
0.0
  9
$PELEVATION
 40
0.0
  9
$THICKNESS
 40
0.0
  9
$LIMCHECK
 70
     0
  9
$CHAMFERA
 40
0.0
  9
$CHAMFERB
 40
0.0
  9
$SKPOLY
 70
     0
  9
$TDCREATE
 40
2458146.479206759
  9
$TDUPDATE
 40
2458146.479206782
  9
$TDINDWG
 40
0.0000000116
  9
$TDUSRTIMER
 40
0.0000000116
  9
$USRTIMER
 70
     1
  9
$ANGBASE
 50
0.0
  9
$ANGDIR
 70
     0
  9
$PDMODE
 70
     0
  9
$PDSIZE
 40
0.0
  9
$PLINEWID
 40
0.0
  9
$COORDS
 70
     1
  9
$SPLFRAME
 70
     0
  9
$SPLINETYPE
 70
     6
  9
$SPLINESEGS
 70
     8
  9
$ATTDIA
 70
     0
  9
$ATTREQ
 70
     1
  9
$HANDLING
 70
     1
  9
$HANDSEED
  5
CC
  9
$SURFTAB1
 70
     6
  9
$SURFTAB2
 70
     6
  9
$SURFTYPE
 70
     6
  9
$SURFU
 70
     6
  9
$SURFV
 70
     6
  9
$UCSNAME
  2

  9
$UCSORG
 10
0.0
 20
0.0
 30
0.0
  9
$UCSXDIR
 10
1.0
 20
0.0
 30
0.0
  9
$UCSYDIR
 10
0.0
 20
1.0
 30
0.0
  9
$PUCSNAME
  2

  9
$PUCSORG
 10
0.0
 20
0.0
 30
0.0
  9
$PUCSXDIR
 10
1.0
 20
0.0
 30
0.0
  9
$PUCSYDIR
 10
0.0
 20
1.0
 30
0.0
  9
$USERI1
 70
     0
  9
$USERI2
 70
     0
  9
$USERI3
 70
     0
  9
$USERI4
 70
     0
  9
$USERI5
 70
     0
  9
$USERR1
 40
0.0
  9
$USERR2
 40
0.0
  9
$USERR3
 40
0.0
  9
$USERR4
 40
0.0
  9
$USERR5
 40
0.0
  9
$WORLDVIEW
 70
     1
  9
$SHADEDGE
 70
     3
  9
$SHADEDIF
 70
    70
  9
$TILEMODE
 70
     1
  9
$MAXACTVP
 70
    64
  9
$PLIMCHECK
 70
     0
  9
$PEXTMIN
 10
1.000000000000000E+20
 20
1.000000000000000E+20
 30
1.000000000000000E+20
  9
$PEXTMAX
 10
-1.000000000000000E+20
 20
-1.000000000000000E+20
 30
-1.000000000000000E+20
  9
$PLIMMIN
 10
0.0
 20
0.0
  9
$PLIMMAX
 10
12.0
 20
9.0
  9
$UNITMODE
 70
     0
  9
$VISRETAIN
 70
     1
  9
$PLINEGEN
 70
     0
  9
$PSLTSCALE
 70
     1
  0
ENDSEC
  0
SECTION
  2
TABLES
  0
TABLE
  2
VPORT
 70
     1
  0
VPORT
  2
*ACTIVE
 70
     0
 10
0.0
 20
0.0
 11
1.0
 21
1.0
 12
109.9596444674196
 22
-155.0405589944146
 13
0.0
 23
0.0
 14
0.5
 24
0.5
 15
0.5
 25
0.5
 16
0.0
 26
0.0
 36
1.0
 17
0.0
 27
0.0
 37
0.0
 40
311.0996032555961
 41
0.6557385410884737
 42
50.0
 43
0.0
 44
0.0
 50
0.0
 51
0.0
 71
     0
 72
   100
 73
     1
 74
     3
 75
     0
 76
     0
 77
     0
 78
     0
  0
ENDTAB
  0
TABLE
  2
LTYPE
 70
     1
  0
LTYPE
  2
CONTINUOUS
 70
     0
  3
Solid line
 72
    65
 73
     0
 40
0.0
  0
ENDTAB
  0
TABLE
  2
LAYER
 70
     4
  0
LAYER
  2
0
 70
     0
 62
     7
  6
CONTINUOUS
  0
LAYER
  2
INNER
 70
     0
 62
     1
  6
CONTINUOUS
  0
LAYER
  2
OUTER
 70
     0
 62
     5
  6
CONTINUOUS
  0
LAYER
  2
DRILL_HOLES
 70
     0
 62
     3
  6
CONTINUOUS
  0
ENDTAB
  0
TABLE
  2
STYLE
 70
     1
  0
STYLE
  2
STANDARD
 70
     0
 40
0.0
 41
1.0
 50
0.0
 71
     0
 42
0.2
  3
txt
  4

  0
ENDTAB
  0
TABLE
  2
VIEW
 70
     0
  0
ENDTAB
  0
TABLE
  2
UCS
 70
     0
  0
ENDTAB
  0
TABLE
  2
APPID
 70
     1
  0
APPID
  2
ACAD
 70
     0
  0
ENDTAB
  0
TABLE
  2
DIMSTYLE
 70
     1
  0
DIMSTYLE
  2
STANDARD
 70
     0
  3

  4

  5

  6

  7

 40
1.0
 41
0.18
 42
0.0625
 43
0.38
 44
0.18
 45
0.0
 46
0.0
 47
0.0
 48
0.0
140
0.18
141
0.09
142
0.0
143
25.4
144
1.0
145
0.0
146
1.0
147
0.09
 71
     0
 72
     0
 73
     1
 74
     1
 75
     0
 76
     0
 77
     0
 78
     0
170
     0
171
     2
172
     0
173
     0
174
     0
175
     0
176
     0
177
     0
178
     0
  0
ENDTAB
  0
ENDSEC
  0
SECTION
  2
BLOCKS
  0
BLOCK
  8
0
  2
$MODEL_SPACE
 70
     0
 10
0.0
 20
0.0
 30
0.0
  3
$MODEL_SPACE
  1

  0
ENDBLK
  5
21
  8
0
  0
BLOCK
 67
     1
  8
0
  2
$PAPER_SPACE
 70
     0
 10
0.0
 20
0.0
 30
0.0
  3
$PAPER_SPACE
  1

  0
ENDBLK
  5
1D
 67
     1
  8
0
  0
BLOCK
  8
0
  2
BLOCK_2
 70
     0
 10
0.0
 20
0.0
 30
0.0
  3
BLOCK_2
  1

  0
LINE
  5
AA
  8
INNER
 62
    12
 10
91.92824394307858
 20
-192.5412678944942
 30
0.0
 11
147.6793534407972
 21
-192.5412678944942
 31
0.0
  0
LINE
  5
AB
  8
INNER
 62
    12
 10
147.6793534407972
 20
-192.5412678944942
 30
0.0
 11
147.6793534407972
 21
-210.5412678944942
 31
0.0
  0
LINE
  5
AC
  8
INNER
 62
    12
 10
147.6793534407972
 20
-210.5412678944942
 30
0.0
 11
91.92824394307858
 21
-210.5412678944942
 31
0.0
  0
LINE
  5
AD
  8
INNER
 62
    12
 10
91.92824394307858
 20
-210.5412678944942
 30
0.0
 11
91.92824394307858
 21
-192.5412678944942
 31
0.0
  0
ENDBLK
  5
AF
  8
0
  0
BLOCK
  8
0
  2
BLOCK_3
 70
     0
 10
0.0
 20
0.0
 30
0.0
  3
BLOCK_3
  1

  0
LINE
  5
B1
  8
INNER
 62
    12
 10
54.45966092743287
 20
-192.7163556389814
 30
0.0
 11
72.45966092743286
 21
-192.7163556389814
 31
0.0
  0
LINE
  5
B2
  8
INNER
 62
    12
 10
72.45966092743286
 20
-192.7163556389814
 30
0.0
 11
72.45966092743286
 21
-136.9652461412628
 31
0.0
  0
LINE
  5
B3
  8
INNER
 62
    12
 10
72.45966092743286
 20
-136.9652461412628
 30
0.0
 11
54.45966092743287
 21
-136.9652461412635
 31
0.0
  0
LINE
  5
B4
  8
INNER
 62
    12
 10
54.45966092743287
 20
-136.9652461412635
 30
0.0
 11
54.45966092743287
 21
-192.7163556389814
 31
0.0
  0
ENDBLK
  5
B6
  8
0
  0
BLOCK
  8
0
  2
BLOCK_4
 70
     0
 10
0.0
 20
0.0
 30
0.0
  3
BLOCK_4
  1

  0
LINE
  5
B8
  8
INNER
 62
    12
 10
147.4596609274323
 20
-173.1158718475661
 30
0.0
 11
147.4596609274323
 21
-117.3647623498475
 31
0.0
  0
LINE
  5
B9
  8
INNER
 62
    12
 10
147.4596609274323
 20
-117.3647623498475
 30
0.0
 11
165.4596609274323
 21
-117.3647623498475
 31
0.0
  0
LINE
  5
BA
  8
INNER
 62
    12
 10
165.4596609274323
 20
-117.3647623498475
 30
0.0
 11
165.4596609274323
 21
-173.1158718475661
 31
0.0
  0
LINE
  5
BB
  8
INNER
 62
    12
 10
165.4596609274323
 20
-173.1158718475661
 30
0.0
 11
147.4596609274323
 21
-173.1158718475661
 31
0.0
  0
ENDBLK
  5
BD
  8
0
  0
BLOCK
  8
0
  2
BLOCK_5
 70
     0
 10
0.0
 20
0.0
 30
0.0
  3
BLOCK_5
  1

  0
LINE
  5
BF
  8
INNER
 62
    12
 10
128.0349737805836
 20
-117.5405659511328
 30
0.0
 11
72.28386428286497
 21
-117.5405659511328
 31
0.0
  0
LINE
  5
C0
  8
INNER
 62
    12
 10
72.28386428286497
 20
-117.5405659511328
 30
0.0
 11
72.28386428286497
 21
-99.54056595113276
 31
0.0
  0
LINE
  5
C1
  8
INNER
 62
    12
 10
72.28386428286497
 20
-99.54056595113276
 30
0.0
 11
128.0349737805836
 21
-99.54056595113276
 31
0.0
  0
LINE
  5
C2
  8
INNER
 62
    12
 10
128.0349737805836
 20
-99.54056595113276
 30
0.0
 11
128.0349737805836
 21
-117.5405659511328
 31
0.0
  0
ENDBLK
  5
C4
  8
0
  0
ENDSEC
  0
SECTION
  2
ENTITIES
  0
LINE
  5
6F
  8
INNER
 10
112.2832636417958
 20
-250.3648769317886
 30
0.0
 11
112.2832636417958
 21
-290.3648769217885
 31
0.0
  0
LINE
  5
70
  8
INNER
 10
112.2832636417958
 20
-290.3648769217885
 30
0.0
 11
94.28326364629577
 21
-290.3648769217885
 31
0.0
  0
LINE
  5
71
  8
INNER
 10
94.28326364629577
 20
-290.3648769217885
 30
0.0
 11
94.28326364629577
 21
-250.3648769317886
 31
0.0
  0
LINE
  5
72
  8
INNER
 10
94.28326364629577
 20
-250.3648769317886
 30
0.0
 11
112.2832636417958
 21
-250.3648769317886
 31
0.0
  0
LINE
  5
73
  8
INNER
 10
112.2832636417958
 20
-19.71695343513639
 30
0.0
 11
112.2832636417958
 21
-59.71695342513628
 31
0.0
  0
LINE
  5
74
  8
INNER
 10
112.2832636417958
 20
-59.71695342513628
 30
0.0
 11
94.28326364629577
 21
-59.71695342513628
 31
0.0
  0
LINE
  5
75
  8
INNER
 10
94.28326364629577
 20
-59.71695342513628
 30
0.0
 11
94.28326364629577
 21
-19.71695343513639
 31
0.0
  0
LINE
  5
76
  8
INNER
 10
94.28326364629577
 20
-19.71695343513639
 30
0.0
 11
112.2832636417958
 21
-19.71695343513639
 31
0.0
  0
ARC
  5
78
  8
OUTER
 10
34.7353872677789
 20
-27.31649627734735
 30
0.0
 40
24.77584891836267
 50
90.16770504657832
 51
179.8322949637128
  0
LINE
  5
79
  8
OUTER
 10
34.66286833184263
 20
-2.540753490713019
 30
0.0
 11
185.2564205759123
 21
-2.54075347696558
 31
0.0
  0
ARC
  5
7A
  8
OUTER
 10
185.18390164453
 20
-27.3164962635812
 30
0.0
 40
24.77584891833062
 50
0.1677050463381984
 51
89.83229496395295
  0
LINE
  5
7B
  8
OUTER
 10
209.9596444311326
 20
-27.24397732774886
 30
0.0
 11
209.9596444537076
 21
-282.8371406429675
 31
0.0
  0
ARC
  5
7C
  8
OUTER
 10
185.183901667061
 20
-282.7646217114817
 30
0.0
 40
24.77584891836192
 50
270.1677050465767
 51
359.8322949637138
  0
LINE
  5
7D
  8
OUTER
 10
185.2564206029965
 20
-307.5403644981153
 30
0.0
 11
34.66286835892746
 21
-307.5403645118637
 31
0.0
  0
ARC
  5
7E
  8
OUTER
 10
34.73538729031038
 20
-282.7646217252468
 30
0.0
 40
24.7758489183319
 50
180.1677050463388
 51
269.8322949639514
  0
LINE
  5
7F
  8
OUTER
 10
9.959644503706512
 20
-282.8371406610794
 30
0.0
 11
9.95964448113154
 21
-27.24397734586114
 31
0.0
  0
LINE
  5
80
  8
INNER
 10
91.92824394307858
 20
-192.5412678944942
 30
0.0
 11
147.6793534407972
 21
-192.5412678944942
 31
0.0
  0
LINE
  5
81
  8
INNER
 10
147.6793534407972
 20
-192.5412678944942
 30
0.0
 11
147.6793534407972
 21
-210.5412678944942
 31
0.0
  0
LINE
  5
82
  8
INNER
 10
147.6793534407972
 20
-210.5412678944942
 30
0.0
 11
91.92824394307858
 21
-210.5412678944942
 31
0.0
  0
LINE
  5
83
  8
INNER
 10
91.92824394307858
 20
-210.5412678944942
 30
0.0
 11
91.92824394307858
 21
-192.5412678944942
 31
0.0
  0
LINE
  5
84
  8
INNER
 10
54.45966092743287
 20
-192.7163556389814
 30
0.0
 11
72.45966092743286
 21
-192.7163556389814
 31
0.0
  0
LINE
  5
85
  8
INNER
 10
72.45966092743286
 20
-192.7163556389814
 30
0.0
 11
72.45966092743286
 21
-136.9652461412628
 31
0.0
  0
LINE
  5
86
  8
INNER
 10
72.45966092743286
 20
-136.9652461412628
 30
0.0
 11
54.45966092743287
 21
-136.9652461412635
 31
0.0
  0
LINE
  5
87
  8
INNER
 10
54.45966092743287
 20
-136.9652461412635
 30
0.0
 11
54.45966092743287
 21
-192.7163556389814
 31
0.0
  0
LINE
  5
88
  8
INNER
 10
147.4596609274323
 20
-173.1158718475661
 30
0.0
 11
147.4596609274323
 21
-117.3647623498475
 31
0.0
  0
LINE
  5
89
  8
INNER
 10
147.4596609274323
 20
-117.3647623498475
 30
0.0
 11
165.4596609274323
 21
-117.3647623498475
 31
0.0
  0
LINE
  5
8A
  8
INNER
 10
165.4596609274323
 20
-117.3647623498475
 30
0.0
 11
165.4596609274323
 21
-173.1158718475661
 31
0.0
  0
LINE
  5
8B
  8
INNER
 10
165.4596609274323
 20
-173.1158718475661
 30
0.0
 11
147.4596609274323
 21
-173.1158718475661
 31
0.0
  0
LINE
  5
8C
  8
INNER
 10
128.0349737805836
 20
-117.5405659511328
 30
0.0
 11
72.28386428286497
 21
-117.5405659511328
 31
0.0
  0
LINE
  5
8D
  8
INNER
 10
72.28386428286497
 20
-117.5405659511328
 30
0.0
 11
72.28386428286497
 21
-99.54056595113276
 31
0.0
  0
LINE
  5
8E
  8
INNER
 10
72.28386428286497
 20
-99.54056595113276
 30
0.0
 11
128.0349737805836
 21
-99.54056595113276
 31
0.0
  0
LINE
  5
8F
  8
INNER
 10
128.0349737805836
 20
-99.54056595113276
 30
0.0
 11
128.0349737805836
 21
-117.5405659511328
 31
0.0
  0
CIRCLE
  5
91
  8
DRILL_HOLES
 10
112.2832635810738
 20
-250.3648836821257
 30
0.0
 40
2.74999999931272
  0
CIRCLE
  5
92
  8
DRILL_HOLES
 10
72.37211904324857
 20
-192.7163556139453
 30
0.0
 40
2.749999999312337
  0
CIRCLE
  5
93
  8
DRILL_HOLES
 10
54.54720711422939
 20
-192.7163556147454
 30
0.0
 40
2.749999999312365
  0
CIRCLE
  5
94
  8
DRILL_HOLES
 10
72.3721190407453
 20
-136.9652474159421
 30
0.0
 40
2.749999999312678
  0
CIRCLE
  5
95
  8
DRILL_HOLES
 10
54.54720711172644
 20
-136.965247416742
 30
0.0
 40
2.749999999312365
  0
CIRCLE
  5
96
  8
DRILL_HOLES
 10
165.3721163920961
 20
-173.1158737695988
 30
0.0
 40
2.749999999312394
  0
CIRCLE
  5
97
  8
DRILL_HOLES
 10
147.5472044630766
 20
-173.115873770399
 30
0.0
 40
2.749999999312365
  0
CIRCLE
  5
98
  8
DRILL_HOLES
 10
165.3721163895929
 20
-117.3647655715956
 30
0.0
 40
2.74999999931255
  0
CIRCLE
  5
99
  8
DRILL_HOLES
 10
147.5472044605741
 20
-117.3647655723957
 30
0.0
 40
2.749999999312578
  0
CIRCLE
  5
9A
  8
DRILL_HOLES
 10
128.0349735681671
 20
-99.62810987922337
 30
0.0
 40
2.749999999312706
  0
CIRCLE
  5
9B
  8
DRILL_HOLES
 10
128.0349735681671
 20
-117.4530218082423
 30
0.0
 40
2.749999999312706
  0
CIRCLE
  5
9C
  8
DRILL_HOLES
 10
72.2838653701635
 20
-99.62810987922357
 30
0.0
 40
2.749999999312536
  0
CIRCLE
  5
9D
  8
DRILL_HOLES
 10
72.2838653701635
 20
-117.4530218082425
 30
0.0
 40
2.749999999312536
  0
CIRCLE
  5
9E
  8
DRILL_HOLES
 10
147.6793521194016
 20
-192.7163555021102
 30
0.0
 40
2.749999999312649
  0
CIRCLE
  5
9F
  8
DRILL_HOLES
 10
147.6793521194016
 20
-210.5412674311292
 30
0.0
 40
2.749999999312649
  0
CIRCLE
  5
A0
  8
DRILL_HOLES
 10
91.92824392139796
 20
-192.7163555021103
 30
0.0
 40
2.749999999312536
  0
CIRCLE
  5
A1
  8
DRILL_HOLES
 10
91.928243921398
 20
-210.5412674311293
 30
0.0
 40
2.749999999312493
  0
CIRCLE
  5
A2
  8
DRILL_HOLES
 10
94.2832640942001
 20
-250.3648836821256
 30
0.0
 40
2.749999999312664
  0
CIRCLE
  5
A3
  8
DRILL_HOLES
 10
112.2832635810738
 20
-290.3648807475245
 30
0.0
 40
2.749999999312678
  0
CIRCLE
  5
A4
  8
DRILL_HOLES
 10
94.28326409420006
 20
-290.3648807475245
 30
0.0
 40
2.749999999312706
  0
CIRCLE
  5
A5
  8
DRILL_HOLES
 10
112.2832635810738
 20
-19.71695665290413
 30
0.0
 40
2.749999999312706
  0
CIRCLE
  5
A6
  8
DRILL_HOLES
 10
94.28326409420009
 20
-19.71695665290415
 30
0.0
 40
2.749999999312678
  0
CIRCLE
  5
A7
  8
DRILL_HOLES
 10
112.2832635810738
 20
-59.71695371830289
 30
0.0
 40
2.749999999312706
  0
CIRCLE
  5
A8
  8
DRILL_HOLES
 10
94.28326409420009
 20
-59.71695371830291
 30
0.0
 40
2.749999999312678
  0
ENDSEC
  0
EOF
