  0
SECTION
  2
HEADER
  9
$ACADVER
  1
AC1009
  9
$DWGCODEPAGE
  3
ansi_1252
  9
$INSBASE
 10
0.0
 20
0.0
 30
0.0
  9
$EXTMIN
 10
356.9276925950653
 20
-32.63499088749666
 30
0.0
  9
$EXTMAX
 10
658.2301217536794
 20
621.1833384904826
 30
0.0
  9
$LIMMIN
 10
0.0
 20
0.0
  9
$LIMMAX
 10
12.0
 20
9.0
  9
$ORTHOMODE
 70
     0
  9
$REGENMODE
 70
     1
  9
$FILLMODE
 70
     1
  9
$QTEXTMODE
 70
     0
  9
$MIRRTEXT
 70
     1
  9
$DRAGMODE
 70
     2
  9
$LTSCALE
 40
1.0
  9
$OSMODE
 70
    37
  9
$ATTMODE
 70
     1
  9
$TEXTSIZE
 40
0.2
  9
$TRACEWID
 40
0.05
  9
$TEXTSTYLE
  7
STANDARD
  9
$CLAYER
  8
0
  9
$CELTYPE
  6
BYLAYER
  9
$CECOLOR
 62
   256
  9
$DIMSCALE
 40
1.0
  9
$DIMASZ
 40
0.18
  9
$DIMEXO
 40
0.0625
  9
$DIMDLI
 40
0.38
  9
$DIMRND
 40
0.0
  9
$DIMDLE
 40
0.0
  9
$DIMEXE
 40
0.18
  9
$DIMTP
 40
0.0
  9
$DIMTM
 40
0.0
  9
$DIMTXT
 40
0.18
  9
$DIMCEN
 40
0.09
  9
$DIMTSZ
 40
0.0
  9
$DIMTOL
 70
     0
  9
$DIMLIM
 70
     0
  9
$DIMTIH
 70
     1
  9
$DIMTOH
 70
     1
  9
$DIMSE1
 70
     0
  9
$DIMSE2
 70
     0
  9
$DIMTAD
 70
     0
  9
$DIMZIN
 70
     0
  9
$DIMBLK
  1

  9
$DIMASO
 70
     1
  9
$DIMSHO
 70
     1
  9
$DIMPOST
  1

  9
$DIMAPOST
  1

  9
$DIMALT
 70
     0
  9
$DIMALTD
 70
     2
  9
$DIMALTF
 40
25.4
  9
$DIMLFAC
 40
1.0
  9
$DIMTOFL
 70
     0
  9
$DIMTVP
 40
0.0
  9
$DIMTIX
 70
     0
  9
$DIMSOXD
 70
     0
  9
$DIMSAH
 70
     0
  9
$DIMBLK1
  1

  9
$DIMBLK2
  1

  9
$DIMSTYLE
  2
STANDARD
  9
$DIMCLRD
 70
     0
  9
$DIMCLRE
 70
     0
  9
$DIMCLRT
 70
     0
  9
$DIMTFAC
 40
1.0
  9
$DIMGAP
 40
0.09
  9
$LUNITS
 70
     2
  9
$LUPREC
 70
     4
  9
$SKETCHINC
 40
0.1
  9
$FILLETRAD
 40
0.5
  9
$AUNITS
 70
     0
  9
$AUPREC
 70
     0
  9
$MENU
  1
.
  9
$ELEVATION
 40
0.0
  9
$PELEVATION
 40
0.0
  9
$THICKNESS
 40
0.0
  9
$LIMCHECK
 70
     0
  9
$CHAMFERA
 40
0.0
  9
$CHAMFERB
 40
0.0
  9
$SKPOLY
 70
     0
  9
$TDCREATE
 40
2458146.749818449
  9
$TDUPDATE
 40
2458146.749818472
  9
$TDINDWG
 40
0.0000000116
  9
$TDUSRTIMER
 40
0.0000000116
  9
$USRTIMER
 70
     1
  9
$ANGBASE
 50
0.0
  9
$ANGDIR
 70
     0
  9
$PDMODE
 70
     0
  9
$PDSIZE
 40
0.0
  9
$PLINEWID
 40
0.0
  9
$COORDS
 70
     1
  9
$SPLFRAME
 70
     0
  9
$SPLINETYPE
 70
     6
  9
$SPLINESEGS
 70
     8
  9
$ATTDIA
 70
     0
  9
$ATTREQ
 70
     1
  9
$HANDLING
 70
     1
  9
$HANDSEED
  5
134
  9
$SURFTAB1
 70
     6
  9
$SURFTAB2
 70
     6
  9
$SURFTYPE
 70
     6
  9
$SURFU
 70
     6
  9
$SURFV
 70
     6
  9
$UCSNAME
  2

  9
$UCSORG
 10
0.0
 20
0.0
 30
0.0
  9
$UCSXDIR
 10
1.0
 20
0.0
 30
0.0
  9
$UCSYDIR
 10
0.0
 20
1.0
 30
0.0
  9
$PUCSNAME
  2

  9
$PUCSORG
 10
0.0
 20
0.0
 30
0.0
  9
$PUCSXDIR
 10
1.0
 20
0.0
 30
0.0
  9
$PUCSYDIR
 10
0.0
 20
1.0
 30
0.0
  9
$USERI1
 70
     0
  9
$USERI2
 70
     0
  9
$USERI3
 70
     0
  9
$USERI4
 70
     0
  9
$USERI5
 70
     0
  9
$USERR1
 40
0.0
  9
$USERR2
 40
0.0
  9
$USERR3
 40
0.0
  9
$USERR4
 40
0.0
  9
$USERR5
 40
0.0
  9
$WORLDVIEW
 70
     1
  9
$SHADEDGE
 70
     3
  9
$SHADEDIF
 70
    70
  9
$TILEMODE
 70
     1
  9
$MAXACTVP
 70
    64
  9
$PLIMCHECK
 70
     0
  9
$PEXTMIN
 10
1.000000000000000E+20
 20
1.000000000000000E+20
 30
1.000000000000000E+20
  9
$PEXTMAX
 10
-1.000000000000000E+20
 20
-1.000000000000000E+20
 30
-1.000000000000000E+20
  9
$PLIMMIN
 10
0.0
 20
0.0
  9
$PLIMMAX
 10
12.0
 20
9.0
  9
$UNITMODE
 70
     0
  9
$VISRETAIN
 70
     1
  9
$PLINEGEN
 70
     0
  9
$PSLTSCALE
 70
     1
  0
ENDSEC
  0
SECTION
  2
TABLES
  0
TABLE
  2
VPORT
 70
     1
  0
VPORT
  2
*ACTIVE
 70
     0
 10
0.0
 20
0.0
 11
1.0
 21
1.0
 12
507.5789071743724
 22
294.274173801493
 13
0.0
 23
0.0
 14
0.5
 24
0.5
 15
0.5
 25
0.5
 16
0.0
 26
0.0
 36
1.0
 17
0.0
 27
0.0
 37
0.0
 40
666.8946959655389
 41
0.4608350907587175
 42
50.0
 43
0.0
 44
0.0
 50
0.0
 51
0.0
 71
     0
 72
   100
 73
     1
 74
     3
 75
     0
 76
     0
 77
     0
 78
     0
  0
ENDTAB
  0
TABLE
  2
LTYPE
 70
     1
  0
LTYPE
  2
CONTINUOUS
 70
     0
  3
Solid line
 72
    65
 73
     0
 40
0.0
  0
ENDTAB
  0
TABLE
  2
LAYER
 70
     4
  0
LAYER
  2
0
 70
     0
 62
     7
  6
CONTINUOUS
  0
LAYER
  2
DRILL_HOLES
 70
     0
 62
     3
  6
CONTINUOUS
  0
LAYER
  2
INNER
 70
     0
 62
     1
  6
CONTINUOUS
  0
LAYER
  2
OUTER
 70
     0
 62
     5
  6
CONTINUOUS
  0
ENDTAB
  0
TABLE
  2
STYLE
 70
     1
  0
STYLE
  2
STANDARD
 70
     0
 40
0.0
 41
1.0
 50
0.0
 71
     0
 42
0.2
  3
txt
  4

  0
ENDTAB
  0
TABLE
  2
VIEW
 70
     0
  0
ENDTAB
  0
TABLE
  2
UCS
 70
     0
  0
ENDTAB
  0
TABLE
  2
APPID
 70
     1
  0
APPID
  2
ACAD
 70
     0
  0
ENDTAB
  0
TABLE
  2
DIMSTYLE
 70
     1
  0
DIMSTYLE
  2
STANDARD
 70
     0
  3

  4

  5

  6

  7

 40
1.0
 41
0.18
 42
0.0625
 43
0.38
 44
0.18
 45
0.0
 46
0.0
 47
0.0
 48
0.0
140
0.18
141
0.09
142
0.0
143
25.4
144
1.0
145
0.0
146
1.0
147
0.09
 71
     0
 72
     0
 73
     1
 74
     1
 75
     0
 76
     0
 77
     0
 78
     0
170
     0
171
     2
172
     0
173
     0
174
     0
175
     0
176
     0
177
     0
178
     0
  0
ENDTAB
  0
ENDSEC
  0
SECTION
  2
BLOCKS
  0
BLOCK
  8
0
  2
$MODEL_SPACE
 70
     0
 10
0.0
 20
0.0
 30
0.0
  3
$MODEL_SPACE
  1

  0
ENDBLK
  5
21
  8
0
  0
BLOCK
 67
     1
  8
0
  2
$PAPER_SPACE
 70
     0
 10
0.0
 20
0.0
 30
0.0
  3
$PAPER_SPACE
  1

  0
ENDBLK
  5
1D
 67
     1
  8
0
  0
ENDSEC
  0
SECTION
  2
ENTITIES
  0
CIRCLE
  5
6F
  8
DRILL_HOLES
 10
582.835288109339
 20
553.2964000310733
 30
0.0
 40
2.499999999999773
  0
CIRCLE
  5
70
  8
DRILL_HOLES
 10
563.835288109339
 20
553.2964252101604
 30
0.0
 40
2.499999999999829
  0
CIRCLE
  5
71
  8
DRILL_HOLES
 10
563.8352881178267
 20
458.7883219371366
 30
0.0
 40
2.499999999999744
  0
CIRCLE
  5
72
  8
DRILL_HOLES
 10
582.8352881178267
 20
458.7883219388436
 30
0.0
 40
2.499999999999744
  0
CIRCLE
  5
73
  8
DRILL_HOLES
 10
631.3480996169635
 20
604.7924958907631
 30
0.0
 40
2.500000000001688
  0
CIRCLE
  5
74
  8
DRILL_HOLES
 10
631.3480964653052
 20
586.7924979192338
 30
0.0
 40
2.500000000000085
  0
CIRCLE
  5
75
  8
DRILL_HOLES
 10
581.0687082311807
 20
586.7924979138436
 30
0.0
 40
2.500000000000071
  0
CIRCLE
  5
76
  8
DRILL_HOLES
 10
581.0687166611833
 20
604.7924738707785
 30
0.0
 40
2.499999999999776
  0
CIRCLE
  5
77
  8
DRILL_HOLES
 10
631.3480996169615
 20
422.7923862425246
 30
0.0
 40
2.499999999999744
  0
CIRCLE
  5
78
  8
DRILL_HOLES
 10
631.3480964653053
 20
404.7923882709933
 30
0.0
 40
2.500000000000114
  0
CIRCLE
  5
79
  8
DRILL_HOLES
 10
581.0687082311807
 20
404.7923882656064
 30
0.0
 40
2.500000000000085
  0
CIRCLE
  5
7A
  8
DRILL_HOLES
 10
581.0687166611833
 20
422.7923642225381
 30
0.0
 40
2.499999999999773
  0
CIRCLE
  5
7B
  8
DRILL_HOLES
 10
554.6073239635996
 20
423.0443295600274
 30
0.0
 40
2.500000000000057
  0
CIRCLE
  5
7C
  8
DRILL_HOLES
 10
554.6073208119429
 20
405.0443315884958
 30
0.0
 40
2.500000000000114
  0
CIRCLE
  5
7D
  8
DRILL_HOLES
 10
504.6077066289894
 20
405.0443315831089
 30
0.0
 40
2.499999999999744
  0
CIRCLE
  5
7E
  8
DRILL_HOLES
 10
504.6077150589916
 20
423.0443075400404
 30
0.0
 40
2.499999999999801
  0
CIRCLE
  5
7F
  8
DRILL_HOLES
 10
554.8817095455944
 20
604.7924905078031
 30
0.0
 40
2.500000000000099
  0
CIRCLE
  5
80
  8
DRILL_HOLES
 10
554.8817063939374
 20
586.7924925362718
 30
0.0
 40
2.499999999999766
  0
CIRCLE
  5
81
  8
DRILL_HOLES
 10
504.8820922109844
 20
586.7924925308813
 30
0.0
 40
2.500000000000114
  0
CIRCLE
  5
82
  8
DRILL_HOLES
 10
504.8821006409866
 20
604.7924684878164
 30
0.0
 40
2.500000000000075
  0
CIRCLE
  5
84
  8
INNER
 10
573.039879814358
 20
471.0443028114938
 30
0.0
 40
4.249999999999986
  0
CIRCLE
  5
85
  8
INNER
 10
573.0398798080289
 20
541.5442783853266
 30
0.0
 40
4.249999999999986
  0
CIRCLE
  5
86
  8
DRILL_HOLES
 10
515.862025965157
 20
569.7942203560527
 30
0.0
 40
2.749999999312053
  0
CIRCLE
  5
87
  8
DRILL_HOLES
 10
515.862025965157
 20
575.6174343027394
 30
0.0
 40
2.749999999312053
  0
CIRCLE
  5
88
  8
DRILL_HOLES
 10
535.5092480659073
 20
569.7942203560527
 30
0.0
 40
2.749999999312024
  0
CIRCLE
  5
89
  8
DRILL_HOLES
 10
535.5092480659074
 20
575.6174343027394
 30
0.0
 40
2.749999999312053
  0
CIRCLE
  5
8A
  8
DRILL_HOLES
 10
555.2439702090209
 20
569.7942203560524
 30
0.0
 40
2.749999999312408
  0
CIRCLE
  5
8B
  8
DRILL_HOLES
 10
555.2439702090209
 20
575.6174343027391
 30
0.0
 40
2.749999999312394
  0
CIRCLE
  5
8C
  8
DRILL_HOLES
 10
574.8911923097713
 20
569.7942203560527
 30
0.0
 40
2.749999999312038
  0
CIRCLE
  5
8D
  8
DRILL_HOLES
 10
574.8911923097713
 20
575.6174343027395
 30
0.0
 40
2.749999999312024
  0
CIRCLE
  5
8E
  8
DRILL_HOLES
 10
594.5384144105217
 20
569.7942203560527
 30
0.0
 40
2.749999999312053
  0
CIRCLE
  5
8F
  8
DRILL_HOLES
 10
594.5384144105217
 20
575.6174343027395
 30
0.0
 40
2.749999999312038
  0
CIRCLE
  5
90
  8
DRILL_HOLES
 10
614.1856365112717
 20
569.7942203560525
 30
0.0
 40
2.749999999312188
  0
CIRCLE
  5
91
  8
DRILL_HOLES
 10
614.1856365112717
 20
575.6174343027393
 30
0.0
 40
2.749999999312195
  0
CIRCLE
  5
92
  8
DRILL_HOLES
 10
532.4947060804074
 20
436.9713199986334
 30
0.0
 40
2.749999999312053
  0
CIRCLE
  5
93
  8
DRILL_HOLES
 10
532.4947060804074
 20
442.7945339453202
 30
0.0
 40
2.749999999312053
  0
CIRCLE
  5
94
  8
DRILL_HOLES
 10
552.1419281811577
 20
436.9713199986335
 30
0.0
 40
2.749999999312024
  0
CIRCLE
  5
95
  8
DRILL_HOLES
 10
552.1419281811577
 20
442.7945339453203
 30
0.0
 40
2.74999999931201
  0
CIRCLE
  5
96
  8
DRILL_HOLES
 10
571.8766503242715
 20
436.9713199986334
 30
0.0
 40
2.749999999312053
  0
CIRCLE
  5
97
  8
DRILL_HOLES
 10
571.8766503242716
 20
442.7945339453203
 30
0.0
 40
2.749999999312067
  0
CIRCLE
  5
98
  8
DRILL_HOLES
 10
591.5238724250218
 20
436.9713199986334
 30
0.0
 40
2.749999999312038
  0
CIRCLE
  5
99
  8
DRILL_HOLES
 10
591.5238724250218
 20
442.7945339453203
 30
0.0
 40
2.749999999312053
  0
CIRCLE
  5
9A
  8
DRILL_HOLES
 10
611.171094525772
 20
436.9713199986334
 30
0.0
 40
2.749999999312024
  0
CIRCLE
  5
9B
  8
DRILL_HOLES
 10
611.171094525772
 20
442.7945339453203
 30
0.0
 40
2.749999999312045
  0
CIRCLE
  5
9C
  8
DRILL_HOLES
 10
630.8183166265222
 20
436.9713199986334
 30
0.0
 40
2.749999999312038
  0
CIRCLE
  5
9D
  8
DRILL_HOLES
 10
630.8183166265222
 20
442.7945339453203
 30
0.0
 40
2.749999999312053
  0
CIRCLE
  5
9E
  8
DRILL_HOLES
 10
504.0118940304487
 20
449.2598023405443
 30
0.0
 40
2.749999999312109
  0
CIRCLE
  5
9F
  8
DRILL_HOLES
 10
509.3793366475815
 20
449.2598023405443
 30
0.0
 40
2.749999999312053
  0
CIRCLE
  5
A0
  8
DRILL_HOLES
 10
504.0118940304505
 20
468.6550816478292
 30
0.0
 40
2.749999999313985
  0
CIRCLE
  5
A1
  8
DRILL_HOLES
 10
509.3793366475835
 20
468.6550816478292
 30
0.0
 40
2.749999999313957
  0
CIRCLE
  5
A2
  8
DRILL_HOLES
 10
504.0118940304487
 20
488.6417465844084
 30
0.0
 40
2.749999999312053
  0
CIRCLE
  5
A3
  8
DRILL_HOLES
 10
509.3793366475815
 20
488.6417465844084
 30
0.0
 40
2.749999999312053
  0
CIRCLE
  5
A4
  8
DRILL_HOLES
 10
504.0118940304505
 20
508.0370258916926
 30
0.0
 40
2.749999999313943
  0
CIRCLE
  5
A5
  8
DRILL_HOLES
 10
509.3793366475834
 20
508.0370258916926
 30
0.0
 40
2.749999999313943
  0
CIRCLE
  5
A6
  8
DRILL_HOLES
 10
504.0118940304487
 20
527.8102187163059
 30
0.0
 40
2.749999999312053
  0
CIRCLE
  5
A7
  8
DRILL_HOLES
 10
509.3793366475815
 20
527.8102187163059
 30
0.0
 40
2.749999999312038
  0
CIRCLE
  5
A8
  8
DRILL_HOLES
 10
504.0118940304505
 20
547.2054980235908
 30
0.0
 40
2.749999999313943
  0
CIRCLE
  5
A9
  8
DRILL_HOLES
 10
509.3793366475834
 20
547.205498023591
 30
0.0
 40
2.749999999313971
  0
CIRCLE
  5
AA
  8
DRILL_HOLES
 10
637.0979856604318
 20
465.5966779446917
 30
0.0
 40
2.749999999313957
  0
CIRCLE
  5
AB
  8
DRILL_HOLES
 10
642.4654282775685
 20
465.5966779446917
 30
0.0
 40
2.749999999313957
  0
CIRCLE
  5
AC
  8
DRILL_HOLES
 10
637.0979856604299
 20
484.9919572519766
 30
0.0
 40
2.749999999312053
  0
CIRCLE
  5
AD
  8
DRILL_HOLES
 10
642.4654282775666
 20
484.9919572519766
 30
0.0
 40
2.749999999312053
  0
CIRCLE
  5
AE
  8
DRILL_HOLES
 10
637.0979856604299
 20
504.9786221885577
 30
0.0
 40
2.749999999312053
  0
CIRCLE
  5
AF
  8
DRILL_HOLES
 10
642.4654282775666
 20
504.9786221885577
 30
0.0
 40
2.749999999312053
  0
CIRCLE
  5
B0
  8
DRILL_HOLES
 10
637.0979856604299
 20
524.3739014958401
 30
0.0
 40
2.74999999931201
  0
CIRCLE
  5
B1
  8
DRILL_HOLES
 10
642.4654282775666
 20
524.3739014958401
 30
0.0
 40
2.74999999931201
  0
CIRCLE
  5
B2
  8
DRILL_HOLES
 10
637.0979856604318
 20
544.1470943204533
 30
0.0
 40
2.749999999313957
  0
CIRCLE
  5
B3
  8
DRILL_HOLES
 10
642.4654282775685
 20
544.1470943204533
 30
0.0
 40
2.749999999313971
  0
CIRCLE
  5
B4
  8
DRILL_HOLES
 10
637.0979856604299
 20
563.5423736277384
 30
0.0
 40
2.749999999312031
  0
CIRCLE
  5
B5
  8
DRILL_HOLES
 10
642.4654282775666
 20
563.5423736277384
 30
0.0
 40
2.749999999312031
  0
LINE
  5
B6
  8
INNER
 10
591.5238721342942
 20
436.97132022246
 30
0.0
 11
571.8766499169826
 21
436.9713202215815
 31
0.0
  0
LINE
  5
B7
  8
INNER
 10
571.8766499169826
 20
436.9713202215815
 30
0.0
 11
571.8766499167214
 21
442.7945424423472
 31
0.0
  0
LINE
  5
B8
  8
INNER
 10
571.8766499167214
 20
442.7945424423472
 30
0.0
 11
591.5238721340291
 21
442.7945424432289
 31
0.0
  0
LINE
  5
B9
  8
INNER
 10
591.5238721340291
 20
442.7945424432289
 30
0.0
 11
591.5238721342942
 21
436.97132022246
 31
0.0
  0
LINE
  5
BA
  8
INNER
 10
552.1419278904269
 20
436.97132022246
 30
0.0
 11
532.4947056731185
 21
436.9713202215783
 31
0.0
  0
LINE
  5
BB
  8
INNER
 10
532.4947056731185
 20
436.9713202215783
 30
0.0
 11
532.4947056728572
 21
442.7945424423472
 31
0.0
  0
LINE
  5
BC
  8
INNER
 10
532.4947056728572
 20
442.7945424423472
 30
0.0
 11
552.1419278901658
 21
442.7945424432289
 31
0.0
  0
LINE
  5
BD
  8
INNER
 10
552.1419278901658
 20
442.7945424432289
 30
0.0
 11
552.1419278904269
 21
436.97132022246
 31
0.0
  0
LINE
  5
BE
  8
INNER
 10
630.8183163357943
 20
436.97132022246
 30
0.0
 11
611.171094118483
 21
436.9713202215783
 31
0.0
  0
LINE
  5
BF
  8
INNER
 10
611.171094118483
 20
436.9713202215783
 30
0.0
 11
611.1710941182218
 21
442.7945424423472
 31
0.0
  0
LINE
  5
C0
  8
INNER
 10
611.1710941182218
 20
442.7945424423472
 30
0.0
 11
630.81831633553
 21
442.7945424432289
 31
0.0
  0
LINE
  5
C1
  8
INNER
 10
630.81831633553
 20
442.7945424432289
 30
0.0
 11
630.8183163357943
 21
436.97132022246
 31
0.0
  0
LINE
  5
C2
  8
INNER
 10
574.8474421660784
 20
569.7942098104239
 30
0.0
 11
555.2002199487666
 21
569.7942098095423
 31
0.0
  0
LINE
  5
C3
  8
INNER
 10
555.2002199487666
 20
569.7942098095423
 30
0.0
 11
555.2002199485062
 21
575.6174320303112
 31
0.0
  0
LINE
  5
C4
  8
INNER
 10
555.2002199485062
 20
575.6174320303112
 30
0.0
 11
574.8474421658171
 21
575.6174320311891
 31
0.0
  0
LINE
  5
C5
  8
INNER
 10
574.8474421658171
 20
575.6174320311891
 30
0.0
 11
574.8474421660784
 21
569.7942098104239
 31
0.0
  0
LINE
  5
C6
  8
INNER
 10
631.0683179295737
 20
587.0444404810248
 30
0.0
 11
581.0687068315385
 21
587.0444404778818
 31
0.0
  0
LINE
  5
C7
  8
INNER
 10
581.0687068315385
 20
587.0444404778818
 30
0.0
 11
581.0687068309636
 21
605.0444399647562
 31
0.0
  0
LINE
  5
C8
  8
INNER
 10
581.0687068309636
 20
605.0444399647562
 30
0.0
 11
631.0683179289988
 21
605.0444399678992
 31
0.0
  0
LINE
  5
C9
  8
INNER
 10
631.0683179289988
 20
605.0444399678992
 30
0.0
 11
631.0683179295737
 21
587.0444404810248
 31
0.0
  0
LINE
  5
CA
  8
INNER
 10
631.0683231201062
 20
405.0443308327845
 30
0.0
 11
581.0687120220707
 21
405.0443308296446
 31
0.0
  0
LINE
  5
CB
  8
INNER
 10
581.0687120220707
 20
405.0443308296446
 30
0.0
 11
581.0687120214958
 21
423.0443303165158
 31
0.0
  0
LINE
  5
CC
  8
INNER
 10
581.0687120214958
 20
423.0443303165158
 30
0.0
 11
631.0683231195313
 21
423.0443303196588
 31
0.0
  0
LINE
  5
CD
  8
INNER
 10
631.0683231195313
 20
423.0443303196588
 30
0.0
 11
631.0683231201062
 21
405.0443308327845
 31
0.0
  0
LINE
  5
CE
  8
INNER
 10
554.6019282873855
 20
405.0443308327845
 30
0.0
 11
504.6023171893496
 21
405.0443308296446
 31
0.0
  0
LINE
  5
CF
  8
INNER
 10
504.6023171893496
 20
405.0443308296446
 30
0.0
 11
504.6023171887747
 21
423.0443303165158
 31
0.0
  0
LINE
  5
D0
  8
INNER
 10
504.6023171887747
 20
423.0443303165158
 30
0.0
 11
554.6019282868066
 21
423.0443303196588
 31
0.0
  0
LINE
  5
D1
  8
INNER
 10
554.6019282868066
 20
423.0443303196588
 30
0.0
 11
554.6019282873855
 21
405.0443308327845
 31
0.0
  0
LINE
  5
D2
  8
INNER
 10
554.6019282873855
 20
587.0444350980632
 30
0.0
 11
504.6023171893496
 21
587.0444350949194
 31
0.0
  0
LINE
  5
D3
  8
INNER
 10
504.6023171893496
 20
587.0444350949194
 30
0.0
 11
504.6023171887747
 21
605.0444345817938
 31
0.0
  0
LINE
  5
D4
  8
INNER
 10
504.6023171887747
 20
605.0444345817938
 30
0.0
 11
554.6019282868066
 21
605.0444345849369
 31
0.0
  0
LINE
  5
D5
  8
INNER
 10
554.6019282868066
 20
605.0444345849369
 30
0.0
 11
554.6019282873855
 21
587.0444350980632
 31
0.0
  0
LINE
  5
D6
  8
INNER
 10
642.4302285689274
 20
563.7943159732662
 30
0.0
 11
642.4302285689274
 21
544.1470937559545
 31
0.0
  0
LINE
  5
D7
  8
INNER
 10
642.4302285689274
 20
544.1470937559545
 30
0.0
 11
636.607006348162
 21
544.1470937559545
 31
0.0
  0
LINE
  5
D8
  8
INNER
 10
636.607006348162
 20
544.1470937559545
 30
0.0
 11
636.607006348162
 21
563.7943159732662
 31
0.0
  0
LINE
  5
D9
  8
INNER
 10
636.607006348162
 20
563.7943159732662
 30
0.0
 11
642.4302285689274
 21
563.7943159732662
 31
0.0
  0
LINE
  5
DA
  8
INNER
 10
642.4302285728324
 20
485.1179275279017
 30
0.0
 11
642.4302285728324
 21
465.47070531059
 31
0.0
  0
LINE
  5
DB
  8
INNER
 10
642.4302285728324
 20
465.47070531059
 30
0.0
 11
636.6070063520674
 21
465.47070531059
 31
0.0
  0
LINE
  5
DC
  8
INNER
 10
636.6070063520674
 20
465.47070531059
 30
0.0
 11
636.6070063520674
 21
485.1179275279017
 31
0.0
  0
LINE
  5
DD
  8
INNER
 10
636.6070063520674
 20
485.1179275279017
 30
0.0
 11
642.4302285728324
 21
485.1179275279017
 31
0.0
  0
LINE
  5
DE
  8
INNER
 10
642.4302285728324
 20
524.4998717717658
 30
0.0
 11
642.4302285728324
 21
504.852649554454
 31
0.0
  0
LINE
  5
DF
  8
INNER
 10
642.4302285728324
 20
504.852649554454
 30
0.0
 11
636.6070063520674
 21
504.852649554454
 31
0.0
  0
LINE
  5
E0
  8
INNER
 10
636.6070063520674
 20
504.852649554454
 30
0.0
 11
636.6070063520674
 21
524.4998717717658
 31
0.0
  0
LINE
  5
E1
  8
INNER
 10
636.6070063520674
 20
524.4998717717658
 30
0.0
 11
642.4302285728324
 21
524.4998717717658
 31
0.0
  0
LINE
  5
E2
  8
INNER
 10
509.6072218060219
 20
547.350706137244
 30
0.0
 11
509.6072218060219
 21
527.7034839199323
 31
0.0
  0
LINE
  5
E3
  8
INNER
 10
509.6072218060219
 20
527.7034839199323
 30
0.0
 11
503.7839995852536
 21
527.7034839199323
 31
0.0
  0
LINE
  5
E4
  8
INNER
 10
503.7839995852536
 20
527.7034839199323
 30
0.0
 11
503.7839995852536
 21
547.350706137244
 31
0.0
  0
LINE
  5
E5
  8
INNER
 10
503.7839995852536
 20
547.350706137244
 30
0.0
 11
509.6072218060219
 21
547.350706137244
 31
0.0
  0
LINE
  5
E6
  8
INNER
 10
509.6072218060219
 20
468.6743176918794
 30
0.0
 11
509.6072218060219
 21
449.0270954745678
 31
0.0
  0
LINE
  5
E7
  8
INNER
 10
509.6072218060219
 20
449.0270954745678
 30
0.0
 11
503.7839995852536
 21
449.0270954745678
 31
0.0
  0
LINE
  5
E8
  8
INNER
 10
503.7839995852536
 20
449.0270954745678
 30
0.0
 11
503.7839995852536
 21
468.6743176918794
 31
0.0
  0
LINE
  5
E9
  8
INNER
 10
503.7839995852536
 20
468.6743176918794
 30
0.0
 11
509.6072218060219
 21
468.6743176918794
 31
0.0
  0
LINE
  5
EA
  8
INNER
 10
509.6072218060219
 20
508.0562619357429
 30
0.0
 11
509.6072218060219
 21
488.4090397184312
 31
0.0
  0
LINE
  5
EB
  8
INNER
 10
509.6072218060219
 20
488.4090397184312
 30
0.0
 11
503.7839995852536
 21
488.4090397184312
 31
0.0
  0
LINE
  5
EC
  8
INNER
 10
503.7839995852536
 20
488.4090397184312
 30
0.0
 11
503.7839995852536
 21
508.0562619357429
 31
0.0
  0
LINE
  5
ED
  8
INNER
 10
503.7839995852536
 20
508.0562619357429
 30
0.0
 11
509.6072218060219
 21
508.0562619357429
 31
0.0
  0
LINE
  5
EE
  8
INNER
 10
614.1418863675791
 20
569.7942098104239
 30
0.0
 11
594.4946641502671
 21
569.7942098095423
 31
0.0
  0
LINE
  5
EF
  8
INNER
 10
594.4946641502671
 20
569.7942098095423
 30
0.0
 11
594.4946641500067
 21
575.6174320303112
 31
0.0
  0
LINE
  5
F0
  8
INNER
 10
594.4946641500067
 20
575.6174320303112
 30
0.0
 11
614.141886367318
 21
575.617432031193
 31
0.0
  0
LINE
  5
F1
  8
INNER
 10
614.141886367318
 20
575.617432031193
 30
0.0
 11
614.1418863675791
 21
569.7942098104239
 31
0.0
  0
LINE
  5
F2
  8
INNER
 10
535.4654979222148
 20
569.7942098104239
 30
0.0
 11
515.8182757049033
 21
569.7942098095423
 31
0.0
  0
LINE
  5
F3
  8
INNER
 10
515.8182757049033
 20
569.7942098095423
 30
0.0
 11
515.818275704642
 21
575.6174320303112
 31
0.0
  0
LINE
  5
F4
  8
INNER
 10
515.818275704642
 20
575.6174320303112
 30
0.0
 11
535.4654979219505
 21
575.617432031193
 31
0.0
  0
LINE
  5
F5
  8
INNER
 10
535.4654979219505
 20
575.617432031193
 30
0.0
 11
535.4654979222148
 21
569.7942098104239
 31
0.0
  0
LINE
  5
F7
  8
OUTER
 10
501.6248907316411
 20
391.4053128296418
 30
0.0
 11
639.0099875537179
 21
391.4053128296417
 31
0.0
  0
ARC
  5
F8
  8
OUTER
 10
639.0099875537178
 20
410.6254470296034
 30
0.0
 40
19.22013419996162
 50
270.0000000000003
 51
359.9999999999997
  0
LINE
  5
F9
  8
OUTER
 10
658.2301217536794
 20
410.6254470296033
 30
0.0
 11
658.2301217536793
 21
601.9632042905212
 31
0.0
  0
ARC
  5
FA
  8
OUTER
 10
639.0099875537178
 20
601.963204290521
 30
0.0
 40
19.22013419996159
 50
0.0000000000003389
 51
89.99999999999967
  0
LINE
  5
FB
  8
OUTER
 10
639.0099875537179
 20
621.1833384904826
 30
0.0
 11
501.6248907316412
 21
621.1833384904826
 31
0.0
  0
ARC
  5
FC
  8
OUTER
 10
501.6248907316411
 20
601.9632042905212
 30
0.0
 40
19.22013419996139
 50
89.99999999999967
 51
180.0000000000003
  0
LINE
  5
FD
  8
OUTER
 10
482.4047565316797
 20
601.9632042905212
 30
0.0
 11
482.4047565316797
 21
410.6254470296033
 31
0.0
  0
ARC
  5
FE
  8
OUTER
 10
501.6248907316411
 20
410.6254470296033
 30
0.0
 40
19.22013419996148
 50
180.0
 51
270.0000000000002
  0
LINE
  5
FF
  8
OUTER
 10
632.1766112309246
 20
-32.63499088749666
 30
0.0
 11
381.6787738842025
 21
-32.63499088749666
 31
0.0
  0
ARC
  5
100
  8
OUTER
 10
381.7514333084403
 20
-7.811250174121597
 30
0.0
 40
24.82384705070514
 50
180.1677050413115
 51
269.8322949586902
  0
LINE
  5
101
  8
OUTER
 10
356.9276925950653
 20
-7.883909598359992
 30
0.0
 11
356.9276925950653
 21
342.6139277233649
 31
0.0
  0
ARC
  5
102
  8
OUTER
 10
381.751433308442
 20
342.5412682991274
 30
0.0
 40
24.82384705070684
 50
90.16770504131381
 51
179.8322949586905
  0
LINE
  5
103
  8
OUTER
 10
381.6787738842025
 20
367.3650090125041
 30
0.0
 11
632.1766112309246
 21
367.3650090125041
 31
0.0
  0
ARC
  5
104
  8
OUTER
 10
632.1039518066849
 20
342.5412682991246
 30
0.0
 40
24.82384705070967
 50
0.1677050413129994
 51
89.83229495868544
  0
LINE
  5
105
  8
OUTER
 10
656.9276925200644
 20
342.6139277233636
 30
0.0
 11
656.9276925200644
 21
-7.883909598359992
 31
0.0
  0
ARC
  5
106
  8
OUTER
 10
632.1039518066871
 20
-7.811250174119209
 30
0.0
 40
24.82384705070753
 50
270.1677050413096
 51
359.8322949586831
  0
LINE
  5
107
  8
INNER
 10
535.9139236805561
 20
248.1151150227063
 30
0.0
 11
485.9143125825203
 21
248.1151150195626
 31
0.0
  0
LINE
  5
108
  8
INNER
 10
485.9143125825203
 20
248.1151150195626
 30
0.0
 11
485.9143125819453
 21
266.115114506437
 31
0.0
  0
LINE
  5
109
  8
INNER
 10
485.9143125819453
 20
266.115114506437
 30
0.0
 11
535.9139236799773
 21
266.1151145095801
 31
0.0
  0
LINE
  5
10A
  8
INNER
 10
535.9139236799773
 20
266.1151145095801
 30
0.0
 11
535.9139236805561
 21
248.1151150227063
 31
0.0
  0
LINE
  5
10B
  8
INNER
 10
535.9139236805561
 20
66.11501075742763
 30
0.0
 11
485.9143125825203
 21
66.11501075428782
 31
0.0
  0
LINE
  5
10C
  8
INNER
 10
485.9143125825203
 20
66.11501075428782
 30
0.0
 11
485.9143125819453
 21
84.11501024115887
 31
0.0
  0
LINE
  5
10D
  8
INNER
 10
485.9143125819453
 20
84.11501024115887
 30
0.0
 11
535.9139236799773
 21
84.11501024430186
 31
0.0
  0
LINE
  5
10E
  8
INNER
 10
535.9139236799773
 20
84.11501024430186
 30
0.0
 11
535.9139236805561
 21
66.11501075742763
 31
0.0
  0
LINE
  5
10F
  8
INNER
 10
612.3803185132773
 20
66.11501075742763
 30
0.0
 11
562.3807074152415
 21
66.11501075428782
 31
0.0
  0
LINE
  5
110
  8
INNER
 10
562.3807074152415
 20
66.11501075428782
 30
0.0
 11
562.3807074146665
 21
84.11501024115887
 31
0.0
  0
LINE
  5
111
  8
INNER
 10
562.3807074146665
 20
84.11501024115887
 30
0.0
 11
612.3803185127024
 21
84.11501024430186
 31
0.0
  0
LINE
  5
112
  8
INNER
 10
612.3803185127024
 20
84.11501024430186
 30
0.0
 11
612.3803185132773
 21
66.11501075742763
 31
0.0
  0
LINE
  5
113
  8
INNER
 10
612.3803133227444
 20
248.115120405668
 30
0.0
 11
562.3807022247094
 21
248.115120402525
 31
0.0
  0
LINE
  5
114
  8
INNER
 10
562.3807022247094
 20
248.115120402525
 30
0.0
 11
562.3807022241343
 21
266.1151198893994
 31
0.0
  0
LINE
  5
115
  8
INNER
 10
562.3807022241343
 20
266.1151198893994
 30
0.0
 11
612.3803133221695
 21
266.1151198925425
 31
0.0
  0
LINE
  5
116
  8
INNER
 10
612.3803133221695
 20
266.1151198925425
 30
0.0
 11
612.3803133227444
 21
248.115120405668
 31
0.0
  0
CIRCLE
  5
117
  8
INNER
 10
554.3518752011996
 20
202.6149583099697
 30
0.0
 40
4.25
  0
CIRCLE
  5
118
  8
INNER
 10
554.3518752075286
 20
132.1149827361369
 30
0.0
 40
4.249999999999957
  0
CIRCLE
  5
119
  8
DRILL_HOLES
 10
486.1940960341573
 20
265.8631484124596
 30
0.0
 40
2.500000000000085
  0
CIRCLE
  5
11A
  8
DRILL_HOLES
 10
486.1940876041551
 20
247.8631724555244
 30
0.0
 40
2.500000000000057
  0
CIRCLE
  5
11B
  8
DRILL_HOLES
 10
536.1937017871081
 20
247.8631724609149
 30
0.0
 40
2.499999999999744
  0
CIRCLE
  5
11C
  8
DRILL_HOLES
 10
536.1937049387651
 20
265.8631704324462
 30
0.0
 40
2.500000000000099
  0
CIRCLE
  5
11D
  8
DRILL_HOLES
 10
485.9197104521623
 20
84.11498746468362
 30
0.0
 40
2.499999999999829
  0
CIRCLE
  5
11E
  8
DRILL_HOLES
 10
485.9197020221601
 20
66.11501150775223
 30
0.0
 40
2.499999999999773
  0
CIRCLE
  5
11F
  8
DRILL_HOLES
 10
535.9193162051138
 20
66.11501151313905
 30
0.0
 40
2.500000000000057
  0
CIRCLE
  5
120
  8
DRILL_HOLES
 10
535.9193193567704
 20
84.11500948467051
 30
0.0
 40
2.500000000000057
  0
CIRCLE
  5
121
  8
DRILL_HOLES
 10
562.3807120543539
 20
83.86304414718131
 30
0.0
 40
2.499999999999773
  0
CIRCLE
  5
122
  8
DRILL_HOLES
 10
562.3807036243516
 20
65.86306819024958
 30
0.0
 40
2.500000000000171
  0
CIRCLE
  5
123
  8
DRILL_HOLES
 10
612.660091858476
 20
65.86306819563663
 30
0.0
 40
2.500000000000114
  0
CIRCLE
  5
124
  8
DRILL_HOLES
 10
612.6600950101322
 20
83.86306616716786
 30
0.0
 40
2.499999999999659
  0
CIRCLE
  5
125
  8
DRILL_HOLES
 10
562.3807120543539
 20
265.8631537954217
 30
0.0
 40
2.499999999999744
  0
CIRCLE
  5
126
  8
DRILL_HOLES
 10
562.3807036243516
 20
247.8631778384868
 30
0.0
 40
2.500000000000085
  0
CIRCLE
  5
127
  8
DRILL_HOLES
 10
612.6600918584759
 20
247.863177843877
 30
0.0
 40
2.500000000000057
  0
CIRCLE
  5
128
  8
DRILL_HOLES
 10
612.6600950101342
 20
265.8631758154064
 30
0.0
 40
2.500000000001677
  0
CIRCLE
  5
129
  8
DRILL_HOLES
 10
564.1472835109975
 20
119.8590018634868
 30
0.0
 40
2.499999999999815
  0
CIRCLE
  5
12A
  8
DRILL_HOLES
 10
545.1472835109976
 20
119.8590018617798
 30
0.0
 40
2.499999999999744
  0
CIRCLE
  5
12B
  8
DRILL_HOLES
 10
545.1472835025097
 20
214.3671051348034
 30
0.0
 40
2.499999999999744
  0
CIRCLE
  5
12C
  8
DRILL_HOLES
 10
564.1472835025097
 20
214.3670799557165
 30
0.0
 40
2.499999999999815
  0
ENDSEC
  0
EOF
