  0
SECTION
  2
HEADER
  9
$ACADVER
  1
AC1009
  9
$DWGCODEPAGE
  3
ansi_1252
  9
$INSBASE
 10
0.0
 20
0.0
 30
0.0
  9
$EXTMIN
 10
2.797406328619942
 20
4.48336693010461
 30
0.0
  9
$EXTMAX
 10
47.61358597911248
 20
43.63805083085192
 30
0.0
  9
$LIMMIN
 10
0.0
 20
0.0
  9
$LIMMAX
 10
12.0
 20
9.0
  9
$ORTHOMODE
 70
     0
  9
$REGENMODE
 70
     1
  9
$FILLMODE
 70
     1
  9
$QTEXTMODE
 70
     0
  9
$MIRRTEXT
 70
     1
  9
$DRAGMODE
 70
     2
  9
$LTSCALE
 40
1.0
  9
$OSMODE
 70
    37
  9
$ATTMODE
 70
     1
  9
$TEXTSIZE
 40
0.2
  9
$TRACEWID
 40
0.05
  9
$TEXTSTYLE
  7
STANDARD
  9
$CLAYER
  8
DEFAULT
  9
$CELTYPE
  6
BYLAYER
  9
$CECOLOR
 62
   256
  9
$DIMSCALE
 40
1.0
  9
$DIMASZ
 40
0.18
  9
$DIMEXO
 40
0.0625
  9
$DIMDLI
 40
0.38
  9
$DIMRND
 40
0.0
  9
$DIMDLE
 40
0.0
  9
$DIMEXE
 40
0.18
  9
$DIMTP
 40
0.0
  9
$DIMTM
 40
0.0
  9
$DIMTXT
 40
0.18
  9
$DIMCEN
 40
0.09
  9
$DIMTSZ
 40
0.0
  9
$DIMTOL
 70
     0
  9
$DIMLIM
 70
     0
  9
$DIMTIH
 70
     1
  9
$DIMTOH
 70
     1
  9
$DIMSE1
 70
     0
  9
$DIMSE2
 70
     0
  9
$DIMTAD
 70
     0
  9
$DIMZIN
 70
     0
  9
$DIMBLK
  1

  9
$DIMASO
 70
     1
  9
$DIMSHO
 70
     1
  9
$DIMPOST
  1

  9
$DIMAPOST
  1

  9
$DIMALT
 70
     0
  9
$DIMALTD
 70
     2
  9
$DIMALTF
 40
25.4
  9
$DIMLFAC
 40
1.0
  9
$DIMTOFL
 70
     0
  9
$DIMTVP
 40
0.0
  9
$DIMTIX
 70
     0
  9
$DIMSOXD
 70
     0
  9
$DIMSAH
 70
     0
  9
$DIMBLK1
  1

  9
$DIMBLK2
  1

  9
$DIMSTYLE
  2
STANDARD
  9
$DIMCLRD
 70
     0
  9
$DIMCLRE
 70
     0
  9
$DIMCLRT
 70
     0
  9
$DIMTFAC
 40
1.0
  9
$DIMGAP
 40
0.09
  9
$LUNITS
 70
     2
  9
$LUPREC
 70
     3
  9
$SKETCHINC
 40
0.1
  9
$FILLETRAD
 40
0.5
  9
$AUNITS
 70
     0
  9
$AUPREC
 70
     0
  9
$MENU
  1
.
  9
$ELEVATION
 40
0.0
  9
$PELEVATION
 40
0.0
  9
$THICKNESS
 40
0.0
  9
$LIMCHECK
 70
     0
  9
$CHAMFERA
 40
0.0
  9
$CHAMFERB
 40
0.0
  9
$SKPOLY
 70
     0
  9
$TDCREATE
 40
2458063.665865174
  9
$TDUPDATE
 40
2458063.666078276
  9
$TDINDWG
 40
0.0000000116
  9
$TDUSRTIMER
 40
0.0000000116
  9
$USRTIMER
 70
     1
  9
$ANGBASE
 50
0.0
  9
$ANGDIR
 70
     0
  9
$PDMODE
 70
     0
  9
$PDSIZE
 40
0.0
  9
$PLINEWID
 40
0.0
  9
$COORDS
 70
     1
  9
$SPLFRAME
 70
     0
  9
$SPLINETYPE
 70
     6
  9
$SPLINESEGS
 70
     8
  9
$ATTDIA
 70
     0
  9
$ATTREQ
 70
     1
  9
$HANDLING
 70
     1
  9
$HANDSEED
  5
193
  9
$SURFTAB1
 70
     6
  9
$SURFTAB2
 70
     6
  9
$SURFTYPE
 70
     6
  9
$SURFU
 70
     6
  9
$SURFV
 70
     6
  9
$UCSNAME
  2

  9
$UCSORG
 10
0.0
 20
0.0
 30
0.0
  9
$UCSXDIR
 10
1.0
 20
0.0
 30
0.0
  9
$UCSYDIR
 10
0.0
 20
1.0
 30
0.0
  9
$PUCSNAME
  2

  9
$PUCSORG
 10
0.0
 20
0.0
 30
0.0
  9
$PUCSXDIR
 10
1.0
 20
0.0
 30
0.0
  9
$PUCSYDIR
 10
0.0
 20
1.0
 30
0.0
  9
$USERI1
 70
     0
  9
$USERI2
 70
     0
  9
$USERI3
 70
     0
  9
$USERI4
 70
     0
  9
$USERI5
 70
     0
  9
$USERR1
 40
0.0
  9
$USERR2
 40
0.0
  9
$USERR3
 40
0.0
  9
$USERR4
 40
0.0
  9
$USERR5
 40
0.0
  9
$WORLDVIEW
 70
     1
  9
$SHADEDGE
 70
     3
  9
$SHADEDIF
 70
    70
  9
$TILEMODE
 70
     1
  9
$MAXACTVP
 70
    64
  9
$PLIMCHECK
 70
     0
  9
$PEXTMIN
 10
1.000000000000000E+20
 20
1.000000000000000E+20
 30
1.000000000000000E+20
  9
$PEXTMAX
 10
-1.000000000000000E+20
 20
-1.000000000000000E+20
 30
-1.000000000000000E+20
  9
$PLIMMIN
 10
0.0
 20
0.0
  9
$PLIMMAX
 10
12.0
 20
9.0
  9
$UNITMODE
 70
     0
  9
$VISRETAIN
 70
     1
  9
$PLINEGEN
 70
     0
  9
$PSLTSCALE
 70
     1
  0
ENDSEC
  0
SECTION
  2
TABLES
  0
TABLE
  2
VPORT
 70
     1
  0
VPORT
  2
*ACTIVE
 70
     0
 10
0.0
 20
0.0
 11
1.0
 21
1.0
 12
25.20549615386621
 22
24.06070888047827
 13
0.0
 23
0.0
 14
0.5
 24
0.5
 15
0.5
 25
0.5
 16
0.0
 26
0.0
 36
1.0
 17
0.0
 27
0.0
 37
0.0
 40
39.93777757876227
 41
1.144593064883284
 42
50.0
 43
0.0
 44
0.0
 50
0.0
 51
0.0
 71
     0
 72
   100
 73
     1
 74
     3
 75
     0
 76
     0
 77
     0
 78
     0
  0
ENDTAB
  0
TABLE
  2
LTYPE
 70
     1
  0
LTYPE
  2
CONTINUOUS
 70
     0
  3
Solid line
 72
    65
 73
     0
 40
0.0
  0
ENDTAB
  0
TABLE
  2
LAYER
 70
     2
  0
LAYER
  2
0
 70
     0
 62
     7
  6
CONTINUOUS
  0
LAYER
  2
DEFAULT
 70
     0
 62
     7
  6
CONTINUOUS
  0
ENDTAB
  0
TABLE
  2
STYLE
 70
     1
  0
STYLE
  2
STANDARD
 70
     0
 40
0.0
 41
1.0
 50
0.0
 71
     0
 42
0.2
  3
txt
  4

  0
ENDTAB
  0
TABLE
  2
VIEW
 70
     0
  0
ENDTAB
  0
TABLE
  2
UCS
 70
     0
  0
ENDTAB
  0
TABLE
  2
APPID
 70
     1
  0
APPID
  2
ACAD
 70
     0
  0
ENDTAB
  0
TABLE
  2
DIMSTYLE
 70
     1
  0
DIMSTYLE
  2
STANDARD
 70
     0
  3

  4

  5

  6

  7

 40
1.0
 41
0.18
 42
0.0625
 43
0.38
 44
0.18
 45
0.0
 46
0.0
 47
0.0
 48
0.0
140
0.18
141
0.09
142
0.0
143
25.4
144
1.0
145
0.0
146
1.0
147
0.09
 71
     0
 72
     0
 73
     1
 74
     1
 75
     0
 76
     0
 77
     0
 78
     0
170
     0
171
     2
172
     0
173
     0
174
     0
175
     0
176
     0
177
     0
178
     0
  0
ENDTAB
  0
ENDSEC
  0
SECTION
  2
BLOCKS
  0
BLOCK
  8
0
  2
$MODEL_SPACE
 70
     0
 10
0.0
 20
0.0
 30
0.0
  3
$MODEL_SPACE
  1

  0
ENDBLK
  5
21
  8
0
  0
BLOCK
 67
     1
  8
0
  2
$PAPER_SPACE
 70
     0
 10
0.0
 20
0.0
 30
0.0
  3
$PAPER_SPACE
  1

  0
ENDBLK
  5
1D
 67
     1
  8
0
  0
ENDSEC
  0
SECTION
  2
ENTITIES
  0
LINE
  5
6F
  8
DEFAULT
 10
26.67800456069127
 20
4.484136808372817
 30
0.0
 11
27.0668078997426
 21
4.945773513292364
 31
0.0
  0
LINE
  5
70
  8
DEFAULT
 10
27.0668078997426
 20
4.945773513292364
 30
0.0
 11
27.42008063276217
 21
5.38760347892006
 31
0.0
  0
LINE
  5
71
  8
DEFAULT
 10
27.42008063276217
 20
5.38760347892006
 30
0.0
 11
27.73976810456796
 21
5.810980994551162
 31
0.0
  0
LINE
  5
72
  8
DEFAULT
 10
27.73976810456796
 20
5.810980994551162
 30
0.0
 11
28.02781565997793
 21
6.217260349480936
 31
0.0
  0
LINE
  5
73
  8
DEFAULT
 10
28.02781565997793
 20
6.217260349480936
 30
0.0
 11
28.28616864381007
 21
6.607795833004641
 31
0.0
  0
LINE
  5
74
  8
DEFAULT
 10
28.28616864381007
 20
6.607795833004641
 30
0.0
 11
28.40481759164007
 21
6.797582838393986
 31
0.0
  0
LINE
  5
75
  8
DEFAULT
 10
28.40481759164007
 20
6.797582838393986
 30
0.0
 11
28.51677240088235
 21
6.983941734417538
 31
0.0
  0
LINE
  5
76
  8
DEFAULT
 10
28.51677240088235
 20
6.983941734417538
 30
0.0
 11
28.62227623963916
 21
7.167041807237204
 31
0.0
  0
LINE
  5
77
  8
DEFAULT
 10
28.62227623963916
 20
7.167041807237204
 30
0.0
 11
28.72157227601275
 21
7.34705234301489
 31
0.0
  0
LINE
  5
78
  8
DEFAULT
 10
28.72157227601275
 20
7.34705234301489
 30
0.0
 11
28.81490367810537
 21
7.524142627912505
 31
0.0
  0
LINE
  5
79
  8
DEFAULT
 10
28.81490367810537
 20
7.524142627912505
 30
0.0
 11
28.90251361401925
 21
7.698481948091958
 31
0.0
  0
LINE
  5
7A
  8
DEFAULT
 10
28.90251361401925
 20
7.698481948091958
 30
0.0
 11
28.98464525185665
 21
7.870239589715155
 31
0.0
  0
LINE
  5
7B
  8
DEFAULT
 10
28.98464525185665
 20
7.870239589715155
 30
0.0
 11
29.06154175971982
 21
8.039584838944004
 31
0.0
  0
LINE
  5
7C
  8
DEFAULT
 10
29.06154175971982
 20
8.039584838944004
 30
0.0
 11
29.133446305711
 21
8.206686981940411
 31
0.0
  0
LINE
  5
7D
  8
DEFAULT
 10
29.133446305711
 20
8.206686981940411
 30
0.0
 11
29.20060205793243
 21
8.371715304866289
 31
0.0
  0
LINE
  5
7E
  8
DEFAULT
 10
29.20060205793243
 20
8.371715304866289
 30
0.0
 11
29.26325218448637
 21
8.53483909388354
 31
0.0
  0
LINE
  5
7F
  8
DEFAULT
 10
29.26325218448637
 20
8.53483909388354
 30
0.0
 11
29.32163985347506
 21
8.696227635154074
 31
0.0
  0
LINE
  5
80
  8
DEFAULT
 10
29.32163985347506
 20
8.696227635154074
 30
0.0
 11
29.37600823300076
 21
8.856050214839797
 31
0.0
  0
LINE
  5
81
  8
DEFAULT
 10
29.37600823300076
 20
8.856050214839797
 30
0.0
 11
29.4266004911657
 21
9.014476119102621
 31
0.0
  0
LINE
  5
82
  8
DEFAULT
 10
29.4266004911657
 20
9.014476119102621
 30
0.0
 11
29.47365979607213
 21
9.171674634104452
 31
0.0
  0
LINE
  5
83
  8
DEFAULT
 10
29.47365979607213
 20
9.171674634104452
 30
0.0
 11
29.51742931582231
 21
9.327815046007192
 31
0.0
  0
LINE
  5
84
  8
DEFAULT
 10
29.51742931582231
 20
9.327815046007192
 30
0.0
 11
29.59607167226287
 21
9.637598705163049
 31
0.0
  0
LINE
  5
85
  8
DEFAULT
 10
29.59607167226287
 20
9.637598705163049
 30
0.0
 11
29.66447290530536
 21
9.945181385865451
 31
0.0
  0
LINE
  5
86
  8
DEFAULT
 10
29.66447290530536
 20
9.945181385865451
 30
0.0
 11
29.72457835976775
 21
10.25191737740966
 31
0.0
  0
LINE
  5
87
  8
DEFAULT
 10
29.72457835976775
 20
10.25191737740966
 30
0.0
 11
29.77812636764923
 21
10.55907212322383
 31
0.0
  0
LINE
  5
88
  8
DEFAULT
 10
29.77812636764923
 20
10.55907212322383
 30
0.0
 11
29.82602720967385
 21
10.86755568326766
 31
0.0
  0
LINE
  5
89
  8
DEFAULT
 10
29.82602720967385
 20
10.86755568326766
 30
0.0
 11
29.90770046777345
 21
11.49179410241463
 31
0.0
  0
LINE
  5
8A
  8
DEFAULT
 10
29.90770046777345
 20
11.49179410241463
 30
0.0
 11
30.29751660998591
 21
15.78573090984426
 31
0.0
  0
LINE
  5
8B
  8
DEFAULT
 10
30.29751660998591
 20
15.78573090984426
 30
0.0
 11
30.40050428907606
 21
16.65362523758645
 31
0.0
  0
LINE
  5
8C
  8
DEFAULT
 10
30.40050428907606
 20
16.65362523758645
 30
0.0
 11
30.46537562167107
 21
17.11019221270364
 31
0.0
  0
LINE
  5
8D
  8
DEFAULT
 10
30.46537562167107
 20
17.11019221270364
 30
0.0
 11
30.54238338833962
 21
17.58299905115183
 31
0.0
  0
LINE
  5
8E
  8
DEFAULT
 10
30.54238338833962
 20
17.58299905115183
 30
0.0
 11
30.63394116811188
 21
18.07291574480621
 31
0.0
  0
LINE
  5
8F
  8
DEFAULT
 10
30.63394116811188
 20
18.07291574480621
 30
0.0
 11
30.74246254001802
 21
18.58081228554199
 31
0.0
  0
LINE
  5
90
  8
DEFAULT
 10
30.74246254001802
 20
18.58081228554199
 30
0.0
 11
30.87036108308824
 21
19.10755866523437
 31
0.0
  0
LINE
  5
91
  8
DEFAULT
 10
30.87036108308824
 20
19.10755866523437
 30
0.0
 11
31.02005037635269
 21
19.65402487575854
 31
0.0
  0
LINE
  5
92
  8
DEFAULT
 10
31.02005037635269
 20
19.65402487575854
 30
0.0
 11
31.19394399884157
 21
20.22108090898971
 31
0.0
  0
LINE
  5
93
  8
DEFAULT
 10
31.19394399884157
 20
20.22108090898971
 30
0.0
 11
31.39445552958504
 21
20.80959675680308
 31
0.0
  0
LINE
  5
94
  8
DEFAULT
 10
31.39445552958504
 20
20.80959675680308
 30
0.0
 11
31.62399854761329
 21
21.42044241107384
 31
0.0
  0
LINE
  5
95
  8
DEFAULT
 10
31.62399854761329
 20
21.42044241107384
 30
0.0
 11
31.88498663195649
 21
22.05448786367721
 31
0.0
  0
LINE
  5
96
  8
DEFAULT
 10
31.88498663195649
 20
22.05448786367721
 30
0.0
 11
32.17983336164483
 21
22.71260310648837
 31
0.0
  0
LINE
  5
97
  8
DEFAULT
 10
32.17983336164483
 20
22.71260310648837
 30
0.0
 11
32.51095231570848
 21
23.39565813138253
 31
0.0
  0
LINE
  5
98
  8
DEFAULT
 10
32.51095231570848
 20
23.39565813138253
 30
0.0
 11
32.88075707317761
 21
24.10452293023488
 31
0.0
  0
LINE
  5
99
  8
DEFAULT
 10
32.88075707317761
 20
24.10452293023488
 30
0.0
 11
33.29166121308241
 21
24.84006749492064
 31
0.0
  0
LINE
  5
9A
  8
DEFAULT
 10
33.29166121308241
 20
24.84006749492064
 30
0.0
 11
33.72320942176344
 21
25.56369320094127
 31
0.0
  0
LINE
  5
9B
  8
DEFAULT
 10
33.72320942176344
 20
25.56369320094127
 30
0.0
 11
34.15220196668356
 21
26.23838591477605
 31
0.0
  0
LINE
  5
9C
  8
DEFAULT
 10
34.15220196668356
 20
26.23838591477605
 30
0.0
 11
34.57818549339268
 21
26.86667085311678
 31
0.0
  0
LINE
  5
9D
  8
DEFAULT
 10
34.57818549339268
 20
26.86667085311678
 30
0.0
 11
35.00070664744075
 21
27.45107323265522
 31
0.0
  0
LINE
  5
9E
  8
DEFAULT
 10
35.00070664744075
 20
27.45107323265522
 30
0.0
 11
35.41931207437767
 21
27.99411827008315
 31
0.0
  0
LINE
  5
9F
  8
DEFAULT
 10
35.41931207437767
 20
27.99411827008315
 30
0.0
 11
35.83354841975336
 21
28.49833118209235
 31
0.0
  0
LINE
  5
A0
  8
DEFAULT
 10
35.83354841975336
 20
28.49833118209235
 30
0.0
 11
36.24296232911773
 21
28.96623718537458
 31
0.0
  0
LINE
  5
A1
  8
DEFAULT
 10
36.24296232911773
 20
28.96623718537458
 30
0.0
 11
36.64710044802072
 21
29.40036149662163
 31
0.0
  0
LINE
  5
A2
  8
DEFAULT
 10
36.64710044802072
 20
29.40036149662163
 30
0.0
 11
37.04550942201225
 21
29.80322933252528
 31
0.0
  0
LINE
  5
A3
  8
DEFAULT
 10
37.04550942201225
 20
29.80322933252528
 30
0.0
 11
37.43773589664222
 21
30.17736590977729
 31
0.0
  0
LINE
  5
A4
  8
DEFAULT
 10
37.43773589664222
 20
30.17736590977729
 30
0.0
 11
37.82332651746057
 21
30.52529644506944
 31
0.0
  0
LINE
  5
A5
  8
DEFAULT
 10
37.82332651746057
 20
30.52529644506944
 30
0.0
 11
38.20182793001722
 21
30.84954615509351
 31
0.0
  0
LINE
  5
A6
  8
DEFAULT
 10
38.20182793001722
 20
30.84954615509351
 30
0.0
 11
38.57278677986207
 21
31.15264025654127
 31
0.0
  0
LINE
  5
A7
  8
DEFAULT
 10
38.57278677986207
 20
31.15264025654127
 30
0.0
 11
38.93574971254507
 21
31.4371039661045
 31
0.0
  0
LINE
  5
A8
  8
DEFAULT
 10
38.93574971254507
 20
31.4371039661045
 30
0.0
 11
39.63587440862515
 21
31.96024107634447
 31
0.0
  0
LINE
  5
A9
  8
DEFAULT
 10
39.63587440862515
 20
31.96024107634447
 30
0.0
 11
43.15962469499804
 21
34.44480016202051
 31
0.0
  0
LINE
  5
AA
  8
DEFAULT
 10
43.15962469499804
 20
34.44480016202051
 30
0.0
 11
43.65939439494776
 21
34.82765048791809
 31
0.0
  0
LINE
  5
AB
  8
DEFAULT
 10
43.65939439494776
 20
34.82765048791809
 30
0.0
 11
43.90259857358327
 21
35.02337561399599
 31
0.0
  0
LINE
  5
AC
  8
DEFAULT
 10
43.90259857358327
 20
35.02337561399599
 30
0.0
 11
44.14182838241054
 21
35.22332692205049
 31
0.0
  0
LINE
  5
AD
  8
DEFAULT
 10
44.14182838241054
 20
35.22332692205049
 30
0.0
 11
44.37741681611164
 21
35.42874776829304
 31
0.0
  0
LINE
  5
AE
  8
DEFAULT
 10
44.37741681611164
 20
35.42874776829304
 30
0.0
 11
44.60959061484279
 21
35.64177631410922
 31
0.0
  0
LINE
  5
AF
  8
DEFAULT
 10
44.60959061484279
 20
35.64177631410922
 30
0.0
 11
44.83854995512879
 21
35.86477442217813
 31
0.0
  0
LINE
  5
B0
  8
DEFAULT
 10
44.83854995512879
 20
35.86477442217813
 30
0.0
 11
44.95188675851884
 21
35.9807501441446
 31
0.0
  0
LINE
  5
B1
  8
DEFAULT
 10
44.95188675851884
 20
35.9807501441446
 30
0.0
 11
45.06449501349439
 21
36.10010395517892
 31
0.0
  0
LINE
  5
B2
  8
DEFAULT
 10
45.06449501349439
 20
36.10010395517892
 30
0.0
 11
45.17639974212105
 21
36.22313108811599
 31
0.0
  0
LINE
  5
B3
  8
DEFAULT
 10
45.17639974212105
 20
36.22313108811599
 30
0.0
 11
45.2876259664644
 21
36.3501267757907
 31
0.0
  0
LINE
  5
B4
  8
DEFAULT
 10
45.2876259664644
 20
36.3501267757907
 30
0.0
 11
45.39819870859005
 21
36.48138625103793
 31
0.0
  0
LINE
  5
B5
  8
DEFAULT
 10
45.39819870859005
 20
36.48138625103793
 30
0.0
 11
45.50814299056359
 21
36.61720474669258
 31
0.0
  0
LINE
  5
B6
  8
DEFAULT
 10
45.50814299056359
 20
36.61720474669258
 30
0.0
 11
45.61748383445062
 21
36.75787749558954
 31
0.0
  0
LINE
  5
B7
  8
DEFAULT
 10
45.61748383445062
 20
36.75787749558954
 30
0.0
 11
45.72624626231674
 21
36.90369973056369
 31
0.0
  0
LINE
  5
B8
  8
DEFAULT
 10
45.72624626231674
 20
36.90369973056369
 30
0.0
 11
45.83445529622755
 21
37.05496668444993
 31
0.0
  0
LINE
  5
B9
  8
DEFAULT
 10
45.83445529622755
 20
37.05496668444993
 30
0.0
 11
45.94213595824864
 21
37.21197359008313
 31
0.0
  0
LINE
  5
BA
  8
DEFAULT
 10
45.94213595824864
 20
37.21197359008313
 30
0.0
 11
46.04931327044562
 21
37.3750156802982
 31
0.0
  0
LINE
  5
BB
  8
DEFAULT
 10
46.04931327044562
 20
37.3750156802982
 30
0.0
 11
46.15601225488407
 21
37.54438818793003
 31
0.0
  0
LINE
  5
BC
  8
DEFAULT
 10
46.15601225488407
 20
37.54438818793003
 30
0.0
 11
46.2622579336296
 21
37.72038634581351
 31
0.0
  0
LINE
  5
BD
  8
DEFAULT
 10
46.2622579336296
 20
37.72038634581351
 30
0.0
 11
46.36807532874781
 21
37.90330538678352
 31
0.0
  0
LINE
  5
BE
  8
DEFAULT
 10
46.36807532874781
 20
37.90330538678352
 30
0.0
 11
46.47348946230428
 21
38.09344054367496
 31
0.0
  0
LINE
  5
BF
  8
DEFAULT
 10
46.47348946230428
 20
38.09344054367496
 30
0.0
 11
46.57852535636463
 21
38.2910870493227
 31
0.0
  0
LINE
  5
C0
  8
DEFAULT
 10
46.57852535636463
 20
38.2910870493227
 30
0.0
 11
46.78756251425933
 21
38.7100950382267
 31
0.0
  0
LINE
  5
C1
  8
DEFAULT
 10
46.78756251425933
 20
38.7100950382267
 30
0.0
 11
46.99538697895667
 21
39.16269121617462
 31
0.0
  0
LINE
  5
C2
  8
DEFAULT
 10
46.99538697895667
 20
39.16269121617462
 30
0.0
 11
47.20219892698147
 21
39.65123744584561
 31
0.0
  0
LINE
  5
C3
  8
DEFAULT
 10
47.20219892698147
 20
39.65123744584561
 30
0.0
 11
47.40819853485847
 21
40.17809558991875
 31
0.0
  0
LINE
  5
C4
  8
DEFAULT
 10
47.40819853485847
 20
40.17809558991875
 30
0.0
 11
47.61358597911248
 21
40.7456275110732
 31
0.0
  0
ARC
  5
C5
  8
DEFAULT
 10
56.52534311007386
 20
20.69263825453216
 30
0.0
 40
21.94406054685848
 50
113.9608604680378
 51
125.9949956928553
  0
LINE
  5
C6
  8
DEFAULT
 10
43.62849858078375
 20
38.44688266175802
 30
0.0
 11
38.53053929137854
 21
35.50680849882146
 31
0.0
  0
LINE
  5
C7
  8
DEFAULT
 10
38.53053929137854
 20
35.50680849882146
 30
0.0
 11
37.05963797933307
 21
38.05728668133471
 31
0.0
  0
LINE
  5
C8
  8
DEFAULT
 10
37.05963797933307
 20
38.05728668133471
 30
0.0
 11
42.15700794954608
 21
40.99774996677042
 31
0.0
  0
ARC
  5
C9
  8
DEFAULT
 10
33.20057659555452
 20
61.12298653727807
 30
0.0
 40
22.02822756414282
 50
293.9907300202561
 51
305.9768832631533
  0
LINE
  5
CA
  8
DEFAULT
 10
46.14125263618326
 20
43.29655354497255
 30
0.0
 11
45.54708557510482
 21
43.40221063901819
 31
0.0
  0
LINE
  5
CB
  8
DEFAULT
 10
45.54708557510482
 20
43.40221063901819
 30
0.0
 11
44.98783633311111
 21
43.48703054621799
 31
0.0
  0
LINE
  5
CC
  8
DEFAULT
 10
44.98783633311111
 20
43.48703054621799
 30
0.0
 11
44.4613594100194
 21
43.55201889278661
 31
0.0
  0
LINE
  5
CD
  8
DEFAULT
 10
44.4613594100194
 20
43.55201889278661
 30
0.0
 11
43.96550930564692
 21
43.59818130493868
 31
0.0
  0
LINE
  5
CE
  8
DEFAULT
 10
43.96550930564692
 20
43.59818130493868
 30
0.0
 11
43.4981405198109
 21
43.6265234088889
 31
0.0
  0
LINE
  5
CF
  8
DEFAULT
 10
43.4981405198109
 20
43.6265234088889
 30
0.0
 11
43.27446615253694
 21
43.63432610348039
 31
0.0
  0
LINE
  5
D0
  8
DEFAULT
 10
43.27446615253694
 20
43.63432610348039
 30
0.0
 11
43.05710755232857
 21
43.63805083085192
 31
0.0
  0
LINE
  5
D1
  8
DEFAULT
 10
43.05710755232857
 20
43.63805083085192
 30
0.0
 11
42.84579653166294
 21
43.63782329428032
 31
0.0
  0
LINE
  5
D2
  8
DEFAULT
 10
42.84579653166294
 20
43.63782329428032
 30
0.0
 11
42.64026490301719
 21
43.63376919704242
 31
0.0
  0
LINE
  5
D3
  8
DEFAULT
 10
42.64026490301719
 20
43.63376919704242
 30
0.0
 11
42.44024447886849
 21
43.62601424241505
 31
0.0
  0
LINE
  5
D4
  8
DEFAULT
 10
42.44024447886849
 20
43.62601424241505
 30
0.0
 11
42.24546707169398
 21
43.61468413367504
 31
0.0
  0
LINE
  5
D5
  8
DEFAULT
 10
42.24546707169398
 20
43.61468413367504
 30
0.0
 11
42.05566449397083
 21
43.59990457409923
 31
0.0
  0
LINE
  5
D6
  8
DEFAULT
 10
42.05566449397083
 20
43.59990457409923
 30
0.0
 11
41.87056855817619
 21
43.58180126696446
 31
0.0
  0
LINE
  5
D7
  8
DEFAULT
 10
41.87056855817619
 20
43.58180126696446
 30
0.0
 11
41.6899110767872
 21
43.56049991554755
 31
0.0
  0
LINE
  5
D8
  8
DEFAULT
 10
41.6899110767872
 20
43.56049991554755
 30
0.0
 11
41.51342386228104
 21
43.53612622312534
 31
0.0
  0
LINE
  5
D9
  8
DEFAULT
 10
41.51342386228104
 20
43.53612622312534
 30
0.0
 11
41.34083872713485
 21
43.50880589297465
 31
0.0
  0
LINE
  5
DA
  8
DEFAULT
 10
41.34083872713485
 20
43.50880589297465
 30
0.0
 11
41.17188748382579
 21
43.47866462837233
 31
0.0
  0
LINE
  5
DB
  8
DEFAULT
 10
41.17188748382579
 20
43.47866462837233
 30
0.0
 11
41.00630194483101
 21
43.4458281325952
 31
0.0
  0
LINE
  5
DC
  8
DEFAULT
 10
41.00630194483101
 20
43.4458281325952
 30
0.0
 11
40.84381392262767
 21
43.4104221089201
 31
0.0
  0
LINE
  5
DD
  8
DEFAULT
 10
40.84381392262767
 20
43.4104221089201
 30
0.0
 11
40.68415522969292
 21
43.37257226062387
 31
0.0
  0
LINE
  5
DE
  8
DEFAULT
 10
40.68415522969292
 20
43.37257226062387
 30
0.0
 11
40.52705767850391
 21
43.33240429098333
 31
0.0
  0
LINE
  5
DF
  8
DEFAULT
 10
40.52705767850391
 20
43.33240429098333
 30
0.0
 11
40.21947325127175
 21
43.24561680077667
 31
0.0
  0
LINE
  5
E0
  8
DEFAULT
 10
40.21947325127175
 20
43.24561680077667
 30
0.0
 11
39.91891514074844
 21
43.15106526451478
 31
0.0
  0
LINE
  5
E1
  8
DEFAULT
 10
39.91891514074844
 20
43.15106526451478
 30
0.0
 11
39.62323784675119
 21
43.04975530841233
 31
0.0
  0
LINE
  5
E2
  8
DEFAULT
 10
39.62323784675119
 20
43.04975530841233
 30
0.0
 11
39.33046003004243
 21
42.94255187065266
 31
0.0
  0
LINE
  5
E3
  8
DEFAULT
 10
39.33046003004243
 20
42.94255187065266
 30
0.0
 11
39.03935500938231
 21
42.82979343668673
 31
0.0
  0
LINE
  5
E4
  8
DEFAULT
 10
39.03935500938231
 20
42.82979343668673
 30
0.0
 11
38.457912051333
 21
42.58840534343734
 31
0.0
  0
LINE
  5
E5
  8
DEFAULT
 10
38.457912051333
 20
42.58840534343734
 30
0.0
 11
34.54434562274766
 21
40.77902762168375
 31
0.0
  0
LINE
  5
E6
  8
DEFAULT
 10
34.54434562274766
 20
40.77902762168375
 30
0.0
 11
33.74123324757743
 21
40.43427040418153
 31
0.0
  0
LINE
  5
E7
  8
DEFAULT
 10
33.74123324757743
 20
40.43427040418153
 30
0.0
 11
33.31339898229941
 21
40.26216713862758
 31
0.0
  0
LINE
  5
E8
  8
DEFAULT
 10
33.31339898229941
 20
40.26216713862758
 30
0.0
 11
32.86543236578601
 21
40.09245440162715
 31
0.0
  0
LINE
  5
E9
  8
DEFAULT
 10
32.86543236578601
 20
40.09245440162715
 30
0.0
 11
32.3953731734571
 21
39.92678741799683
 31
0.0
  0
LINE
  5
EA
  8
DEFAULT
 10
32.3953731734571
 20
39.92678741799683
 30
0.0
 11
31.9012611807326
 21
39.76682141255321
 31
0.0
  0
LINE
  5
EB
  8
DEFAULT
 10
31.9012611807326
 20
39.76682141255321
 30
0.0
 11
31.38113616303242
 21
39.61421161011285
 31
0.0
  0
LINE
  5
EC
  8
DEFAULT
 10
31.38113616303242
 20
39.61421161011285
 30
0.0
 11
30.83303789577644
 21
39.47061323549231
 31
0.0
  0
LINE
  5
ED
  8
DEFAULT
 10
30.83303789577644
 20
39.47061323549231
 30
0.0
 11
30.25500615438458
 21
39.33768151350819
 31
0.0
  0
LINE
  5
EE
  8
DEFAULT
 10
30.25500615438458
 20
39.33768151350819
 30
0.0
 11
29.64508071427673
 21
39.21707166897706
 31
0.0
  0
LINE
  5
EF
  8
DEFAULT
 10
29.64508071427673
 20
39.21707166897706
 30
0.0
 11
29.0013013508728
 21
39.11043892671549
 31
0.0
  0
LINE
  5
F0
  8
DEFAULT
 10
29.0013013508728
 20
39.11043892671549
 30
0.0
 11
28.32170783959268
 21
39.01943851154006
 31
0.0
  0
LINE
  5
F1
  8
DEFAULT
 10
28.32170783959268
 20
39.01943851154006
 30
0.0
 11
27.60433995585628
 21
38.94572564826734
 31
0.0
  0
LINE
  5
F2
  8
DEFAULT
 10
27.60433995585628
 20
38.94572564826734
 30
0.0
 11
26.84723747508351
 21
38.89095556171391
 31
0.0
  0
LINE
  5
F3
  8
DEFAULT
 10
26.84723747508351
 20
38.89095556171391
 30
0.0
 11
26.04844017269425
 21
38.85678347669634
 31
0.0
  0
LINE
  5
F4
  8
DEFAULT
 10
26.04844017269425
 20
38.85678347669634
 30
0.0
 11
25.20598782410842
 21
38.84486461803121
 31
0.0
  0
LINE
  5
F5
  8
DEFAULT
 10
25.20598782410843
 20
38.84486461803122
 30
0.0
 11
24.3635354755226
 21
38.85678347669634
 31
0.0
  0
LINE
  5
F6
  8
DEFAULT
 10
24.3635354755226
 20
38.85678347669634
 30
0.0
 11
23.56473817313335
 21
38.89095556171391
 31
0.0
  0
LINE
  5
F7
  8
DEFAULT
 10
23.56473817313335
 20
38.89095556171391
 30
0.0
 11
22.80763569236057
 21
38.94572564826733
 31
0.0
  0
LINE
  5
F8
  8
DEFAULT
 10
22.80763569236057
 20
38.94572564826733
 30
0.0
 11
22.09026780862418
 21
39.01943851154005
 31
0.0
  0
LINE
  5
F9
  8
DEFAULT
 10
22.09026780862418
 20
39.01943851154005
 30
0.0
 11
21.41067429734406
 21
39.11043892671549
 31
0.0
  0
LINE
  5
FA
  8
DEFAULT
 10
21.41067429734406
 20
39.11043892671549
 30
0.0
 11
20.76689493394013
 21
39.21707166897706
 31
0.0
  0
LINE
  5
FB
  8
DEFAULT
 10
20.76689493394013
 20
39.21707166897706
 30
0.0
 11
20.15696949383227
 21
39.33768151350819
 31
0.0
  0
LINE
  5
FC
  8
DEFAULT
 10
20.15696949383227
 20
39.33768151350819
 30
0.0
 11
19.57893775244041
 21
39.47061323549231
 31
0.0
  0
LINE
  5
FD
  8
DEFAULT
 10
19.57893775244041
 20
39.47061323549231
 30
0.0
 11
19.03083948518444
 21
39.61421161011285
 31
0.0
  0
LINE
  5
FE
  8
DEFAULT
 10
19.03083948518444
 20
39.61421161011285
 30
0.0
 11
18.51071446748425
 21
39.76682141255321
 31
0.0
  0
LINE
  5
FF
  8
DEFAULT
 10
18.51071446748425
 20
39.76682141255321
 30
0.0
 11
18.01660247475975
 21
39.92678741799683
 31
0.0
  0
LINE
  5
100
  8
DEFAULT
 10
18.01660247475975
 20
39.92678741799683
 30
0.0
 11
17.54654328243085
 21
40.09245440162715
 31
0.0
  0
LINE
  5
101
  8
DEFAULT
 10
17.54654328243085
 20
40.09245440162715
 30
0.0
 11
17.09857666591744
 21
40.26216713862758
 31
0.0
  0
LINE
  5
102
  8
DEFAULT
 10
17.09857666591744
 20
40.26216713862758
 30
0.0
 11
16.67074240063943
 21
40.43427040418153
 31
0.0
  0
LINE
  5
103
  8
DEFAULT
 10
16.67074240063943
 20
40.43427040418153
 30
0.0
 11
15.8676300254692
 21
40.77902762168376
 31
0.0
  0
LINE
  5
104
  8
DEFAULT
 10
15.8676300254692
 20
40.77902762168376
 30
0.0
 11
11.95406359688386
 21
42.58840534343734
 31
0.0
  0
LINE
  5
105
  8
DEFAULT
 10
11.95406359688386
 20
42.58840534343734
 30
0.0
 11
11.37262063883454
 21
42.82979343668674
 31
0.0
  0
LINE
  5
106
  8
DEFAULT
 10
11.37262063883454
 20
42.82979343668674
 30
0.0
 11
11.08151561817442
 21
42.94255187065267
 31
0.0
  0
LINE
  5
107
  8
DEFAULT
 10
11.08151561817442
 20
42.94255187065267
 30
0.0
 11
10.78873780146566
 21
43.04975530841234
 31
0.0
  0
LINE
  5
108
  8
DEFAULT
 10
10.78873780146566
 20
43.04975530841234
 30
0.0
 11
10.49304391330217
 21
43.151070453714
 31
0.0
  0
LINE
  5
109
  8
DEFAULT
 10
10.49304391330217
 20
43.151070453714
 30
0.0
 11
10.19246888152852
 21
43.24562458860022
 31
0.0
  0
LINE
  5
10A
  8
DEFAULT
 10
10.19246888152852
 20
43.24562458860022
 30
0.0
 11
9.884867184801973
 21
43.33241013968716
 31
0.0
  0
LINE
  5
10B
  8
DEFAULT
 10
9.884867184801973
 20
43.33241013968716
 30
0.0
 11
9.727760861661746
 21
43.37257482962343
 31
0.0
  0
LINE
  5
10C
  8
DEFAULT
 10
9.727760861661746
 20
43.37257482962343
 30
0.0
 11
9.568093301779754
 21
43.41041953359094
 31
0.0
  0
LINE
  5
10D
  8
DEFAULT
 10
9.568093301779754
 20
43.41041953359094
 30
0.0
 11
9.40559631498816
 21
43.44581830491669
 31
0.0
  0
LINE
  5
10E
  8
DEFAULT
 10
9.40559631498816
 20
43.44581830491669
 30
0.0
 11
9.240001711119112
 21
43.47864519692771
 31
0.0
  0
LINE
  5
10F
  8
DEFAULT
 10
9.240001711119112
 20
43.47864519692771
 30
0.0
 11
9.071041300004769
 21
43.50877426295101
 31
0.0
  0
LINE
  5
110
  8
DEFAULT
 10
9.071041300004769
 20
43.50877426295101
 30
0.0
 11
8.898446891477285
 21
43.53607955631361
 31
0.0
  0
LINE
  5
111
  8
DEFAULT
 10
8.898446891477285
 20
43.53607955631361
 30
0.0
 11
8.721950295368815
 21
43.56043513034253
 31
0.0
  0
LINE
  5
112
  8
DEFAULT
 10
8.721950295368815
 20
43.56043513034253
 30
0.0
 11
8.541283321511518
 21
43.58171503836479
 31
0.0
  0
LINE
  5
113
  8
DEFAULT
 10
8.541283321511518
 20
43.58171503836479
 30
0.0
 11
8.356177779737546
 21
43.59979333370741
 31
0.0
  0
LINE
  5
114
  8
DEFAULT
 10
8.356177779737546
 20
43.59979333370741
 30
0.0
 11
8.166365479879053
 21
43.61454406969739
 31
0.0
  0
LINE
  5
115
  8
DEFAULT
 10
8.166365479879053
 20
43.61454406969739
 30
0.0
 11
7.971578231768197
 21
43.62584129966177
 31
0.0
  0
LINE
  5
116
  8
DEFAULT
 10
7.971578231768197
 20
43.62584129966177
 30
0.0
 11
7.771547845237133
 21
43.63355907692756
 31
0.0
  0
LINE
  5
117
  8
DEFAULT
 10
7.771547845237133
 20
43.63355907692756
 30
0.0
 11
7.566006130118015
 21
43.63757145482177
 31
0.0
  0
LINE
  5
118
  8
DEFAULT
 10
7.566006130118015
 20
43.63757145482177
 30
0.0
 11
7.354684896242999
 21
43.63775248667143
 31
0.0
  0
LINE
  5
119
  8
DEFAULT
 10
7.354684896242999
 20
43.63775248667143
 30
0.0
 11
7.13731595344424
 21
43.63397622580355
 31
0.0
  0
LINE
  5
11A
  8
DEFAULT
 10
7.13731595344424
 20
43.63397622580355
 30
0.0
 11
6.913631111553893
 21
43.62611672554515
 31
0.0
  0
LINE
  5
11B
  8
DEFAULT
 10
6.913631111553893
 20
43.62611672554515
 30
0.0
 11
6.446240969827057
 21
43.59764422016486
 31
0.0
  0
LINE
  5
11C
  8
DEFAULT
 10
6.446240969827057
 20
43.59764422016486
 30
0.0
 11
5.950368949719734
 21
43.55132739714671
 31
0.0
  0
LINE
  5
11D
  8
DEFAULT
 10
5.950368949719734
 20
43.55132739714671
 30
0.0
 11
5.423869529889165
 21
43.48615868310682
 31
0.0
  0
LINE
  5
11E
  8
DEFAULT
 10
5.423869529889165
 20
43.48615868310682
 30
0.0
 11
4.864597188992594
 21
43.40113050466137
 31
0.0
  0
LINE
  5
11F
  8
DEFAULT
 10
4.864597188992594
 20
43.40113050466137
 30
0.0
 11
4.270406405687261
 21
43.29523528842648
 31
0.0
  0
ARC
  5
120
  8
DEFAULT
 10
17.18092595818716
 20
61.03953798446594
 30
0.0
 40
21.94406054685767
 50
233.9608604680375
 51
245.9949956928554
  0
LINE
  5
121
  8
DEFAULT
 10
8.253721541177192
 20
40.99342078983014
 30
0.0
 11
13.34888009999312
 21
38.04849561921465
 31
0.0
  0
LINE
  5
122
  8
DEFAULT
 10
13.34888009999312
 20
38.04849561921465
 30
0.0
 11
11.87555185816142
 21
35.49941862526678
 31
0.0
  0
LINE
  5
123
  8
DEFAULT
 10
11.87555185816142
 20
35.49941862526678
 30
0.0
 11
6.780350968972144
 21
38.44363886924132
 31
0.0
  0
ARC
  5
124
  8
DEFAULT
 10
-6.170399480412174
 20
20.6245235056526
 30
0.0
 40
22.02822756245068
 50
53.99073001979411
 51
65.97688326361539
  0
LINE
  5
125
  8
DEFAULT
 10
2.797406328619942
 20
40.74469419366122
 30
0.0
 11
3.002988131554596
 21
40.17730187773493
 31
0.0
  0
LINE
  5
126
  8
DEFAULT
 10
3.002988131554596
 20
40.17730187773493
 30
0.0
 11
3.209156558111917
 21
39.65056787358688
 31
0.0
  0
LINE
  5
127
  8
DEFAULT
 10
3.209156558111917
 20
39.65056787358688
 30
0.0
 11
3.416113460533891
 21
39.16213131044888
 31
0.0
  0
LINE
  5
128
  8
DEFAULT
 10
3.416113460533891
 20
39.16213131044888
 30
0.0
 11
3.624060691062503
 21
38.70963131755276
 31
0.0
  0
LINE
  5
129
  8
DEFAULT
 10
3.624060691062503
 20
38.70963131755276
 30
0.0
 11
3.833200101939739
 21
38.29070702413036
 31
0.0
  0
LINE
  5
12A
  8
DEFAULT
 10
3.833200101939739
 20
38.29070702413036
 30
0.0
 11
3.938279953834711
 21
38.09309799260674
 31
0.0
  0
LINE
  5
12B
  8
DEFAULT
 10
3.938279953834711
 20
38.09309799260674
 30
0.0
 11
4.043733545407584
 21
37.90299755941348
 31
0.0
  0
LINE
  5
12C
  8
DEFAULT
 10
4.043733545407584
 20
37.90299755941348
 30
0.0
 11
4.149586108188606
 21
37.72011061570456
 31
0.0
  0
LINE
  5
12D
  8
DEFAULT
 10
4.149586108188606
 20
37.72011061570456
 30
0.0
 11
4.255862873708025
 21
37.54414205263396
 31
0.0
  0
LINE
  5
12E
  8
DEFAULT
 10
4.255862873708025
 20
37.54414205263396
 30
0.0
 11
4.362589073496087
 21
37.37479676135565
 31
0.0
  0
LINE
  5
12F
  8
DEFAULT
 10
4.362589073496087
 20
37.37479676135565
 30
0.0
 11
4.469789939083044
 21
37.21177963302362
 31
0.0
  0
LINE
  5
130
  8
DEFAULT
 10
4.469789939083044
 20
37.21177963302362
 30
0.0
 11
4.577490701999142
 21
37.05479555879185
 31
0.0
  0
LINE
  5
131
  8
DEFAULT
 10
4.577490701999142
 20
37.05479555879185
 30
0.0
 11
4.685716593774629
 21
36.90354942981429
 31
0.0
  0
LINE
  5
132
  8
DEFAULT
 10
4.685716593774629
 20
36.90354942981429
 30
0.0
 11
4.794492845939754
 21
36.75774613724495
 31
0.0
  0
LINE
  5
133
  8
DEFAULT
 10
4.794492845939754
 20
36.75774613724495
 30
0.0
 11
4.903844690024764
 21
36.6170905722378
 31
0.0
  0
LINE
  5
134
  8
DEFAULT
 10
4.903844690024764
 20
36.6170905722378
 30
0.0
 11
5.013797357559908
 21
36.48128762594681
 31
0.0
  0
LINE
  5
135
  8
DEFAULT
 10
5.013797357559908
 20
36.48128762594681
 30
0.0
 11
5.124376080075435
 21
36.35004218952595
 31
0.0
  0
LINE
  5
136
  8
DEFAULT
 10
5.124376080075435
 20
36.35004218952595
 30
0.0
 11
5.235606089101593
 21
36.22305915412922
 31
0.0
  0
LINE
  5
137
  8
DEFAULT
 10
5.235606089101593
 20
36.22305915412922
 30
0.0
 11
5.347512616168629
 21
36.1000434109106
 31
0.0
  0
LINE
  5
138
  8
DEFAULT
 10
5.347512616168629
 20
36.1000434109106
 30
0.0
 11
5.460120892806792
 21
35.98069985102405
 31
0.0
  0
LINE
  5
139
  8
DEFAULT
 10
5.460120892806792
 20
35.98069985102405
 30
0.0
 11
5.573456150546329
 21
35.86473336562355
 31
0.0
  0
LINE
  5
13A
  8
DEFAULT
 10
5.573456150546329
 20
35.86473336562355
 30
0.0
 11
5.802408535450521
 21
35.64175118289663
 31
0.0
  0
LINE
  5
13B
  8
DEFAULT
 10
5.802408535450521
 20
35.64175118289663
 30
0.0
 11
6.034571623123192
 21
35.42873599196167
 31
0.0
  0
LINE
  5
13C
  8
DEFAULT
 10
6.034571623123192
 20
35.42873599196167
 30
0.0
 11
6.270147265806324
 21
35.22332692205049
 31
0.0
  0
LINE
  5
13D
  8
DEFAULT
 10
6.270147265806324
 20
35.22332692205049
 30
0.0
 11
6.509377074633604
 21
35.023375613996
 31
0.0
  0
LINE
  5
13E
  8
DEFAULT
 10
6.509377074633604
 20
35.023375613996
 30
0.0
 11
6.752581253269113
 21
34.82765048791811
 31
0.0
  0
LINE
  5
13F
  8
DEFAULT
 10
6.752581253269113
 20
34.82765048791811
 30
0.0
 11
7.252350953218828
 21
34.44480016202051
 31
0.0
  0
LINE
  5
140
  8
DEFAULT
 10
7.252350953218828
 20
34.44480016202051
 30
0.0
 11
10.77610123959171
 21
31.96024107634447
 31
0.0
  0
LINE
  5
141
  8
DEFAULT
 10
10.77610123959171
 20
31.96024107634447
 30
0.0
 11
11.47622593567178
 21
31.4371039661045
 31
0.0
  0
LINE
  5
142
  8
DEFAULT
 10
11.47622593567178
 20
31.4371039661045
 30
0.0
 11
11.83918886835478
 21
31.15264025654127
 31
0.0
  0
LINE
  5
143
  8
DEFAULT
 10
11.83918886835478
 20
31.15264025654127
 30
0.0
 11
12.21014771819964
 21
30.84954615509351
 31
0.0
  0
LINE
  5
144
  8
DEFAULT
 10
12.21014771819964
 20
30.84954615509351
 30
0.0
 11
12.58864913075629
 21
30.52529644506944
 31
0.0
  0
LINE
  5
145
  8
DEFAULT
 10
12.58864913075629
 20
30.52529644506944
 30
0.0
 11
12.97423975157464
 21
30.17736590977729
 31
0.0
  0
LINE
  5
146
  8
DEFAULT
 10
12.97423975157464
 20
30.17736590977729
 30
0.0
 11
13.36646622620461
 21
29.80322933252528
 31
0.0
  0
LINE
  5
147
  8
DEFAULT
 10
13.36646622620461
 20
29.80322933252528
 30
0.0
 11
13.76487520019614
 21
29.40036149662164
 31
0.0
  0
LINE
  5
148
  8
DEFAULT
 10
13.76487520019614
 20
29.40036149662164
 30
0.0
 11
14.16901331909913
 21
28.96623718537459
 31
0.0
  0
LINE
  5
149
  8
DEFAULT
 10
14.16901331909913
 20
28.96623718537459
 30
0.0
 11
14.57842722846351
 21
28.49833118209235
 31
0.0
  0
LINE
  5
14A
  8
DEFAULT
 10
14.57842722846351
 20
28.49833118209235
 30
0.0
 11
14.99266357383919
 21
27.99411827008316
 31
0.0
  0
LINE
  5
14B
  8
DEFAULT
 10
14.99266357383919
 20
27.99411827008316
 30
0.0
 11
15.41126900077611
 21
27.45107323265523
 31
0.0
  0
LINE
  5
14C
  8
DEFAULT
 10
15.41126900077611
 20
27.45107323265523
 30
0.0
 11
15.83379015482416
 21
26.86667085311679
 31
0.0
  0
LINE
  5
14D
  8
DEFAULT
 10
15.83379015482416
 20
26.86667085311679
 30
0.0
 11
16.25977368153329
 21
26.23838591477606
 31
0.0
  0
LINE
  5
14E
  8
DEFAULT
 10
16.25977368153329
 20
26.23838591477606
 30
0.0
 11
16.68876622645341
 21
25.56369320094127
 31
0.0
  0
LINE
  5
14F
  8
DEFAULT
 10
16.68876622645341
 20
25.56369320094127
 30
0.0
 11
17.12031443513444
 21
24.84006749492064
 31
0.0
  0
LINE
  5
150
  8
DEFAULT
 10
17.12031443513444
 20
24.84006749492064
 30
0.0
 11
17.53121857503923
 21
24.10452293023489
 31
0.0
  0
LINE
  5
151
  8
DEFAULT
 10
17.53121857503923
 20
24.10452293023489
 30
0.0
 11
17.90102333250837
 21
23.39565813138253
 31
0.0
  0
LINE
  5
152
  8
DEFAULT
 10
17.90102333250837
 20
23.39565813138253
 30
0.0
 11
18.23214228657201
 21
22.71260310648838
 31
0.0
  0
LINE
  5
153
  8
DEFAULT
 10
18.23214228657201
 20
22.71260310648838
 30
0.0
 11
18.52698901626035
 21
22.05448786367722
 31
0.0
  0
LINE
  5
154
  8
DEFAULT
 10
18.52698901626035
 20
22.05448786367722
 30
0.0
 11
18.78797710060356
 21
21.42044241107386
 31
0.0
  0
LINE
  5
155
  8
DEFAULT
 10
18.78797710060356
 20
21.42044241107386
 30
0.0
 11
19.0175201186318
 21
20.80959675680309
 31
0.0
  0
LINE
  5
156
  8
DEFAULT
 10
19.0175201186318
 20
20.80959675680309
 30
0.0
 11
19.21803164937527
 21
20.22108090898973
 31
0.0
  0
LINE
  5
157
  8
DEFAULT
 10
19.21803164937527
 20
20.22108090898973
 30
0.0
 11
19.39192527186415
 21
19.65402487575856
 31
0.0
  0
LINE
  5
158
  8
DEFAULT
 10
19.39192527186415
 20
19.65402487575856
 30
0.0
 11
19.5416145651286
 21
19.10755866523439
 31
0.0
  0
LINE
  5
159
  8
DEFAULT
 10
19.5416145651286
 20
19.10755866523439
 30
0.0
 11
19.66951310819881
 21
18.58081228554201
 31
0.0
  0
LINE
  5
15A
  8
DEFAULT
 10
19.66951310819881
 20
18.58081228554201
 30
0.0
 11
19.77803448010496
 21
18.07291574480623
 31
0.0
  0
LINE
  5
15B
  8
DEFAULT
 10
19.77803448010496
 20
18.07291574480623
 30
0.0
 11
19.86959225987722
 21
17.58299905115184
 31
0.0
  0
LINE
  5
15C
  8
DEFAULT
 10
19.86959225987722
 20
17.58299905115184
 30
0.0
 11
19.94660002654577
 21
17.11019221270366
 31
0.0
  0
LINE
  5
15D
  8
DEFAULT
 10
19.94660002654577
 20
17.11019221270366
 30
0.0
 11
20.01147135914078
 21
16.65362523758647
 31
0.0
  0
LINE
  5
15E
  8
DEFAULT
 10
20.01147135914078
 20
16.65362523758647
 30
0.0
 11
20.11445903823093
 21
15.78573090984428
 31
0.0
  0
LINE
  5
15F
  8
DEFAULT
 10
20.11445903823093
 20
15.78573090984428
 30
0.0
 11
20.50427518044338
 21
11.49179410241463
 31
0.0
  0
LINE
  5
160
  8
DEFAULT
 10
20.50427518044338
 20
11.49179410241463
 30
0.0
 11
20.58594843854298
 21
10.86755568326766
 31
0.0
  0
LINE
  5
161
  8
DEFAULT
 10
20.58594843854298
 20
10.86755568326766
 30
0.0
 11
20.63384928056759
 21
10.55907212322383
 31
0.0
  0
LINE
  5
162
  8
DEFAULT
 10
20.63384928056759
 20
10.55907212322383
 30
0.0
 11
20.68739728844908
 21
10.25191737740966
 31
0.0
  0
LINE
  5
163
  8
DEFAULT
 10
20.68739728844908
 20
10.25191737740966
 30
0.0
 11
20.74750274291146
 21
9.945181385865448
 31
0.0
  0
LINE
  5
164
  8
DEFAULT
 10
20.74750274291146
 20
9.945181385865448
 30
0.0
 11
20.81590397595395
 21
9.637598705163045
 31
0.0
  0
LINE
  5
165
  8
DEFAULT
 10
20.81590397595395
 20
9.637598705163045
 30
0.0
 11
20.89454633239452
 21
9.327815046007188
 31
0.0
  0
LINE
  5
166
  8
DEFAULT
 10
20.89454633239452
 20
9.327815046007188
 30
0.0
 11
20.93831585214469
 21
9.171674634104448
 31
0.0
  0
LINE
  5
167
  8
DEFAULT
 10
20.93831585214469
 20
9.171674634104448
 30
0.0
 11
20.98537515705112
 21
9.014476119102618
 31
0.0
  0
LINE
  5
168
  8
DEFAULT
 10
20.98537515705112
 20
9.014476119102618
 30
0.0
 11
21.03596741521607
 21
8.856050214839794
 31
0.0
  0
LINE
  5
169
  8
DEFAULT
 10
21.03596741521607
 20
8.856050214839794
 30
0.0
 11
21.09033579474176
 21
8.69622763515407
 31
0.0
  0
LINE
  5
16A
  8
DEFAULT
 10
21.09033579474176
 20
8.69622763515407
 30
0.0
 11
21.14872346373046
 21
8.534839093883537
 31
0.0
  0
LINE
  5
16B
  8
DEFAULT
 10
21.14872346373046
 20
8.534839093883537
 30
0.0
 11
21.2113735902844
 21
8.371715304866285
 31
0.0
  0
LINE
  5
16C
  8
DEFAULT
 10
21.2113735902844
 20
8.371715304866285
 30
0.0
 11
21.27852934250583
 21
8.206686981940408
 31
0.0
  0
LINE
  5
16D
  8
DEFAULT
 10
21.27852934250583
 20
8.206686981940408
 30
0.0
 11
21.35043388849701
 21
8.039584838944002
 31
0.0
  0
LINE
  5
16E
  8
DEFAULT
 10
21.35043388849701
 20
8.039584838944002
 30
0.0
 11
21.42733039636018
 21
7.870239589715155
 31
0.0
  0
LINE
  5
16F
  8
DEFAULT
 10
21.42733039636018
 20
7.870239589715155
 30
0.0
 11
21.50946203419758
 21
7.698481948091958
 31
0.0
  0
LINE
  5
170
  8
DEFAULT
 10
21.50946203419758
 20
7.698481948091958
 30
0.0
 11
21.59707197011146
 21
7.524142627912505
 31
0.0
  0
LINE
  5
171
  8
DEFAULT
 10
21.59707197011146
 20
7.524142627912505
 30
0.0
 11
21.69040337220407
 21
7.347052343014891
 31
0.0
  0
LINE
  5
172
  8
DEFAULT
 10
21.69040337220407
 20
7.347052343014891
 30
0.0
 11
21.78969940857765
 21
7.167041807237204
 31
0.0
  0
LINE
  5
173
  8
DEFAULT
 10
21.78969940857765
 20
7.167041807237204
 30
0.0
 11
21.89520324733447
 21
6.98394173441754
 31
0.0
  0
LINE
  5
174
  8
DEFAULT
 10
21.89520324733447
 20
6.98394173441754
 30
0.0
 11
22.00715805657675
 21
6.797582838393989
 31
0.0
  0
LINE
  5
175
  8
DEFAULT
 10
22.00715805657675
 20
6.797582838393989
 30
0.0
 11
22.12580700440675
 21
6.607795833004644
 31
0.0
  0
LINE
  5
176
  8
DEFAULT
 10
22.12580700440675
 20
6.607795833004644
 30
0.0
 11
22.38415998823889
 21
6.217260349480942
 31
0.0
  0
LINE
  5
177
  8
DEFAULT
 10
22.38415998823889
 20
6.217260349480942
 30
0.0
 11
22.67220754364886
 21
5.81098099455117
 31
0.0
  0
LINE
  5
178
  8
DEFAULT
 10
22.67220754364886
 20
5.81098099455117
 30
0.0
 11
22.99189501545464
 21
5.387603478920068
 31
0.0
  0
LINE
  5
179
  8
DEFAULT
 10
22.99189501545464
 20
5.387603478920068
 30
0.0
 11
23.34516774847421
 21
4.945773513292377
 31
0.0
  0
LINE
  5
17A
  8
DEFAULT
 10
23.34516774847421
 20
4.945773513292377
 30
0.0
 11
23.73397108752554
 21
4.484136808372831
 31
0.0
  0
ARC
  5
17B
  8
DEFAULT
 10
1.911694404065652
 20
6.792823368873674
 30
0.0
 40
21.94406054685673
 50
353.9608604680373
 51
5.994995692855765
  0
LINE
  5
17C
  8
DEFAULT
 10
23.73574335036434
 20
9.08469615628433
 30
0.0
 11
23.73854408095361
 21
14.96969548983638
 31
0.0
  0
LINE
  5
17D
  8
DEFAULT
 10
23.73854408095361
 20
14.96969548983638
 30
0.0
 11
26.68277363483079
 21
14.968294301271
 31
0.0
  0
LINE
  5
17E
  8
DEFAULT
 10
26.68277363483079
 20
14.968294301271
 30
0.0
 11
26.68060455380705
 21
9.083610771860755
 31
0.0
  0
ARC
  5
17F
  8
DEFAULT
 10
48.53221612933642
 20
6.783488378565504
 30
0.0
 40
21.97233468414195
 50
173.9911165664002
 51
186.0088809562072
  0
LINE
  5
180
  8
DEFAULT
 10
29.85104633386836
 20
30.52731041531646
 30
0.0
 11
33.64210072764008
 21
32.7210074280017
 31
0.0
  0
LINE
  5
181
  8
DEFAULT
 10
33.64210072764008
 20
32.7210074280017
 30
0.0
 11
32.1971655948554
 21
35.21808321020065
 31
0.0
  0
LINE
  5
182
  8
DEFAULT
 10
32.1971655948554
 20
35.21808321020065
 30
0.0
 11
28.40611120108368
 21
33.02438619751543
 31
0.0
  0
LINE
  5
183
  8
DEFAULT
 10
28.40611120108368
 20
33.02438619751543
 30
0.0
 11
29.85104633386836
 21
30.52731041531646
 31
0.0
  0
LINE
  5
184
  8
DEFAULT
 10
23.76591872129745
 20
24.97610592476083
 30
0.0
 11
23.77018886560304
 21
20.59610800628328
 31
0.0
  0
LINE
  5
185
  8
DEFAULT
 10
23.77018886560304
 20
20.59610800628328
 30
0.0
 11
26.65518749455456
 21
20.59892064699598
 31
0.0
  0
LINE
  5
186
  8
DEFAULT
 10
26.65518749455456
 20
20.59892064699598
 30
0.0
 11
26.65091735024898
 21
24.97891856547352
 31
0.0
  0
LINE
  5
187
  8
DEFAULT
 10
26.65091735024898
 20
24.97891856547352
 30
0.0
 11
23.76591872129745
 21
24.97610592476083
 31
0.0
  0
LINE
  5
188
  8
DEFAULT
 10
22.00099841715947
 20
33.02158326779519
 30
0.0
 11
18.20567387908216
 21
35.20788417358751
 31
0.0
  0
LINE
  5
189
  8
DEFAULT
 10
18.20567387908216
 20
35.20788417358751
 30
0.0
 11
16.76561038291532
 21
32.70799575067586
 31
0.0
  0
LINE
  5
18A
  8
DEFAULT
 10
16.76561038291532
 20
32.70799575067586
 30
0.0
 11
20.56093492099262
 21
30.52169484488355
 31
0.0
  0
LINE
  5
18B
  8
DEFAULT
 10
20.56093492099262
 20
30.52169484488355
 30
0.0
 11
22.00099841715947
 21
33.02158326779519
 31
0.0
  0
ENDSEC
  0
EOF
