  0
SECTION
  2
HEADER
  9
$ACADVER
  1
AC1009
  9
$DWGCODEPAGE
  3
ansi_1252
  9
$INSBASE
 10
0.0
 20
0.0
 30
0.0
  9
$EXTMIN
 10
113.75
 20
33.74999999999999
 30
0.0
  9
$EXTMAX
 10
402.0682123712828
 20
126.2731883378323
 30
0.0
  9
$LIMMIN
 10
0.0
 20
0.0
  9
$LIMMAX
 10
420.0
 20
297.0
  9
$ORTHOMODE
 70
     0
  9
$REGENMODE
 70
     1
  9
$FILLMODE
 70
     1
  9
$QTEXTMODE
 70
     0
  9
$MIRRTEXT
 70
     0
  9
$DRAGMODE
 70
     2
  9
$LTSCALE
 40
1.0
  9
$OSMODE
 70
   511
  9
$ATTMODE
 70
     1
  9
$TEXTSIZE
 40
2.5
  9
$TRACEWID
 40
1.0
  9
$TEXTSTYLE
  7
STANDARD
  9
$CLAYER
  8
0
  9
$CELTYPE
  6
BYLAYER
  9
$CECOLOR
 62
   256
  9
$DIMSCALE
 40
1.0
  9
$DIMASZ
 40
2.5
  9
$DIMEXO
 40
0.625
  9
$DIMDLI
 40
3.75
  9
$DIMRND
 40
0.0
  9
$DIMDLE
 40
0.0
  9
$DIMEXE
 40
1.25
  9
$DIMTP
 40
0.0
  9
$DIMTM
 40
0.0
  9
$DIMTXT
 40
2.5
  9
$DIMCEN
 40
2.5
  9
$DIMTSZ
 40
0.0
  9
$DIMTOL
 70
     0
  9
$DIMLIM
 70
     0
  9
$DIMTIH
 70
     0
  9
$DIMTOH
 70
     0
  9
$DIMSE1
 70
     0
  9
$DIMSE2
 70
     0
  9
$DIMTAD
 70
     1
  9
$DIMZIN
 70
     8
  9
$DIMBLK
  1

  9
$DIMASO
 70
     1
  9
$DIMSHO
 70
     1
  9
$DIMPOST
  1

  9
$DIMAPOST
  1

  9
$DIMALT
 70
     0
  9
$DIMALTD
 70
     3
  9
$DIMALTF
 40
0.03937007874016
  9
$DIMLFAC
 40
1.0
  9
$DIMTOFL
 70
     1
  9
$DIMTVP
 40
0.0
  9
$DIMTIX
 70
     0
  9
$DIMSOXD
 70
     0
  9
$DIMSAH
 70
     0
  9
$DIMBLK1
  1

  9
$DIMBLK2
  1

  9
$DIMSTYLE
  2
ISO-25
  9
$DIMCLRD
 70
     0
  9
$DIMCLRE
 70
     0
  9
$DIMCLRT
 70
     0
  9
$DIMTFAC
 40
1.0
  9
$DIMGAP
 40
0.625
  9
$LUNITS
 70
     2
  9
$LUPREC
 70
     3
  9
$SKETCHINC
 40
1.0
  9
$FILLETRAD
 40
10.0
  9
$AUNITS
 70
     0
  9
$AUPREC
 70
     0
  9
$MENU
  1
.
  9
$ELEVATION
 40
0.0
  9
$PELEVATION
 40
0.0
  9
$THICKNESS
 40
0.0
  9
$LIMCHECK
 70
     0
  9
$CHAMFERA
 40
10.0
  9
$CHAMFERB
 40
10.0
  9
$SKPOLY
 70
     0
  9
$TDCREATE
 40
2455022.720692847
  9
$TDUPDATE
 40
2458050.760477812
  9
$TDINDWG
 40
0.0108877662
  9
$TDUSRTIMER
 40
2458050.673161771
  9
$USRTIMER
 70
     1
  9
$ANGBASE
 50
0.0
  9
$ANGDIR
 70
     0
  9
$PDMODE
 70
     0
  9
$PDSIZE
 40
0.0
  9
$PLINEWID
 40
0.0
  9
$COORDS
 70
     1
  9
$SPLFRAME
 70
     0
  9
$SPLINETYPE
 70
     6
  9
$SPLINESEGS
 70
     8
  9
$ATTDIA
 70
     0
  9
$ATTREQ
 70
     1
  9
$HANDLING
 70
     1
  9
$HANDSEED
  5
93C
  9
$SURFTAB1
 70
     6
  9
$SURFTAB2
 70
     6
  9
$SURFTYPE
 70
     6
  9
$SURFU
 70
     6
  9
$SURFV
 70
     6
  9
$UCSNAME
  2

  9
$UCSORG
 10
0.0
 20
0.0
 30
0.0
  9
$UCSXDIR
 10
1.0
 20
0.0
 30
0.0
  9
$UCSYDIR
 10
0.0
 20
1.0
 30
0.0
  9
$PUCSNAME
  2

  9
$PUCSORG
 10
0.0
 20
0.0
 30
0.0
  9
$PUCSXDIR
 10
1.0
 20
0.0
 30
0.0
  9
$PUCSYDIR
 10
0.0
 20
1.0
 30
0.0
  9
$USERI1
 70
     0
  9
$USERI2
 70
     0
  9
$USERI3
 70
     0
  9
$USERI4
 70
     0
  9
$USERI5
 70
     0
  9
$USERR1
 40
0.0
  9
$USERR2
 40
0.0
  9
$USERR3
 40
0.0
  9
$USERR4
 40
0.0
  9
$USERR5
 40
0.0
  9
$WORLDVIEW
 70
     1
  9
$SHADEDGE
 70
     3
  9
$SHADEDIF
 70
    70
  9
$TILEMODE
 70
     1
  9
$MAXACTVP
 70
    64
  9
$PLIMCHECK
 70
     0
  9
$PEXTMIN
 10
1.000000000000000E+20
 20
1.000000000000000E+20
 30
1.000000000000000E+20
  9
$PEXTMAX
 10
-1.000000000000000E+20
 20
-1.000000000000000E+20
 30
-1.000000000000000E+20
  9
$PLIMMIN
 10
0.0
 20
0.0
  9
$PLIMMAX
 10
0.0
 20
0.0
  9
$UNITMODE
 70
     0
  9
$VISRETAIN
 70
     1
  9
$PLINEGEN
 70
     0
  9
$PSLTSCALE
 70
     1
  0
ENDSEC
  0
SECTION
  2
TABLES
  0
TABLE
  2
VPORT
 70
     1
  0
VPORT
  2
*ACTIVE
 70
     0
 10
0.0
 20
0.0
 11
1.0
 21
1.0
 12
398.8447659248974
 22
72.78454493908535
 13
0.0
 23
0.0
 14
10.0
 24
10.0
 15
10.0
 25
10.0
 16
0.0
 26
0.0
 36
1.0
 17
-134.1869158878502
 27
0.0
 37
0.0
 40
100.9778687999996
 41
3.070422535211268
 42
50.0
 43
0.0
 44
0.0
 50
0.0
 51
0.0
 71
    16
 72
  1000
 73
     1
 74
     3
 75
     0
 76
     1
 77
     0
 78
     0
  0
ENDTAB
  0
TABLE
  2
LTYPE
 70
     1
  0
LTYPE
  2
CONTINUOUS
 70
     0
  3
Solid line
 72
    65
 73
     0
 40
0.0
  0
ENDTAB
  0
TABLE
  2
LAYER
 70
     4
  0
LAYER
  2
0
 70
     0
 62
     7
  6
CONTINUOUS
  0
LAYER
  2
DEFPOINTS
 70
     0
 62
     7
  6
CONTINUOUS
  0
LAYER
  2
VISIBLE__ANSI_
 70
     0
 62
     7
  6
CONTINUOUS
  0
LAYER
  2
CUT
 70
     0
 62
     7
  6
CONTINUOUS
  0
ENDTAB
  0
TABLE
  2
STYLE
 70
     2
  0
STYLE
  2
STANDARD
 70
     0
 40
0.0
 41
1.0
 50
0.0
 71
     0
 42
2.5
  3
arial.ttf
  4

  0
STYLE
  2
ANNOTATIVE
 70
     0
 40
0.0
 41
1.0
 50
0.0
 71
     0
 42
2.5
  3
arial.ttf
  4

  0
ENDTAB
  0
TABLE
  2
VIEW
 70
     0
  0
ENDTAB
  0
TABLE
  2
UCS
 70
     0
  0
ENDTAB
  0
TABLE
  2
APPID
 70
     6
  0
APPID
  2
ACAD
 70
     0
  0
APPID
  2
ACADANNOTATIVE
 70
     0
  0
APPID
  2
ACAECLAYERSTANDARD
 70
     0
  0
APPID
  2
ACCMTRANSPARENCY
 70
     0
  0
APPID
  2
ACAD_NAV_VCDISPLAY
 70
     0
  0
APPID
  2
ACAD_PSEXT
 70
     0
  0
ENDTAB
  0
TABLE
  2
DIMSTYLE
 70
     3
  0
DIMSTYLE
  2
ISO-25
 70
     0
  3

  4

  5

  6

  7

 40
1.0
 41
2.5
 42
0.625
 43
3.75
 44
1.25
 45
0.0
 46
0.0
 47
0.0
 48
0.0
140
2.5
141
2.5
142
0.0
143
0.03937007874016
144
1.0
145
0.0
146
1.0
147
0.625
 71
     0
 72
     0
 73
     0
 74
     0
 75
     0
 76
     0
 77
     1
 78
     8
170
     0
171
     3
172
     1
173
     0
174
     0
175
     0
176
     0
177
     0
178
     0
  0
DIMSTYLE
  2
ANNOTATIVE
 70
     0
  3

  4

  5

  6

  7

 40
0.0
 41
2.5
 42
0.625
 43
3.75
 44
1.25
 45
0.0
 46
0.0
 47
0.0
 48
0.0
140
2.5
141
2.5
142
0.0
143
0.03937007874016
144
1.0
145
0.0
146
1.0
147
0.625
 71
     0
 72
     0
 73
     0
 74
     0
 75
     0
 76
     0
 77
     1
 78
     8
170
     0
171
     3
172
     1
173
     0
174
     0
175
     0
176
     0
177
     0
178
     0
  0
DIMSTYLE
  2
STANDARD
 70
     0
  3

  4

  5

  6

  7

 40
1.0
 41
0.18
 42
0.0625
 43
0.38
 44
0.18
 45
0.0
 46
0.0
 47
0.0
 48
0.0
140
0.18
141
0.09
142
0.0
143
25.4
144
1.0
145
0.0
146
1.0
147
0.09
 71
     0
 72
     0
 73
     1
 74
     1
 75
     0
 76
     0
 77
     0
 78
     0
170
     0
171
     2
172
     0
173
     0
174
     0
175
     0
176
     0
177
     0
178
     0
  0
ENDTAB
  0
ENDSEC
  0
SECTION
  2
BLOCKS
  0
BLOCK
  8
0
  2
$MODEL_SPACE
 70
     0
 10
0.0
 20
0.0
 30
0.0
  3
$MODEL_SPACE
  1

  0
ENDBLK
  5
21
  8
0
  0
BLOCK
 67
     1
  8
0
  2
$PAPER_SPACE
 70
     0
 10
0.0
 20
0.0
 30
0.0
  3
$PAPER_SPACE
  1

  0
ENDBLK
  5
1D
 67
     1
  8
0
  0
BLOCK
  8
0
  2
*D1
 70
     1
 10
0.0
 20
0.0
 30
0.0
  3
*D1
  1

  0
LINE
  5
D8
  8
0
 62
     0
 10
160.3673657826828
 20
100.4806356214843
 30
0.0
 11
169.4351277462249
 21
112.9613392472398
 31
0.0
  0
LINE
  5
D9
  8
0
 62
     0
 10
179.3647196956784
 20
86.6782500841239
 30
0.0
 11
188.4324816592205
 21
99.1589537098794
 31
0.0
  0
LINE
  5
DA
  8
0
 62
     0
 10
170.7229386667966
 20
110.4806048735399
 30
0.0
 11
185.6752076079175
 21
99.6171455976419
 31
0.0
  0
SOLID
  5
DB
  8
0
 62
     0
 10
170.9678491885852
 20
110.8176952878628
 30
0.0
 11
170.4780281450081
 21
110.143514459217
 31
0.0
 12
168.7003961808593
 22
111.9500680042711
 32
0.0
 13
168.7003961808593
 23
111.9500680042711
 33
0.0
  0
SOLID
  5
DC
  8
0
 62
     0
 10
185.430297086129
 20
99.28005518331899
 30
0.0
 11
185.9201181297061
 21
99.9542360119648
 31
0.0
 12
187.6977500938549
 22
98.14768246691071
 32
0.0
 13
187.6977500938549
 23
98.14768246691071
 33
0.0
  0
TEXT
  5
DD
  8
0
  6
CONTINUOUS
 62
     0
 10
175.3447894012067
 20
108.5039397217542
 30
0.0
 40
2.5
  1
23,48
 50
323.9999999999999
  0
POINT
  5
DE
  8
DEFPOINTS
 62
     0
 10
160.0
 20
99.97499999999998
 30
0.0
  0
POINT
  5
DF
  8
DEFPOINTS
 62
     0
 10
178.9973539129956
 20
86.17261446263956
 30
0.0
  0
POINT
  5
E0
  8
DEFPOINTS
 62
     0
 10
187.6977500938549
 20
98.14768246691071
 30
0.0
  0
ENDBLK
  5
D7
  8
0
  0
BLOCK
  8
0
  2
*U5
 70
     1
 10
0.0
 20
0.0
 30
0.0
  3
*U5
  1

  0
INSERT
  5
203
  8
CUT
  6
BYBLOCK
 62
     0
  2
*U6
 10
7.186969079368648
 20
12.51935901799468
 30
0.0
  0
INSERT
  5
20E
  8
CUT
  6
BYBLOCK
 62
     0
  2
*U6
 10
4.945517589969195
 20
12.87683290285796
 30
0.0
 50
72.0
  0
INSERT
  5
20F
  8
CUT
  6
BYBLOCK
 62
     0
  2
*U6
 10
3.912893120073159
 20
10.85555136337312
 30
0.0
 50
144.0
  0
INSERT
  5
210
  8
CUT
  6
BYBLOCK
 62
     0
  2
*U6
 10
5.516147589462018
 20
9.2488567862755
 30
0.0
 50
216.0
  0
INSERT
  5
211
  8
CUT
  6
BYBLOCK
 62
     0
  2
*U6
 10
7.539637814055547
 20
10.27714646757386
 30
0.0
 50
288.0
  0
ENDBLK
  5
212
  8
0
  0
BLOCK
  8
0
  2
*U6
 70
     1
 10
0.0
 20
0.0
 30
0.0
  3
*U6
  1

  0
CIRCLE
  5
206
  8
VISIBLE__ANSI_
 10
0.7194317678358857
 20
0.1767835087914147
 30
0.0
 40
0.1015625
  0
CIRCLE
  5
207
  8
VISIBLE__ANSI_
 10
-0.6310123963186954
 20
-0.8558347941166992
 30
0.0
 40
0.1015625
  0
ARC
  5
208
  8
VISIBLE__ANSI_
 10
-0.6310123963186954
 20
-0.8558347941166992
 30
0.0
 40
1.999999999999999
 50
37.40336761201598
 51
101.1985593395262
  0
ARC
  5
209
  8
VISIBLE__ANSI_
 10
0.7194317678358823
 20
0.1767835087914147
 30
0.0
 40
0.3000000000000008
 50
331.8785918702952
 51
37.40336761201584
  0
ARC
  5
20A
  8
VISIBLE__ANSI_
 10
-1.019431767835882
 20
1.106085283722912
 30
0.0
 40
2.271610556012457
 50
279.9703976153865
 51
331.8785918702949
  0
POLYLINE
  5
20B
  8
VISIBLE__ANSI_
 66
     1
 10
0.0
 20
0.0
 30
0.0
  0
VERTEX
  5
8EF
  8
VISIBLE__ANSI_
 10
-0.6261266048737362
 20
-1.131217906945387
 30
0.0
  0
VERTEX
  5
8F0
  8
VISIBLE__ANSI_
 10
-0.6497281230948146
 20
-1.135004222786053
 30
0.0
  0
VERTEX
  5
8F1
  8
VISIBLE__ANSI_
 10
-0.6731609935477182
 20
-1.137397227497579
 30
0.0
  0
VERTEX
  5
8F2
  8
VISIBLE__ANSI_
 10
-0.6960419547436416
 20
-1.138421724716086
 30
0.0
  0
VERTEX
  5
8F3
  8
VISIBLE__ANSI_
 10
-0.7180464429359088
 20
-1.138113610146985
 30
0.0
  0
VERTEX
  5
8F4
  8
VISIBLE__ANSI_
 10
-0.7389085921199738
 20
-1.136519871564979
 30
0.0
  0
VERTEX
  5
8F5
  8
VISIBLE__ANSI_
 10
-0.7584212340334208
 20
-1.133698588814059
 30
0.0
  0
VERTEX
  5
8F6
  8
VISIBLE__ANSI_
 10
-0.7764358981559637
 20
-1.129718933807507
 30
0.0
  0
VERTEX
  5
8F7
  8
VISIBLE__ANSI_
 10
-0.7928628117094457
 20
-1.124661170527895
 30
0.0
  0
VERTEX
  5
8F8
  8
VISIBLE__ANSI_
 10
-0.8076708996578407
 20
-1.118616655027087
 30
0.0
  0
VERTEX
  5
8F9
  8
VISIBLE__ANSI_
 10
-0.8208877847072519
 20
-1.111687835426235
 30
0.0
  0
VERTEX
  5
8FA
  8
VISIBLE__ANSI_
 10
-0.8325997873059128
 20
-1.103988251915783
 30
0.0
  0
VERTEX
  5
8FB
  8
VISIBLE__ANSI_
 10
-0.8429517791735892
 20
-1.095642487541607
 30
0.0
  0
VERTEX
  5
8FC
  8
VISIBLE__ANSI_
 10
-0.8521332018794379
 20
-1.086781470472362
 30
0.0
  0
VERTEX
  5
8FD
  8
VISIBLE__ANSI_
 10
-0.8603318047557551
 20
-1.077526930021829
 30
0.0
  0
VERTEX
  5
8FE
  8
VISIBLE__ANSI_
 10
-0.8677169496345192
 20
-1.06798578707047
 30
0.0
  0
VERTEX
  5
8FF
  8
VISIBLE__ANSI_
 10
-0.874439340230665
 20
-1.05825006313869
 30
0.0
  0
VERTEX
  5
900
  8
VISIBLE__ANSI_
 10
-0.8806310221420857
 20
-1.04839688038684
 30
0.0
  0
VERTEX
  5
901
  8
VISIBLE__ANSI_
 10
-0.8864053828496298
 20
-1.038488461615218
 30
0.0
  0
VERTEX
  5
902
  8
VISIBLE__ANSI_
 10
-0.8918571517171042
 20
-1.028572130264069
 30
0.0
  0
VERTEX
  5
903
  8
VISIBLE__ANSI_
 10
-0.8970623999912716
 20
-1.018680310413582
 30
0.0
  0
VERTEX
  5
904
  8
VISIBLE__ANSI_
 10
-0.9020785408018523
 20
-1.008830526783892
 30
0.0
  0
VERTEX
  5
905
  8
VISIBLE__ANSI_
 10
-0.9069443291615233
 20
-0.9990254047350803
 30
0.0
  0
VERTEX
  5
906
  8
VISIBLE__ANSI_
 10
-0.9116798619659191
 20
-0.9892526702671748
 30
0.0
  0
VERTEX
  5
907
  8
VISIBLE__ANSI_
 10
-0.9162866083540787
 20
-0.9794851736486194
 30
0.0
  0
VERTEX
  5
908
  8
VISIBLE__ANSI_
 10
-0.9207503077798579
 20
-0.9696831448834716
 30
0.0
  0
VERTEX
  5
909
  8
VISIBLE__ANSI_
 10
-0.9250505592245354
 20
-0.9598016566587981
 30
0.0
  0
VERTEX
  5
90A
  8
VISIBLE__ANSI_
 10
-0.929164281793686
 20
-0.9497933176056813
 30
0.0
  0
VERTEX
  5
90B
  8
VISIBLE__ANSI_
 10
-0.9330657708106559
 20
-0.9396083159548023
 30
0.0
  0
VERTEX
  5
90C
  8
VISIBLE__ANSI_
 10
-0.9367266978165645
 20
-0.929194419536443
 30
0.0
  0
VERTEX
  5
90D
  8
VISIBLE__ANSI_
 10
-0.9401161105703026
 20
-0.9184969757804825
 30
0.0
  0
VERTEX
  5
90E
  8
VISIBLE__ANSI_
 10
-0.9432004330485347
 20
-0.9074589117164007
 30
0.0
  0
VERTEX
  5
90F
  8
VISIBLE__ANSI_
 10
-0.9459434654456972
 20
-0.8960207339732765
 30
0.0
  0
VERTEX
  5
910
  8
VISIBLE__ANSI_
 10
-0.9483063841739982
 20
-0.8841205287797871
 30
0.0
  0
VERTEX
  5
911
  8
VISIBLE__ANSI_
 10
-0.9502477418634186
 20
-0.8716939619642099
 30
0.0
  0
VERTEX
  5
912
  8
VISIBLE__ANSI_
 10
-0.9517234673617132
 20
-0.8586742789544219
 30
0.0
  0
VERTEX
  5
913
  8
VISIBLE__ANSI_
 10
-0.9526868657344071
 20
-0.8449923047778984
 30
0.0
  0
VERTEX
  5
914
  8
VISIBLE__ANSI_
 10
-0.9530886182647988
 20
-0.8305764440617145
 30
0.0
  0
VERTEX
  5
915
  8
VISIBLE__ANSI_
 10
-0.9528767824539592
 20
-0.8153526810325444
 30
0.0
  0
VERTEX
  5
916
  8
VISIBLE__ANSI_
 10
-0.9519967920207315
 20
-0.7992445795166616
 30
0.0
  0
VERTEX
  5
917
  8
VISIBLE__ANSI_
 10
-0.950391456901732
 20
-0.7821732829399392
 30
0.0
  0
VERTEX
  5
918
  8
VISIBLE__ANSI_
 10
-0.9480009632513479
 20
-0.7640575143278487
 30
0.0
  0
VERTEX
  5
919
  8
VISIBLE__ANSI_
 10
-0.9447628734417404
 20
-0.7448135763054622
 30
0.0
  0
VERTEX
  5
91A
  8
VISIBLE__ANSI_
 10
-0.9406121260628422
 20
-0.7243553510974498
 30
0.0
  0
VERTEX
  5
91B
  8
VISIBLE__ANSI_
 10
-0.9354810359223589
 20
-0.7025943005280815
 30
0.0
  0
VERTEX
  5
91C
  8
VISIBLE__ANSI_
 10
-0.929299294045768
 20
-0.6794394660212264
 30
0.0
  0
VERTEX
  5
91D
  8
VISIBLE__ANSI_
 10
-0.9219939676763202
 20
-0.654797468600353
 30
0.0
  0
VERTEX
  5
91E
  8
VISIBLE__ANSI_
 10
-0.9134895002750381
 20
-0.628572508888529
 30
0.0
  0
VERTEX
  5
91F
  8
VISIBLE__ANSI_
 10
-0.9037077115207168
 20
-0.6006663671084222
 30
0.0
  0
SEQEND
  5
93B
  8
VISIBLE__ANSI_
  0
ARC
  5
20C
  8
VISIBLE__ANSI_
 10
-2.76530045557229
 20
0.1304098637283619
 30
0.0
 40
1.999999999999998
 50
338.5592970070963
 51
29.1985593395262
  0
ENDBLK
  5
20D
  8
0
  0
BLOCK
  8
0
  2
*D7
 70
     1
 10
0.0
 20
0.0
 30
0.0
  3
*D7
  1

  0
LINE
  5
227
  8
0
 62
     0
 10
160.625
 20
101.5
 30
0.0
 11
190.3327350272324
 21
101.5
 31
0.0
  0
LINE
  5
228
  8
0
 62
     0
 10
160.625
 20
79.99999999999999
 30
0.0
 11
190.3327350272324
 21
79.99999999999999
 31
0.0
  0
LINE
  5
229
  8
0
 62
     0
 10
189.0827350272324
 20
98.99999999999999
 30
0.0
 11
189.0827350272324
 21
82.49999999999999
 31
0.0
  0
SOLID
  5
22A
  8
0
 62
     0
 10
189.499401693899
 20
98.99999999999999
 30
0.0
 11
188.6660683605657
 21
98.99999999999999
 31
0.0
 12
189.0827350272324
 22
101.5
 32
0.0
 13
189.0827350272324
 23
101.5
 33
0.0
  0
SOLID
  5
22B
  8
0
 62
     0
 10
188.6660683605657
 20
82.49999999999999
 30
0.0
 11
189.499401693899
 21
82.49999999999999
 31
0.0
 12
189.0827350272324
 22
79.99999999999999
 32
0.0
 13
189.0827350272324
 23
79.99999999999999
 33
0.0
  0
TEXT
  5
22C
  8
0
  6
CONTINUOUS
 62
     0
 10
187.9652350272324
 20
87.37374999999999
 30
0.0
 40
2.5
  1
21,5
 50
90.0
  0
POINT
  5
22D
  8
DEFPOINTS
 62
     0
 10
160.0
 20
101.5
 30
0.0
  0
POINT
  5
22E
  8
DEFPOINTS
 62
     0
 10
160.0
 20
79.99999999999999
 30
0.0
  0
POINT
  5
22F
  8
DEFPOINTS
 62
     0
 10
189.0827350272324
 20
79.99999999999999
 30
0.0
  0
ENDBLK
  5
226
  8
0
  0
BLOCK
  8
0
  2
*D8
 70
     1
 10
0.0
 20
0.0
 30
0.0
  3
*D8
  1

  0
LINE
  5
236
  8
0
 62
     0
 10
160.625
 20
96.24999999999999
 30
0.0
 11
216.7454572485603
 21
96.24999999999999
 31
0.0
  0
LINE
  5
237
  8
0
 62
     0
 10
160.625
 20
63.74999999999999
 30
0.0
 11
216.7454572485603
 21
63.74999999999999
 31
0.0
  0
LINE
  5
238
  8
0
 62
     0
 10
215.4954572485603
 20
93.74999999999999
 30
0.0
 11
215.4954572485603
 21
66.24999999999999
 31
0.0
  0
SOLID
  5
239
  8
0
 62
     0
 10
215.912123915227
 20
93.74999999999999
 30
0.0
 11
215.0787905818937
 21
93.74999999999999
 31
0.0
 12
215.4954572485603
 22
96.24999999999999
 32
0.0
 13
215.4954572485603
 23
96.24999999999999
 33
0.0
  0
SOLID
  5
23A
  8
0
 62
     0
 10
215.0787905818937
 20
66.24999999999999
 30
0.0
 11
215.912123915227
 21
66.24999999999999
 31
0.0
 12
215.4954572485603
 22
63.74999999999999
 32
0.0
 13
215.4954572485603
 23
63.74999999999999
 33
0.0
  0
TEXT
  5
23B
  8
0
  6
CONTINUOUS
 62
     0
 10
214.3779572485603
 20
76.60124999999996
 30
0.0
 40
2.5
  1
32,5
 50
90.0
  0
POINT
  5
23C
  8
DEFPOINTS
 62
     0
 10
160.0
 20
96.24999999999999
 30
0.0
  0
POINT
  5
23D
  8
DEFPOINTS
 62
     0
 10
160.0
 20
63.74999999999999
 30
0.0
  0
POINT
  5
23E
  8
DEFPOINTS
 62
     0
 10
215.4954572485603
 20
63.74999999999999
 30
0.0
  0
ENDBLK
  5
235
  8
0
  0
BLOCK
  8
0
  2
*D9
 70
     1
 10
0.0
 20
0.0
 30
0.0
  3
*D9
  1

  0
LINE
  5
245
  8
0
 62
     0
 10
280.7243051328661
 20
102.2844444444444
 30
0.0
 11
344.5677540558565
 21
102.2844444444444
 31
0.0
  0
LINE
  5
246
  8
0
 62
     0
 10
280.7243051328661
 20
57.71555555555554
 30
0.0
 11
344.5677540558565
 21
57.71555555555554
 31
0.0
  0
LINE
  5
247
  8
0
 62
     0
 10
343.3177540558565
 20
99.78444444444443
 30
0.0
 11
343.3177540558565
 21
60.21555555555554
 31
0.0
  0
SOLID
  5
248
  8
0
 62
     0
 10
343.7344207225232
 20
99.78444444444443
 30
0.0
 11
342.9010873891899
 21
99.78444444444443
 31
0.0
 12
343.3177540558565
 22
102.2844444444444
 32
0.0
 13
343.3177540558565
 23
102.2844444444444
 33
0.0
  0
SOLID
  5
249
  8
0
 62
     0
 10
342.9010873891899
 20
60.21555555555554
 30
0.0
 11
343.7344207225232
 21
60.21555555555554
 31
0.0
 12
343.3177540558565
 22
57.71555555555554
 32
0.0
 13
343.3177540558565
 23
57.71555555555554
 33
0.0
  0
TEXT
  5
24A
  8
0
  6
CONTINUOUS
 62
     0
 10
342.2002540558565
 20
75.6925
 30
0.0
 40
2.5
  1
44,57
 50
90.0
  0
POINT
  5
24B
  8
DEFPOINTS
 62
     0
 10
280.0993051328661
 20
102.2844444444444
 30
0.0
  0
POINT
  5
24C
  8
DEFPOINTS
 62
     0
 10
280.0993051328661
 20
57.71555555555554
 30
0.0
  0
POINT
  5
24D
  8
DEFPOINTS
 62
     0
 10
343.3177540558565
 20
57.71555555555554
 30
0.0
  0
ENDBLK
  5
244
  8
0
  0
BLOCK
  8
0
  2
*D10
 70
     1
 10
0.0
 20
0.0
 30
0.0
  3
*D10
  1

  0
LINE
  5
27E
  8
0
 62
     0
 10
280.6249999999999
 20
119.0
 30
0.0
 11
382.4695050699878
 21
119.0
 31
0.0
  0
LINE
  5
27F
  8
0
 62
     0
 10
280.6249999999999
 20
40.99999999999999
 30
0.0
 11
382.4695050699878
 21
40.99999999999999
 31
0.0
  0
LINE
  5
280
  8
0
 62
     0
 10
381.2195050699878
 20
116.5
 30
0.0
 11
381.2195050699878
 21
43.49999999999999
 31
0.0
  0
SOLID
  5
281
  8
0
 62
     0
 10
381.6361717366545
 20
116.5
 30
0.0
 11
380.8028384033211
 21
116.5
 31
0.0
 12
381.2195050699878
 22
119.0
 32
0.0
 13
381.2195050699878
 23
119.0
 33
0.0
  0
SOLID
  5
282
  8
0
 62
     0
 10
380.8028384033211
 20
43.49999999999999
 30
0.0
 11
381.6361717366545
 21
43.49999999999999
 31
0.0
 12
381.2195050699878
 22
40.99999999999999
 32
0.0
 13
381.2195050699878
 23
40.99999999999999
 33
0.0
  0
TEXT
  5
283
  8
0
  6
CONTINUOUS
 62
     0
 10
380.5520050699878
 20
78.05374999999998
 30
0.0
 40
2.5
  1
78
 50
90.0
  0
POINT
  5
284
  8
DEFPOINTS
 62
     0
 10
279.9999999999999
 20
119.0
 30
0.0
  0
POINT
  5
285
  8
DEFPOINTS
 62
     0
 10
279.9999999999999
 20
40.99999999999999
 30
0.0
  0
POINT
  5
286
  8
DEFPOINTS
 62
     0
 10
381.2195050699878
 20
40.99999999999999
 30
0.0
  0
ENDBLK
  5
27D
  8
0
  0
BLOCK
  8
0
  2
*D11
 70
     1
 10
0.0
 20
0.0
 30
0.0
  3
*D11
  1

  0
LINE
  5
28D
  8
0
 62
     0
 10
280.7468539150464
 20
126.2731883378323
 30
0.0
 11
402.0682123712828
 21
126.2731883378323
 31
0.0
  0
LINE
  5
28E
  8
0
 62
     0
 10
280.7468539150464
 20
33.77318833783229
 30
0.0
 11
402.0682123712828
 21
33.77318833783229
 31
0.0
  0
LINE
  5
28F
  8
0
 62
     0
 10
400.8182123712828
 20
123.7731883378323
 30
0.0
 11
400.8182123712828
 21
36.27318833783229
 31
0.0
  0
SOLID
  5
290
  8
0
 62
     0
 10
401.2348790379494
 20
123.7731883378323
 30
0.0
 11
400.4015457046161
 21
123.7731883378323
 31
0.0
 12
400.8182123712828
 22
126.2731883378323
 32
0.0
 13
400.8182123712828
 23
126.2731883378323
 33
0.0
  0
SOLID
  5
291
  8
0
 62
     0
 10
400.4015457046161
 20
36.27318833783229
 30
0.0
 11
401.2348790379494
 21
36.27318833783229
 31
0.0
 12
400.8182123712828
 22
33.77318833783229
 32
0.0
 13
400.8182123712828
 23
33.77318833783229
 33
0.0
  0
TEXT
  5
292
  8
0
  6
CONTINUOUS
 62
     0
 10
399.7007123712827
 20
76.62568833783229
 30
0.0
 40
2.5
  1
92,5
 50
90.0
  0
POINT
  5
293
  8
DEFPOINTS
 62
     0
 10
280.1218539150464
 20
126.2731883378323
 30
0.0
  0
POINT
  5
294
  8
DEFPOINTS
 62
     0
 10
280.1218539150464
 20
33.77318833783229
 30
0.0
  0
POINT
  5
295
  8
DEFPOINTS
 62
     0
 10
400.8182123712828
 20
33.77318833783229
 30
0.0
  0
ENDBLK
  5
28C
  8
0
  0
BLOCK
  8
0
  2
*D12
 70
     1
 10
0.0
 20
0.0
 30
0.0
  3
*D12
  1

  0
LINE
  5
2A0
  8
0
 62
     0
 10
262.2069450108219
 20
121.9273088769436
 30
0.0
 11
262.1717116247633
 21
135.0488549450482
 31
0.0
  0
LINE
  5
2A1
  8
0
 62
     0
 10
297.9106155029546
 20
122.0231787690758
 30
0.0
 11
297.875382116896
 21
135.1447248371804
 31
0.0
  0
LINE
  5
2A2
  8
0
 62
     0
 10
264.6750590439876
 20
133.8055723148054
 30
0.0
 11
295.3787475611673
 21
133.8880164799467
 31
0.0
  0
SOLID
  5
2A3
  8
0
 62
     0
 10
264.673940233405
 20
134.2222374793848
 30
0.0
 11
264.6761778545701
 21
133.388907150226
 31
0.0
 12
262.1750680565111
 22
133.7988594513099
 32
0.0
 13
262.1750680565111
 23
133.7988594513099
 33
0.0
  0
SOLID
  5
2A4
  8
0
 62
     0
 10
295.3798663717499
 20
133.4713513153673
 30
0.0
 11
295.3776287505847
 21
134.3046816445261
 31
0.0
 12
297.8787385486438
 22
133.8947293434422
 32
0.0
 13
297.8787385486438
 23
133.8947293434422
 33
0.0
  0
TEXT
  5
2A5
  8
0
  6
CONTINUOUS
 62
     0
 10
276.6351648690706
 20
134.95519108231
 30
0.0
 40
2.5
  1
35,7
 50
0.1538476835693211
  0
POINT
  5
2A6
  8
DEFPOINTS
 62
     0
 10
262.2086232266957
 20
121.3023111300745
 30
0.0
  0
POINT
  5
2A7
  8
DEFPOINTS
 62
     0
 10
297.9122937188285
 20
121.3981810222067
 30
0.0
  0
POINT
  5
2A8
  8
DEFPOINTS
 62
     0
 10
297.8787385486438
 20
133.8947293434422
 30
0.0
  0
ENDBLK
  5
29F
  8
0
  0
ENDSEC
  0
SECTION
  2
ENTITIES
  0
CIRCLE
  5
BE
  8
0
 10
160.0
 20
79.99999999999999
 30
0.0
 40
46.25
  0
CIRCLE
  5
BF
  8
0
 10
160.0
 20
79.99999999999999
 30
0.0
 40
16.25
  0
CIRCLE
  5
EC
  8
0
 10
160.0
 20
100.0
 30
0.0
 40
1.5
  0
CIRCLE
  5
ED
  8
0
 10
140.9788696740969
 20
86.18033988749896
 30
0.0
 40
1.5
  0
CIRCLE
  5
EE
  8
0
 10
148.2442949541505
 20
63.81966011250104
 30
0.0
 40
1.5
  0
CIRCLE
  5
EF
  8
0
 10
171.7557050458494
 20
63.81966011250108
 30
0.0
 40
1.5
  0
CIRCLE
  5
F0
  8
0
 10
179.021130325903
 20
86.18033988749892
 30
0.0
 40
1.5
  0
CIRCLE
  5
120
  8
0
 10
160.0
 20
122.5
 30
0.0
 40
1.5
  0
CIRCLE
  5
121
  8
0
 10
119.580098057456
 20
93.13322226093521
 30
0.0
 40
1.5
  0
CIRCLE
  5
122
  8
0
 10
135.0191267775699
 20
45.61677773906473
 30
0.0
 40
1.5
  0
CIRCLE
  5
123
  8
0
 10
184.9808732224301
 20
45.61677773906473
 30
0.0
 40
1.5
  0
CIRCLE
  5
124
  8
0
 10
200.419901942544
 20
93.13322226093527
 30
0.0
 40
1.5
  0
ARC
  5
1C7
  8
0
 10
280.1218539150464
 20
80.0231883378323
 30
0.0
 40
46.25000000000001
 50
2.886499588835207
 51
357.0923083495958
  0
CIRCLE
  5
1CA
  8
0
 10
280.0993051328661
 20
100.0
 30
0.0
 40
1.5
  0
CIRCLE
  5
1CB
  8
0
 10
261.078174806963
 20
86.18033988749896
 30
0.0
 40
1.5
  0
CIRCLE
  5
1CC
  8
0
 10
268.3436000870166
 20
63.81966011250103
 30
0.0
 40
1.5
  0
CIRCLE
  5
1CD
  8
0
 10
291.8550101787155
 20
63.81966011250108
 30
0.0
 40
1.5
  0
CIRCLE
  5
1CE
  8
0
 10
299.1204354587692
 20
86.1803398874989
 30
0.0
 40
1.5
  0
DIMENSION
  5
221
  8
0
  2
*D7
 10
189.0827350272324
 20
79.99999999999999
 30
0.0
 11
186.9564850272324
 21
90.74999999999999
 31
0.0
 70
    33
  3
ISO-25
 13
160.0
 23
101.5
 33
0.0
 14
160.0
 24
79.99999999999999
 34
0.0
1001
ACAD
1000
DSTYLE
1002
{
1070
   144
1040
1.0
1002
}
  0
DIMENSION
  5
230
  8
0
  2
*D8
 10
215.4954572485603
 20
63.74999999999999
 30
0.0
 11
213.3692072485603
 21
79.99999999999999
 31
0.0
 70
    33
  3
ISO-25
 13
160.0
 23
96.24999999999999
 33
0.0
 14
160.0
 24
63.74999999999999
 34
0.0
1001
ACAD
1000
DSTYLE
1002
{
1070
   144
1040
1.0
1002
}
  0
POLYLINE
  5
260
  8
0
 66
     1
 10
0.0
 20
0.0
 30
0.0
 70
     1
  0
VERTEX
  5
652
  8
0
 10
279.9999999999999
 20
79.99999999999999
 30
0.0
  0
VERTEX
  5
653
  8
0
 10
280.0571946183093
 20
80.93705843435555
 30
0.0
  0
VERTEX
  5
654
  8
0
 10
280.117349995324
 20
81.87568011418983
 30
0.0
  0
VERTEX
  5
655
  8
0
 10
280.1834268897494
 20
82.81742828498146
 30
0.0
  0
VERTEX
  5
656
  8
0
 10
280.2583860602908
 20
83.76386619220912
 30
0.0
  0
VERTEX
  5
657
  8
0
 10
280.3451882656537
 20
84.71655708135155
 30
0.0
  0
VERTEX
  5
658
  8
0
 10
280.4467942645433
 20
85.67706419788738
 30
0.0
  0
VERTEX
  5
659
  8
0
 10
280.566164815665
 20
86.6469507872953
 30
0.0
  0
VERTEX
  5
65A
  8
0
 10
280.7062606777243
 20
87.62778009505404
 30
0.0
  0
VERTEX
  5
65B
  8
0
 10
280.8700426094263
 20
88.62111536664221
 30
0.0
  0
VERTEX
  5
65C
  8
0
 10
281.0604713694766
 20
89.62851984753856
 30
0.0
  0
VERTEX
  5
65D
  8
0
 10
281.2805077165802
 20
90.65155678322171
 30
0.0
  0
VERTEX
  5
65E
  8
0
 10
281.5331124094429
 20
91.69178941917039
 30
0.0
  0
VERTEX
  5
65F
  8
0
 10
281.8212462067697
 20
92.75078100086328
 30
0.0
  0
VERTEX
  5
660
  8
0
 10
282.1478698672662
 20
93.83009477377907
 30
0.0
  0
VERTEX
  5
661
  8
0
 10
282.5159441496375
 20
94.93129398339639
 30
0.0
  0
VERTEX
  5
662
  8
0
 10
282.9284286065479
 20
96.05594123841848
 30
0.0
  0
VERTEX
  5
663
  8
0
 10
283.3728056784457
 20
97.19742741587368
 30
0.0
  0
VERTEX
  5
664
  8
0
 10
283.7823890823184
 20
98.32054294930148
 30
0.0
  0
VERTEX
  5
665
  8
0
 10
284.0786486219064
 20
99.38382482652831
 30
0.0
  0
VERTEX
  5
666
  8
0
 10
284.1830541009498
 20
100.3458100353805
 30
0.0
  0
VERTEX
  5
667
  8
0
 10
284.0170753231887
 20
101.1650355636845
 30
0.0
  0
VERTEX
  5
668
  8
0
 10
283.5104591159498
 20
101.8033089385116
 30
0.0
  0
VERTEX
  5
669
  8
0
 10
282.6883598592678
 20
102.2601365218071
 30
0.0
  0
VERTEX
  5
66A
  8
0
 10
281.6371014075208
 20
102.5591948575091
 30
0.0
  0
VERTEX
  5
66B
  8
0
 10
280.4440100016451
 20
102.7245565672704
 30
0.0
  0
VERTEX
  5
66C
  8
0
 10
279.1916517934825
 20
102.7791189956868
 30
0.0
  0
VERTEX
  5
66D
  8
0
 10
277.917101359658
 20
102.7345475117454
 30
0.0
  0
VERTEX
  5
66E
  8
0
 10
276.6321693262887
 20
102.596269756359
 30
0.0
  0
VERTEX
  5
66F
  8
0
 10
275.348395859402
 20
102.3696465932154
 30
0.0
  0
VERTEX
  5
670
  8
0
 10
274.077321125025
 20
102.0600388860025
 30
0.0
  0
VERTEX
  5
671
  8
0
 10
272.8304852891848
 20
101.6728074984084
 30
0.0
  0
VERTEX
  5
672
  8
0
 10
271.6194285179085
 20
101.213313294121
 30
0.0
  0
VERTEX
  5
673
  8
0
 10
270.4556909772234
 20
100.6869171368281
 30
0.0
  0
VERTEX
  5
674
  8
0
 10
269.3508128331564
 20
100.0989798902179
 30
0.0
  0
VERTEX
  5
675
  8
0
 10
268.3163342517349
 20
99.45486241797815
 30
0.0
  0
VERTEX
  5
676
  8
0
 10
267.3637953989858
 20
98.75992558379693
 30
0.0
  0
VERTEX
  5
677
  8
0
 10
266.5047364409364
 20
98.01953025136211
 30
0.0
  0
VERTEX
  5
678
  8
0
 10
265.7506975436137
 20
97.23903728436167
 30
0.0
  0
VERTEX
  5
679
  8
0
 10
265.113218873045
 20
96.4238075464836
 30
0.0
  0
VERTEX
  5
67A
  8
0
 10
264.6038405952573
 20
95.57920190141579
 30
0.0
  0
VERTEX
  5
67B
  8
0
 10
264.2341028762779
 20
94.71058121284621
 30
0.0
  0
VERTEX
  5
67C
  8
0
 10
264.0155458821338
 20
93.82330634446282
 30
0.0
  0
VERTEX
  5
67D
  8
0
 10
263.9597097788521
 20
92.9227381599536
 30
0.0
  0
VERTEX
  5
67E
  8
0
 10
264.0781347324601
 20
92.01423752300644
 30
0.0
  0
VERTEX
  5
67F
  8
0
 10
264.3790562781904
 20
91.10375205634205
 30
0.0
  0
VERTEX
  5
680
  8
0
 10
264.8388146829614
 20
90.20289259831641
 30
0.0
  0
VERTEX
  5
681
  8
0
 10
265.4158977877384
 20
89.3264398034726
 30
0.0
  0
VERTEX
  5
682
  8
0
 10
266.0685990457924
 20
88.48920838450931
 30
0.0
  0
VERTEX
  5
683
  8
0
 10
266.7630930611322
 20
87.70239132513412
 30
0.0
  0
VERTEX
  5
684
  8
0
 10
267.4916938914974
 20
86.96516940163184
 30
0.0
  0
VERTEX
  5
685
  8
0
 10
268.2521277492197
 20
86.2742362716109
 30
0.0
  0
VERTEX
  5
686
  8
0
 10
269.0421208466307
 20
85.62628559267988
 30
0.0
  0
VERTEX
  5
687
  8
0
 10
269.8593993960621
 20
85.01801102244714
 30
0.0
  0
VERTEX
  5
688
  8
0
 10
270.7016896098456
 20
84.44610621852122
 30
0.0
  0
VERTEX
  5
689
  8
0
 10
271.5667177003127
 20
83.90726483851057
 30
0.0
  0
VERTEX
  5
68A
  8
0
 10
272.452209879795
 20
83.39818054002365
 30
0.0
  0
VERTEX
  5
68B
  8
0
 10
273.3558923606242
 20
82.91554698066898
 30
0.0
  0
VERTEX
  5
68C
  8
0
 10
274.275491355132
 20
82.45605781805497
 30
0.0
  0
VERTEX
  5
68D
  8
0
 10
275.20873307565
 20
82.01640670979015
 30
0.0
  0
VERTEX
  5
68E
  8
0
 10
276.1533437345098
 20
81.59328731348295
 30
0.0
  0
VERTEX
  5
68F
  8
0
 10
277.1070495440431
 20
81.18339328674185
 30
0.0
  0
VERTEX
  5
690
  8
0
 10
278.0675767165814
 20
80.78341828717534
 30
0.0
  0
VERTEX
  5
691
  8
0
 10
279.0326514644565
 20
80.39005597239189
 30
0.0
  0
SEQEND
  5
920
  8
0
  0
POLYLINE
  5
265
  8
0
 66
     1
 10
0.0
 20
0.0
 30
0.0
 70
     1
  0
VERTEX
  5
692
  8
0
 10
280.0686181591818
 20
79.90555520628612
 30
0.0
  0
VERTEX
  5
693
  8
0
 10
279.195096738083
 20
80.2495175016645
 30
0.0
  0
VERTEX
  5
694
  8
0
 10
278.3210035069413
 20
80.59677871532206
 30
0.0
  0
VERTEX
  5
695
  8
0
 10
277.4457666557138
 20
80.95063776553802
 30
0.0
  0
VERTEX
  5
696
  8
0
 10
276.5688143743577
 20
81.31439357059156
 30
0.0
  0
VERTEX
  5
697
  8
0
 10
275.6895748528302
 20
81.69134504876187
 30
0.0
  0
VERTEX
  5
698
  8
0
 10
274.8074762810883
 20
82.0847911183282
 30
0.0
  0
VERTEX
  5
699
  8
0
 10
273.9219468490891
 20
82.49803069756969
 30
0.0
  0
VERTEX
  5
69A
  8
0
 10
273.0324147467897
 20
82.93436270476553
 30
0.0
  0
VERTEX
  5
69B
  8
0
 10
272.1383081641475
 20
83.39708605819497
 30
0.0
  0
VERTEX
  5
69C
  8
0
 10
271.2390552911193
 20
83.88949967613715
 30
0.0
  0
VERTEX
  5
69D
  8
0
 10
270.3340843176625
 20
84.4149024768713
 30
0.0
  0
VERTEX
  5
69E
  8
0
 10
269.422823433734
 20
84.97659337867663
 30
0.0
  0
VERTEX
  5
69F
  8
0
 10
268.504700829291
 20
85.57787129983228
 30
0.0
  0
VERTEX
  5
6A0
  8
0
 10
267.5791446942908
 20
86.2220351586175
 30
0.0
  0
VERTEX
  5
6A1
  8
0
 10
266.6455832186903
 20
86.91238387331146
 30
0.0
  0
VERTEX
  5
6A2
  8
0
 10
265.7034448253688
 20
87.65221501840547
 30
0.0
  0
VERTEX
  5
6A3
  8
0
 10
264.7551470251663
 20
88.42758135600377
 30
0.0
  0
VERTEX
  5
6A4
  8
0
 10
263.8135689109581
 20
89.16418010769902
 30
0.0
  0
VERTEX
  5
6A5
  8
0
 10
262.8938769854413
 20
89.77451184321274
 30
0.0
  0
VERTEX
  5
6A6
  8
0
 10
262.0112377513132
 20
90.17107713226655
 30
0.0
  0
VERTEX
  5
6A7
  8
0
 10
261.1808177112707
 20
90.26637654458202
 30
0.0
  0
VERTEX
  5
6A8
  8
0
 10
260.4172306413009
 20
89.98179321930522
 30
0.0
  0
VERTEX
  5
6A9
  8
0
 10
259.7287191500067
 20
89.34109785093399
 30
0.0
  0
VERTEX
  5
6AA
  8
0
 10
259.1194410440148
 20
88.43370575813103
 30
0.0
  0
VERTEX
  5
6AB
  8
0
 10
258.5934871921423
 20
87.3501079805723
 30
0.0
  0
VERTEX
  5
6AC
  8
0
 10
258.1545952696848
 20
86.17590526359862
 30
0.0
  0
VERTEX
  5
6AD
  8
0
 10
257.8031275256884
 20
84.94996242216052
 30
0.0
  0
VERTEX
  5
6AE
  8
0
 10
257.5375716510795
 20
83.6851892624699
 30
0.0
  0
VERTEX
  5
6AF
  8
0
 10
257.356395268935
 20
82.39421773261012
 30
0.0
  0
VERTEX
  5
6B0
  8
0
 10
257.2580660023319
 20
81.08967978066448
 30
0.0
  0
VERTEX
  5
6B1
  8
0
 10
257.241051474347
 20
79.78420735471636
 30
0.0
  0
VERTEX
  5
6B2
  8
0
 10
257.3038193080572
 20
78.4904324028491
 30
0.0
  0
VERTEX
  5
6B3
  8
0
 10
257.4448371265395
 20
77.22098687314602
 30
0.0
  0
VERTEX
  5
6B4
  8
0
 10
257.6625725528706
 20
75.98850271369048
 30
0.0
  0
VERTEX
  5
6B5
  8
0
 10
257.9554932101277
 20
74.80561187256583
 30
0.0
  0
VERTEX
  5
6B6
  8
0
 10
258.3220667213873
 20
73.68494629785539
 30
0.0
  0
VERTEX
  5
6B7
  8
0
 10
258.7607607097267
 20
72.63913793764253
 30
0.0
  0
VERTEX
  5
6B8
  8
0
 10
259.2700427982225
 20
71.68081874001057
 30
0.0
  0
VERTEX
  5
6B9
  8
0
 10
259.8483806099517
 20
70.82262065304285
 30
0.0
  0
VERTEX
  5
6BA
  8
0
 10
260.4942417679913
 20
70.07717562482271
 30
0.0
  0
VERTEX
  5
6BB
  8
0
 10
261.2060938954181
 20
69.45711560343355
 30
0.0
  0
VERTEX
  5
6BC
  8
0
 10
261.982404615309
 20
68.97507253695862
 30
0.0
  0
VERTEX
  5
6BD
  8
0
 10
262.821641550741
 20
68.64367837348135
 30
0.0
  0
VERTEX
  5
6BE
  8
0
 10
263.7222723247908
 20
68.475565061085
 30
0.0
  0
VERTEX
  5
6BF
  8
0
 10
264.6811853324582
 20
68.48040297571472
 30
0.0
  0
VERTEX
  5
6C0
  8
0
 10
265.6800267506605
 20
68.63927832042037
 30
0.0
  0
VERTEX
  5
6C1
  8
0
 10
266.6919113789646
 20
68.91727815928814
 30
0.0
  0
VERTEX
  5
6C2
  8
0
 10
267.6898615566053
 20
69.27931520727009
 30
0.0
  0
VERTEX
  5
6C3
  8
0
 10
268.6527795012879
 20
69.69667842327591
 30
0.0
  0
VERTEX
  5
6C4
  8
0
 10
269.579069254289
 20
70.16180488778481
 30
0.0
  0
VERTEX
  5
6C5
  8
0
 10
270.4711726950538
 20
70.67151038422998
 30
0.0
  0
VERTEX
  5
6C6
  8
0
 10
271.3315317030281
 20
71.2226106960445
 30
0.0
  0
VERTEX
  5
6C7
  8
0
 10
272.162588157657
 20
71.81192160666147
 30
0.0
  0
VERTEX
  5
6C8
  8
0
 10
272.966783938386
 20
72.43625889951406
 30
0.0
  0
VERTEX
  5
6C9
  8
0
 10
273.7465609246606
 20
73.0924383580354
 30
0.0
  0
VERTEX
  5
6CA
  8
0
 10
274.5043609959263
 20
73.77727576565856
 30
0.0
  0
VERTEX
  5
6CB
  8
0
 10
275.2426260316284
 20
74.48758690581674
 30
0.0
  0
VERTEX
  5
6CC
  8
0
 10
275.9637979112125
 20
75.22018756194302
 30
0.0
  0
VERTEX
  5
6CD
  8
0
 10
276.6703185141239
 20
75.97189351747053
 30
0.0
  0
VERTEX
  5
6CE
  8
0
 10
277.3646297198082
 20
76.73952055583243
 30
0.0
  0
VERTEX
  5
6CF
  8
0
 10
278.0491734077107
 20
77.51988446046181
 30
0.0
  0
VERTEX
  5
6D0
  8
0
 10
278.7263914572768
 20
78.3098010147918
 30
0.0
  0
VERTEX
  5
6D1
  8
0
 10
279.3987257479521
 20
79.10608600225555
 30
0.0
  0
SEQEND
  5
921
  8
0
  0
POLYLINE
  5
266
  8
0
 66
     1
 10
0.0
 20
0.0
 30
0.0
 70
     1
  0
VERTEX
  5
6D2
  8
0
 10
280.1796446729836
 20
79.94162990742431
 30
0.0
  0
VERTEX
  5
6D3
  8
0
 10
279.582584126534
 20
79.21715186246101
 30
0.0
  0
VERTEX
  5
6D4
  8
0
 10
278.9822094233375
 20
78.49314941564165
 30
0.0
  0
VERTEX
  5
6D5
  8
0
 10
278.3752064066471
 20
77.77009816511024
 30
0.0
  0
VERTEX
  5
6D6
  8
0
 10
277.7582609197158
 20
77.04847370901074
 30
0.0
  0
VERTEX
  5
6D7
  8
0
 10
277.1280588057967
 20
76.3287516454871
 30
0.0
  0
VERTEX
  5
6D8
  8
0
 10
276.4812859081428
 20
75.6114075726833
 30
0.0
  0
VERTEX
  5
6D9
  8
0
 10
275.8146280700071
 20
74.89691708874332
 30
0.0
  0
VERTEX
  5
6DA
  8
0
 10
275.1247711346428
 20
74.1857557918111
 30
0.0
  0
VERTEX
  5
6DB
  8
0
 10
274.4084009453028
 20
73.47839928003066
 30
0.0
  0
VERTEX
  5
6DC
  8
0
 10
273.6622033452402
 20
72.77532315154588
 30
0.0
  0
VERTEX
  5
6DD
  8
0
 10
272.8828641777081
 20
72.07700300450082
 30
0.0
  0
VERTEX
  5
6DE
  8
0
 10
272.0670692859593
 20
71.38391443703938
 30
0.0
  0
VERTEX
  5
6DF
  8
0
 10
271.2115045132473
 20
70.69653304730559
 30
0.0
  0
VERTEX
  5
6E0
  8
0
 10
270.3128557028247
 20
70.01533443344337
 30
0.0
  0
VERTEX
  5
6E1
  8
0
 10
269.3678086979446
 20
69.34079419359668
 30
0.0
  0
VERTEX
  5
6E2
  8
0
 10
268.3730506918555
 20
68.67338773217844
 30
0.0
  0
VERTEX
  5
6E3
  8
0
 10
267.3425933479758
 20
68.01110430509155
 30
0.0
  0
VERTEX
  5
6E4
  8
0
 10
266.3510826664593
 20
67.34323183628213
 30
0.0
  0
VERTEX
  5
6E5
  8
0
 10
265.4864222577232
 20
66.65715571601548
 30
0.0
  0
VERTEX
  5
6E6
  8
0
 10
264.8365157321844
 20
65.94026133455695
 30
0.0
  0
VERTEX
  5
6E7
  8
0
 10
264.4892667002601
 20
65.17993408217185
 30
0.0
  0
VERTEX
  5
6E8
  8
0
 10
264.5239601448878
 20
64.36577853969214
 30
0.0
  0
VERTEX
  5
6E9
  8
0
 10
264.9205358983052
 20
63.51297944230873
 30
0.0
  0
VERTEX
  5
6EA
  8
0
 10
265.5952397719481
 20
62.65312195213149
 30
0.0
  0
VERTEX
  5
6EB
  8
0
 10
266.4632738208526
 20
61.81805998570515
 30
0.0
  0
VERTEX
  5
6EC
  8
0
 10
267.4443819035487
 20
61.03780036851654
 30
0.0
  0
VERTEX
  5
6ED
  8
0
 10
268.5017133256342
 20
60.32469750818451
 30
0.0
  0
VERTEX
  5
6EE
  8
0
 10
269.6225228025829
 20
59.68130246282355
 30
0.0
  0
VERTEX
  5
6EF
  8
0
 10
270.7943231073455
 20
59.11006134200538
 30
0.0
  0
VERTEX
  5
6F0
  8
0
 10
272.004627012873
 20
58.61342025530166
 30
0.0
  0
VERTEX
  5
6F1
  8
0
 10
273.240947292116
 20
58.19382531228408
 30
0.0
  0
VERTEX
  5
6F2
  8
0
 10
274.4907967180254
 20
57.85372262252429
 30
0.0
  0
VERTEX
  5
6F3
  8
0
 10
275.741688063552
 20
57.59555829559401
 30
0.0
  0
VERTEX
  5
6F4
  8
0
 10
276.9811341016465
 20
57.42177844106487
 30
0.0
  0
VERTEX
  5
6F5
  8
0
 10
278.1966476052598
 20
57.3348291685086
 30
0.0
  0
VERTEX
  5
6F6
  8
0
 10
279.3757413473429
 20
57.33715658749686
 30
0.0
  0
VERTEX
  5
6F7
  8
0
 10
280.5059281008462
 20
57.43120680760132
 30
0.0
  0
VERTEX
  5
6F8
  8
0
 10
281.5747206387208
 20
57.61942593839365
 30
0.0
  0
VERTEX
  5
6F9
  8
0
 10
282.5696317339174
 20
57.90426008944556
 30
0.0
  0
VERTEX
  5
6FA
  8
0
 10
283.4781741593869
 20
58.28815537032868
 30
0.0
  0
VERTEX
  5
6FB
  8
0
 10
284.2878606880801
 20
58.77355789061475
 30
0.0
  0
VERTEX
  5
6FC
  8
0
 10
284.9862040929477
 20
59.36291375987541
 30
0.0
  0
VERTEX
  5
6FD
  8
0
 10
285.5607171469405
 20
60.05866908768235
 30
0.0
  0
VERTEX
  5
6FE
  8
0
 10
285.9989126230095
 20
60.86326998360724
 30
0.0
  0
VERTEX
  5
6FF
  8
0
 10
286.2906319082721
 20
61.77674544594748
 30
0.0
  0
VERTEX
  5
700
  8
0
 10
286.4481914493213
 20
62.77579526697552
 30
0.0
  0
VERTEX
  5
701
  8
0
 10
286.4964874375297
 20
63.82406141110665
 30
0.0
  0
VERTEX
  5
702
  8
0
 10
286.4605533083367
 20
64.88504403090946
 30
0.0
  0
VERTEX
  5
703
  8
0
 10
286.361175311188
 20
65.9298057434302
 30
0.0
  0
VERTEX
  5
704
  8
0
 10
286.2050530316081
 20
66.95449163106606
 30
0.0
  0
VERTEX
  5
705
  8
0
 10
285.9959694217593
 20
67.96044008214272
 30
0.0
  0
VERTEX
  5
706
  8
0
 10
285.7377074338033
 20
68.94898948498579
 30
0.0
  0
VERTEX
  5
707
  8
0
 10
285.4340500199026
 20
69.92147822792096
 30
0.0
  0
VERTEX
  5
708
  8
0
 10
285.088780132219
 20
70.87924469927388
 30
0.0
  0
VERTEX
  5
709
  8
0
 10
284.7056807229145
 20
71.82362728737021
 30
0.0
  0
VERTEX
  5
70A
  8
0
 10
284.2885347441515
 20
72.7559643805356
 30
0.0
  0
VERTEX
  5
70B
  8
0
 10
283.8411251480918
 20
73.67759436709574
 30
0.0
  0
VERTEX
  5
70C
  8
0
 10
283.3672348868976
 20
74.58985563537625
 30
0.0
  0
VERTEX
  5
70D
  8
0
 10
282.870646912731
 20
75.49408657370282
 30
0.0
  0
VERTEX
  5
70E
  8
0
 10
282.3551441777539
 20
76.39162557040106
 30
0.0
  0
VERTEX
  5
70F
  8
0
 10
281.8245096341286
 20
77.28381101379671
 30
0.0
  0
VERTEX
  5
710
  8
0
 10
281.282526234017
 20
78.17198129221536
 30
0.0
  0
VERTEX
  5
711
  8
0
 10
280.7329769295814
 20
79.05747479398269
 30
0.0
  0
SEQEND
  5
922
  8
0
  0
POLYLINE
  5
267
  8
0
 66
     1
 10
0.0
 20
0.0
 30
0.0
 70
     1
  0
VERTEX
  5
712
  8
0
 10
280.1796446729835
 20
80.05837009257564
 30
0.0
  0
VERTEX
  5
713
  8
0
 10
280.6841623830349
 20
79.26665574130686
 30
0.0
  0
VERTEX
  5
714
  8
0
 10
281.1872036416156
 20
78.47193640757686
 30
0.0
  0
VERTEX
  5
715
  8
0
 10
281.6872919972546
 20
77.67120710892438
 30
0.0
  0
VERTEX
  5
716
  8
0
 10
282.1829509984814
 20
76.86146286288816
 30
0.0
  0
VERTEX
  5
717
  8
0
 10
282.6727041938248
 20
76.03969868700699
 30
0.0
  0
VERTEX
  5
718
  8
0
 10
283.1550751318144
 20
75.20290959881966
 30
0.0
  0
VERTEX
  5
719
  8
0
 10
283.6285873609793
 20
74.34809061586492
 30
0.0
  0
VERTEX
  5
71A
  8
0
 10
284.0917644298485
 20
73.47223675568148
 30
0.0
  0
VERTEX
  5
71B
  8
0
 10
284.5431298869515
 20
72.57234303580816
 30
0.0
  0
VERTEX
  5
71C
  8
0
 10
284.9812072808174
 20
71.64540447378371
 30
0.0
  0
VERTEX
  5
71D
  8
0
 10
285.4045201599753
 20
70.68841608714688
 30
0.0
  0
VERTEX
  5
71E
  8
0
 10
285.8115920729546
 20
69.69837289343644
 30
0.0
  0
VERTEX
  5
71F
  8
0
 10
286.2009465682843
 20
68.67226991019113
 30
0.0
  0
VERTEX
  5
720
  8
0
 10
286.5711071944938
 20
67.60710215494977
 30
0.0
  0
VERTEX
  5
721
  8
0
 10
286.9205975001122
 20
66.49986464525105
 30
0.0
  0
VERTEX
  5
722
  8
0
 10
287.2479416350893
 20
65.34755362268928
 30
0.0
  0
VERTEX
  5
723
  8
0
 10
287.5593817728174
 20
64.1628736169655
 30
0.0
  0
VERTEX
  5
724
  8
0
 10
287.8881725856399
 20
63.01350697939576
 30
0.0
  0
VERTEX
  5
725
  8
0
 10
288.2734749898313
 20
61.97915688268761
 30
0.0
  0
VERTEX
  5
726
  8
0
 10
288.7544499016661
 20
61.13952649954861
 30
0.0
  0
VERTEX
  5
727
  8
0
 10
289.3702582374189
 20
60.57431900268634
 30
0.0
  0
VERTEX
  5
728
  8
0
 10
290.1552870353555
 20
60.35572653058156
 30
0.0
  0
VERTEX
  5
729
  8
0
 10
291.0888958213755
 20
60.46936307119458
 30
0.0
  0
VERTEX
  5
72A
  8
0
 10
292.11516385362
 20
60.84533400958684
 30
0.0
  0
VERTEX
  5
72B
  8
0
 10
293.1775922511077
 20
61.41283510918174
 30
0.0
  0
VERTEX
  5
72C
  8
0
 10
294.2228423153086
 20
62.10481086268385
 30
0.0
  0
VERTEX
  5
72D
  8
0
 10
295.2277768155271
 20
62.89003189896196
 30
0.0
  0
VERTEX
  5
72E
  8
0
 10
296.1860310418033
 20
63.75716505242624
 30
0.0
  0
VERTEX
  5
72F
  8
0
 10
297.0914198403186
 20
64.69509015384881
 30
0.0
  0
VERTEX
  5
730
  8
0
 10
297.9377580572544
 20
65.69268703400185
 30
0.0
  0
VERTEX
  5
731
  8
0
 10
298.7188605387922
 20
66.73883552365753
 30
0.0
  0
VERTEX
  5
732
  8
0
 10
299.4285421311136
 20
67.82241545358796
 30
0.0
  0
VERTEX
  5
733
  8
0
 10
300.0606176803998
 20
68.93230665456537
 30
0.0
  0
VERTEX
  5
734
  8
0
 10
300.6089020328324
 20
70.0573889573619
 30
0.0
  0
VERTEX
  5
735
  8
0
 10
301.067210034593
 20
71.18654219274971
 30
0.0
  0
VERTEX
  5
736
  8
0
 10
301.4293565318629
 20
72.30864619150096
 30
0.0
  0
VERTEX
  5
737
  8
0
 10
301.6891563708235
 20
73.41258078438779
 30
0.0
  0
VERTEX
  5
738
  8
0
 10
301.8404243976564
 20
74.4872258021824
 30
0.0
  0
VERTEX
  5
739
  8
0
 10
301.8769754585431
 20
75.5214610756569
 30
0.0
  0
VERTEX
  5
73A
  8
0
 10
301.7926243996649
 20
76.5041664355835
 30
0.0
  0
VERTEX
  5
73B
  8
0
 10
301.5811860672035
 20
77.42422171273434
 30
0.0
  0
VERTEX
  5
73C
  8
0
 10
301.23647530734
 20
78.27050673788158
 30
0.0
  0
VERTEX
  5
73D
  8
0
 10
300.7523069662562
 20
79.03190134179738
 30
0.0
  0
VERTEX
  5
73E
  8
0
 10
300.1224958901335
 20
79.69728535525394
 30
0.0
  0
VERTEX
  5
73F
  8
0
 10
299.3438753159321
 20
80.2570063242395
 30
0.0
  0
VERTEX
  5
740
  8
0
 10
298.44241104935
 20
80.7155777253837
 30
0.0
  0
VERTEX
  5
741
  8
0
 10
297.4603749832791
 20
81.08544199284475
 30
0.0
  0
VERTEX
  5
742
  8
0
 10
296.440216292441
 20
81.37912826537385
 30
0.0
  0
VERTEX
  5
743
  8
0
 10
295.4158793677865
 20
81.6074632978504
 30
0.0
  0
VERTEX
  5
744
  8
0
 10
294.3931007396039
 20
81.77562753969279
 30
0.0
  0
VERTEX
  5
745
  8
0
 10
293.3717765214619
 20
81.88763237694333
 30
0.0
  0
VERTEX
  5
746
  8
0
 10
292.351802826929
 20
81.94748919564428
 30
0.0
  0
VERTEX
  5
747
  8
0
 10
291.3330757695735
 20
81.95920938183787
 30
0.0
  0
VERTEX
  5
748
  8
0
 10
290.3154914629641
 20
81.92680432156644
 30
0.0
  0
VERTEX
  5
749
  8
0
 10
289.2989460206693
 20
81.85428540087226
 30
0.0
  0
VERTEX
  5
74A
  8
0
 10
288.2833355562578
 20
81.74566400579756
 30
0.0
  0
VERTEX
  5
74B
  8
0
 10
287.2685561832978
 20
81.60495152238465
 30
0.0
  0
VERTEX
  5
74C
  8
0
 10
286.2545040153582
 20
81.43615933667581
 30
0.0
  0
VERTEX
  5
74D
  8
0
 10
285.2410751660074
 20
81.24329883471333
 30
0.0
  0
VERTEX
  5
74E
  8
0
 10
284.2281657488138
 20
81.03038140253945
 30
0.0
  0
VERTEX
  5
74F
  8
0
 10
283.215671877346
 20
80.80141842619645
 30
0.0
  0
VERTEX
  5
750
  8
0
 10
282.2034896651728
 20
80.56042129172664
 30
0.0
  0
VERTEX
  5
751
  8
0
 10
281.1915152258624
 20
80.31140138517229
 30
0.0
  0
SEQEND
  5
923
  8
0
  0
POLYLINE
  5
268
  8
0
 66
     1
 10
0.0
 20
0.0
 30
0.0
 70
     1
  0
VERTEX
  5
752
  8
0
 10
280.0686181591818
 20
80.09444479371393
 30
0.0
  0
VERTEX
  5
753
  8
0
 10
280.9774877983693
 20
80.32961646021207
 30
0.0
  0
VERTEX
  5
754
  8
0
 10
281.8887590971122
 20
80.56245534726958
 30
0.0
  0
VERTEX
  5
755
  8
0
 10
282.8048337149656
 20
80.79062867544587
 30
0.0
  0
VERTEX
  5
756
  8
0
 10
283.7281133114848
 20
81.01180366530036
 30
0.0
  0
VERTEX
  5
757
  8
0
 10
284.6609995462251
 20
81.2236475373924
 30
0.0
  0
VERTEX
  5
758
  8
0
 10
285.6058940787417
 20
81.42382751228136
 30
0.0
  0
VERTEX
  5
759
  8
0
 10
286.5651985685899
 20
81.6100108105267
 30
0.0
  0
VERTEX
  5
75A
  8
0
 10
287.5413146753251
 20
81.77986465268773
 30
0.0
  0
VERTEX
  5
75B
  8
0
 10
288.5366440585022
 20
81.9310562593239
 30
0.0
  0
VERTEX
  5
75C
  8
0
 10
289.5535883776769
 20
82.0612528509946
 30
0.0
  0
VERTEX
  5
75D
  8
0
 10
290.5945492924043
 20
82.16812164825917
 30
0.0
  0
VERTEX
  5
75E
  8
0
 10
291.6619284622396
 20
82.24932987167705
 30
0.0
  0
VERTEX
  5
75F
  8
0
 10
292.758127546738
 20
82.30254474180761
 30
0.0
  0
VERTEX
  5
760
  8
0
 10
293.8855482054551
 20
82.32543347921023
 30
0.0
  0
VERTEX
  5
761
  8
0
 10
295.0465920979458
 20
82.31566330444431
 30
0.0
  0
VERTEX
  5
762
  8
0
 10
296.2436599054689
 20
82.27090238830823
 30
0.0
  0
VERTEX
  5
763
  8
0
 10
297.4665978399254
 20
82.20101330606542
 30
0.0
  0
VERTEX
  5
764
  8
0
 10
298.6613124189548
 20
82.15853812732155
 30
0.0
  0
VERTEX
  5
765
  8
0
 10
299.7641028094283
 20
82.20535073155584
 30
0.0
  0
VERTEX
  5
766
  8
0
 10
300.7112681782171
 20
82.40332499824737
 30
0.0
  0
VERTEX
  5
767
  8
0
 10
301.4391076921921
 20
82.81433480687534
 30
0.0
  0
VERTEX
  5
768
  8
0
 10
301.8895887268365
 20
83.49339277190941
 30
0.0
  0
VERTEX
  5
769
  8
0
 10
302.0700149353752
 20
84.41642311375564
 30
0.0
  0
VERTEX
  5
76A
  8
0
 10
302.029579587227
 20
85.50864342264148
 30
0.0
  0
VERTEX
  5
76B
  8
0
 10
301.818162398583
 20
86.69444035727044
 30
0.0
  0
VERTEX
  5
76C
  8
0
 10
301.483054382306
 20
87.90236450951417
 30
0.0
  0
VERTEX
  5
76D
  8
0
 10
301.046806637823
 20
89.1007606589475
 30
0.0
  0
VERTEX
  5
76E
  8
0
 10
300.5182308425761
 20
90.28007346592125
 30
0.0
  0
VERTEX
  5
76F
  8
0
 10
299.9059915883294
 20
91.43098417832026
 30
0.0
  0
VERTEX
  5
770
  8
0
 10
299.2187534668462
 20
92.54417404402945
 30
0.0
  0
VERTEX
  5
771
  8
0
 10
298.4651810698905
 20
93.6103243109336
 30
0.0
  0
VERTEX
  5
772
  8
0
 10
297.6539389892259
 20
94.62011622691765
 30
0.0
  0
VERTEX
  5
773
  8
0
 10
296.793691816616
 20
95.5642310398664
 30
0.0
  0
VERTEX
  5
774
  8
0
 10
295.8931041438245
 20
96.43334999766479
 30
0.0
  0
VERTEX
  5
775
  8
0
 10
294.9608405626152
 20
97.21815434819764
 30
0.0
  0
VERTEX
  5
776
  8
0
 10
294.0055656647518
 20
97.9093253393498
 30
0.0
  0
VERTEX
  5
777
  8
0
 10
293.0359440419978
 20
98.4975442190062
 30
0.0
  0
VERTEX
  5
778
  8
0
 10
292.0606402861171
 20
98.97349223505168
 30
0.0
  0
VERTEX
  5
779
  8
0
 10
291.0883189888733
 20
99.32785063537105
 30
0.0
  0
VERTEX
  5
77A
  8
0
 10
290.1276447420299
 20
99.55130066784923
 30
0.0
  0
VERTEX
  5
77B
  8
0
 10
289.1872821373511
 20
99.63452358037111
 30
0.0
  0
VERTEX
  5
77C
  8
0
 10
288.2758957666
 20
99.5682006208215
 30
0.0
  0
VERTEX
  5
77D
  8
0
 10
287.4021502215407
 20
99.34301303708529
 30
0.0
  0
VERTEX
  5
77E
  8
0
 10
286.5747100939368
 20
98.94964207704736
 30
0.0
  0
VERTEX
  5
77F
  8
0
 10
285.8017768294778
 20
98.38209319775622
 30
0.0
  0
VERTEX
  5
780
  8
0
 10
285.0870817320374
 20
97.66645608890394
 30
0.0
  0
VERTEX
  5
781
  8
0
 10
284.4318540768189
 20
96.84677863328781
 30
0.0
  0
VERTEX
  5
782
  8
0
 10
283.8372954611553
 20
95.96730411193725
 30
0.0
  0
VERTEX
  5
783
  8
0
 10
283.3035984229361
 20
95.06366121030932
 30
0.0
  0
VERTEX
  5
784
  8
0
 10
282.8276087473321
 20
94.14290653982441
 30
0.0
  0
VERTEX
  5
785
  8
0
 10
282.4054792768359
 20
93.20618088507298
 30
0.0
  0
VERTEX
  5
786
  8
0
 10
282.0333628539395
 20
92.25462503064551
 30
0.0
  0
VERTEX
  5
787
  8
0
 10
281.7074123211355
 20
91.28937976113248
 30
0.0
  0
VERTEX
  5
788
  8
0
 10
281.423780520916
 20
90.31158586112433
 30
0.0
  0
VERTEX
  5
789
  8
0
 10
281.1786202957735
 20
89.32238411521155
 30
0.0
  0
VERTEX
  5
78A
  8
0
 10
280.9680844882
 20
88.32291530798453
 30
0.0
  0
VERTEX
  5
78B
  8
0
 10
280.7883259406883
 20
87.31432022403386
 30
0.0
  0
VERTEX
  5
78C
  8
0
 10
280.6354974957302
 20
86.2977396479499
 30
0.0
  0
VERTEX
  5
78D
  8
0
 10
280.5057519958182
 20
85.27431436432313
 30
0.0
  0
VERTEX
  5
78E
  8
0
 10
280.3952422834449
 20
84.24518515774409
 30
0.0
  0
VERTEX
  5
78F
  8
0
 10
280.3001212011022
 20
83.21149281280316
 30
0.0
  0
VERTEX
  5
790
  8
0
 10
280.2165415912826
 20
82.17437811409084
 30
0.0
  0
VERTEX
  5
791
  8
0
 10
280.1406562964784
 20
81.1349818461976
 30
0.0
  0
SEQEND
  5
924
  8
0
  0
CIRCLE
  5
269
  8
0
 10
266.9634065904913
 20
93.98812799177651
 30
0.0
 40
1.5
  0
CIRCLE
  5
26A
  8
0
 10
262.7363781279125
 20
71.82987756143393
 30
0.0
 40
1.5
  0
CIRCLE
  5
26B
  8
0
 10
282.5039029587464
 20
60.96245864894148
 30
0.0
 40
1.5
  0
CIRCLE
  5
26C
  8
0
 10
298.9479336402379
 20
76.40427482138034
 30
0.0
 40
1.5
  0
CIRCLE
  5
26D
  8
0
 10
289.3433786826119
 20
96.81526097646775
 30
0.0
 40
1.5
  0
ARC
  5
271
  8
0
 10
280.0280848298833
 20
80.05588188583855
 30
0.0
 40
39.00000000000001
 50
79.6018213161195
 51
134.0080912876754
  0
LINE
  5
275
  8
0
 10
280.0993051328661
 20
122.5
 30
0.0
 11
280.0993051328661
 21
122.5
 31
0.0
  0
LINE
  5
276
  8
0
 10
280.0993051328661
 20
122.5
 30
0.0
 11
280.0993051328661
 21
122.5
 31
0.0
  0
DIMENSION
  5
287
  8
0
  2
*D11
 10
400.8182123712828
 20
33.77318833783229
 30
0.0
 11
398.6919623712828
 21
80.0231883378323
 31
0.0
 70
    33
  3
ISO-25
 13
280.1218539150464
 23
126.2731883378323
 33
0.0
 14
280.1218539150464
 24
33.77318833783229
 34
0.0
1001
ACAD
1000
DSTYLE
1002
{
1070
   144
1040
1.0
1002
}
  0
ARC
  5
299
  8
0
 10
279.6858836928879
 20
78.54092740049862
 30
0.0
 40
46.46017468901209
 50
48.33559458189196
 51
93.52884027440517
  0
ARC
  5
2A9
  8
0
 10
279.4001332639868
 20
77.78010270935485
 30
0.0
 40
42.46017468901209
 50
48.33559458189173
 51
93.52884027440498
  0
POLYLINE
  5
2AA
  8
0
 66
     1
 10
0.0
 20
0.0
 30
0.0
  0
VERTEX
  5
792
  8
0
 10
276.826215772874
 20
124.9130109370486
 30
0.0
  0
VERTEX
  5
793
  8
0
 10
276.3381269087801
 20
124.871402549671
 30
0.0
  0
VERTEX
  5
794
  8
0
 10
275.8680351486754
 20
124.7400609666323
 30
0.0
  0
VERTEX
  5
795
  8
0
 10
275.4340058552703
 20
124.5240335713115
 30
0.0
  0
VERTEX
  5
796
  8
0
 10
275.0527185309039
 20
124.2316221753611
 30
0.0
  0
VERTEX
  5
797
  8
0
 10
274.7388258336232
 20
123.8740639847414
 30
0.0
  0
VERTEX
  5
798
  8
0
 10
274.5043904837517
 20
123.4650997601969
 30
0.0
  0
VERTEX
  5
799
  8
0
 10
274.3584217003121
 20
123.0204457675271
 30
0.0
  0
VERTEX
  5
79A
  8
0
 10
274.3065289817917
 20
122.5571898103054
 30
0.0
  0
VERTEX
  5
79B
  8
0
 10
274.3507065362614
 20
122.093134555171
 30
0.0
  0
VERTEX
  5
79C
  8
0
 10
274.4892566450782
 20
121.6461133853335
 30
0.0
  0
VERTEX
  5
79D
  8
0
 10
274.7168549052599
 20
121.2333050736573
 30
0.0
  0
VERTEX
  5
79E
  8
0
 10
275.0247548433062
 20
120.8705736120546
 30
0.0
  0
VERTEX
  5
79F
  8
0
 10
275.4011240372705
 20
120.5718585671727
 30
0.0
  0
VERTEX
  5
7A0
  8
0
 10
275.831498830099
 20
120.3486393906651
 30
0.0
  0
VERTEX
  5
7A1
  8
0
 10
276.29934015986
 20
120.2094942703021
 30
0.0
  0
VERTEX
  5
7A2
  8
0
 10
276.7866691466195
 20
120.1597704750259
 30
0.0
  0
SEQEND
  5
925
  8
0
  0
POLYLINE
  5
2AB
  8
0
 66
     1
 10
0.0
 20
0.0
 30
0.0
  0
VERTEX
  5
7A3
  8
0
 10
307.6262300063748
 20
109.5000317337203
 30
0.0
  0
VERTEX
  5
7A4
  8
0
 10
308.0380719199067
 20
109.2347762953596
 30
0.0
  0
VERTEX
  5
7A5
  8
0
 10
308.4906707926049
 20
109.0517510334442
 30
0.0
  0
VERTEX
  5
7A6
  8
0
 10
308.9666335036121
 20
108.9579895061477
 30
0.0
  0
VERTEX
  5
7A7
  8
0
 10
309.4476690728673
 20
108.957094916382
 30
0.0
  0
VERTEX
  5
7A8
  8
0
 10
309.9152915732117
 20
109.0491016427302
 30
0.0
  0
VERTEX
  5
7A9
  8
0
 10
310.3515305342029
 20
109.2304739182966
 30
0.0
  0
VERTEX
  5
7AA
  8
0
 10
310.7396215372157
 20
109.494241708246
 30
0.0
  0
VERTEX
  5
7AB
  8
0
 10
311.0646504626482
 20
109.8302685643333
 30
0.0
  0
VERTEX
  5
7AC
  8
0
 10
311.3141266311742
 20
110.2256411629251
 30
0.0
  0
VERTEX
  5
7AD
  8
0
 10
311.4784628135454
 20
110.665165556785
 30
0.0
  0
VERTEX
  5
7AE
  8
0
 10
311.5513436624339
 20
111.1319510699451
 30
0.0
  0
VERTEX
  5
7AF
  8
0
 10
311.5299684076888
 20
111.6080593969111
 30
0.0
  0
VERTEX
  5
7B0
  8
0
 10
311.4151584883628
 20
112.0751939616821
 30
0.0
  0
VERTEX
  5
7B1
  8
0
 10
311.2113259852695
 20
112.5154030449062
 30
0.0
  0
VERTEX
  5
7B2
  8
0
 10
310.9263040671919
 20
112.9117696583872
 30
0.0
  0
VERTEX
  5
7B3
  8
0
 10
310.5710459665999
 20
113.2490616554538
 30
0.0
  0
SEQEND
  5
926
  8
0
  0
ARC
  5
2AD
  8
0
 10
281.4898060284563
 20
79.0798960854282
 30
0.0
 40
46.46017468901209
 50
120.3355945818918
 51
165.528840274405
  0
ARC
  5
2AE
  8
0
 10
282.1250915700465
 20
78.57302351868425
 30
0.0
 40
42.46017468901209
 50
120.3355945818918
 51
165.5288402744051
  0
POLYLINE
  5
2AF
  8
0
 66
     1
 10
0.0
 20
0.0
 30
0.0
  0
VERTEX
  5
7B4
  8
0
 10
236.5036478212843
 20
90.68995215302756
 30
0.0
  0
VERTEX
  5
7B5
  8
0
 10
236.392391995462
 20
90.21289435949171
 30
0.0
  0
VERTEX
  5
7B6
  8
0
 10
236.3720389210835
 20
89.72522374656042
 30
0.0
  0
VERTEX
  5
7B7
  8
0
 10
236.4433707553829
 20
89.24568122239981
 30
0.0
  0
VERTEX
  5
7B8
  8
0
 10
236.6036462559715
 20
88.79269533728286
 30
0.0
  0
VERTEX
  5
7B9
  8
0
 10
236.8467061252452
 20
88.38367408473717
 30
0.0
  0
VERTEX
  5
7BA
  8
0
 10
237.1632097087373
 20
88.03433592211631
 30
0.0
  0
VERTEX
  5
7BB
  8
0
 10
237.5409939512315
 20
87.75810571909874
 30
0.0
  0
VERTEX
  5
7BC
  8
0
 10
237.9655408161526
 20
87.5655988474747
 30
0.0
  0
VERTEX
  5
7BD
  8
0
 10
238.4205352055702
 20
87.46421323836161
 30
0.0
  0
VERTEX
  5
7BE
  8
0
 10
238.888491940263
 20
87.45784508386
 30
0.0
  0
VERTEX
  5
7BF
  8
0
 10
239.3514277053497
 20
87.54673910857605
 30
0.0
  0
VERTEX
  5
7C0
  8
0
 10
239.7915521389955
 20
87.72747916499226
 30
0.0
  0
VERTEX
  5
7C1
  8
0
 10
240.19195150604
 20
87.99311951410077
 30
0.0
  0
VERTEX
  5
7C2
  8
0
 10
240.5372386833542
 20
88.33345174625815
 30
0.0
  0
VERTEX
  5
7C3
  8
0
 10
240.8141444783533
 20
88.73539708464311
 30
0.0
  0
VERTEX
  5
7C4
  8
0
 10
241.0120275566258
 20
89.18350899531505
 30
0.0
  0
SEQEND
  5
927
  8
0
  0
POLYLINE
  5
2B0
  8
0
 66
     1
 10
0.0
 20
0.0
 30
0.0
  0
VERTEX
  5
7C5
  8
0
 10
260.6799899532734
 20
115.2196338840058
 30
0.0
  0
VERTEX
  5
7C6
  8
0
 10
261.0595290166863
 20
115.5293503812499
 30
0.0
  0
VERTEX
  5
7C7
  8
0
 10
261.3734571279762
 20
115.9032395720656
 30
0.0
  0
VERTEX
  5
7C8
  8
0
 10
261.6097102058793
 20
116.3269331045293
 30
0.0
  0
VERTEX
  5
7C9
  8
0
 10
261.7592091771041
 20
116.7841486737986
 30
0.0
  0
VERTEX
  5
7CA
  8
0
 10
261.8162088800262
 20
117.2573157419558
 30
0.0
  0
VERTEX
  5
7CB
  8
0
 10
261.7785188480282
 20
117.7282507639269
 30
0.0
  0
VERTEX
  5
7CC
  8
0
 10
261.6475874879031
 20
118.1788559709208
 30
0.0
  0
VERTEX
  5
7CD
  8
0
 10
261.4284464183931
 20
118.5918148575351
 30
0.0
  0
VERTEX
  5
7CE
  8
0
 10
261.129517107904
 20
118.9512576453472
 30
0.0
  0
VERTEX
  5
7CF
  8
0
 10
260.7622872421961
 20
119.2433711495994
 30
0.0
  0
VERTEX
  5
7D0
  8
0
 10
260.340869259064
 20
119.4569296121424
 30
0.0
  0
VERTEX
  5
7D1
  8
0
 10
259.8814580152654
 20
119.5837261010255
 30
0.0
  0
VERTEX
  5
7D2
  8
0
 10
259.4017084272587
 20
119.6188878982895
 30
0.0
  0
VERTEX
  5
7D3
  8
0
 10
258.9200570026642
 20
119.5610637557842
 30
0.0
  0
VERTEX
  5
7D4
  8
0
 10
258.4550133356161
 20
119.4124758228781
 30
0.0
  0
VERTEX
  5
7D5
  8
0
 10
258.0244487934393
 20
119.1788342505037
 30
0.0
  0
SEQEND
  5
928
  8
0
  0
ARC
  5
2B2
  8
0
 10
281.5346590067983
 20
80.96207866064009
 30
0.0
 40
46.46017468901209
 50
192.3355945818916
 51
237.5288402744048
  0
ARC
  5
2B3
  8
0
 10
282.2130374929635
 20
81.4096388775712
 30
0.0
 40
42.46017468901209
 50
192.3355945818916
 51
237.528840274405
  0
POLYLINE
  5
2B4
  8
0
 66
     1
 10
0.0
 20
0.0
 30
0.0
  0
VERTEX
  5
7D6
  8
0
 10
256.5913521314996
 20
41.76540438515853
 30
0.0
  0
VERTEX
  5
7D7
  8
0
 10
257.010681113789
 20
41.5121748415329
 30
0.0
  0
VERTEX
  5
7D8
  8
0
 10
257.4681939821522
 20
41.34211941046556
 30
0.0
  0
VERTEX
  5
7D9
  8
0
 10
257.9463087736342
 20
41.26177322680422
 30
0.0
  0
VERTEX
  5
7DA
  8
0
 10
258.4266518049283
 20
41.27422394932834
 30
0.0
  0
VERTEX
  5
7DB
  8
0
 10
258.8907637627212
 20
41.37899310375376
 30
0.0
  0
VERTEX
  5
7DC
  8
0
 10
259.3208090847519
 20
41.57205447023114
 30
0.0
  0
VERTEX
  5
7DD
  8
0
 10
259.7002613704671
 20
41.8459888087168
 30
0.0
  0
VERTEX
  5
7DE
  8
0
 10
260.014538481326
 20
42.19026897620689
 30
0.0
  0
VERTEX
  5
7DF
  8
0
 10
260.2515629242068
 20
42.59166447893931
 30
0.0
  0
VERTEX
  5
7E0
  8
0
 10
260.4022259826946
 20
43.03474991284925
 30
0.0
  0
VERTEX
  5
7E1
  8
0
 10
260.4607377599445
 20
43.50249775319671
 30
0.0
  0
VERTEX
  5
7E2
  8
0
 10
260.4248496811705
 20
43.97693271279316
 30
0.0
  0
VERTEX
  5
7E3
  8
0
 10
260.2959409051136
 20
44.4398225222075
 30
0.0
  0
VERTEX
  5
7E4
  8
0
 10
260.078965323745
 20
44.87337858565553
 30
0.0
  0
VERTEX
  5
7E5
  8
0
 10
259.7822611869751
 20
45.26093958675998
 30
0.0
  0
VERTEX
  5
7E6
  8
0
 10
259.4172306683865
 20
45.58761177359513
 30
0.0
  0
SEQEND
  5
929
  8
0
  0
POLYLINE
  5
2B5
  8
0
 66
     1
 10
0.0
 20
0.0
 30
0.0
  0
VERTEX
  5
7E7
  8
0
 10
240.7331390592142
 20
72.33856063144877
 30
0.0
  0
VERTEX
  5
7E8
  8
0
 10
240.5558651869299
 20
72.79523139198285
 30
0.0
  0
VERTEX
  5
7E9
  8
0
 10
240.2972845570329
 20
73.20933288184858
 30
0.0
  0
VERTEX
  5
7EA
  8
0
 10
239.9673342781166
 20
73.56495141302119
 30
0.0
  0
VERTEX
  5
7EB
  8
0
 10
239.5786941543615
 20
73.84842076478091
 30
0.0
  0
VERTEX
  5
7EC
  8
0
 10
239.1462994077716
 20
74.04884736891104
 30
0.0
  0
VERTEX
  5
7ED
  8
0
 10
238.6867667259685
 20
74.15852894341538
 30
0.0
  0
VERTEX
  5
7EE
  8
0
 10
238.2177556922051
 20
74.17325048689591
 30
0.0
  0
VERTEX
  5
7EF
  8
0
 10
237.7572901374845
 20
74.09244625869256
 30
0.0
  0
VERTEX
  5
7F0
  8
0
 10
237.3230654948425
 20
73.91922151997969
 30
0.0
  0
VERTEX
  5
7F1
  8
0
 10
236.9317687737799
 20
73.66023320032045
 30
0.0
  0
VERTEX
  5
7F2
  8
0
 10
236.5984372878454
 20
73.32543407559704
 30
0.0
  0
VERTEX
  5
7F3
  8
0
 10
236.335880779109
 20
72.92769028841508
 30
0.0
  0
VERTEX
  5
7F4
  8
0
 10
236.1541891469581
 20
72.48228690945865
 30
0.0
  0
VERTEX
  5
7F5
  8
0
 10
236.0603446989223
 20
72.006340540796
 30
0.0
  0
VERTEX
  5
7F6
  8
0
 10
236.0579538245111
 20
71.51814153446101
 30
0.0
  0
VERTEX
  5
7F7
  8
0
 10
236.1471084036874
 20
71.03645110448197
 30
0.0
  0
SEQEND
  5
92A
  8
0
  0
ARC
  5
2B7
  8
0
 10
279.7584573363418
 20
81.58636278022433
 30
0.0
 40
46.46017468901209
 50
264.3355945818917
 51
309.5288402744051
  0
ARC
  5
2B8
  8
0
 10
279.5424327564384
 20
82.369842773044
 30
0.0
 40
42.46017468901209
 50
264.3355945818916
 51
309.5288402744051
  0
POLYLINE
  5
2B9
  8
0
 66
     1
 10
0.0
 20
0.0
 30
0.0
  0
VERTEX
  5
7F8
  8
0
 10
309.3288041027604
 20
45.75142976441875
 30
0.0
  0
VERTEX
  5
7F9
  8
0
 10
309.6992194921054
 20
46.07198309303835
 30
0.0
  0
VERTEX
  5
7FA
  8
0
 10
310.0023310694228
 20
46.4545536695985
 30
0.0
  0
VERTEX
  5
7FB
  8
0
 10
310.2264904267834
 20
46.88443952139005
 30
0.0
  0
VERTEX
  5
7FC
  8
0
 10
310.3630832457937
 20
47.34512037621141
 30
0.0
  0
VERTEX
  5
7FD
  8
0
 10
310.4068603410213
 20
47.8188925271646
 30
0.0
  0
VERTEX
  5
7FE
  8
0
 10
310.3561393832471
 20
48.28754917618296
 30
0.0
  0
VERTEX
  5
7FF
  8
0
 10
310.2128695504337
 20
48.73308011107041
 30
0.0
  0
VERTEX
  5
800
  8
0
 10
309.9825566219095
 20
49.13836382785584
 30
0.0
  0
VERTEX
  5
801
  8
0
 10
309.6740513943567
 20
49.48782550058891
 30
0.0
  0
VERTEX
  5
802
  8
0
 10
309.2992095506585
 20
49.76803551316686
 30
0.0
  0
VERTEX
  5
803
  8
0
 10
308.8724360526543
 20
49.9682255519499
 30
0.0
  0
VERTEX
  5
804
  8
0
 10
308.4101315665352
 20
50.08070242601547
 30
0.0
  0
VERTEX
  5
805
  8
0
 10
307.9300621944395
 20
50.10114371217099
 30
0.0
  0
VERTEX
  5
806
  8
0
 10
307.4506767331106
 20
50.0287638632531
 30
0.0
  0
VERTEX
  5
807
  8
0
 10
306.9903976969851
 20
49.86634439626463
 30
0.0
  0
VERTEX
  5
808
  8
0
 10
306.5669133512938
 20
49.62012700023606
 30
0.0
  0
SEQEND
  5
92B
  8
0
  0
POLYLINE
  5
2BA
  8
0
 66
     1
 10
0.0
 20
0.0
 30
0.0
  0
VERTEX
  5
809
  8
0
 10
275.3515472912611
 20
40.11699773700902
 30
0.0
  0
VERTEX
  5
80A
  8
0
 10
274.8624469494591
 20
40.08951929144324
 30
0.0
  0
VERTEX
  5
80B
  8
0
 10
274.3887072200605
 20
39.97155889615652
 30
0.0
  0
VERTEX
  5
80C
  8
0
 10
273.9485336551895
 20
39.76764970298676
 30
0.0
  0
VERTEX
  5
80D
  8
0
 10
273.5588418780922
 20
39.48562782787389
 30
0.0
  0
VERTEX
  5
80E
  8
0
 10
273.2346075252206
 20
39.13633121331881
 30
0.0
  0
VERTEX
  5
80F
  8
0
 10
272.9882907409228
 20
38.73318313233107
 30
0.0
  0
VERTEX
  5
810
  8
0
 10
272.8293573410836
 20
38.29167633957498
 30
0.0
  0
VERTEX
  5
811
  8
0
 10
272.7639150471276
 20
37.82877769349631
 30
0.0
  0
VERTEX
  5
812
  8
0
 10
272.7944787697112
 20
37.36227612946728
 30
0.0
  0
VERTEX
  5
813
  8
0
 10
272.919873962116
 20
36.91009904097646
 30
0.0
  0
VERTEX
  5
814
  8
0
 10
273.13528175742
 20
36.48962333995071
 30
0.0
  0
VERTEX
  5
815
  8
0
 10
273.4324241548521
 20
36.11700767177496
 30
0.0
  0
VERTEX
  5
816
  8
0
 10
273.7998821387181
 20
35.80657144761194
 30
0.0
  0
VERTEX
  5
817
  8
0
 10
274.2235345047709
 20
35.57024455746159
 30
0.0
  0
VERTEX
  5
818
  8
0
 10
274.6871005301701
 20
35.41710891117872
 30
0.0
  0
VERTEX
  5
819
  8
0
 10
275.1727656325306
 20
35.35304942577055
 30
0.0
  0
SEQEND
  5
92C
  8
0
  0
ARC
  5
2BC
  8
0
 10
278.6158513547834
 20
80.09000900955222
 30
0.0
 40
46.46017468901209
 50
336.3355945818917
 51
21.52884027440525
  0
ARC
  5
2BD
  8
0
 10
277.8039623358325
 20
80.12666605768922
 30
0.0
 40
42.46017468901209
 50
336.3355945818917
 51
21.52884027440521
  0
POLYLINE
  5
2BE
  8
0
 66
     1
 10
0.0
 20
0.0
 30
0.0
  0
VERTEX
  5
81A
  8
0
 10
321.8346375908493
 20
97.13947669669018
 30
0.0
  0
VERTEX
  5
81B
  8
0
 10
321.6442379091312
 20
97.59081909260964
 30
0.0
  0
VERTEX
  5
81C
  8
0
 10
321.3740582979337
 20
97.9973161430868
 30
0.0
  0
VERTEX
  5
81D
  8
0
 10
321.0344816081968
 20
98.34334639443802
 30
0.0
  0
VERTEX
  5
81E
  8
0
 10
320.6385575816703
 20
98.61561209815984
 30
0.0
  0
VERTEX
  5
81F
  8
0
 10
320.2015013566568
 20
98.80365023594665
 30
0.0
  0
VERTEX
  5
820
  8
0
 10
319.7401087587796
 20
98.90023460761626
 30
0.0
  0
VERTEX
  5
821
  8
0
 10
319.2721108468232
 20
98.90165352993054
 30
0.0
  0
VERTEX
  5
822
  8
0
 10
318.815492518088
 20
98.80785247450073
 30
0.0
  0
VERTEX
  5
823
  8
0
 10
318.3878013588724
 20
98.62243616328274
 30
0.0
  0
VERTEX
  5
824
  8
0
 10
318.0054733005734
 20
98.352530041134
 30
0.0
  0
VERTEX
  5
825
  8
0
 10
317.6832009960593
 20
98.00850644896363
 30
0.0
  0
VERTEX
  5
826
  8
0
 10
317.4333691892601
 20
97.60358602048804
 30
0.0
  0
VERTEX
  5
827
  8
0
 10
317.265578776404
 20
97.15332962069157
 30
0.0
  0
VERTEX
  5
828
  8
0
 10
317.1862778489589
 20
96.67504035051171
 30
0.0
  0
VERTEX
  5
829
  8
0
 10
317.1985138970942
 20
96.18709859837374
 30
0.0
  0
VERTEX
  5
82A
  8
0
 10
317.301816696342
 20
95.70825569217145
 30
0.0
  0
SEQEND
  5
92D
  8
0
  0
POLYLINE
  5
2BF
  8
0
 66
     1
 10
0.0
 20
0.0
 30
0.0
  0
VERTEX
  5
82B
  8
0
 10
316.6937511091441
 20
63.08404995015975
 30
0.0
  0
VERTEX
  5
82C
  8
0
 10
316.5687443462857
 20
62.61039657630801
 30
0.0
  0
VERTEX
  5
82D
  8
0
 10
316.5345377215931
 20
62.12339155282871
 30
0.0
  0
VERTEX
  5
82E
  8
0
 10
316.59244577647
 20
61.64175020965862
 30
0.0
  0
VERTEX
  5
82F
  8
0
 10
316.7402431368426
 20
61.18398175350817
 30
0.0
  0
VERTEX
  5
830
  8
0
 10
316.9722500330375
 20
60.76767796942774
 30
0.0
  0
VERTEX
  5
831
  8
0
 10
317.279550570145
 20
60.40883717837367
 30
0.0
  0
VERTEX
  5
832
  8
0
 10
317.6503353608602
 20
60.12124943070593
 30
0.0
  0
VERTEX
  5
833
  8
0
 10
318.0703553536142
 20
59.91596656228634
 30
0.0
  0
VERTEX
  5
834
  8
0
 10
318.5234694156356
 20
59.80087747862431
 30
0.0
  0
VERTEX
  5
835
  8
0
 10
318.9922646276301
 20
59.78040498866224
 30
0.0
  0
VERTEX
  5
836
  8
0
 10
319.4587254525043
 20
59.85533583870829
 30
0.0
  0
VERTEX
  5
837
  8
0
 10
319.9049260623523
 20
60.0227904782169
 30
0.0
  0
VERTEX
  5
838
  8
0
 10
320.3137192179699
 20
60.27633371930138
 30
0.0
  0
VERTEX
  5
839
  8
0
 10
320.6693952276407
 20
60.60622203739556
 30
0.0
  0
VERTEX
  5
83A
  8
0
 10
320.9582856617783
 20
60.99977800943856
 30
0.0
  0
VERTEX
  5
83B
  8
0
 10
321.1692886230105
 20
61.44187750013351
 30
0.0
  0
SEQEND
  5
92E
  8
0
  0
ARC
  5
2CF
  8
0
 10
292.8677874257309
 20
116.8817157155047
 30
0.0
 40
6.000000000000002
 50
165.1900955303493
 51
336.3666439588092
  0
ARC
  5
2D0
  8
0
 10
249.0828104968626
 20
103.4771205137117
 30
0.0
 40
6.020720575218287
 50
235.5057005021716
 51
50.25305981741541
  0
ARC
  5
2D1
  8
0
 10
248.3157318936322
 20
57.68212279940886
 30
0.0
 40
6.020377707070634
 50
307.8412248036515
 51
122.5663870863677
  0
ARC
  5
2D2
  8
0
 10
291.6296586626136
 20
42.81665640181751
 30
0.0
 40
6.002049997958636
 50
21.20821057910167
 51
192.847526833752
  0
ARC
  5
2D3
  8
0
 10
319.1541314525601
 20
79.40110964767122
 30
0.0
 40
6.000000000000002
 50
94.69684225897598
 51
263.385653294671
  0
ARC
  5
2D4
  8
0
 10
280.0280848298833
 20
80.05588188583855
 30
0.0
 40
39.00000000000001
 50
151.7506690319113
 51
206.3331059742391
  0
ARC
  5
2D5
  8
0
 10
280.0280848298833
 20
80.05588188583855
 30
0.0
 40
39.00000000000001
 50
7.84770848920221
 51
61.95491817303876
  0
ARC
  5
2D6
  8
0
 10
280.0280848298833
 20
80.05588188583855
 30
0.0
 40
39.00000000000001
 50
296.1299441020963
 51
350.2347870644454
  0
ARC
  5
2D7
  8
0
 10
280.0280848298833
 20
80.05588188583855
 30
0.0
 40
39.00000000000001
 50
224.07450591578
 51
278.4780408744531
  0
CIRCLE
  5
2D8
  8
0
 10
291.9403587102784
 20
114.0854681290454
 30
0.0
 40
1.5
  0
CIRCLE
  5
2D9
  8
0
 10
251.4714840200802
 20
101.7179360257197
 30
0.0
 40
1.5
  0
CIRCLE
  5
2DA
  8
0
 10
250.7281359949362
 20
59.40797144606917
 30
0.0
 40
1.5
  0
CIRCLE
  5
2DB
  8
0
 10
290.7375963401253
 20
45.62650737636673
 30
0.0
 40
1.5
  0
CIRCLE
  5
2DC
  8
0
 10
316.2081507301373
 20
79.41905874620562
 30
0.0
 40
1.5
  0
CIRCLE
  5
33D
  8
0
 10
274.3615517161613
 20
109.2180189097523
 30
0.0
 40
1.5
  0
ARC
  5
33E
  8
0
 10
285.7880210400464
 20
73.14714691299501
 30
0.0
 40
40.41964556066728
 50
105.6823949254267
 51
146.9975366364578
  0
ARC
  5
33F
  8
0
 10
284.8020856821238
 20
73.69737430564955
 30
0.0
 40
33.9900657881629
 50
105.6823949254268
 51
146.9975366364578
  0
POLYLINE
  5
340
  8
0
 66
     1
 10
0.0
 20
0.0
 30
0.0
  0
VERTEX
  5
83C
  8
0
 10
275.6144135164966
 20
106.4221547092001
 30
0.0
  0
VERTEX
  5
83D
  8
0
 10
276.1502855133531
 20
106.5472963670579
 30
0.0
  0
VERTEX
  5
83E
  8
0
 10
276.6520408323101
 20
106.7732628058153
 30
0.0
  0
VERTEX
  5
83F
  8
0
 10
277.1009069565694
 20
107.0915997877053
 30
0.0
  0
VERTEX
  5
840
  8
0
 10
277.480090149145
 20
107.4903971523086
 30
0.0
  0
VERTEX
  5
841
  8
0
 10
277.7754037684944
 20
107.9547344195758
 30
0.0
  0
VERTEX
  5
842
  8
0
 10
277.9757990430936
 20
108.4672390200085
 30
0.0
  0
VERTEX
  5
843
  8
0
 10
278.0737784467252
 20
109.0087362665485
 30
0.0
  0
VERTEX
  5
844
  8
0
 10
278.0656762085819
 20
109.5589667503309
 30
0.0
  0
VERTEX
  5
845
  8
0
 10
277.9517954632711
 20
110.0973443198802
 30
0.0
  0
VERTEX
  5
846
  8
0
 10
277.7363969094316
 20
110.6037262849523
 30
0.0
  0
VERTEX
  5
847
  8
0
 10
277.4275394012845
 20
111.059167028856
 30
0.0
  0
VERTEX
  5
848
  8
0
 10
277.0367784371792
 20
111.4466268338395
 30
0.0
  0
VERTEX
  5
849
  8
0
 10
276.5787338257865
 20
111.7516093997683
 30
0.0
  0
VERTEX
  5
84A
  8
0
 10
276.0705427051434
 20
111.962704204171
 30
0.0
  0
VERTEX
  5
84B
  8
0
 10
275.5312183791223
 20
112.0720134119637
 30
0.0
  0
VERTEX
  5
84C
  8
0
 10
274.9809389596185
 20
112.0754473625848
 30
0.0
  0
VERTEX
  5
84D
  8
0
 10
274.4402924289731
 20
111.9728775792782
 30
0.0
  0
SEQEND
  5
92F
  8
0
  0
POLYLINE
  5
341
  8
0
 66
     1
 10
0.0
 20
0.0
 30
0.0
  0
VERTEX
  5
84E
  8
0
 10
251.8902004434906
 20
95.16272108342453
 30
0.0
  0
VERTEX
  5
84F
  8
0
 10
251.6563968199703
 20
94.72216915410463
 30
0.0
  0
VERTEX
  5
850
  8
0
 10
251.5162422935639
 20
94.24182929139276
 30
0.0
  0
VERTEX
  5
851
  8
0
 10
251.4751229241218
 20
93.74016068683522
 30
0.0
  0
VERTEX
  5
852
  8
0
 10
251.5346189059516
 20
93.23644218356618
 30
0.0
  0
VERTEX
  5
853
  8
0
 10
251.6924438418372
 20
92.75003140117767
 30
0.0
  0
VERTEX
  5
854
  8
0
 10
251.9425326080019
 20
92.29962083325456
 30
0.0
  0
VERTEX
  5
855
  8
0
 10
252.2752744334133
 20
91.90251950532901
 30
0.0
  0
VERTEX
  5
856
  8
0
 10
252.6778822363246
 20
91.57398779873618
 30
0.0
  0
VERTEX
  5
857
  8
0
 10
253.134884024655
 20
91.32665100271772
 30
0.0
  0
VERTEX
  5
858
  8
0
 10
253.6287174759686
 20
91.17001413163658
 30
0.0
  0
VERTEX
  5
859
  8
0
 10
254.1404048476763
 20
91.11009665260543
 30
0.0
  0
VERTEX
  5
85A
  8
0
 10
254.650282281041
 20
91.1492011607413
 30
0.0
  0
VERTEX
  5
85B
  8
0
 10
255.138755472241
 20
91.28582489172662
 30
0.0
  0
VERTEX
  5
85C
  8
0
 10
255.5870526704775
 20
91.51471747219908
 30
0.0
  0
VERTEX
  5
85D
  8
0
 10
255.9779460658301
 20
91.82708268865557
 30
0.0
  0
VERTEX
  5
85E
  8
0
 10
256.2964138443311
 20
92.21091652100408
 30
0.0
  0
SEQEND
  5
930
  8
0
  0
CIRCLE
  5
342
  8
0
 10
253.9772930364892
 20
93.64487801319186
 30
0.0
 40
1.5
  0
CIRCLE
  5
344
  8
0
 10
250.6491745999923
 20
83.53526824433715
 30
0.0
 40
1.5
  0
ARC
  5
345
  8
0
 10
288.4855856677412
 20
83.25597390414333
 30
0.0
 40
40.41964556066727
 50
177.6823949254266
 51
218.9975366364577
  0
ARC
  5
346
  8
0
 10
287.6576175395598
 20
82.48832327244617
 30
0.0
 40
33.99006578816289
 50
177.6823949254267
 51
218.9975366364578
  0
POLYLINE
  5
347
  8
0
 66
     1
 10
0.0
 20
0.0
 30
0.0
  0
VERTEX
  5
85F
  8
0
 10
253.6953550545106
 20
83.86284107162814
 30
0.0
  0
VERTEX
  5
860
  8
0
 10
253.7419318191833
 20
84.41115652512093
 30
0.0
  0
VERTEX
  5
861
  8
0
 10
253.6820758857147
 20
84.95818166053519
 30
0.0
  0
VERTEX
  5
862
  8
0
 10
253.5180266853058
 20
85.48345025029815
 30
0.0
  0
VERTEX
  5
863
  8
0
 10
253.2559219035059
 20
85.96731005944122
 30
0.0
  0
VERTEX
  5
864
  8
0
 10
252.905567846762
 20
86.39165810818129
 30
0.0
  0
VERTEX
  5
865
  8
0
 10
252.4800725523328
 20
86.74061797115269
 30
0.0
  0
VERTEX
  5
866
  8
0
 10
251.995355368276
 20
87.00113377302725
 30
0.0
  0
VERTEX
  5
867
  8
0
 10
251.4695513519317
 20
87.16345865695641
 30
0.0
  0
VERTEX
  5
868
  8
0
 10
250.9223327705515
 20
87.22151945042916
 30
0.0
  0
VERTEX
  5
869
  8
0
 10
250.3741730892353
 20
87.17314388505173
 30
0.0
  0
VERTEX
  5
86A
  8
0
 10
249.8455809831016
 20
87.02014186911877
 30
0.0
  0
VERTEX
  5
86B
  8
0
 10
249.3563330321226
 20
86.76823777226974
 30
0.0
  0
VERTEX
  5
86C
  8
0
 10
248.9247338063375
 20
86.42685625571093
 30
0.0
  0
VERTEX
  5
86D
  8
0
 10
248.566931024385
 20
86.00876966088465
 30
0.0
  0
VERTEX
  5
86E
  8
0
 10
248.2963114078023
 20
85.52962014907541
 30
0.0
  0
VERTEX
  5
86F
  8
0
 10
248.1229998344061
 20
85.0073344704729
 30
0.0
  0
VERTEX
  5
870
  8
0
 10
248.0534805292756
 20
84.46145325833919
 30
0.0
  0
SEQEND
  5
931
  8
0
  0
POLYLINE
  5
348
  8
0
 66
     1
 10
0.0
 20
0.0
 30
0.0
  0
VERTEX
  5
871
  8
0
 10
257.0725277563661
 20
57.82041729716973
 30
0.0
  0
VERTEX
  5
872
  8
0
 10
257.4192682464979
 20
57.46191880442281
 30
0.0
  0
VERTEX
  5
873
  8
0
 10
257.8327884724683
 20
57.1801907481421
 30
0.0
  0
VERTEX
  5
874
  8
0
 10
258.2971970838979
 20
56.98605977953559
 30
0.0
  0
VERTEX
  5
875
  8
0
 10
258.7946471182927
 20
56.88698624285691
 30
0.0
  0
VERTEX
  5
876
  8
0
 10
259.3060218498043
 20
56.88677747855954
 30
0.0
  0
VERTEX
  5
877
  8
0
 10
259.8116694342829
 20
56.98544150933835
 30
0.0
  0
VERTEX
  5
878
  8
0
 10
260.2921581186275
 20
57.17918673182194
 30
0.0
  0
VERTEX
  5
879
  8
0
 10
260.7290229921597
 20
57.46056762576385
 30
0.0
  0
VERTEX
  5
87A
  8
0
 10
261.1054755827865
 20
57.8187708812101
 30
0.0
  0
VERTEX
  5
87B
  8
0
 10
261.407049028567
 20
58.2400309479366
 30
0.0
  0
VERTEX
  5
87C
  8
0
 10
261.6221540311043
 20
58.70815903782441
 30
0.0
  0
VERTEX
  5
87D
  8
0
 10
261.7425242257831
 20
59.2051652509084
 30
0.0
  0
VERTEX
  5
87E
  8
0
 10
261.7635338535263
 20
59.71194991714405
 30
0.0
  0
VERTEX
  5
87F
  8
0
 10
261.6843755261221
 20
60.20903758601604
 30
0.0
  0
VERTEX
  5
880
  8
0
 10
261.5080912537002
 20
60.67732545717959
 30
0.0
  0
VERTEX
  5
881
  8
0
 10
261.2414555419882
 20
61.09881749036476
 30
0.0
  0
SEQEND
  5
932
  8
0
  0
CIRCLE
  5
349
  8
0
 10
259.1610293790949
 20
59.33632100435625
 30
0.0
 40
1.5
  0
CIRCLE
  5
34B
  8
0
 10
267.7473944707953
 20
53.04705105324869
 30
0.0
 40
1.5
  0
ARC
  5
34C
  8
0
 10
279.7051131990917
 20
88.94530965490074
 30
0.0
 40
40.41964556066728
 50
249.6823949254266
 51
290.9975366364577
  0
ARC
  5
34D
  8
0
 10
280.1793361121966
 20
87.92064808037203
 30
0.0
 40
33.9900657881629
 50
249.6823949254267
 51
290.9975366364577
  0
POLYLINE
  5
34E
  8
0
 66
     1
 10
0.0
 20
0.0
 30
0.0
  0
VERTEX
  5
882
  8
0
 10
268.3771757272179
 20
56.04536639485764
 30
0.0
  0
VERTEX
  5
883
  8
0
 10
267.8700897540151
 20
56.25910232381523
 30
0.0
  0
VERTEX
  5
884
  8
0
 10
267.3313414337462
 20
56.37121601144429
 30
0.0
  0
VERTEX
  5
885
  8
0
 10
266.781087327807
 20
56.37751287125052
 30
0.0
  0
VERTEX
  5
886
  8
0
 10
266.2399144714651
 20
56.27775731448773
 30
0.0
  0
VERTEX
  5
887
  8
0
 10
265.7280701369516
 20
56.07568156440158
 30
0.0
  0
VERTEX
  5
888
  8
0
 10
265.264704308342
 20
55.77884601999471
 30
0.0
  0
VERTEX
  5
889
  8
0
 10
264.8671532100321
 20
55.39835639361964
 30
0.0
  0
VERTEX
  5
88A
  8
0
 10
264.5502906946535
 20
54.94844820532531
 30
0.0
  0
VERTEX
  5
88B
  8
0
 10
264.3259717573958
 20
54.44595417955592
 30
0.0
  0
VERTEX
  5
88C
  8
0
 10
264.2025889969195
 20
53.90967447085565
 30
0.0
  0
VERTEX
  5
88D
  8
0
 10
264.1847586172912
 20
53.35967328075813
 30
0.0
  0
VERTEX
  5
88E
  8
0
 10
264.2731477187652
 20
52.81652818201658
 30
0.0
  0
VERTEX
  5
88F
  8
0
 10
264.4644493391045
 20
52.30056023572345
 30
0.0
  0
VERTEX
  5
890
  8
0
 10
264.7515061792318
 20
51.83107370547733
 30
0.0
  0
VERTEX
  5
891
  8
0
 10
265.1235783841823
 20
51.42563381369359
 30
0.0
  0
VERTEX
  5
892
  8
0
 10
265.5667453606836
 20
51.09940956185887
 30
0.0
  0
VERTEX
  5
893
  8
0
 10
266.064426597884
 20
50.8646062022469
 30
0.0
  0
SEQEND
  5
933
  8
0
  0
POLYLINE
  5
34F
  8
0
 66
     1
 10
0.0
 20
0.0
 30
0.0
  0
VERTEX
  5
894
  8
0
 10
294.1885963158489
 20
51.20969697858956
 30
0.0
  0
VERTEX
  5
895
  8
0
 10
294.6366973475465
 20
51.42868465447624
 30
0.0
  0
VERTEX
  5
896
  8
0
 10
295.032421428638
 20
51.7349070028222
 30
0.0
  0
VERTEX
  5
897
  8
0
 10
295.3605611046117
 20
52.11659607051197
 30
0.0
  0
VERTEX
  5
898
  8
0
 10
295.6085061517429
 20
52.55908376072793
 30
0.0
  0
VERTEX
  5
899
  8
0
 10
295.7667281809192
 20
53.04536551968503
 30
0.0
  0
VERTEX
  5
89A
  8
0
 10
295.8291468082916
 20
53.5567538120965
 30
0.0
  0
VERTEX
  5
89B
  8
0
 10
295.7933633210149
 20
54.07359627267483
 30
0.0
  0
VERTEX
  5
89C
  8
0
 10
295.6607528584374
 20
54.5760309355086
 30
0.0
  0
VERTEX
  5
89D
  8
0
 10
295.4364115662672
 20
55.04474951827368
 30
0.0
  0
VERTEX
  5
89E
  8
0
 10
295.1289607545505
 20
55.46173942869486
 30
0.0
  0
VERTEX
  5
89F
  8
0
 10
294.750215585561
 20
55.81097597836525
 30
0.0
  0
VERTEX
  5
8A0
  8
0
 10
294.3147310237403
 20
56.07903820253514
 30
0.0
  0
VERTEX
  5
8A1
  8
0
 10
293.8392424965765
 20
56.25562462026073
 30
0.0
  0
VERTEX
  5
8A2
  8
0
 10
293.3420227615117
 20
56.33394911453962
 30
0.0
  0
VERTEX
  5
8A3
  8
0
 10
292.8421796941201
 20
56.31100171898154
 30
0.0
  0
VERTEX
  5
8A4
  8
0
 10
292.3589219831666
 20
56.18766428912875
 30
0.0
  0
SEQEND
  5
934
  8
0
  0
CIRCLE
  5
350
  8
0
 10
293.3922687112561
 20
53.66442006353547
 30
0.0
 40
1.5
  0
CIRCLE
  5
352
  8
0
 10
302.0270526142393
 20
59.88704723818236
 30
0.0
 40
1.5
  0
ARC
  5
353
  8
0
 10
271.5809181484888
 20
82.35268553113042
 30
0.0
 40
40.41964556066727
 50
321.6823949254265
 51
2.997536636457792
  0
ARC
  5
354
  8
0
 10
272.701972155213
 20
82.48706048280286
 30
0.0
 40
33.99006578816289
 50
321.6823949254267
 51
2.997536636457752
  0
POLYLINE
  5
355
  8
0
 66
     1
 10
0.0
 20
0.0
 30
0.0
  0
VERTEX
  5
8A5
  8
0
 10
299.3700983816678
 20
61.41253520099598
 30
0.0
  0
VERTEX
  5
8A6
  8
0
 10
299.0101252503375
 20
60.99631581621603
 30
0.0
  0
VERTEX
  5
8A7
  8
0
 10
298.7370164104979
 20
60.51858075036061
 30
0.0
  0
VERTEX
  5
8A8
  8
0
 10
298.5609898709872
 20
59.99720383398028
 30
0.0
  0
VERTEX
  5
8A9
  8
0
 10
298.488631433779
 20
59.45169170019116
 30
0.0
  0
VERTEX
  5
8AA
  8
0
 10
298.5226482948445
 20
58.90245396959571
 30
0.0
  0
VERTEX
  5
8AB
  8
0
 10
298.6617677579677
 20
58.3700396511118
 30
0.0
  0
VERTEX
  5
8AC
  8
0
 10
298.9007848510042
 20
57.87436832777068
 30
0.0
  0
VERTEX
  5
8AD
  8
0
 10
299.2307570630837
 20
57.43398489165874
 30
0.0
  0
VERTEX
  5
8AE
  8
0
 10
299.6393389169183
 20
57.06536571111673
 30
0.0
  0
VERTEX
  5
8AF
  8
0
 10
300.1112438586345
 20
56.7823021890405
 30
0.0
  0
VERTEX
  5
8B0
  8
0
 10
300.6288161841255
 20
56.59538477564029
 30
0.0
  0
VERTEX
  5
8B1
  8
0
 10
301.1726916040504
 20
56.51160674064413
 30
0.0
  0
VERTEX
  5
8B2
  8
0
 10
301.7225217333083
 20
56.53410252928831
 30
0.0
  0
VERTEX
  5
8B3
  8
0
 10
302.2577353991625
 20
56.66203049116223
 30
0.0
  0
VERTEX
  5
8B4
  8
0
 10
302.7583082846738
 20
56.89060436945407
 30
0.0
  0
VERTEX
  5
8B5
  8
0
 10
303.2055121122393
 20
57.21127237246822
 30
0.0
  0
VERTEX
  5
8B6
  8
0
 10
303.5826153375227
 20
57.61203712768904
 30
0.0
  0
SEQEND
  5
935
  8
0
  0
POLYLINE
  5
356
  8
0
 66
     1
 10
0.0
 20
0.0
 30
0.0
  0
VERTEX
  5
8B7
  8
0
 10
311.9452609015052
 20
84.46635091784239
 30
0.0
  0
VERTEX
  5
8B8
  8
0
 10
311.8754620793563
 20
84.96019123740463
 30
0.0
  0
VERTEX
  5
8B9
  8
0
 10
311.7065127856674
 20
85.43117511307796
 30
0.0
  0
VERTEX
  5
8BA
  8
0
 10
311.4449056470469
 20
85.861202898651
 30
0.0
  0
VERTEX
  5
8BB
  8
0
 10
311.1006940791213
 20
86.23374886748658
 30
0.0
  0
VERTEX
  5
8BC
  8
0
 10
310.6871059394097
 20
86.53449628692853
 30
0.0
  0
VERTEX
  5
8BD
  8
0
 10
310.2200351881783
 20
86.75188760230878
 30
0.0
  0
VERTEX
  5
8BE
  8
0
 10
309.7174310924607
 20
86.87756858729172
 30
0.0
  0
VERTEX
  5
8BF
  8
0
 10
309.1986084457918
 20
86.90670939210716
 30
0.0
  0
VERTEX
  5
8C0
  8
0
 10
308.6835053115237
 20
86.83819015196842
 30
0.0
  0
VERTEX
  5
8C1
  8
0
 10
308.1919168142335
 20
86.67464402284797
 30
0.0
  0
VERTEX
  5
8C2
  8
0
 10
307.7427344241859
 20
86.42235599077021
 30
0.0
  0
VERTEX
  5
8C3
  8
0
 10
307.353219968726
 20
86.09102134332312
 30
0.0
  0
VERTEX
  5
8C4
  8
0
 10
307.038342269935
 20
85.69337308519347
 30
0.0
  0
VERTEX
  5
8C5
  8
0
 10
306.8102019011919
 20
85.24469261593747
 30
0.0
  0
VERTEX
  5
8C6
  8
0
 10
306.6775661689249
 20
84.76222247436574
 30
0.0
  0
VERTEX
  5
8C7
  8
0
 10
306.6455321899421
 20
84.2645037174465
 30
0.0
  0
SEQEND
  5
936
  8
0
  0
CIRCLE
  5
357
  8
0
 10
309.3646017529581
 20
84.46754951012142
 30
0.0
 40
1.5
  0
CIRCLE
  5
359
  8
0
 10
306.114826598812
 20
94.60261455447937
 30
0.0
 40
1.5
  0
ARC
  5
35A
  8
0
 10
275.340361944632
 20
72.58888399683045
 30
0.0
 40
40.41964556066728
 50
33.68239492542665
 51
74.99753663645768
  0
ARC
  5
35B
  8
0
 10
275.5589885109071
 20
73.6965938587293
 30
0.0
 40
33.9900657881629
 50
33.68239492542675
 51
74.99753663645784
  0
POLYLINE
  5
35C
  8
0
 66
     1
 10
0.0
 20
0.0
 30
0.0
  0
VERTEX
  5
8C8
  8
0
 10
303.8429573201072
 20
92.54710262331804
 30
0.0
  0
VERTEX
  5
8C9
  8
0
 10
304.1275676631111
 20
92.07612896778986
 30
0.0
  0
VERTEX
  5
8CA
  8
0
 10
304.4975254377312
 20
91.6687587718445
 30
0.0
  0
VERTEX
  5
8CB
  8
0
 10
304.9389891593307
 20
91.34023325676561
 30
0.0
  0
VERTEX
  5
8CC
  8
0
 10
305.4354420421052
 20
91.10284377357124
 30
0.0
  0
VERTEX
  5
8CD
  8
0
 10
305.9683099529477
 20
90.96547193824554
 30
0.0
  0
VERTEX
  5
8CE
  8
0
 10
306.517656338264
 20
90.93325733773224
 30
0.0
  0
VERTEX
  5
8CF
  8
0
 10
307.0629281239626
 20
91.00740523903387
 30
0.0
  0
VERTEX
  5
8D0
  8
0
 10
307.5837246817493
 20
91.18514149572854
 30
0.0
  0
VERTEX
  5
8D1
  8
0
 10
308.0605610918633
 20
91.45981633901785
 30
0.0
  0
VERTEX
  5
8D2
  8
0
 10
308.4755971457793
 20
91.82115317009975
 30
0.0
  0
VERTEX
  5
8D3
  8
0
 10
308.8133048141974
 20
92.25563304562672
 30
0.0
  0
VERTEX
  5
8D4
  8
0
 10
309.0610492078825
 20
92.74700047122997
 30
0.0
  0
VERTEX
  5
8D5
  8
0
 10
309.2095612954633
 20
93.27687157950893
 30
0.0
  0
VERTEX
  5
8D6
  8
0
 10
309.2532846920774
 20
93.82542193830464
 30
0.0
  0
VERTEX
  5
8D7
  8
0
 10
309.1905835442194
 20
94.37212825581311
 30
0.0
  0
VERTEX
  5
8D8
  8
0
 10
309.0238037330528
 20
94.89653623261512
 30
0.0
  0
VERTEX
  5
8D9
  8
0
 10
308.7591851063447
 20
95.3790258324466
 30
0.0
  0
SEQEND
  5
937
  8
0
  0
POLYLINE
  5
35D
  8
0
 66
     1
 10
0.0
 20
0.0
 30
0.0
  0
VERTEX
  5
8DA
  8
0
 10
285.8034145827894
 20
111.6308137229737
 30
0.0
  0
VERTEX
  5
8DB
  8
0
 10
285.3121755066291
 20
111.7170361495916
 30
0.0
  0
VERTEX
  5
8DC
  8
0
 10
284.8120350196625
 20
111.7018978445649
 30
0.0
  0
VERTEX
  5
8DD
  8
0
 10
284.3222132403218
 20
111.5859805644662
 30
0.0
  0
VERTEX
  5
8DE
  8
0
 10
283.8615337448917
 20
111.3737389453623
 30
0.0
  0
VERTEX
  5
8DF
  8
0
 10
283.4477001880297
 20
111.0733293136492
 30
0.0
  0
VERTEX
  5
8E0
  8
0
 10
283.0966159612454
 20
110.6962962430018
 30
0.0
  0
VERTEX
  5
8E1
  8
0
 10
282.8217730344838
 20
110.2571289028824
 30
0.0
  0
VERTEX
  5
8E2
  8
0
 10
282.6337334672867
 20
109.7727042478842
 30
0.0
  0
VERTEX
  5
8E3
  8
0
 10
282.5397235147676
 20
109.26163844583
 30
0.0
  0
VERTEX
  5
8E4
  8
0
 10
282.5433559266805
 20
108.7435714688839
 30
0.0
  0
VERTEX
  5
8E5
  8
0
 10
282.6444911114727
 20
108.2384123404346
 30
0.0
  0
VERTEX
  5
8E6
  8
0
 10
282.8392425007098
 20
107.765574042492
 30
0.0
  0
VERTEX
  5
8E7
  8
0
 10
283.1201259077213
 20
107.3432274856751
 30
0.0
  0
VERTEX
  5
8E8
  8
0
 10
283.476347140697
 20
106.9876032113077
 30
0.0
  0
VERTEX
  5
8E9
  8
0
 10
283.8942168174248
 20
106.7123676608175
 30
0.0
  0
VERTEX
  5
8EA
  8
0
 10
284.357676440572
 20
106.5280979820559
 30
0.0
  0
SEQEND
  5
938
  8
0
  0
CIRCLE
  5
35E
  8
0
 10
285.0048071202019
 20
109.176831408795
 30
0.0
 40
1.5
  0
POLYLINE
  5
363
  8
0
 66
     1
 10
0.0
 20
0.0
 30
0.0
  0
VERTEX
  5
8EB
  8
0
 10
326.3131742508288
 20
82.35222797621084
 30
0.0
  0
VERTEX
  5
8EC
  8
0
 10
340.6431431879601
 20
82.35518669795631
 30
0.0
  0
SEQEND
  5
939
  8
0
  0
POLYLINE
  5
364
  8
0
 66
     1
 10
0.0
 20
0.0
 30
0.0
  0
VERTEX
  5
8ED
  8
0
 10
326.3123096464511
 20
77.67706401777886
 30
0.0
  0
VERTEX
  5
8EE
  8
0
 10
340.6431431879601
 20
77.67403962119175
 30
0.0
  0
SEQEND
  5
93A
  8
0
  0
ARC
  5
365
  8
0
 10
339.7003639136402
 20
80.01461315957403
 30
0.0
 40
2.523314734364811
 50
291.9394970551292
 51
68.06050294487089
  0
ENDSEC
  0
EOF
